%TF.GenerationSoftware,KiCad,Pcbnew,10.0.5*%
%TF.CreationDate,2026-10-04T00:08:50+05:30*%
%TF.ProjectId,my devboard,6d792064-6576-4626-9f61-72642e6b6963,rev?*%
%TF.SameCoordinates,Original*%
%TF.FileFunction,Copper,L1,Top*%
%TF.FilePolarity,Positive*%
%FSLAX46Y46*%
G04 Gerber Fmt 4.6, Leading zero omitted, Abs format (unit mm)*
G04 Created by KiCad (PCBNEW 10.0.5) date 2026-10-04 00:08:50*
%MOMM*%
%LPD*%
G01*
G04 APERTURE LIST*
G04 Aperture macros list*
%AMRoundRect*
0 Rectangle with rounded corners*
0 $1 Rounding radius*
0 $2 $3 $4 $5 $6 $7 $8 $9 X,Y pos of 4 corners*
0 Add a 4 corners polygon primitive as box body*
4,1,4,$2,$3,$4,$5,$6,$7,$8,$9,$2,$3,0*
0 Add four circle primitives for the rounded corners*
1,1,$1+$1,$2,$3*
1,1,$1+$1,$4,$5*
1,1,$1+$1,$6,$7*
1,1,$1+$1,$8,$9*
0 Add four rect primitives between the rounded corners*
20,1,$1+$1,$2,$3,$4,$5,0*
20,1,$1+$1,$4,$5,$6,$7,0*
20,1,$1+$1,$6,$7,$8,$9,0*
20,1,$1+$1,$8,$9,$2,$3,0*%
G04 Aperture macros list end*
%TA.AperFunction,SMDPad,CuDef*%
%ADD10RoundRect,0.135000X0.135000X0.185000X-0.135000X0.185000X-0.135000X-0.185000X0.135000X-0.185000X0*%
%TD*%
%TA.AperFunction,SMDPad,CuDef*%
%ADD11RoundRect,0.135000X-0.185000X0.135000X-0.185000X-0.135000X0.185000X-0.135000X0.185000X0.135000X0*%
%TD*%
%TA.AperFunction,SMDPad,CuDef*%
%ADD12RoundRect,0.140000X0.170000X-0.140000X0.170000X0.140000X-0.170000X0.140000X-0.170000X-0.140000X0*%
%TD*%
%TA.AperFunction,SMDPad,CuDef*%
%ADD13RoundRect,0.140000X-0.140000X-0.170000X0.140000X-0.170000X0.140000X0.170000X-0.140000X0.170000X0*%
%TD*%
%TA.AperFunction,ComponentPad*%
%ADD14R,1.700000X1.700000*%
%TD*%
%TA.AperFunction,ComponentPad*%
%ADD15C,1.700000*%
%TD*%
%TA.AperFunction,SMDPad,CuDef*%
%ADD16RoundRect,0.140000X-0.170000X0.140000X-0.170000X-0.140000X0.170000X-0.140000X0.170000X0.140000X0*%
%TD*%
%TA.AperFunction,SMDPad,CuDef*%
%ADD17RoundRect,0.140000X0.140000X0.170000X-0.140000X0.170000X-0.140000X-0.170000X0.140000X-0.170000X0*%
%TD*%
%TA.AperFunction,SMDPad,CuDef*%
%ADD18RoundRect,0.050000X-0.387500X-0.050000X0.387500X-0.050000X0.387500X0.050000X-0.387500X0.050000X0*%
%TD*%
%TA.AperFunction,SMDPad,CuDef*%
%ADD19RoundRect,0.050000X-0.050000X-0.387500X0.050000X-0.387500X0.050000X0.387500X-0.050000X0.387500X0*%
%TD*%
%TA.AperFunction,HeatsinkPad*%
%ADD20R,3.200000X3.200000*%
%TD*%
%TA.AperFunction,SMDPad,CuDef*%
%ADD21RoundRect,0.225000X0.250000X-0.225000X0.250000X0.225000X-0.250000X0.225000X-0.250000X-0.225000X0*%
%TD*%
%TA.AperFunction,SMDPad,CuDef*%
%ADD22RoundRect,0.225000X0.225000X0.250000X-0.225000X0.250000X-0.225000X-0.250000X0.225000X-0.250000X0*%
%TD*%
%TA.AperFunction,SMDPad,CuDef*%
%ADD23RoundRect,0.250000X0.450000X0.350000X-0.450000X0.350000X-0.450000X-0.350000X0.450000X-0.350000X0*%
%TD*%
%TA.AperFunction,SMDPad,CuDef*%
%ADD24RoundRect,0.225000X-0.250000X0.225000X-0.250000X-0.225000X0.250000X-0.225000X0.250000X0.225000X0*%
%TD*%
%TA.AperFunction,SMDPad,CuDef*%
%ADD25RoundRect,0.140000X0.021213X-0.219203X0.219203X-0.021213X-0.021213X0.219203X-0.219203X0.021213X0*%
%TD*%
%TA.AperFunction,SMDPad,CuDef*%
%ADD26RoundRect,0.200000X0.800000X-0.200000X0.800000X0.200000X-0.800000X0.200000X-0.800000X-0.200000X0*%
%TD*%
%TA.AperFunction,SMDPad,CuDef*%
%ADD27RoundRect,0.150000X0.150000X0.575000X-0.150000X0.575000X-0.150000X-0.575000X0.150000X-0.575000X0*%
%TD*%
%TA.AperFunction,SMDPad,CuDef*%
%ADD28RoundRect,0.075000X0.075000X0.650000X-0.075000X0.650000X-0.075000X-0.650000X0.075000X-0.650000X0*%
%TD*%
%TA.AperFunction,ComponentPad*%
%ADD29O,1.000000X2.100000*%
%TD*%
%TA.AperFunction,ComponentPad*%
%ADD30O,1.000000X1.600000*%
%TD*%
%TA.AperFunction,SMDPad,CuDef*%
%ADD31RoundRect,0.062500X-0.387500X-0.062500X0.387500X-0.062500X0.387500X0.062500X-0.387500X0.062500X0*%
%TD*%
%TA.AperFunction,HeatsinkPad*%
%ADD32R,0.200000X1.600000*%
%TD*%
%TA.AperFunction,SMDPad,CuDef*%
%ADD33RoundRect,0.150000X0.150000X-0.587500X0.150000X0.587500X-0.150000X0.587500X-0.150000X-0.587500X0*%
%TD*%
%TA.AperFunction,ViaPad*%
%ADD34C,0.600000*%
%TD*%
%TA.AperFunction,Conductor*%
%ADD35C,0.200000*%
%TD*%
G04 APERTURE END LIST*
D10*
%TO.P,R5,2*%
%TO.N,XOUT*%
X118790000Y-90920000D03*
%TO.P,R5,1*%
%TO.N,Net-(C15-Pad2)*%
X119810000Y-90920000D03*
%TD*%
D11*
%TO.P,R4,1*%
%TO.N,USB_D+*%
X120200000Y-78980000D03*
%TO.P,R4,2*%
%TO.N,Net-(U1-USB_DP)*%
X120200000Y-80000000D03*
%TD*%
%TO.P,R2,1*%
%TO.N,Net-(J1-CC1)*%
X121000000Y-63990000D03*
%TO.P,R2,2*%
%TO.N,GND*%
X121000000Y-65010000D03*
%TD*%
D12*
%TO.P,C10,1*%
%TO.N,+1V1*%
X119000000Y-76480000D03*
%TO.P,C10,2*%
%TO.N,GND*%
X119000000Y-75520000D03*
%TD*%
%TO.P,C11,1*%
%TO.N,+1V1*%
X122300000Y-80330000D03*
%TO.P,C11,2*%
%TO.N,GND*%
X122300000Y-79370000D03*
%TD*%
D13*
%TO.P,C9,1*%
%TO.N,+3V3*%
X125040000Y-86300000D03*
%TO.P,C9,2*%
%TO.N,GND*%
X126000000Y-86300000D03*
%TD*%
D14*
%TO.P,J3,1,Pin_1_1*%
%TO.N,VBUS*%
X128390000Y-56870000D03*
D15*
%TO.P,J3,2,Pin_2_2*%
%TO.N,GPIO29_ADC3*%
X128390000Y-59410000D03*
%TO.P,J3,3,Pin_3_3*%
%TO.N,GND*%
X128390000Y-61950000D03*
%TO.P,J3,4,Pin_4_4*%
%TO.N,GPIO28_ADC2*%
X128390000Y-64490000D03*
%TO.P,J3,5,Pin_5_5*%
%TO.N,+3V3*%
X128390000Y-67030000D03*
%TO.P,J3,6,Pin_6_6*%
%TO.N,GPIO27_ADC1*%
X128390000Y-69570000D03*
%TO.P,J3,7,Pin_7_7*%
%TO.N,GPIO26_ADC0*%
X128390000Y-72110000D03*
%TO.P,J3,8,Pin_8_8*%
%TO.N,GND*%
X128390000Y-74650000D03*
%TO.P,J3,9,Pin_9_9*%
%TO.N,GPIO24*%
X128390000Y-77190000D03*
%TO.P,J3,10,Pin_10_10*%
%TO.N,GPIO23*%
X128390000Y-79730000D03*
%TO.P,J3,11,Pin_11_11*%
%TO.N,RUN*%
X128390000Y-82270000D03*
%TO.P,J3,12,Pin_12_12*%
%TO.N,GPIO22*%
X128390000Y-84810000D03*
%TO.P,J3,13,Pin_13_13*%
%TO.N,GND*%
X128390000Y-87350000D03*
%TO.P,J3,14,Pin_14_14*%
%TO.N,GPIO21*%
X128390000Y-89890000D03*
%TO.P,J3,15,Pin_15_15*%
%TO.N,GPIO20*%
X128390000Y-92430000D03*
%TO.P,J3,16,Pin_16_16*%
%TO.N,GPIO19*%
X128390000Y-94970000D03*
%TO.P,J3,17,Pin_17_17*%
%TO.N,GPIO18*%
X128390000Y-97510000D03*
%TO.P,J3,18,Pin_18_18*%
%TO.N,GND*%
X128390000Y-100050000D03*
%TO.P,J3,19,Pin_19_19*%
%TO.N,GPIO17*%
X128390000Y-102590000D03*
%TO.P,J3,20,Pin_20_20*%
%TO.N,GPIO16*%
X128390000Y-105130000D03*
%TD*%
D14*
%TO.P,J2,1,Pin_1_1*%
%TO.N,GPIO00*%
X110610000Y-56870000D03*
D15*
%TO.P,J2,2,Pin_2_2*%
%TO.N,GPIO01*%
X110610000Y-59410000D03*
%TO.P,J2,3,Pin_3_3*%
%TO.N,GND*%
X110610000Y-61950000D03*
%TO.P,J2,4,Pin_4_4*%
%TO.N,GPIO02*%
X110610000Y-64490000D03*
%TO.P,J2,5,Pin_5_5*%
%TO.N,GPIO03*%
X110610000Y-67030000D03*
%TO.P,J2,6,Pin_6_6*%
%TO.N,GPIO04*%
X110610000Y-69570000D03*
%TO.P,J2,7,Pin_7_7*%
%TO.N,GPIO05*%
X110610000Y-72110000D03*
%TO.P,J2,8,Pin_8_8*%
%TO.N,GND*%
X110610000Y-74650000D03*
%TO.P,J2,9,Pin_9_9*%
%TO.N,GPIO06*%
X110610000Y-77190000D03*
%TO.P,J2,10,Pin_10_10*%
%TO.N,GPIO07*%
X110610000Y-79730000D03*
%TO.P,J2,11,Pin_11_11*%
%TO.N,GPIO08*%
X110610000Y-82270000D03*
%TO.P,J2,12,Pin_12_12*%
%TO.N,GPIO09*%
X110610000Y-84810000D03*
%TO.P,J2,13,Pin_13_13*%
%TO.N,GND*%
X110610000Y-87350000D03*
%TO.P,J2,14,Pin_14_14*%
%TO.N,GPIO10*%
X110610000Y-89890000D03*
%TO.P,J2,15,Pin_15_15*%
%TO.N,GPIO11*%
X110610000Y-92430000D03*
%TO.P,J2,16,Pin_16_16*%
%TO.N,GPIO12*%
X110610000Y-94970000D03*
%TO.P,J2,17,Pin_17_17*%
%TO.N,GPIO13*%
X110610000Y-97510000D03*
%TO.P,J2,18,Pin_18_18*%
%TO.N,GND*%
X110610000Y-100050000D03*
%TO.P,J2,19,Pin_19_19*%
%TO.N,GPIO14*%
X110610000Y-102590000D03*
%TO.P,J2,20,Pin_20_20*%
%TO.N,GPIO15*%
X110610000Y-105130000D03*
%TD*%
D16*
%TO.P,C12,1*%
%TO.N,+1V1*%
X122900000Y-90220000D03*
%TO.P,C12,2*%
%TO.N,GND*%
X122900000Y-91180000D03*
%TD*%
D17*
%TO.P,C17,1*%
%TO.N,+3V3*%
X117480000Y-75000000D03*
%TO.P,C17,2*%
%TO.N,GND*%
X116520000Y-75000000D03*
%TD*%
%TO.P,C4,1*%
%TO.N,+3V3*%
X114960000Y-81470000D03*
%TO.P,C4,2*%
%TO.N,GND*%
X114000000Y-81470000D03*
%TD*%
D18*
%TO.P,U1,1,IOVDD_1*%
%TO.N,+3V3*%
X116062500Y-82400000D03*
%TO.P,U1,2,GPIO0_2*%
%TO.N,GPIO00*%
X116062500Y-82800000D03*
%TO.P,U1,3,GPIO1_3*%
%TO.N,GPIO01*%
X116062500Y-83200000D03*
%TO.P,U1,4,GPIO2_4*%
%TO.N,GPIO02*%
X116062500Y-83600000D03*
%TO.P,U1,5,GPIO3_5*%
%TO.N,GPIO03*%
X116062500Y-84000000D03*
%TO.P,U1,6,GPIO4_6*%
%TO.N,GPIO04*%
X116062500Y-84400000D03*
%TO.P,U1,7,GPIO5_7*%
%TO.N,GPIO05*%
X116062500Y-84800000D03*
%TO.P,U1,8,GPIO6_8*%
%TO.N,GPIO06*%
X116062500Y-85200000D03*
%TO.P,U1,9,GPIO7_9*%
%TO.N,GPIO07*%
X116062500Y-85600000D03*
%TO.P,U1,10,IOVDD_10*%
%TO.N,+3V3*%
X116062500Y-86000000D03*
%TO.P,U1,11,GPIO8_11*%
%TO.N,GPIO08*%
X116062500Y-86400000D03*
%TO.P,U1,12,GPIO9_12*%
%TO.N,GPIO09*%
X116062500Y-86800000D03*
%TO.P,U1,13,GPIO10_13*%
%TO.N,GPIO10*%
X116062500Y-87200000D03*
%TO.P,U1,14,GPIO11_14*%
%TO.N,GPIO11*%
X116062500Y-87600000D03*
D19*
%TO.P,U1,15,GPIO12_15*%
%TO.N,GPIO12*%
X116900000Y-88437500D03*
%TO.P,U1,16,GPIO13_16*%
%TO.N,GPIO13*%
X117300000Y-88437500D03*
%TO.P,U1,17,GPIO14_17*%
%TO.N,GPIO14*%
X117700000Y-88437500D03*
%TO.P,U1,18,GPIO15_18*%
%TO.N,GPIO15*%
X118100000Y-88437500D03*
%TO.P,U1,19,TESTEN_19*%
%TO.N,GND*%
X118500000Y-88437500D03*
%TO.P,U1,20,XIN_20*%
%TO.N,XIN*%
X118900000Y-88437500D03*
%TO.P,U1,21,XOUT_21*%
%TO.N,XOUT*%
X119300000Y-88437500D03*
%TO.P,U1,22,IOVDD_22*%
%TO.N,+3V3*%
X119700000Y-88437500D03*
%TO.P,U1,23,DVDD_23*%
%TO.N,+1V1*%
X120100000Y-88437500D03*
%TO.P,U1,24,SWCLK_24*%
%TO.N,SWCLK*%
X120500000Y-88437500D03*
%TO.P,U1,25,SWDIO_25*%
%TO.N,SWD*%
X120900000Y-88437500D03*
%TO.P,U1,26,RUN_26*%
%TO.N,RUN*%
X121300000Y-88437500D03*
%TO.P,U1,27,GPIO16_27*%
%TO.N,GPIO16*%
X121700000Y-88437500D03*
%TO.P,U1,28,GPIO17_28*%
%TO.N,GPIO17*%
X122100000Y-88437500D03*
D18*
%TO.P,U1,29,GPIO18_29*%
%TO.N,GPIO18*%
X122937500Y-87600000D03*
%TO.P,U1,30,GPIO19_30*%
%TO.N,GPIO19*%
X122937500Y-87200000D03*
%TO.P,U1,31,GPIO20_31*%
%TO.N,GPIO20*%
X122937500Y-86800000D03*
%TO.P,U1,32,GPIO21_32*%
%TO.N,GPIO21*%
X122937500Y-86400000D03*
%TO.P,U1,33,IOVDD_33*%
%TO.N,+3V3*%
X122937500Y-86000000D03*
%TO.P,U1,34,GPIO22_34*%
%TO.N,GPIO22*%
X122937500Y-85600000D03*
%TO.P,U1,35,GPIO23_35*%
%TO.N,GPIO23*%
X122937500Y-85200000D03*
%TO.P,U1,36,GPIO24_36*%
%TO.N,GPIO24*%
X122937500Y-84800000D03*
%TO.P,U1,37,GPIO25_37*%
%TO.N,unconnected-(U1-GPIO25-Pad37)*%
X122937500Y-84400000D03*
%TO.P,U1,38,GPIO26/ADC0_38*%
%TO.N,GPIO26_ADC0*%
X122937500Y-84000000D03*
%TO.P,U1,39,GPIO27/ADC1_39*%
%TO.N,GPIO27_ADC1*%
X122937500Y-83600000D03*
%TO.P,U1,40,GPIO28/ADC2_40*%
%TO.N,GPIO28_ADC2*%
X122937500Y-83200000D03*
%TO.P,U1,41,GPIO29/ADC3_41*%
%TO.N,GPIO29_ADC3*%
X122937500Y-82800000D03*
%TO.P,U1,42,IOVDD_42*%
%TO.N,+3V3*%
X122937500Y-82400000D03*
D19*
%TO.P,U1,43,ADC_AVDD_43*%
X122100000Y-81562500D03*
%TO.P,U1,44,VREG_VIN_44*%
X121700000Y-81562500D03*
%TO.P,U1,45,VREG_VOUT_45*%
%TO.N,+1V1*%
X121300000Y-81562500D03*
%TO.P,U1,46,USB_DM_46*%
%TO.N,Net-(U1-USB_DM)*%
X120900000Y-81562500D03*
%TO.P,U1,47,USB_DP_47*%
%TO.N,Net-(U1-USB_DP)*%
X120500000Y-81562500D03*
%TO.P,U1,48,USB_VDD_48*%
%TO.N,+3V3*%
X120100000Y-81562500D03*
%TO.P,U1,49,IOVDD_49*%
X119700000Y-81562500D03*
%TO.P,U1,50,DVDD_50*%
%TO.N,+1V1*%
X119300000Y-81562500D03*
%TO.P,U1,51,QSPI_SD3_51*%
%TO.N,QSPI_SD3*%
X118900000Y-81562500D03*
%TO.P,U1,52,QSPI_SCLK_52*%
%TO.N,QSPI_SCLK*%
X118500000Y-81562500D03*
%TO.P,U1,53,QSPI_SD0_53*%
%TO.N,QSPI_SD0*%
X118100000Y-81562500D03*
%TO.P,U1,54,QSPI_SD2_54*%
%TO.N,QSPI_SD2*%
X117700000Y-81562500D03*
%TO.P,U1,55,QSPI_SD1_55*%
%TO.N,QSPI_SD1*%
X117300000Y-81562500D03*
%TO.P,U1,56,~{QSPI_SS}_56*%
%TO.N,QSPI_SS*%
X116900000Y-81562500D03*
D20*
%TO.P,U1,57,GND_57*%
%TO.N,GND*%
X119500000Y-85000000D03*
%TD*%
D12*
%TO.P,C5,1*%
%TO.N,+3V3*%
X123300000Y-80380000D03*
%TO.P,C5,2*%
%TO.N,GND*%
X123300000Y-79420000D03*
%TD*%
D21*
%TO.P,C16,1*%
%TO.N,GND*%
X122800000Y-94745000D03*
%TO.P,C16,2*%
%TO.N,XIN*%
X122800000Y-93195000D03*
%TD*%
D11*
%TO.P,R1,1*%
%TO.N,Net-(J1-CC2)*%
X118500000Y-63990000D03*
%TO.P,R1,2*%
%TO.N,GND*%
X118500000Y-65010000D03*
%TD*%
D12*
%TO.P,C6,1*%
%TO.N,+3V3*%
X120000000Y-76480000D03*
%TO.P,C6,2*%
%TO.N,GND*%
X120000000Y-75520000D03*
%TD*%
D10*
%TO.P,R6,1*%
%TO.N,+3V3*%
X115000000Y-75000000D03*
%TO.P,R6,2*%
%TO.N,QSPI_SS*%
X113980000Y-75000000D03*
%TD*%
D22*
%TO.P,C14,1*%
%TO.N,VBUS*%
X116775000Y-65000000D03*
%TO.P,C14,2*%
%TO.N,GND*%
X115225000Y-65000000D03*
%TD*%
D23*
%TO.P,Y1,1,1_1*%
%TO.N,Net-(C15-Pad2)*%
X121000000Y-92420000D03*
%TO.P,Y1,2,G_2*%
%TO.N,GND*%
X118800000Y-92420000D03*
%TO.P,Y1,3,3_3*%
%TO.N,XIN*%
X118800000Y-94120000D03*
%TO.P,Y1,4,G_4*%
%TO.N,GND*%
X121000000Y-94120000D03*
%TD*%
D17*
%TO.P,C3,1*%
%TO.N,+3V3*%
X114480000Y-86100000D03*
%TO.P,C3,2*%
%TO.N,GND*%
X113520000Y-86100000D03*
%TD*%
D24*
%TO.P,C15,1*%
%TO.N,GND*%
X117000000Y-92645000D03*
%TO.P,C15,2*%
%TO.N,Net-(C15-Pad2)*%
X117000000Y-94195000D03*
%TD*%
D22*
%TO.P,C13,1*%
%TO.N,+3V3*%
X117775000Y-71000000D03*
%TO.P,C13,2*%
%TO.N,GND*%
X116225000Y-71000000D03*
%TD*%
D16*
%TO.P,C2,1*%
%TO.N,+3V3*%
X120800000Y-90040000D03*
%TO.P,C2,2*%
%TO.N,GND*%
X120800000Y-91000000D03*
%TD*%
D25*
%TO.P,C1,1*%
%TO.N,+3V3*%
X124500000Y-80339411D03*
%TO.P,C1,2*%
%TO.N,GND*%
X125178822Y-79660589D03*
%TD*%
D26*
%TO.P,SW1,1,1_1*%
%TO.N,GND*%
X123000000Y-71200000D03*
%TO.P,SW1,2,2_2*%
%TO.N,Net-(R7-Pad1)*%
X123000000Y-67000000D03*
%TD*%
D27*
%TO.P,J1,A1,GND_A1*%
%TO.N,GND*%
X122750000Y-62000000D03*
%TO.P,J1,A4,VBUS_A4*%
%TO.N,VBUS*%
X121950000Y-62000000D03*
D28*
%TO.P,J1,A5,CC1_A5*%
%TO.N,Net-(J1-CC1)*%
X120750000Y-62000000D03*
%TO.P,J1,A6,D+_A6*%
%TO.N,USB_D+*%
X119750000Y-62000000D03*
%TO.P,J1,A7,D-_A7*%
%TO.N,USB_D-*%
X119250000Y-62000000D03*
%TO.P,J1,A8*%
%TO.N,N/C*%
X118250000Y-62000000D03*
D27*
%TO.P,J1,A9,VBUS_A9*%
%TO.N,VBUS*%
X117050000Y-62000000D03*
%TO.P,J1,A12,GND_A12*%
%TO.N,GND*%
X116250000Y-62000000D03*
%TO.P,J1,B1,GND_B1*%
X116250000Y-62000000D03*
%TO.P,J1,B4,VBUS_B4*%
%TO.N,VBUS*%
X117050000Y-62000000D03*
D28*
%TO.P,J1,B5,CC2_B5*%
%TO.N,Net-(J1-CC2)*%
X117750000Y-62000000D03*
%TO.P,J1,B6,D+_B6*%
%TO.N,USB_D+*%
X118750000Y-62000000D03*
%TO.P,J1,B7,D-_B7*%
%TO.N,USB_D-*%
X120250000Y-62000000D03*
%TO.P,J1,B8*%
%TO.N,N/C*%
X121250000Y-62000000D03*
D27*
%TO.P,J1,B9,VBUS_B9*%
%TO.N,VBUS*%
X121950000Y-62000000D03*
%TO.P,J1,B12,GND_B12*%
%TO.N,GND*%
X122750000Y-62000000D03*
D29*
%TO.P,J1,SH,SHIELD_SH*%
X123820000Y-61085000D03*
D30*
X123820000Y-56905000D03*
D29*
X115180000Y-61085000D03*
D30*
X115180000Y-56905000D03*
%TD*%
D14*
%TO.P,J4,1,Pin_1_1*%
%TO.N,SWCLK*%
X117300000Y-104790000D03*
D15*
%TO.P,J4,2,Pin_2_2*%
%TO.N,GND*%
X119840000Y-104790000D03*
%TO.P,J4,3,Pin_3_3*%
%TO.N,SWD*%
X122380000Y-104790000D03*
%TD*%
D31*
%TO.P,U3,1,~{CS}_1*%
%TO.N,QSPI_SS*%
X114575000Y-76500000D03*
%TO.P,U3,2,DO/IO_{1}_2*%
%TO.N,QSPI_SD1*%
X114575000Y-77000000D03*
%TO.P,U3,3,~{WP}/IO_{2}_3*%
%TO.N,QSPI_SD2*%
X114575000Y-77500000D03*
%TO.P,U3,4,GND_4*%
%TO.N,GND*%
X114575000Y-78000000D03*
%TO.P,U3,5,DI/IO_{0}_5*%
%TO.N,QSPI_SD0*%
X117425000Y-78000000D03*
%TO.P,U3,6,CLK_6*%
%TO.N,QSPI_SCLK*%
X117425000Y-77500000D03*
%TO.P,U3,7,~{HOLD}/~{RESET}/IO_{3}_7*%
%TO.N,QSPI_SD3*%
X117425000Y-77000000D03*
%TO.P,U3,8,VCC_8*%
%TO.N,+3V3*%
X117425000Y-76500000D03*
D32*
%TO.P,U3,9*%
%TO.N,N/C*%
X116000000Y-77250000D03*
%TD*%
D33*
%TO.P,U2,1,GND_1*%
%TO.N,GND*%
X116050000Y-68937500D03*
%TO.P,U2,2,VO_2*%
%TO.N,+3V3*%
X117950000Y-68937500D03*
%TO.P,U2,3,VI_3*%
%TO.N,VBUS*%
X117000000Y-67062500D03*
%TD*%
D13*
%TO.P,C8,1*%
%TO.N,+3V3*%
X124020000Y-81500000D03*
%TO.P,C8,2*%
%TO.N,GND*%
X124980000Y-81500000D03*
%TD*%
D10*
%TO.P,R7,1*%
%TO.N,Net-(R7-Pad1)*%
X117510000Y-73000000D03*
%TO.P,R7,2*%
%TO.N,QSPI_SS*%
X116490000Y-73000000D03*
%TD*%
D11*
%TO.P,R3,1*%
%TO.N,USB_D-*%
X121300000Y-78980000D03*
%TO.P,R3,2*%
%TO.N,Net-(U1-USB_DM)*%
X121300000Y-80000000D03*
%TD*%
D12*
%TO.P,C7,1*%
%TO.N,+3V3*%
X121000000Y-76480000D03*
%TO.P,C7,2*%
%TO.N,GND*%
X121000000Y-75520000D03*
%TD*%
D34*
%TO.N,GND*%
X117000000Y-92645000D03*
X122800000Y-94745000D03*
X121144890Y-93520000D03*
%TO.N,XIN*%
X122998750Y-91960000D03*
%TO.N,GND*%
X113675735Y-98675735D03*
X125824265Y-99175735D03*
X125000000Y-57405000D03*
X115000000Y-70000000D03*
X115000000Y-73000000D03*
X113000000Y-73000000D03*
X118299999Y-89724906D03*
X118719622Y-92420000D03*
X118719622Y-98000000D03*
X121144890Y-96020000D03*
X123000000Y-98000000D03*
X122390235Y-91000000D03*
X116003137Y-75550000D03*
X112000000Y-85000000D03*
X114000000Y-80000000D03*
X122975811Y-78048569D03*
X125825735Y-73825735D03*
X118030113Y-91239718D03*
X118400000Y-75520000D03*
%TO.N,+1V1*%
X121000000Y-82899998D03*
X122803108Y-89223109D03*
%TO.N,+3V3*%
X122000000Y-76000003D03*
X122000000Y-86000000D03*
X118000000Y-82899998D03*
X120000000Y-78000000D03*
X119900000Y-82400000D03*
X123332462Y-77332465D03*
X124587721Y-76077205D03*
X119919622Y-89779652D03*
X119000000Y-74000000D03*
%TO.N,GPIO29_ADC3*%
X122000000Y-82800000D03*
%TO.N,GPIO28_ADC2*%
X123874899Y-82311131D03*
%TO.N,GPIO27_ADC1*%
X124824977Y-82309999D03*
%TO.N,RUN*%
X126000000Y-85000000D03*
X121600002Y-85000000D03*
%TO.N,GPIO19*%
X125000000Y-90000000D03*
X122005178Y-87473301D03*
%TO.N,GPIO16*%
X121903649Y-89355743D03*
%TO.N,GPIO00*%
X116970331Y-82969086D03*
%TO.N,GPIO01*%
X114400000Y-82227751D03*
%TO.N,GPIO02*%
X113600000Y-82422128D03*
%TO.N,GPIO03*%
X113947167Y-84017824D03*
%TO.N,GPIO07*%
X117000000Y-84000000D03*
%TO.N,GPIO08*%
X117000000Y-87000000D03*
%TO.N,GPIO15*%
X114000000Y-101000000D03*
X117961905Y-87113376D03*
%TO.N,SWCLK*%
X119319622Y-87500000D03*
%TO.N,SWD*%
X120700000Y-87255113D03*
%TO.N,Net-(R7-Pad1)*%
X120975735Y-65975735D03*
X118463235Y-72536765D03*
%TO.N,GND*%
X115722304Y-78602414D03*
X115723647Y-79264504D03*
X110610000Y-74650000D03*
X110610000Y-74650000D03*
%TD*%
%TO.N,XIN*%
D35*
X122000000Y-93995000D02*
X122000000Y-94704744D01*
X122800000Y-93195000D02*
X122000000Y-93995000D01*
%TO.N,GND*%
X121000000Y-93664890D02*
X121000000Y-94120000D01*
X121144890Y-93520000D02*
X121000000Y-93664890D01*
X121144890Y-99855110D02*
X121144890Y-100000000D01*
X121144890Y-100000000D02*
X121144890Y-96020000D01*
X123000000Y-98000000D02*
X121144890Y-99855110D01*
%TO.N,XIN*%
X122800000Y-92158750D02*
X122998750Y-91960000D01*
X122800000Y-93195000D02*
X122800000Y-92158750D01*
%TO.N,GPIO05*%
X112625000Y-74125000D02*
X110610000Y-72110000D01*
X112625000Y-78711443D02*
X112625000Y-74125000D01*
X112600000Y-78736443D02*
X112625000Y-78711443D01*
X112947167Y-84432039D02*
X112947167Y-83603610D01*
X112947167Y-83603610D02*
X112600000Y-83256443D01*
X112600000Y-83256443D02*
X112600000Y-78736443D01*
X113532953Y-85017824D02*
X112947167Y-84432039D01*
X114982176Y-85017824D02*
X113532953Y-85017824D01*
X115200000Y-84800000D02*
X114982176Y-85017824D01*
X116062500Y-84800000D02*
X115200000Y-84800000D01*
%TO.N,GPIO04*%
X114724673Y-84400000D02*
X116062500Y-84400000D01*
X114506849Y-84617824D02*
X114724673Y-84400000D01*
X113698638Y-84617824D02*
X114506849Y-84617824D01*
X113347167Y-84266353D02*
X113698638Y-84617824D01*
X113000000Y-79898529D02*
X113000000Y-83000000D01*
X113000000Y-83000000D02*
X113347167Y-83347167D01*
X112032843Y-72967157D02*
X113025000Y-73959314D01*
X113347167Y-83347167D02*
X113347167Y-84266353D01*
X112032843Y-70992843D02*
X112032843Y-72967157D01*
X113025000Y-73959314D02*
X113025000Y-79873529D01*
X110610000Y-69570000D02*
X112032843Y-70992843D01*
X113025000Y-79873529D02*
X113000000Y-79898529D01*
%TO.N,GND*%
X121269780Y-96020000D02*
X121144890Y-96020000D01*
X122800000Y-94489780D02*
X121269780Y-96020000D01*
X122800000Y-93970000D02*
X122800000Y-94489780D01*
X127340000Y-86300000D02*
X128390000Y-87350000D01*
X126000000Y-86300000D02*
X127340000Y-86300000D01*
X121000000Y-75520000D02*
X120000000Y-75520000D01*
X111984265Y-98675735D02*
X113675735Y-98675735D01*
X110610000Y-100050000D02*
X111984265Y-98675735D01*
X127515735Y-99175735D02*
X125824265Y-99175735D01*
X128390000Y-100050000D02*
X127515735Y-99175735D01*
X124500000Y-56905000D02*
X125000000Y-57405000D01*
X123820000Y-56905000D02*
X124500000Y-56905000D01*
X115225000Y-69775000D02*
X115000000Y-70000000D01*
X115225000Y-65000000D02*
X115225000Y-69775000D01*
%TO.N,SWCLK*%
X120500000Y-87903640D02*
X120500000Y-88437500D01*
X120096360Y-87500000D02*
X120500000Y-87903640D01*
X119319622Y-87500000D02*
X120096360Y-87500000D01*
%TO.N,GND*%
X123820000Y-56905000D02*
X115180000Y-56905000D01*
X116250000Y-62000000D02*
X112225000Y-62000000D01*
X112225000Y-62000000D02*
X112175000Y-61950000D01*
X127080000Y-63260000D02*
X122750000Y-63260000D01*
X128390000Y-61950000D02*
X127080000Y-63260000D01*
X122750000Y-63260000D02*
X121000000Y-65010000D01*
X122750000Y-62000000D02*
X122750000Y-63260000D01*
X112175000Y-61950000D02*
X110610000Y-61950000D01*
X115225000Y-65000000D02*
X112225000Y-62000000D01*
%TO.N,QSPI_SS*%
X116607429Y-81562500D02*
X116900000Y-81562500D01*
X115022465Y-79977535D02*
X116607429Y-81562500D01*
X115022465Y-79977535D02*
X113425000Y-78380071D01*
%TO.N,QSPI_SD1*%
X113825000Y-78214386D02*
X113825000Y-77285614D01*
X115610615Y-80000000D02*
X113825000Y-78214386D01*
X113825000Y-77285614D02*
X114110614Y-77000000D01*
X116271360Y-80000000D02*
X115610615Y-80000000D01*
X117300000Y-81028640D02*
X116271360Y-80000000D01*
X114110614Y-77000000D02*
X114575000Y-77000000D01*
X117300000Y-81562500D02*
X117300000Y-81028640D01*
%TO.N,GND*%
X115722304Y-79263161D02*
X115723647Y-79264504D01*
X115722304Y-78602414D02*
X115722304Y-79263161D01*
%TO.N,QSPI_SS*%
X114044928Y-76500000D02*
X114575000Y-76500000D01*
X113425000Y-77119928D02*
X114044928Y-76500000D01*
X113425000Y-78380071D02*
X113425000Y-77119928D01*
%TO.N,GND*%
X114000000Y-80000000D02*
X114000000Y-81470000D01*
X115000000Y-73000000D02*
X113000000Y-73000000D01*
X118500000Y-89524905D02*
X118500000Y-88437500D01*
X118299999Y-89724906D02*
X118500000Y-89524905D01*
%TO.N,XIN*%
X118900000Y-88971360D02*
X118900000Y-88437500D01*
X118900000Y-90100000D02*
X118900000Y-88971360D01*
X118700000Y-90300000D02*
X118900000Y-90100000D01*
X118220000Y-90551076D02*
X118471076Y-90300000D01*
X118220000Y-90639718D02*
X118220000Y-90551076D01*
X117430113Y-90991189D02*
X117781584Y-90639718D01*
X117430113Y-91488247D02*
X117430113Y-90991189D01*
X118471076Y-90300000D02*
X118700000Y-90300000D01*
X116526304Y-91895000D02*
X117105000Y-91895000D01*
X117470933Y-91529067D02*
X117430113Y-91488247D01*
X116225000Y-92196304D02*
X116526304Y-91895000D01*
X117781584Y-90639718D02*
X118220000Y-90639718D01*
X116225000Y-93093696D02*
X116225000Y-92196304D01*
X117105000Y-91895000D02*
X117470933Y-91529067D01*
%TO.N,GND*%
X120699622Y-96020000D02*
X118719622Y-98000000D01*
X121144890Y-96020000D02*
X120699622Y-96020000D01*
X121000000Y-91000000D02*
X122390235Y-91000000D01*
X122820000Y-91180000D02*
X123000000Y-91000000D01*
X122600000Y-91180000D02*
X122820000Y-91180000D01*
X122420000Y-91000000D02*
X122600000Y-91180000D01*
X120760000Y-91000000D02*
X122420000Y-91000000D01*
%TO.N,USB_D+*%
X119775000Y-63112501D02*
X119775000Y-71093198D01*
X119750000Y-63087501D02*
X119775000Y-63112501D01*
X118750000Y-62757410D02*
X119017590Y-63025000D01*
X123840901Y-75339099D02*
X120200000Y-78980000D01*
X119775000Y-71093198D02*
X123840901Y-75159099D01*
X118750000Y-62000000D02*
X118750000Y-62757410D01*
X119017590Y-63025000D02*
X119482410Y-63025000D01*
X119750000Y-62000000D02*
X119750000Y-63087501D01*
X123840901Y-75159099D02*
X123840901Y-75339099D01*
X119750000Y-62757410D02*
X119750000Y-62000000D01*
X119482410Y-63025000D02*
X119750000Y-62757410D01*
%TO.N,Net-(U1-USB_DP)*%
X120200000Y-80360000D02*
X120200000Y-80000000D01*
X120500000Y-80660000D02*
X120500000Y-81562500D01*
X120500000Y-80660000D02*
X120200000Y-80360000D01*
%TO.N,Net-(J1-CC1)*%
X120750000Y-63740000D02*
X120750000Y-62000000D01*
X121000000Y-63990000D02*
X120750000Y-63740000D01*
%TO.N,GND*%
X115576114Y-78602414D02*
X115722304Y-78602414D01*
X125178822Y-81301178D02*
X124980000Y-81500000D01*
X113520000Y-86100000D02*
X113100000Y-86100000D01*
X125440769Y-74210701D02*
X125825735Y-73825735D01*
X125440769Y-79398642D02*
X125440769Y-74210701D01*
X125178822Y-79660589D02*
X125178822Y-81301178D01*
X118800000Y-92420000D02*
X118800000Y-92009605D01*
X113100000Y-86100000D02*
X112000000Y-85000000D01*
X118800000Y-92009605D02*
X118030113Y-91239718D01*
X128390000Y-74610000D02*
X128390000Y-74650000D01*
X114575000Y-78000000D02*
X114973700Y-78000000D01*
X116520000Y-75000000D02*
X116000000Y-75000000D01*
X116000000Y-75000000D02*
X116000000Y-75546863D01*
X119000000Y-75520000D02*
X118400000Y-75520000D01*
X123300000Y-79420000D02*
X123300000Y-78372758D01*
X128390000Y-74610000D02*
X129000000Y-74000000D01*
X114973700Y-78000000D02*
X115576114Y-78602414D01*
X125178822Y-79660589D02*
X125440769Y-79398642D01*
X116000000Y-75546863D02*
X116003137Y-75550000D01*
X123300000Y-78372758D02*
X122975811Y-78048569D01*
%TO.N,+1V1*%
X121300000Y-81020001D02*
X121990001Y-80330000D01*
X119000000Y-83000000D02*
X119300000Y-82700000D01*
X121300000Y-82948529D02*
X121300000Y-81562500D01*
X119300000Y-76780000D02*
X119300000Y-81562500D01*
X121919377Y-90220000D02*
X120874377Y-89175000D01*
X121000000Y-82899998D02*
X120899998Y-83000000D01*
X122600000Y-89426217D02*
X122803108Y-89223109D01*
X120899998Y-83000000D02*
X119000000Y-83000000D01*
X122600000Y-90220000D02*
X122600000Y-89426217D01*
X119000000Y-76480000D02*
X119300000Y-76780000D01*
X121300000Y-81562500D02*
X121300000Y-81020001D01*
X121990001Y-80330000D02*
X122300000Y-80330000D01*
X120874377Y-89175000D02*
X120303640Y-89175000D01*
X120303640Y-89175000D02*
X120100000Y-88971360D01*
X119300000Y-82700000D02*
X119300000Y-81562500D01*
X121000000Y-82899998D02*
X121251469Y-82899998D01*
X120100000Y-88971360D02*
X120100000Y-88437500D01*
%TO.N,+3V3*%
X123300000Y-80380000D02*
X124459411Y-80380000D01*
X116062500Y-86000000D02*
X117000000Y-86000000D01*
X120179970Y-90040000D02*
X119919622Y-89779652D01*
X124000000Y-79680000D02*
X124000000Y-78976741D01*
X115610000Y-74390000D02*
X116870000Y-74390000D01*
X117800002Y-82899998D02*
X118000000Y-82899998D01*
X121610000Y-74835000D02*
X121610000Y-75870000D01*
X118000000Y-82899998D02*
X117400002Y-82300000D01*
X125000000Y-77000000D02*
X123664927Y-77000000D01*
X119700000Y-81562500D02*
X119700000Y-82200000D01*
X122937500Y-86000000D02*
X124740000Y-86000000D01*
X117775000Y-71000000D02*
X121610000Y-74835000D01*
X117480000Y-75000000D02*
X117480000Y-76445000D01*
X119000000Y-74000000D02*
X118480000Y-74000000D01*
X119700000Y-89560030D02*
X119700000Y-88437500D01*
X124000000Y-78976741D02*
X125000000Y-77976741D01*
X122100000Y-81562500D02*
X121700000Y-81562500D01*
X125000000Y-77976741D02*
X125000000Y-77000000D01*
X121869997Y-75870000D02*
X122000000Y-76000003D01*
X116870000Y-74390000D02*
X117480000Y-75000000D01*
X120100000Y-81562500D02*
X120100000Y-82200000D01*
X123300000Y-80380000D02*
X124000000Y-79680000D01*
X121610000Y-75870000D02*
X121000000Y-76480000D01*
X117950000Y-68937500D02*
X117775000Y-69112500D01*
X124500000Y-81020000D02*
X124020000Y-81500000D01*
X114480000Y-86000000D02*
X116062500Y-86000000D01*
X123664927Y-77000000D02*
X123332462Y-77332465D01*
X117600000Y-85400000D02*
X117600000Y-83100000D01*
X117775000Y-69112500D02*
X117775000Y-71000000D01*
X124020000Y-81500000D02*
X123837500Y-81500000D01*
X124587721Y-76077205D02*
X123332462Y-77332465D01*
X124500000Y-80339411D02*
X124500000Y-81020000D01*
X123340589Y-80339411D02*
X123300000Y-80380000D01*
X115890000Y-82400000D02*
X114960000Y-81470000D01*
X116062500Y-82400000D02*
X115890000Y-82400000D01*
X123837500Y-81500000D02*
X122937500Y-82400000D01*
X117000000Y-86000000D02*
X117600000Y-85400000D01*
X119700000Y-82200000D02*
X119900000Y-82400000D01*
X116600000Y-82400000D02*
X116062500Y-82400000D01*
X120000000Y-76480000D02*
X120000000Y-78000000D01*
X122100000Y-81562500D02*
X122117500Y-81562500D01*
X122937500Y-86000000D02*
X122000000Y-86000000D01*
X124459411Y-80380000D02*
X124500000Y-80339411D01*
X119919622Y-89779652D02*
X119700000Y-89560030D01*
X116700000Y-82300000D02*
X117400002Y-82300000D01*
X120100000Y-82200000D02*
X119900000Y-82400000D01*
X117480000Y-76445000D02*
X117425000Y-76500000D01*
X118480000Y-74000000D02*
X117480000Y-75000000D01*
X120000000Y-76480000D02*
X121000000Y-76480000D01*
X117600000Y-83100000D02*
X117800002Y-82899998D01*
X120760000Y-90040000D02*
X120179970Y-90040000D01*
X116600000Y-82400000D02*
X116700000Y-82300000D01*
X121610000Y-75870000D02*
X121869997Y-75870000D01*
X124740000Y-86000000D02*
X125040000Y-86300000D01*
X115000000Y-75000000D02*
X115610000Y-74390000D01*
X122117500Y-81562500D02*
X123300000Y-80380000D01*
X124500000Y-80339411D02*
X123340589Y-80339411D01*
%TO.N,VBUS*%
X117000000Y-65225000D02*
X116775000Y-65000000D01*
X121715000Y-60275406D02*
X121715000Y-61765000D01*
X117000000Y-67062500D02*
X117000000Y-65225000D01*
X121715000Y-61765000D02*
X121950000Y-62000000D01*
X116775000Y-65000000D02*
X117050000Y-64725000D01*
X121950000Y-62000000D02*
X121950000Y-61275001D01*
X117050000Y-61275001D02*
X117050000Y-62000000D01*
X123985406Y-58005000D02*
X121715000Y-60275406D01*
X121950000Y-61275001D02*
X120674999Y-60000000D01*
X118325001Y-60000000D02*
X117050000Y-61275001D01*
X128390000Y-56870000D02*
X127255000Y-58005000D01*
X120674999Y-60000000D02*
X118325001Y-60000000D01*
X127255000Y-58005000D02*
X123985406Y-58005000D01*
X117050000Y-64725000D02*
X117050000Y-62000000D01*
%TO.N,GPIO29_ADC3*%
X122000000Y-82800000D02*
X122937500Y-82800000D01*
%TO.N,GPIO28_ADC2*%
X123874899Y-82796461D02*
X123471360Y-83200000D01*
X123471360Y-83200000D02*
X122937500Y-83200000D01*
X123874899Y-82311131D02*
X123874899Y-82796461D01*
%TO.N,GPIO27_ADC1*%
X124824977Y-82309999D02*
X124824977Y-82412068D01*
X123637045Y-83600000D02*
X122937500Y-83600000D01*
X124824977Y-82412068D02*
X123637045Y-83600000D01*
%TO.N,GPIO26_ADC0*%
X125840769Y-74659231D02*
X125840769Y-82159231D01*
X125840769Y-82159231D02*
X124000000Y-84000000D01*
X128390000Y-72110000D02*
X125840769Y-74659231D01*
X124000000Y-84000000D02*
X122937500Y-84000000D01*
%TO.N,GPIO24*%
X126240769Y-83343097D02*
X124783866Y-84800000D01*
X126240769Y-79339231D02*
X126240769Y-83343097D01*
X128390000Y-77190000D02*
X126240769Y-79339231D01*
X124783866Y-84800000D02*
X122937500Y-84800000D01*
%TO.N,GPIO23*%
X126640769Y-81479231D02*
X126640769Y-83508783D01*
X124949552Y-85200000D02*
X122937500Y-85200000D01*
X126640769Y-83508783D02*
X124949552Y-85200000D01*
X128390000Y-79730000D02*
X126640769Y-81479231D01*
%TO.N,RUN*%
X128390000Y-82610000D02*
X126000000Y-85000000D01*
X121300000Y-88437500D02*
X121300000Y-87000000D01*
X121400000Y-85200002D02*
X121600002Y-85000000D01*
X121300000Y-87000000D02*
X121400000Y-86900000D01*
X121400000Y-86900000D02*
X121400000Y-85200002D01*
X128390000Y-82270000D02*
X128390000Y-82610000D01*
%TO.N,GPIO22*%
X122937500Y-85600000D02*
X127600000Y-85600000D01*
X127600000Y-85600000D02*
X128390000Y-84810000D01*
%TO.N,GPIO21*%
X127187919Y-89890000D02*
X123697919Y-86400000D01*
X123697919Y-86400000D02*
X122937500Y-86400000D01*
X128390000Y-89890000D02*
X127187919Y-89890000D01*
%TO.N,GPIO20*%
X128390000Y-91718640D02*
X123471360Y-86800000D01*
X128390000Y-92430000D02*
X128390000Y-91718640D01*
X123471360Y-86800000D02*
X122937500Y-86800000D01*
%TO.N,GPIO19*%
X128390000Y-94970000D02*
X125000000Y-91580000D01*
X122278479Y-87200000D02*
X122937500Y-87200000D01*
X122005178Y-87473301D02*
X122278479Y-87200000D01*
X125000000Y-91580000D02*
X125000000Y-90000000D01*
%TO.N,GPIO18*%
X128390000Y-97930000D02*
X124000000Y-93540000D01*
X124000000Y-88662500D02*
X122937500Y-87600000D01*
X124000000Y-93540000D02*
X124000000Y-88662500D01*
%TO.N,GPIO17*%
X123600000Y-89171471D02*
X122866029Y-88437500D01*
X128390000Y-102590000D02*
X123600000Y-97800000D01*
X122866029Y-88437500D02*
X122100000Y-88437500D01*
X123600000Y-97800000D02*
X123600000Y-89171471D01*
%TO.N,GPIO16*%
X121903649Y-89355743D02*
X121700000Y-89152094D01*
X121700000Y-89152094D02*
X121700000Y-88857500D01*
%TO.N,GPIO00*%
X116970331Y-82895164D02*
X116875167Y-82800000D01*
X116875167Y-82800000D02*
X116062500Y-82800000D01*
X116970331Y-82969086D02*
X116970331Y-82895164D01*
%TO.N,GPIO01*%
X114865347Y-83200000D02*
X116062500Y-83200000D01*
X114400000Y-82734653D02*
X114400000Y-82227751D01*
X114400000Y-82734653D02*
X114865347Y-83200000D01*
%TO.N,GPIO02*%
X113600000Y-82822128D02*
X114385587Y-83607715D01*
X113600000Y-82422128D02*
X113577872Y-82422128D01*
X114385587Y-83607715D02*
X114393302Y-83600000D01*
X114393302Y-83600000D02*
X116062500Y-83600000D01*
X113600000Y-82422128D02*
X113600000Y-82822128D01*
%TO.N,GPIO03*%
X116062500Y-84000000D02*
X114558988Y-84000000D01*
X114541164Y-84017824D02*
X113947167Y-84017824D01*
X114558988Y-84000000D02*
X114541164Y-84017824D01*
%TO.N,GPIO06*%
X115365685Y-85200000D02*
X116062500Y-85200000D01*
X115147862Y-85417824D02*
X115365685Y-85200000D01*
X112200000Y-78780000D02*
X112200000Y-84250558D01*
X112200000Y-84250558D02*
X112974721Y-85025279D01*
X113367268Y-85417824D02*
X115147862Y-85417824D01*
X110610000Y-77190000D02*
X112200000Y-78780000D01*
X112974721Y-85025279D02*
X113367268Y-85417824D01*
%TO.N,GPIO07*%
X117000000Y-85196360D02*
X116596360Y-85600000D01*
X117000000Y-84000000D02*
X117000000Y-85196360D01*
X116596360Y-85600000D02*
X116062500Y-85600000D01*
%TO.N,GPIO08*%
X117000000Y-87000000D02*
X117000000Y-86620044D01*
X116779956Y-86400000D02*
X116062500Y-86400000D01*
X117000000Y-86620044D02*
X116779956Y-86400000D01*
%TO.N,GPIO09*%
X110610000Y-84810000D02*
X112600000Y-86800000D01*
X112600000Y-86800000D02*
X116062500Y-86800000D01*
%TO.N,GPIO10*%
X110610000Y-89890000D02*
X113300000Y-87200000D01*
X113300000Y-87200000D02*
X116062500Y-87200000D01*
%TO.N,GPIO11*%
X110610000Y-92430000D02*
X115440000Y-87600000D01*
X115440000Y-87600000D02*
X116062500Y-87600000D01*
%TO.N,GPIO12*%
X110610000Y-94970000D02*
X116900000Y-88680000D01*
X116900000Y-88680000D02*
X116900000Y-88437500D01*
%TO.N,GPIO13*%
X110610000Y-97510000D02*
X111760000Y-96360000D01*
X111760000Y-96360000D02*
X111760000Y-95240000D01*
X117300000Y-89700000D02*
X117300000Y-88437500D01*
X111760000Y-95240000D02*
X117300000Y-89700000D01*
%TO.N,GPIO14*%
X117700000Y-90148530D02*
X115424265Y-92424265D01*
X115424265Y-97775735D02*
X115424265Y-92424265D01*
X110610000Y-102590000D02*
X115424265Y-97775735D01*
%TO.N,GPIO15*%
X118100000Y-88437500D02*
X118100000Y-87251471D01*
X118100000Y-87251471D02*
X117961905Y-87113376D01*
X110610000Y-105130000D02*
X114000000Y-101740000D01*
X114000000Y-101740000D02*
X114000000Y-101000000D01*
%TO.N,XIN*%
X121284744Y-95420000D02*
X117001304Y-95420000D01*
X122000000Y-94704744D02*
X121284744Y-95420000D01*
X116225000Y-93143696D02*
X116225000Y-93093696D01*
X116225000Y-94643696D02*
X116225000Y-93093696D01*
X116526304Y-93445000D02*
X116225000Y-93143696D01*
X118125000Y-93445000D02*
X116526304Y-93445000D01*
X118800000Y-94120000D02*
X118125000Y-93445000D01*
X117001304Y-95420000D02*
X116225000Y-94643696D01*
%TO.N,XOUT*%
X119300000Y-90410000D02*
X119300000Y-88437500D01*
X118790000Y-90920000D02*
X119300000Y-90410000D01*
%TO.N,SWD*%
X120700003Y-87255113D02*
X120900000Y-87455110D01*
X120900000Y-87455110D02*
X120900000Y-88437500D01*
X120700000Y-87255113D02*
X120700003Y-87255113D01*
%TO.N,Net-(U1-USB_DM)*%
X120900000Y-81562500D02*
X120900000Y-80400000D01*
X120900000Y-80400000D02*
X121300000Y-80000000D01*
%TO.N,QSPI_SD3*%
X117955071Y-77000000D02*
X118900000Y-77944929D01*
X118900000Y-77944929D02*
X118900000Y-81562500D01*
X117425000Y-77000000D02*
X117955071Y-77000000D01*
%TO.N,QSPI_SCLK*%
X117425000Y-77500000D02*
X117889386Y-77500000D01*
X117889386Y-77500000D02*
X118500000Y-78110614D01*
X118500000Y-78110614D02*
X118500000Y-81562500D01*
%TO.N,QSPI_SD0*%
X117425000Y-78000000D02*
X118100000Y-78675000D01*
X118100000Y-78675000D02*
X118100000Y-81562500D01*
%TO.N,QSPI_SD2*%
X116400000Y-76150000D02*
X115600000Y-76150000D01*
X114575000Y-77500000D02*
X115039386Y-77500000D01*
X115600000Y-77089386D02*
X115189386Y-77500000D01*
X115189386Y-77500000D02*
X114575000Y-77500000D01*
X117700000Y-81562500D02*
X117700000Y-79650000D01*
X115600000Y-76150000D02*
X115600000Y-77089386D01*
X116400000Y-78350000D02*
X116400000Y-76150000D01*
X117700000Y-79650000D02*
X116400000Y-78350000D01*
%TO.N,QSPI_SD1*%
X114575000Y-77000000D02*
X115039386Y-77000000D01*
%TO.N,QSPI_SS*%
X114575000Y-75595000D02*
X113980000Y-75000000D01*
X115980000Y-73000000D02*
X113980000Y-75000000D01*
X114575000Y-76500000D02*
X114575000Y-75595000D01*
X116490000Y-73000000D02*
X115980000Y-73000000D01*
%TO.N,Net-(J1-CC2)*%
X118500000Y-63990000D02*
X117750000Y-63240000D01*
X117750000Y-63240000D02*
X117750000Y-62000000D01*
%TO.N,Net-(C15-Pad2)*%
X119484744Y-95020000D02*
X117825000Y-95020000D01*
X117825000Y-95020000D02*
X117000000Y-94195000D01*
X120020000Y-91130000D02*
X119810000Y-90920000D01*
X121000000Y-92420000D02*
X119800000Y-93620000D01*
X119800000Y-93620000D02*
X119800000Y-94704744D01*
X119800000Y-94704744D02*
X119484744Y-95020000D01*
X120020000Y-91440000D02*
X120020000Y-91130000D01*
X120020000Y-91440000D02*
X121000000Y-92420000D01*
%TO.N,Net-(R7-Pad1)*%
X118000000Y-73000000D02*
X118463235Y-72536765D01*
X117510000Y-73000000D02*
X118000000Y-73000000D01*
X122000000Y-67000000D02*
X123000000Y-67000000D01*
X120975735Y-65975735D02*
X122000000Y-67000000D01*
%TO.N,USB_D-*%
X119982410Y-60975000D02*
X120250000Y-61242590D01*
X119250000Y-61242590D02*
X119517590Y-60975000D01*
X124240901Y-75575496D02*
X124240901Y-74922703D01*
X124240901Y-74922703D02*
X120225000Y-70906802D01*
X120250000Y-61242590D02*
X120250000Y-62000000D01*
X119250000Y-62000000D02*
X119250000Y-61242590D01*
X120225000Y-63112501D02*
X120250000Y-63087501D01*
X121300000Y-78980000D02*
X121300000Y-78516397D01*
X121300000Y-78516397D02*
X124240901Y-75575496D01*
X120250000Y-63087501D02*
X120250000Y-62000000D01*
X119517590Y-60975000D02*
X119982410Y-60975000D01*
X120225000Y-70906802D02*
X120225000Y-63112501D01*
%TO.N,+1V1*%
X122600000Y-90220000D02*
X121919377Y-90220000D01*
%TO.N,GPIO14*%
X117700000Y-88437500D02*
X117700000Y-90148530D01*
%TO.N,QSPI_SS*%
X115444929Y-80400000D02*
X115022465Y-79977535D01*
%TO.N,GND*%
X117000000Y-92645000D02*
X118575000Y-92645000D01*
X118575000Y-92645000D02*
X118800000Y-92420000D01*
X122800000Y-97800000D02*
X123000000Y-98000000D01*
X122800000Y-94745000D02*
X122800000Y-97800000D01*
X110610000Y-74650000D02*
X112000000Y-76040000D01*
X112000000Y-76040000D02*
X112000000Y-77000000D01*
%TD*%
%TA.AperFunction,Conductor*%
%TO.N,GND*%
G36*
X116816793Y-95660460D02*
G01*
X116816795Y-95660461D01*
X116816796Y-95660462D01*
X116859046Y-95684855D01*
X116885316Y-95700022D01*
X116961742Y-95720500D01*
X116961744Y-95720500D01*
X117000000Y-95720500D01*
X117000000Y-96000000D01*
X116000000Y-96000000D01*
X116000000Y-94843667D01*
X116816793Y-95660460D01*
G37*
%TD.AperFunction*%
%TA.AperFunction,Conductor*%
G36*
X123028326Y-94766674D02*
G01*
X123050000Y-94819000D01*
X123050000Y-95694999D01*
X123098307Y-95694999D01*
X123098312Y-95694998D01*
X123197603Y-95684855D01*
X123202216Y-95683327D01*
X123258704Y-95687437D01*
X123295742Y-95730285D01*
X123299500Y-95753569D01*
X123299500Y-96000000D01*
X117000000Y-96000000D01*
X118677000Y-95720500D01*
X121324308Y-95720500D01*
X121324308Y-95720499D01*
X121400733Y-95700021D01*
X121469255Y-95660460D01*
X121525204Y-95604511D01*
X121808078Y-95321636D01*
X121860401Y-95299964D01*
X121912727Y-95321638D01*
X121923383Y-95335115D01*
X121977425Y-95422730D01*
X122097268Y-95542573D01*
X122241517Y-95631547D01*
X122402391Y-95684855D01*
X122501689Y-95694999D01*
X122549999Y-95694998D01*
X122550000Y-95694998D01*
X122550000Y-94819000D01*
X122571674Y-94766674D01*
X122624000Y-94745000D01*
X122976000Y-94745000D01*
X123028326Y-94766674D01*
G37*
%TD.AperFunction*%
%TA.AperFunction,Conductor*%
G36*
X124000000Y-94411764D02*
G01*
X124000000Y-96000000D01*
X123900500Y-96000000D01*
X123900500Y-94359088D01*
X124000000Y-94411764D01*
G37*
%TD.AperFunction*%
%TA.AperFunction,Conductor*%
G36*
X121662885Y-91667208D02*
G01*
X121762162Y-91740477D01*
X121662883Y-91667207D01*
X121662885Y-91667208D01*
G37*
%TD.AperFunction*%
%TD*%
%TA.AperFunction,Conductor*%
%TO.N,GND*%
G36*
X122416871Y-92560282D02*
G01*
X122416870Y-92560282D01*
X122416872Y-92560281D01*
X122416874Y-92560281D01*
X122416871Y-92560282D01*
G37*
%TD.AperFunction*%
%TA.AperFunction,Conductor*%
G36*
X122506242Y-92055721D02*
G01*
X122498250Y-92025895D01*
X122498250Y-92025892D01*
X122506242Y-92055721D01*
G37*
%TD.AperFunction*%
%TA.AperFunction,Conductor*%
G36*
X121772150Y-91747849D02*
G01*
X121772152Y-91747852D01*
X121772146Y-91747846D01*
X121772150Y-91747849D01*
G37*
%TD.AperFunction*%
%TA.AperFunction,Conductor*%
G36*
X121662881Y-91667206D02*
G01*
X121662883Y-91667207D01*
X121662885Y-91667208D01*
X121662878Y-91667205D01*
X121662881Y-91667206D01*
G37*
%TD.AperFunction*%
%TA.AperFunction,Conductor*%
G36*
X121662876Y-91667204D02*
G01*
X121662878Y-91667205D01*
X121534704Y-91622355D01*
X121662876Y-91667204D01*
G37*
%TD.AperFunction*%
%TA.AperFunction,Conductor*%
G36*
X121534702Y-91622354D02*
G01*
X121534700Y-91622354D01*
X121534699Y-91622354D01*
X121534698Y-91622353D01*
X121534702Y-91622354D01*
G37*
%TD.AperFunction*%
%TA.AperFunction,Conductor*%
G36*
X121473548Y-91595957D02*
G01*
X121475532Y-91602389D01*
X121508688Y-91619914D01*
X121504266Y-91619500D01*
X121504260Y-91619500D01*
X120655123Y-91619500D01*
X120602797Y-91597826D01*
X120591801Y-91586830D01*
X121473548Y-91595957D01*
G37*
%TD.AperFunction*%
%TD*%
%TA.AperFunction,Conductor*%
%TO.N,GND*%
G36*
X117000000Y-96000000D02*
G01*
X117000000Y-95720500D01*
X118677000Y-95720500D01*
X117000000Y-96000000D01*
G37*
%TD.AperFunction*%
%TA.AperFunction,Conductor*%
G36*
X118800000Y-92596000D02*
G01*
X118778326Y-92648326D01*
X118726000Y-92670000D01*
X118055000Y-92670000D01*
X118055000Y-92821000D01*
X118033326Y-92873326D01*
X117981000Y-92895000D01*
X117074000Y-92895000D01*
X117021674Y-92873326D01*
X117000000Y-92821000D01*
X117000000Y-92751527D01*
X118800000Y-92312610D01*
X118800000Y-92596000D01*
G37*
%TD.AperFunction*%
%TD*%
%TA.AperFunction,Conductor*%
%TO.N,GND*%
G36*
X123984148Y-93949119D02*
G01*
X124949436Y-94914407D01*
X123900500Y-94359088D01*
X123900500Y-93983767D01*
X123914852Y-93949119D01*
X123949500Y-93934767D01*
X123984148Y-93949119D01*
G37*
%TD.AperFunction*%
%TA.AperFunction,Conductor*%
G36*
X121394145Y-90119739D02*
G01*
X121678917Y-90404511D01*
X121734866Y-90460460D01*
X121803388Y-90500021D01*
X121838855Y-90509524D01*
X121879813Y-90520500D01*
X121879815Y-90520500D01*
X122226107Y-90520500D01*
X122260755Y-90534852D01*
X122275107Y-90569500D01*
X122260755Y-90604148D01*
X122220281Y-90644621D01*
X122220277Y-90644626D01*
X122137968Y-90783802D01*
X122095494Y-90929999D01*
X122095495Y-90930000D01*
X122851000Y-90930000D01*
X122885648Y-90944352D01*
X122900000Y-90979000D01*
X122900000Y-91381000D01*
X122885648Y-91415648D01*
X122851000Y-91430000D01*
X122095495Y-91430000D01*
X122137968Y-91576197D01*
X122220277Y-91715373D01*
X122220281Y-91715378D01*
X122334621Y-91829718D01*
X122334626Y-91829722D01*
X122474193Y-91912261D01*
X122496711Y-91942251D01*
X122498250Y-91954437D01*
X122498250Y-92025895D01*
X122507975Y-92062190D01*
X122507976Y-92087554D01*
X122499500Y-92119188D01*
X122499500Y-92505344D01*
X122485148Y-92539992D01*
X122458166Y-92553740D01*
X122416874Y-92560281D01*
X122416872Y-92560281D01*
X122416870Y-92560282D01*
X122416868Y-92560282D01*
X122296786Y-92621467D01*
X122296779Y-92621472D01*
X122201472Y-92716779D01*
X122201467Y-92716786D01*
X122140282Y-92836870D01*
X122140281Y-92836872D01*
X122140281Y-92836874D01*
X122124500Y-92936512D01*
X122124500Y-93418852D01*
X121660978Y-93173458D01*
X121662882Y-93172793D01*
X121772150Y-93092150D01*
X121852793Y-92982882D01*
X121897646Y-92854699D01*
X121900500Y-92824266D01*
X121900500Y-92015734D01*
X121897646Y-91985301D01*
X121896606Y-91982330D01*
X121852795Y-91857123D01*
X121852791Y-91857114D01*
X121772150Y-91747849D01*
X121662885Y-91667208D01*
X121662876Y-91667204D01*
X121534698Y-91622353D01*
X121508688Y-91619914D01*
X121475532Y-91602389D01*
X121464478Y-91566552D01*
X121477949Y-91537901D01*
X121477832Y-91537810D01*
X121478240Y-91537283D01*
X121478621Y-91536474D01*
X121479722Y-91535372D01*
X121562031Y-91396197D01*
X121604505Y-91250000D01*
X120849000Y-91250000D01*
X120814352Y-91235648D01*
X120800000Y-91201000D01*
X120800000Y-90799000D01*
X120814352Y-90764352D01*
X120849000Y-90750000D01*
X121604505Y-90750000D01*
X121604505Y-90749999D01*
X121562031Y-90603802D01*
X121479722Y-90464626D01*
X121479718Y-90464621D01*
X121365378Y-90350281D01*
X121365373Y-90350277D01*
X121325658Y-90326790D01*
X121303140Y-90296800D01*
X121303522Y-90273209D01*
X121303482Y-90273204D01*
X121303528Y-90272852D01*
X121303560Y-90270898D01*
X121303969Y-90269492D01*
X121303972Y-90269487D01*
X121310500Y-90219901D01*
X121310499Y-90154388D01*
X121324850Y-90119741D01*
X121359498Y-90105389D01*
X121394145Y-90119739D01*
G37*
%TD.AperFunction*%
%TA.AperFunction,Conductor*%
G36*
X118197304Y-91330494D02*
G01*
X118191494Y-91332418D01*
X118197302Y-91330494D01*
X118219084Y-91328268D01*
X118197304Y-91330494D01*
G37*
%TD.AperFunction*%
%TA.AperFunction,Conductor*%
G36*
X118352567Y-91250292D02*
G01*
X118354203Y-91287759D01*
X118328866Y-91315409D01*
X118308163Y-91320000D01*
X118300021Y-91320000D01*
X118277683Y-91322282D01*
X118301433Y-91315733D01*
X118339696Y-91273976D01*
X118337226Y-91217392D01*
X118352567Y-91250292D01*
G37*
%TD.AperFunction*%
%TA.AperFunction,Conductor*%
G36*
X117748833Y-91102322D02*
G01*
X117745640Y-91100632D01*
X117752287Y-91093986D01*
X117748833Y-91102322D01*
G37*
%TD.AperFunction*%
%TA.AperFunction,Conductor*%
G36*
X118262954Y-90941363D02*
G01*
X118294996Y-90945579D01*
X118317829Y-90975330D01*
X118319500Y-90988016D01*
X118319500Y-91014218D01*
X118297826Y-90961892D01*
X118245500Y-90940218D01*
X118259565Y-90940218D01*
X118262749Y-90939799D01*
X118262954Y-90941363D01*
G37*
%TD.AperFunction*%
%TA.AperFunction,Conductor*%
G36*
X117884381Y-90961892D02*
G01*
X117891703Y-90954570D01*
X117926351Y-90940218D01*
X117936707Y-90940218D01*
X117884381Y-90961892D01*
G37*
%TD.AperFunction*%
%TA.AperFunction,Conductor*%
G36*
X118022174Y-90219279D02*
G01*
X118074500Y-90240953D01*
X118126824Y-90219279D01*
X118072154Y-90273950D01*
X118037506Y-90288302D01*
X118002858Y-90273950D01*
X117988506Y-90239302D01*
X117990176Y-90226619D01*
X117991977Y-90219901D01*
X117996879Y-90201604D01*
X118000500Y-90188093D01*
X118000500Y-90166953D01*
X118022174Y-90219279D01*
G37*
%TD.AperFunction*%
%TA.AperFunction,Conductor*%
G36*
X118298367Y-90052726D02*
G01*
X118298366Y-90052727D01*
X118292639Y-90056032D01*
X118303430Y-90049802D01*
X118298367Y-90052726D01*
G37*
%TD.AperFunction*%
%TA.AperFunction,Conductor*%
G36*
X118355088Y-90019978D02*
G01*
X118355086Y-90019978D01*
X118355090Y-90019977D01*
X118355088Y-90019978D01*
G37*
%TD.AperFunction*%
%TA.AperFunction,Conductor*%
G36*
X118599500Y-89950500D02*
G01*
X118585148Y-89985148D01*
X118550500Y-89999500D01*
X118525500Y-89999500D01*
X118577826Y-89977826D01*
X118599500Y-89925500D01*
X118599500Y-89950500D01*
G37*
%TD.AperFunction*%
%TA.AperFunction,Conductor*%
G36*
X118079108Y-89234000D02*
G01*
X118119212Y-89264412D01*
X118074500Y-89249376D01*
X118022174Y-89271050D01*
X118000500Y-89323376D01*
X118000500Y-89273043D01*
X118014852Y-89238395D01*
X118049500Y-89224043D01*
X118079108Y-89234000D01*
G37*
%TD.AperFunction*%
%TA.AperFunction,Conductor*%
G36*
X127000000Y-89277110D02*
G01*
X124517930Y-86795040D01*
X124783325Y-86791294D01*
X124810513Y-86803972D01*
X124860099Y-86810500D01*
X125219900Y-86810499D01*
X125269487Y-86803972D01*
X125312702Y-86783819D01*
X127000000Y-86760000D01*
X127000000Y-89277110D01*
G37*
%TD.AperFunction*%
%TA.AperFunction,Conductor*%
G36*
X118400000Y-88858385D02*
G01*
X118400000Y-88857014D01*
X118400134Y-88855658D01*
X118400000Y-88858385D01*
G37*
%TD.AperFunction*%
%TA.AperFunction,Conductor*%
G36*
X118400357Y-88851129D02*
G01*
X118400310Y-88852075D01*
X118400264Y-88852071D01*
X118400357Y-88851129D01*
G37*
%TD.AperFunction*%
%TA.AperFunction,Conductor*%
G36*
X118599736Y-88022932D02*
G01*
X118599644Y-88023857D01*
X118599689Y-88022927D01*
X118599736Y-88022932D01*
G37*
%TD.AperFunction*%
%TA.AperFunction,Conductor*%
G36*
X118600000Y-88017987D02*
G01*
X118599864Y-88019362D01*
X118600000Y-88016610D01*
X118600000Y-88017987D01*
G37*
%TD.AperFunction*%
%TA.AperFunction,Conductor*%
G36*
X118819122Y-87492910D02*
G01*
X118804770Y-87527558D01*
X118770122Y-87541910D01*
X118752147Y-87538494D01*
X118717977Y-87525019D01*
X118745122Y-87530178D01*
X118797448Y-87508504D01*
X118819122Y-87456178D01*
X118819122Y-87492910D01*
G37*
%TD.AperFunction*%
%TA.AperFunction,Conductor*%
G36*
X118400500Y-87374535D02*
G01*
X118400500Y-87367836D01*
X118407064Y-87343337D01*
X118410415Y-87337534D01*
X118400500Y-87374535D01*
G37*
%TD.AperFunction*%
%TA.AperFunction,Conductor*%
G36*
X120392683Y-86854615D02*
G01*
X120299501Y-86947798D01*
X120299500Y-86947798D01*
X120233608Y-87061924D01*
X120233608Y-87061926D01*
X120205352Y-87167376D01*
X120182522Y-87197128D01*
X120145339Y-87202023D01*
X120135924Y-87199500D01*
X120135922Y-87199500D01*
X119747232Y-87199500D01*
X119712584Y-87185148D01*
X119626936Y-87099500D01*
X119512810Y-87033608D01*
X119512806Y-87033607D01*
X119385517Y-86999500D01*
X119385514Y-86999500D01*
X119253730Y-86999500D01*
X119253727Y-86999500D01*
X119126437Y-87033607D01*
X119126433Y-87033608D01*
X119012307Y-87099500D01*
X119012307Y-87099501D01*
X118919123Y-87192685D01*
X118919122Y-87192685D01*
X118853230Y-87306811D01*
X118853229Y-87306815D01*
X118837921Y-87363940D01*
X118716375Y-86876944D01*
X120395053Y-86853246D01*
X120392683Y-86854615D01*
G37*
%TD.AperFunction*%
%TD*%
%TA.AperFunction,Conductor*%
%TO.N,GND*%
G36*
X115924500Y-94683260D02*
G01*
X115944977Y-94759681D01*
X115944979Y-94759686D01*
X115949014Y-94766674D01*
X115959877Y-94785489D01*
X115984540Y-94828207D01*
X116000000Y-94843667D01*
X116000000Y-96000000D01*
X117000000Y-96000000D01*
X123299500Y-96000000D01*
X123299500Y-97839564D01*
X123319977Y-97915985D01*
X123319979Y-97915990D01*
X123345527Y-97960240D01*
X123345528Y-97960242D01*
X123345531Y-97960246D01*
X123359540Y-97984511D01*
X123359541Y-97984512D01*
X127426548Y-102051519D01*
X127448222Y-102103845D01*
X127442589Y-102132164D01*
X127379870Y-102283579D01*
X127379868Y-102283586D01*
X127339500Y-102486535D01*
X127339500Y-102693464D01*
X127379868Y-102896413D01*
X127379870Y-102896420D01*
X127459059Y-103087598D01*
X127574023Y-103259655D01*
X127720345Y-103405977D01*
X127892402Y-103520941D01*
X128083580Y-103600130D01*
X128286535Y-103640500D01*
X128286536Y-103640500D01*
X128493464Y-103640500D01*
X128493465Y-103640500D01*
X128696420Y-103600130D01*
X128887598Y-103520941D01*
X129059655Y-103405977D01*
X129205977Y-103259655D01*
X129320941Y-103087598D01*
X129357133Y-103000222D01*
X129397181Y-102960174D01*
X129453818Y-102960174D01*
X129493867Y-103000222D01*
X129499500Y-103028541D01*
X129499500Y-104691458D01*
X129477826Y-104743784D01*
X129425500Y-104765458D01*
X129373174Y-104743784D01*
X129357133Y-104719777D01*
X129355735Y-104716402D01*
X129320941Y-104632402D01*
X129205977Y-104460345D01*
X129059655Y-104314023D01*
X129027295Y-104292401D01*
X128887598Y-104199059D01*
X128696420Y-104119870D01*
X128696413Y-104119868D01*
X128543516Y-104089455D01*
X128493465Y-104079500D01*
X128286535Y-104079500D01*
X128246385Y-104087486D01*
X128083586Y-104119868D01*
X128083579Y-104119870D01*
X127892401Y-104199059D01*
X127720345Y-104314022D01*
X127720344Y-104314024D01*
X127574024Y-104460344D01*
X127574022Y-104460345D01*
X127459059Y-104632401D01*
X127379870Y-104823579D01*
X127379868Y-104823586D01*
X127339500Y-105026535D01*
X127339500Y-105233464D01*
X127379868Y-105436413D01*
X127379870Y-105436420D01*
X127459059Y-105627598D01*
X127574022Y-105799654D01*
X127647542Y-105873174D01*
X127669216Y-105925500D01*
X127647542Y-105977826D01*
X127595216Y-105999500D01*
X120674354Y-105999500D01*
X120622028Y-105977826D01*
X120600354Y-105925500D01*
X120600582Y-105919695D01*
X120601717Y-105905270D01*
X119969409Y-105272962D01*
X120032993Y-105255925D01*
X120147007Y-105190099D01*
X120240099Y-105097007D01*
X120305925Y-104982993D01*
X120322962Y-104919409D01*
X120955270Y-105551717D01*
X120955270Y-105551716D01*
X120994618Y-105497561D01*
X120994623Y-105497554D01*
X121091093Y-105308221D01*
X121091095Y-105308217D01*
X121156755Y-105106136D01*
X121156758Y-105106123D01*
X121187259Y-104913550D01*
X121216852Y-104865259D01*
X121271924Y-104852037D01*
X121320215Y-104881630D01*
X121332926Y-104910689D01*
X121369868Y-105096414D01*
X121369870Y-105096420D01*
X121449059Y-105287598D01*
X121564023Y-105459655D01*
X121710345Y-105605977D01*
X121882402Y-105720941D01*
X122073580Y-105800130D01*
X122276535Y-105840500D01*
X122276536Y-105840500D01*
X122483464Y-105840500D01*
X122483465Y-105840500D01*
X122686420Y-105800130D01*
X122877598Y-105720941D01*
X123049655Y-105605977D01*
X123195977Y-105459655D01*
X123310941Y-105287598D01*
X123390130Y-105096420D01*
X123430500Y-104893465D01*
X123430500Y-104686535D01*
X123390130Y-104483580D01*
X123310941Y-104292402D01*
X123195977Y-104120345D01*
X123049655Y-103974023D01*
X122969180Y-103920252D01*
X122877598Y-103859059D01*
X122686420Y-103779870D01*
X122686413Y-103779868D01*
X122533516Y-103749455D01*
X122483465Y-103739500D01*
X122276535Y-103739500D01*
X122236385Y-103747486D01*
X122073586Y-103779868D01*
X122073579Y-103779870D01*
X121882401Y-103859059D01*
X121710345Y-103974022D01*
X121710344Y-103974024D01*
X121564024Y-104120344D01*
X121564022Y-104120345D01*
X121449059Y-104292401D01*
X121369870Y-104483579D01*
X121369868Y-104483585D01*
X121332926Y-104669310D01*
X121301460Y-104716402D01*
X121245911Y-104727451D01*
X121198819Y-104695985D01*
X121187259Y-104666449D01*
X121156758Y-104473876D01*
X121156755Y-104473863D01*
X121091095Y-104271782D01*
X121091093Y-104271778D01*
X120994624Y-104082449D01*
X120994625Y-104082449D01*
X120955269Y-104028282D01*
X120322962Y-104660590D01*
X120305925Y-104597007D01*
X120240099Y-104482993D01*
X120147007Y-104389901D01*
X120032993Y-104324075D01*
X119969407Y-104307037D01*
X120601716Y-103674728D01*
X120547556Y-103635378D01*
X120547550Y-103635375D01*
X120358221Y-103538906D01*
X120358217Y-103538904D01*
X120156136Y-103473244D01*
X120156123Y-103473241D01*
X119946249Y-103440000D01*
X119733751Y-103440000D01*
X119523876Y-103473241D01*
X119523863Y-103473244D01*
X119321785Y-103538903D01*
X119132450Y-103635374D01*
X119078282Y-103674729D01*
X119710590Y-104307037D01*
X119647007Y-104324075D01*
X119532993Y-104389901D01*
X119439901Y-104482993D01*
X119374075Y-104597007D01*
X119357037Y-104660590D01*
X118724729Y-104028282D01*
X118685374Y-104082450D01*
X118588903Y-104271785D01*
X118523244Y-104473863D01*
X118523241Y-104473876D01*
X118497589Y-104635837D01*
X118467996Y-104684128D01*
X118412924Y-104697350D01*
X118364633Y-104667757D01*
X118350500Y-104624261D01*
X118350500Y-103920253D01*
X118350500Y-103920252D01*
X118338867Y-103861769D01*
X118337056Y-103859059D01*
X118324027Y-103839560D01*
X118294552Y-103795448D01*
X118228231Y-103751133D01*
X118169748Y-103739500D01*
X116430252Y-103739500D01*
X116401010Y-103745316D01*
X116371767Y-103751133D01*
X116305449Y-103795447D01*
X116305447Y-103795449D01*
X116261133Y-103861767D01*
X116249500Y-103920253D01*
X116249500Y-105659746D01*
X116261133Y-105718232D01*
X116290608Y-105762343D01*
X116305448Y-105784552D01*
X116349560Y-105814027D01*
X116371767Y-105828866D01*
X116371768Y-105828866D01*
X116371769Y-105828867D01*
X116430252Y-105840500D01*
X116430254Y-105840500D01*
X118169746Y-105840500D01*
X118169748Y-105840500D01*
X118228231Y-105828867D01*
X118294552Y-105784552D01*
X118338867Y-105718231D01*
X118350500Y-105659748D01*
X118350500Y-104955738D01*
X118372174Y-104903412D01*
X118424500Y-104881738D01*
X118476826Y-104903412D01*
X118497589Y-104944162D01*
X118523241Y-105106123D01*
X118523244Y-105106136D01*
X118588904Y-105308217D01*
X118588906Y-105308221D01*
X118685375Y-105497550D01*
X118685378Y-105497556D01*
X118724728Y-105551716D01*
X119357037Y-104919407D01*
X119374075Y-104982993D01*
X119439901Y-105097007D01*
X119532993Y-105190099D01*
X119647007Y-105255925D01*
X119710590Y-105272962D01*
X119078282Y-105905270D01*
X119079418Y-105919694D01*
X119061916Y-105973559D01*
X119011452Y-105999272D01*
X119005646Y-105999500D01*
X111404784Y-105999500D01*
X111352458Y-105977826D01*
X111330784Y-105925500D01*
X111352458Y-105873174D01*
X111425976Y-105799656D01*
X111425977Y-105799655D01*
X111540941Y-105627598D01*
X111620130Y-105436420D01*
X111660500Y-105233465D01*
X111660500Y-105026535D01*
X111620130Y-104823580D01*
X111557410Y-104672161D01*
X111557410Y-104615526D01*
X111573448Y-104591521D01*
X114240460Y-101924511D01*
X114272889Y-101868342D01*
X114280021Y-101855989D01*
X114300499Y-101779564D01*
X114300500Y-101779564D01*
X114300500Y-101437966D01*
X114322174Y-101385640D01*
X114341059Y-101366755D01*
X114400500Y-101307314D01*
X114466392Y-101193186D01*
X114500499Y-101065894D01*
X114500500Y-101065894D01*
X114500500Y-100934106D01*
X114500499Y-100934105D01*
X114474372Y-100836598D01*
X114466392Y-100806814D01*
X114400500Y-100692686D01*
X114307314Y-100599500D01*
X114193190Y-100533610D01*
X114193181Y-100533606D01*
X114065894Y-100499500D01*
X114065892Y-100499500D01*
X113934108Y-100499500D01*
X113934106Y-100499500D01*
X113806818Y-100533606D01*
X113806809Y-100533610D01*
X113692685Y-100599500D01*
X113599500Y-100692685D01*
X113533610Y-100806809D01*
X113533606Y-100806818D01*
X113499500Y-100934105D01*
X113499500Y-101065894D01*
X113533606Y-101193181D01*
X113533610Y-101193190D01*
X113599500Y-101307314D01*
X113677826Y-101385640D01*
X113699500Y-101437966D01*
X113699500Y-101584876D01*
X113677826Y-101637202D01*
X111148480Y-104166547D01*
X111096154Y-104188221D01*
X111067836Y-104182588D01*
X110916424Y-104119871D01*
X110916413Y-104119868D01*
X110763516Y-104089455D01*
X110713465Y-104079500D01*
X110506535Y-104079500D01*
X110466385Y-104087486D01*
X110303586Y-104119868D01*
X110303579Y-104119870D01*
X110112401Y-104199059D01*
X109940345Y-104314022D01*
X109940344Y-104314024D01*
X109794024Y-104460344D01*
X109794022Y-104460345D01*
X109679059Y-104632401D01*
X109642867Y-104719777D01*
X109602818Y-104759825D01*
X109546181Y-104759825D01*
X109506133Y-104719776D01*
X109500500Y-104691458D01*
X109500500Y-103028541D01*
X109522174Y-102976215D01*
X109574500Y-102954541D01*
X109626826Y-102976215D01*
X109642867Y-103000223D01*
X109679058Y-103087597D01*
X109679059Y-103087598D01*
X109794023Y-103259655D01*
X109940345Y-103405977D01*
X110112402Y-103520941D01*
X110303580Y-103600130D01*
X110506535Y-103640500D01*
X110506536Y-103640500D01*
X110713464Y-103640500D01*
X110713465Y-103640500D01*
X110916420Y-103600130D01*
X111107598Y-103520941D01*
X111279655Y-103405977D01*
X111425977Y-103259655D01*
X111540941Y-103087598D01*
X111620130Y-102896420D01*
X111660500Y-102693465D01*
X111660500Y-102486535D01*
X111620130Y-102283580D01*
X111557410Y-102132161D01*
X111557410Y-102075526D01*
X111573448Y-102051521D01*
X115664725Y-97960246D01*
X115704286Y-97891724D01*
X115724764Y-97815299D01*
X115724765Y-97815299D01*
X115724765Y-93062483D01*
X115924500Y-93013779D01*
X115924500Y-94683260D01*
G37*
%TD.AperFunction*%
%TA.AperFunction,Conductor*%
G36*
X129477826Y-100784272D02*
G01*
X129499500Y-100836598D01*
X129499500Y-102151458D01*
X129477826Y-102203784D01*
X129425500Y-102225458D01*
X129373174Y-102203784D01*
X129357133Y-102179777D01*
X129337411Y-102132164D01*
X129320941Y-102092402D01*
X129205977Y-101920345D01*
X129059655Y-101774023D01*
X128887598Y-101659059D01*
X128696420Y-101579870D01*
X128696414Y-101579868D01*
X128510689Y-101542926D01*
X128463597Y-101511460D01*
X128452548Y-101455911D01*
X128484014Y-101408819D01*
X128513550Y-101397259D01*
X128706123Y-101366758D01*
X128706136Y-101366755D01*
X128908217Y-101301095D01*
X128908221Y-101301093D01*
X129097554Y-101204623D01*
X129097561Y-101204618D01*
X129151716Y-101165270D01*
X128519408Y-100532962D01*
X128582993Y-100515925D01*
X128697007Y-100450099D01*
X128790099Y-100357007D01*
X128855925Y-100242993D01*
X128872962Y-100179408D01*
X129477826Y-100784272D01*
G37*
%TD.AperFunction*%
%TA.AperFunction,Conductor*%
G36*
X110144075Y-100242993D02*
G01*
X110209901Y-100357007D01*
X110302993Y-100450099D01*
X110417007Y-100515925D01*
X110480590Y-100532962D01*
X109848282Y-101165269D01*
X109902449Y-101204624D01*
X110091778Y-101301093D01*
X110091782Y-101301095D01*
X110293863Y-101366755D01*
X110293876Y-101366758D01*
X110486449Y-101397259D01*
X110534740Y-101426852D01*
X110547962Y-101481924D01*
X110518369Y-101530215D01*
X110489310Y-101542926D01*
X110303585Y-101579868D01*
X110303579Y-101579870D01*
X110112401Y-101659059D01*
X109940345Y-101774022D01*
X109940344Y-101774024D01*
X109794024Y-101920344D01*
X109794022Y-101920345D01*
X109679059Y-102092401D01*
X109642867Y-102179777D01*
X109602818Y-102219825D01*
X109546181Y-102219825D01*
X109506133Y-102179776D01*
X109500500Y-102151458D01*
X109500500Y-100836598D01*
X109522174Y-100784272D01*
X110127037Y-100179408D01*
X110144075Y-100242993D01*
G37*
%TD.AperFunction*%
%TA.AperFunction,Conductor*%
G36*
X113923186Y-93501784D02*
G01*
X115123765Y-93209032D01*
X115123765Y-97620611D01*
X115102091Y-97672937D01*
X111757692Y-101017335D01*
X111705366Y-101039009D01*
X111653040Y-101017335D01*
X111631366Y-100965009D01*
X111645499Y-100921513D01*
X111764621Y-100757556D01*
X111764624Y-100757550D01*
X111861093Y-100568221D01*
X111861095Y-100568217D01*
X111926755Y-100366136D01*
X111926758Y-100366123D01*
X111960000Y-100156248D01*
X111960000Y-99943751D01*
X111926758Y-99733876D01*
X111926755Y-99733863D01*
X111861095Y-99531782D01*
X111861093Y-99531778D01*
X111764624Y-99342449D01*
X111764625Y-99342449D01*
X111725269Y-99288282D01*
X111092962Y-99920590D01*
X111075925Y-99857007D01*
X111010099Y-99742993D01*
X110917007Y-99649901D01*
X110802993Y-99584075D01*
X110739407Y-99567037D01*
X111371716Y-98934728D01*
X111317556Y-98895378D01*
X111317550Y-98895375D01*
X111128221Y-98798906D01*
X111128217Y-98798904D01*
X110926136Y-98733244D01*
X110926125Y-98733242D01*
X110733549Y-98702740D01*
X110685259Y-98673147D01*
X110672037Y-98618074D01*
X110701630Y-98569784D01*
X110730686Y-98557074D01*
X110916420Y-98520130D01*
X111107598Y-98440941D01*
X111279655Y-98325977D01*
X111425977Y-98179655D01*
X111540941Y-98007598D01*
X111620130Y-97816420D01*
X111660500Y-97613465D01*
X111660500Y-97406535D01*
X111620130Y-97203580D01*
X111557410Y-97052161D01*
X111557410Y-96995526D01*
X111573448Y-96971521D01*
X112000460Y-96544511D01*
X112040022Y-96475988D01*
X112060500Y-96399562D01*
X112060500Y-96320438D01*
X112060500Y-95395122D01*
X112082173Y-95342797D01*
X114997439Y-92427530D01*
X113923186Y-93501784D01*
G37*
%TD.AperFunction*%
%TA.AperFunction,Conductor*%
G36*
X124949436Y-94914407D02*
G01*
X127328464Y-97293435D01*
X127350138Y-97345761D01*
X127348716Y-97360196D01*
X127339500Y-97406534D01*
X127339500Y-97406535D01*
X127339500Y-97613465D01*
X127345748Y-97644877D01*
X127379868Y-97816413D01*
X127379870Y-97816420D01*
X127459059Y-98007598D01*
X127574023Y-98179655D01*
X127720345Y-98325977D01*
X127892402Y-98440941D01*
X128083580Y-98520130D01*
X128269310Y-98557073D01*
X128316402Y-98588538D01*
X128327451Y-98644087D01*
X128295986Y-98691180D01*
X128266450Y-98702740D01*
X128073874Y-98733242D01*
X128073863Y-98733244D01*
X127871785Y-98798903D01*
X127682450Y-98895374D01*
X127628282Y-98934729D01*
X128260590Y-99567037D01*
X128197007Y-99584075D01*
X128082993Y-99649901D01*
X127989901Y-99742993D01*
X127924075Y-99857007D01*
X127907037Y-99920591D01*
X127274729Y-99288282D01*
X127235374Y-99342450D01*
X127138903Y-99531785D01*
X127073244Y-99733863D01*
X127073241Y-99733876D01*
X127040000Y-99943751D01*
X127040000Y-100156248D01*
X127073241Y-100366123D01*
X127073244Y-100366136D01*
X127138904Y-100568217D01*
X127138906Y-100568221D01*
X127235375Y-100757550D01*
X127235378Y-100757556D01*
X127354502Y-100921516D01*
X127367724Y-100976588D01*
X127338131Y-101024879D01*
X127283059Y-101038101D01*
X127242309Y-101017338D01*
X123922174Y-97697203D01*
X123900500Y-97644877D01*
X123900500Y-96000000D01*
X124000000Y-96000000D01*
X124000000Y-94411764D01*
X124949436Y-94914407D01*
G37*
%TD.AperFunction*%
%TA.AperFunction,Conductor*%
G36*
X109626826Y-97896215D02*
G01*
X109642867Y-97920223D01*
X109679058Y-98007597D01*
X109679059Y-98007598D01*
X109794023Y-98179655D01*
X109940345Y-98325977D01*
X110112402Y-98440941D01*
X110303580Y-98520130D01*
X110489310Y-98557073D01*
X110536402Y-98588538D01*
X110547451Y-98644087D01*
X110515986Y-98691180D01*
X110486450Y-98702740D01*
X110293874Y-98733242D01*
X110293863Y-98733244D01*
X110091785Y-98798903D01*
X109902450Y-98895374D01*
X109848282Y-98934729D01*
X110480590Y-99567037D01*
X110417007Y-99584075D01*
X110302993Y-99649901D01*
X110209901Y-99742993D01*
X110144075Y-99857007D01*
X110127037Y-99920590D01*
X109522174Y-99315727D01*
X109500500Y-99263401D01*
X109500500Y-97948541D01*
X109522174Y-97896215D01*
X109574500Y-97874541D01*
X109626826Y-97896215D01*
G37*
%TD.AperFunction*%
%TA.AperFunction,Conductor*%
G36*
X129493867Y-97920222D02*
G01*
X129499500Y-97948541D01*
X129499500Y-99263401D01*
X129477826Y-99315727D01*
X128872962Y-99920589D01*
X128855925Y-99857007D01*
X128790099Y-99742993D01*
X128697007Y-99649901D01*
X128582993Y-99584075D01*
X128519407Y-99567037D01*
X129151716Y-98934728D01*
X129097556Y-98895378D01*
X129097550Y-98895375D01*
X128908221Y-98798906D01*
X128908217Y-98798904D01*
X128706136Y-98733244D01*
X128706125Y-98733242D01*
X128513549Y-98702740D01*
X128465259Y-98673147D01*
X128452037Y-98618074D01*
X128481630Y-98569784D01*
X128510686Y-98557074D01*
X128696420Y-98520130D01*
X128887598Y-98440941D01*
X129059655Y-98325977D01*
X129205977Y-98179655D01*
X129320941Y-98007598D01*
X129357133Y-97920222D01*
X129397181Y-97880174D01*
X129453818Y-97880174D01*
X129493867Y-97920222D01*
G37*
%TD.AperFunction*%
%TA.AperFunction,Conductor*%
G36*
X118298369Y-90052725D02*
G01*
X118299552Y-90052041D01*
X118304904Y-90048951D01*
X118298369Y-90052725D01*
G37*
%TD.AperFunction*%
%TA.AperFunction,Conductor*%
G36*
X127932159Y-85757409D02*
G01*
X128083580Y-85820130D01*
X128269310Y-85857073D01*
X128316402Y-85888538D01*
X128327451Y-85944087D01*
X128295986Y-85991180D01*
X128266450Y-86002740D01*
X128073874Y-86033242D01*
X128073863Y-86033244D01*
X127871785Y-86098903D01*
X127682450Y-86195374D01*
X127628282Y-86234729D01*
X128260590Y-86867037D01*
X128197007Y-86884075D01*
X128082993Y-86949901D01*
X127989901Y-87042993D01*
X127924075Y-87157007D01*
X127907037Y-87220590D01*
X127274729Y-86588282D01*
X127235374Y-86642450D01*
X127138903Y-86831785D01*
X127073244Y-87033863D01*
X127073241Y-87033876D01*
X127040000Y-87243751D01*
X127040000Y-87456248D01*
X127073241Y-87666123D01*
X127073244Y-87666136D01*
X127138904Y-87868217D01*
X127138906Y-87868221D01*
X127235375Y-88057550D01*
X127235378Y-88057556D01*
X127274728Y-88111716D01*
X127907037Y-87479407D01*
X127924075Y-87542993D01*
X127989901Y-87657007D01*
X128082993Y-87750099D01*
X128197007Y-87815925D01*
X128260590Y-87832962D01*
X127628282Y-88465270D01*
X127682449Y-88504624D01*
X127871778Y-88601093D01*
X127871782Y-88601095D01*
X128073863Y-88666755D01*
X128073876Y-88666758D01*
X128266449Y-88697259D01*
X128314740Y-88726852D01*
X128327962Y-88781924D01*
X128298369Y-88830215D01*
X128269310Y-88842926D01*
X128083585Y-88879868D01*
X128083579Y-88879870D01*
X127892401Y-88959059D01*
X127720345Y-89074022D01*
X127720344Y-89074024D01*
X127574024Y-89220344D01*
X127574022Y-89220345D01*
X127459059Y-89392401D01*
X127400753Y-89533163D01*
X127360704Y-89573211D01*
X127304067Y-89573211D01*
X127280060Y-89557170D01*
X127000000Y-89277110D01*
X127000000Y-86760000D01*
X126709614Y-86764099D01*
X126732031Y-86726196D01*
X126777144Y-86570916D01*
X126778791Y-86550000D01*
X126250000Y-86550000D01*
X126250000Y-86770587D01*
X125750000Y-86777645D01*
X125750000Y-86374000D01*
X125771674Y-86321674D01*
X125824000Y-86300000D01*
X126000000Y-86300000D01*
X126000000Y-86124000D01*
X126021674Y-86071674D01*
X126074000Y-86050000D01*
X126778789Y-86050000D01*
X126778790Y-86049998D01*
X126777146Y-86029093D01*
X126777144Y-86029085D01*
X126767284Y-85995145D01*
X126773499Y-85938850D01*
X126817701Y-85903438D01*
X126838346Y-85900500D01*
X127639564Y-85900500D01*
X127639564Y-85900499D01*
X127715989Y-85880021D01*
X127784511Y-85840460D01*
X127840460Y-85784511D01*
X127851518Y-85773452D01*
X127903842Y-85751777D01*
X127932159Y-85757409D01*
G37*
%TD.AperFunction*%
%TA.AperFunction,Conductor*%
G36*
X129477826Y-88084272D02*
G01*
X129499500Y-88136598D01*
X129499500Y-89451458D01*
X129477826Y-89503784D01*
X129425500Y-89525458D01*
X129373174Y-89503784D01*
X129357133Y-89479777D01*
X129357133Y-89479776D01*
X129320941Y-89392402D01*
X129205977Y-89220345D01*
X129059655Y-89074023D01*
X129052396Y-89069173D01*
X128887598Y-88959059D01*
X128696420Y-88879870D01*
X128696414Y-88879868D01*
X128510689Y-88842926D01*
X128463597Y-88811460D01*
X128452548Y-88755911D01*
X128484014Y-88708819D01*
X128513550Y-88697259D01*
X128706123Y-88666758D01*
X128706136Y-88666755D01*
X128908217Y-88601095D01*
X128908221Y-88601093D01*
X129097554Y-88504623D01*
X129097561Y-88504618D01*
X129151716Y-88465270D01*
X129151717Y-88465270D01*
X128519409Y-87832962D01*
X128582993Y-87815925D01*
X128697007Y-87750099D01*
X128790099Y-87657007D01*
X128855925Y-87542993D01*
X128872962Y-87479408D01*
X129477826Y-88084272D01*
G37*
%TD.AperFunction*%
%TA.AperFunction,Conductor*%
G36*
X110144075Y-87542993D02*
G01*
X110209901Y-87657007D01*
X110302993Y-87750099D01*
X110417007Y-87815925D01*
X110480589Y-87832962D01*
X109848282Y-88465269D01*
X109902449Y-88504624D01*
X110091778Y-88601093D01*
X110091782Y-88601095D01*
X110293863Y-88666755D01*
X110293876Y-88666758D01*
X110486449Y-88697259D01*
X110534740Y-88726852D01*
X110547962Y-88781924D01*
X110518369Y-88830215D01*
X110489310Y-88842926D01*
X110303585Y-88879868D01*
X110303579Y-88879870D01*
X110112401Y-88959059D01*
X109940345Y-89074022D01*
X109940344Y-89074024D01*
X109794024Y-89220344D01*
X109794022Y-89220345D01*
X109679059Y-89392401D01*
X109679059Y-89392402D01*
X109644639Y-89475500D01*
X109642867Y-89479777D01*
X109602818Y-89519825D01*
X109546181Y-89519825D01*
X109506133Y-89479776D01*
X109500500Y-89451458D01*
X109500500Y-88136598D01*
X109522174Y-88084272D01*
X110127037Y-87479408D01*
X110144075Y-87542993D01*
G37*
%TD.AperFunction*%
%TA.AperFunction,Conductor*%
G36*
X118853228Y-87306818D02*
G01*
X118849128Y-87322116D01*
X118853228Y-87306816D01*
X118853228Y-87306818D01*
G37*
%TD.AperFunction*%
%TA.AperFunction,Conductor*%
G36*
X118853232Y-87306809D02*
G01*
X118853229Y-87306813D01*
X118853230Y-87306811D01*
X118919122Y-87192685D01*
X118853232Y-87306809D01*
G37*
%TD.AperFunction*%
%TA.AperFunction,Conductor*%
G36*
X109626826Y-85196215D02*
G01*
X109642867Y-85220223D01*
X109679058Y-85307597D01*
X109741134Y-85400500D01*
X109794023Y-85479655D01*
X109940345Y-85625977D01*
X110112402Y-85740941D01*
X110303580Y-85820130D01*
X110489310Y-85857073D01*
X110536402Y-85888538D01*
X110547451Y-85944087D01*
X110515986Y-85991180D01*
X110486450Y-86002740D01*
X110293874Y-86033242D01*
X110293863Y-86033244D01*
X110091785Y-86098903D01*
X109902450Y-86195374D01*
X109848282Y-86234729D01*
X110480590Y-86867037D01*
X110417007Y-86884075D01*
X110302993Y-86949901D01*
X110209901Y-87042993D01*
X110144075Y-87157007D01*
X110127037Y-87220590D01*
X109522174Y-86615727D01*
X109500500Y-86563401D01*
X109500500Y-85248541D01*
X109522174Y-85196215D01*
X109574500Y-85174541D01*
X109626826Y-85196215D01*
G37*
%TD.AperFunction*%
%TA.AperFunction,Conductor*%
G36*
X129493867Y-85220222D02*
G01*
X129499500Y-85248541D01*
X129499500Y-86563401D01*
X129477826Y-86615727D01*
X128872962Y-87220589D01*
X128855925Y-87157007D01*
X128790099Y-87042993D01*
X128697007Y-86949901D01*
X128582993Y-86884075D01*
X128519407Y-86867037D01*
X129151716Y-86234728D01*
X129097556Y-86195378D01*
X129097550Y-86195375D01*
X128908221Y-86098906D01*
X128908217Y-86098904D01*
X128706136Y-86033244D01*
X128706125Y-86033242D01*
X128513549Y-86002740D01*
X128465259Y-85973147D01*
X128452037Y-85918074D01*
X128481630Y-85869784D01*
X128510686Y-85857074D01*
X128696420Y-85820130D01*
X128887598Y-85740941D01*
X129059655Y-85625977D01*
X129205977Y-85479655D01*
X129320941Y-85307598D01*
X129357133Y-85220222D01*
X129397181Y-85180174D01*
X129453818Y-85180174D01*
X129493867Y-85220222D01*
G37*
%TD.AperFunction*%
%TA.AperFunction,Conductor*%
G36*
X119126431Y-87033610D02*
G01*
X119028311Y-87090260D01*
X119126433Y-87033608D01*
X119126435Y-87033607D01*
X119126431Y-87033610D01*
G37*
%TD.AperFunction*%
%TA.AperFunction,Conductor*%
G36*
X119512810Y-87033608D02*
G01*
X119610932Y-87090260D01*
X119512812Y-87033610D01*
X119512806Y-87033607D01*
X119512810Y-87033608D01*
G37*
%TD.AperFunction*%
%TA.AperFunction,Conductor*%
G36*
X120233610Y-87061922D02*
G01*
X120233608Y-87061926D01*
X120233608Y-87061924D01*
X120299500Y-86947798D01*
X120233610Y-87061922D01*
G37*
%TD.AperFunction*%
%TA.AperFunction,Conductor*%
G36*
X118741111Y-82178516D02*
G01*
X118752260Y-82185966D01*
X118825326Y-82200500D01*
X118825328Y-82200500D01*
X118925500Y-82200500D01*
X118977826Y-82222174D01*
X118999500Y-82274500D01*
X118999500Y-82544877D01*
X118977826Y-82597203D01*
X118759540Y-82815488D01*
X118719979Y-82884009D01*
X118719977Y-82884014D01*
X118699500Y-82960435D01*
X118699500Y-83039564D01*
X118719977Y-83115985D01*
X118719979Y-83115990D01*
X118723050Y-83121309D01*
X118759540Y-83184511D01*
X118815489Y-83240460D01*
X118884011Y-83280021D01*
X118884012Y-83280021D01*
X118884014Y-83280022D01*
X118921499Y-83290066D01*
X118960435Y-83300499D01*
X118960436Y-83300500D01*
X118960438Y-83300500D01*
X120672861Y-83300500D01*
X120709860Y-83310413D01*
X120806814Y-83366390D01*
X120934105Y-83400497D01*
X120934106Y-83400498D01*
X120934108Y-83400498D01*
X121065894Y-83400498D01*
X121065894Y-83400497D01*
X121193186Y-83366390D01*
X121307314Y-83300498D01*
X121351799Y-83256011D01*
X121384967Y-83236862D01*
X121415989Y-83228550D01*
X121484511Y-83188989D01*
X121530517Y-83142983D01*
X121582843Y-83121309D01*
X121635169Y-83142983D01*
X121692686Y-83200500D01*
X121806814Y-83266392D01*
X121934105Y-83300499D01*
X121934106Y-83300500D01*
X121934108Y-83300500D01*
X122065891Y-83300500D01*
X122065892Y-83300500D01*
X122193186Y-83266392D01*
X122197634Y-83263823D01*
X122253784Y-83256426D01*
X122298721Y-83290899D01*
X122307217Y-83313469D01*
X122314034Y-83347741D01*
X122321483Y-83358890D01*
X122332531Y-83414440D01*
X122321483Y-83441110D01*
X122314034Y-83452258D01*
X122299500Y-83525327D01*
X122299500Y-83674672D01*
X122314034Y-83747741D01*
X122321483Y-83758890D01*
X122332531Y-83814440D01*
X122321483Y-83841110D01*
X122314034Y-83852258D01*
X122299500Y-83925327D01*
X122299500Y-84074672D01*
X122314034Y-84147741D01*
X122321483Y-84158890D01*
X122332531Y-84214440D01*
X122321483Y-84241110D01*
X122314034Y-84252258D01*
X122299500Y-84325327D01*
X122299500Y-84474672D01*
X122314034Y-84547741D01*
X122321483Y-84558890D01*
X122332531Y-84614440D01*
X122321483Y-84641110D01*
X122314034Y-84652258D01*
X122299500Y-84725327D01*
X122299500Y-84874672D01*
X122314034Y-84947741D01*
X122321483Y-84958890D01*
X122332531Y-85014440D01*
X122321483Y-85041110D01*
X122314034Y-85052258D01*
X122311322Y-85065892D01*
X122301920Y-85113163D01*
X122299500Y-85125327D01*
X122299500Y-85274672D01*
X122314034Y-85347741D01*
X122321483Y-85358890D01*
X122332531Y-85414440D01*
X122321483Y-85441110D01*
X122314034Y-85452258D01*
X122307217Y-85486530D01*
X122275751Y-85533622D01*
X122220202Y-85544671D01*
X122197641Y-85536180D01*
X122193188Y-85533609D01*
X122193181Y-85533606D01*
X122065894Y-85499500D01*
X122065892Y-85499500D01*
X121986968Y-85499500D01*
X121934642Y-85477826D01*
X121912968Y-85425500D01*
X121934642Y-85373174D01*
X121960076Y-85347740D01*
X122000502Y-85307314D01*
X122066394Y-85193186D01*
X122100501Y-85065894D01*
X122100502Y-85065894D01*
X122100502Y-84934106D01*
X122100501Y-84934105D01*
X122094970Y-84913464D01*
X122066394Y-84806814D01*
X122000502Y-84692686D01*
X121907316Y-84599500D01*
X121817667Y-84547741D01*
X121793192Y-84533610D01*
X121793183Y-84533606D01*
X121665896Y-84499500D01*
X121665894Y-84499500D01*
X121534110Y-84499500D01*
X121534108Y-84499500D01*
X121406820Y-84533606D01*
X121406811Y-84533610D01*
X121292687Y-84599500D01*
X121199502Y-84692685D01*
X121133612Y-84806809D01*
X121133608Y-84806818D01*
X121099502Y-84934105D01*
X121099502Y-85065892D01*
X121107036Y-85094012D01*
X121107036Y-85132315D01*
X121099500Y-85160440D01*
X121099500Y-86744877D01*
X121077827Y-86797202D01*
X121059540Y-86815489D01*
X121059538Y-86815490D01*
X121056112Y-86818918D01*
X121053990Y-86816796D01*
X121013023Y-86840348D01*
X120966500Y-86831049D01*
X120893190Y-86788723D01*
X120893181Y-86788719D01*
X120765894Y-86754613D01*
X120765892Y-86754613D01*
X120634108Y-86754613D01*
X120634106Y-86754613D01*
X120506818Y-86788719D01*
X120506809Y-86788723D01*
X120395053Y-86853246D01*
X118716375Y-86876943D01*
X117900500Y-83608003D01*
X117900500Y-83474498D01*
X117922174Y-83422172D01*
X117974500Y-83400498D01*
X118065894Y-83400498D01*
X118065894Y-83400497D01*
X118193186Y-83366390D01*
X118307314Y-83300498D01*
X118400500Y-83207312D01*
X118466392Y-83093184D01*
X118500499Y-82965892D01*
X118500500Y-82965892D01*
X118500500Y-82834104D01*
X118500499Y-82834103D01*
X118495511Y-82815489D01*
X118466392Y-82706812D01*
X118400500Y-82592684D01*
X118307314Y-82499498D01*
X118249107Y-82465892D01*
X118193190Y-82433608D01*
X118193181Y-82433604D01*
X118065894Y-82399498D01*
X118065892Y-82399498D01*
X117955123Y-82399498D01*
X117902797Y-82377824D01*
X117829318Y-82304345D01*
X117807644Y-82252019D01*
X117829318Y-82199693D01*
X117842336Y-82190997D01*
X117841680Y-82190015D01*
X117858888Y-82178517D01*
X117914437Y-82167468D01*
X117941111Y-82178516D01*
X117952260Y-82185966D01*
X118025326Y-82200500D01*
X118025328Y-82200500D01*
X118174672Y-82200500D01*
X118174674Y-82200500D01*
X118247740Y-82185966D01*
X118258888Y-82178516D01*
X118314437Y-82167468D01*
X118341111Y-82178516D01*
X118352260Y-82185966D01*
X118425326Y-82200500D01*
X118425328Y-82200500D01*
X118574672Y-82200500D01*
X118574674Y-82200500D01*
X118647740Y-82185966D01*
X118658888Y-82178516D01*
X118714437Y-82167468D01*
X118741111Y-82178516D01*
G37*
%TD.AperFunction*%
%TA.AperFunction,Conductor*%
G36*
X125219900Y-86810499D02*
G01*
X125262286Y-86804919D01*
X125262288Y-86804919D01*
X125219900Y-86810499D01*
G37*
%TD.AperFunction*%
%TA.AperFunction,Conductor*%
G36*
X124537827Y-86322174D02*
G01*
X124559501Y-86374500D01*
X124559501Y-86509899D01*
X124566027Y-86559485D01*
X124566028Y-86559487D01*
X124616776Y-86668316D01*
X124701684Y-86753224D01*
X124810513Y-86803972D01*
X124783325Y-86791294D01*
X124517930Y-86795040D01*
X124149716Y-86426826D01*
X124128042Y-86374500D01*
X124149716Y-86322174D01*
X124202042Y-86300500D01*
X124485501Y-86300500D01*
X124537827Y-86322174D01*
G37*
%TD.AperFunction*%
%TA.AperFunction,Conductor*%
G36*
X109626826Y-82656215D02*
G01*
X109642867Y-82680223D01*
X109679058Y-82767597D01*
X109769661Y-82903194D01*
X109794023Y-82939655D01*
X109940345Y-83085977D01*
X110112402Y-83200941D01*
X110303580Y-83280130D01*
X110506535Y-83320500D01*
X110506536Y-83320500D01*
X110713464Y-83320500D01*
X110713465Y-83320500D01*
X110916420Y-83280130D01*
X111107598Y-83200941D01*
X111147465Y-83174302D01*
X111199299Y-83940331D01*
X111279654Y-83994022D01*
X111176843Y-83925327D01*
X111107598Y-83879059D01*
X110916420Y-83799870D01*
X110916413Y-83799868D01*
X110763516Y-83769455D01*
X110713465Y-83759500D01*
X110506535Y-83759500D01*
X110466385Y-83767486D01*
X110303586Y-83799868D01*
X110303579Y-83799870D01*
X110112401Y-83879059D01*
X109940345Y-83994022D01*
X109940344Y-83994024D01*
X109794024Y-84140344D01*
X109794022Y-84140345D01*
X109679059Y-84312401D01*
X109642867Y-84399777D01*
X109602818Y-84439825D01*
X109546181Y-84439825D01*
X109506133Y-84399776D01*
X109500500Y-84371458D01*
X109500500Y-82708541D01*
X109522174Y-82656215D01*
X109574500Y-82634541D01*
X109626826Y-82656215D01*
G37*
%TD.AperFunction*%
%TA.AperFunction,Conductor*%
G36*
X109631566Y-80127197D02*
G01*
X109647278Y-80150872D01*
X109662552Y-80187747D01*
X109679059Y-80227598D01*
X109746973Y-80329240D01*
X109794023Y-80399655D01*
X109940345Y-80545977D01*
X110000000Y-80585836D01*
X110000000Y-81414162D01*
X109940345Y-81454022D01*
X109940344Y-81454024D01*
X109794024Y-81600344D01*
X109794022Y-81600345D01*
X109679059Y-81772401D01*
X109642867Y-81859777D01*
X109602818Y-81899825D01*
X109546181Y-81899825D01*
X109506133Y-81859776D01*
X109500500Y-81831458D01*
X109500500Y-80880720D01*
X109500500Y-80880385D01*
X109504913Y-80178726D01*
X109526916Y-80126539D01*
X109579377Y-80105194D01*
X109631566Y-80127197D01*
G37*
%TD.AperFunction*%
%TA.AperFunction,Conductor*%
G36*
X125442172Y-80479026D02*
G01*
X125495656Y-80479865D01*
X125535072Y-80520537D01*
X125540269Y-80547780D01*
X125540269Y-80705265D01*
X125518595Y-80757591D01*
X125466269Y-80779265D01*
X125428600Y-80768960D01*
X125376196Y-80737968D01*
X125230000Y-80695494D01*
X125230000Y-81426000D01*
X125208326Y-81478326D01*
X125156000Y-81500000D01*
X124804000Y-81500000D01*
X124751674Y-81478326D01*
X124730000Y-81426000D01*
X124730000Y-81242455D01*
X124739915Y-81205454D01*
X124740458Y-81204512D01*
X124740460Y-81204511D01*
X124780022Y-81135988D01*
X124800500Y-81059562D01*
X124800500Y-80980438D01*
X124800500Y-80791518D01*
X124822174Y-80739192D01*
X124903779Y-80657587D01*
X124988186Y-80573180D01*
X125014212Y-80539262D01*
X125063258Y-80510946D01*
X125091322Y-80512638D01*
X125119181Y-80519791D01*
X125119187Y-80519792D01*
X125280886Y-80519792D01*
X125437503Y-80479579D01*
X125439026Y-80478977D01*
X125439803Y-80478989D01*
X125442017Y-80478421D01*
X125442172Y-80479026D01*
G37*
%TD.AperFunction*%
%TA.AperFunction,Conductor*%
G36*
X129487028Y-57885075D02*
G01*
X129499500Y-57926189D01*
X129499500Y-58971458D01*
X129477826Y-59023784D01*
X129425500Y-59045458D01*
X129373174Y-59023784D01*
X129357133Y-58999777D01*
X129345403Y-58971458D01*
X129320941Y-58912402D01*
X129205977Y-58740345D01*
X129059655Y-58594023D01*
X128887598Y-58479059D01*
X128696420Y-58399870D01*
X128696413Y-58399868D01*
X128543516Y-58369455D01*
X128493465Y-58359500D01*
X128286535Y-58359500D01*
X128246385Y-58367486D01*
X128083586Y-58399868D01*
X128083579Y-58399870D01*
X127892401Y-58479059D01*
X127720345Y-58594022D01*
X127720344Y-58594024D01*
X127574024Y-58740344D01*
X127574022Y-58740345D01*
X127459059Y-58912401D01*
X127379870Y-59103579D01*
X127379868Y-59103586D01*
X127339500Y-59306535D01*
X127339500Y-59513464D01*
X127379868Y-59716413D01*
X127379870Y-59716420D01*
X127459059Y-59907598D01*
X127561774Y-60061324D01*
X127574023Y-60079655D01*
X127720345Y-60225977D01*
X127892402Y-60340941D01*
X128083580Y-60420130D01*
X128269310Y-60457073D01*
X128316402Y-60488538D01*
X128327451Y-60544087D01*
X128295986Y-60591180D01*
X128266450Y-60602740D01*
X128073874Y-60633242D01*
X128073863Y-60633244D01*
X127871785Y-60698903D01*
X127682450Y-60795374D01*
X127628282Y-60834729D01*
X128260590Y-61467037D01*
X128197007Y-61484075D01*
X128082993Y-61549901D01*
X127989901Y-61642993D01*
X127924075Y-61757007D01*
X127907037Y-61820590D01*
X127274729Y-61188282D01*
X127235374Y-61242450D01*
X127138903Y-61431785D01*
X127073244Y-61633863D01*
X127073241Y-61633876D01*
X127040000Y-61843751D01*
X127040000Y-62056248D01*
X127073241Y-62266123D01*
X127073244Y-62266136D01*
X127138904Y-62468217D01*
X127138906Y-62468221D01*
X127235375Y-62657550D01*
X127235378Y-62657556D01*
X127274728Y-62711716D01*
X127907037Y-62079407D01*
X127924075Y-62142993D01*
X127989901Y-62257007D01*
X128082993Y-62350099D01*
X128197007Y-62415925D01*
X128260590Y-62432962D01*
X127628282Y-63065270D01*
X127682449Y-63104624D01*
X127871778Y-63201093D01*
X127871782Y-63201095D01*
X128073863Y-63266755D01*
X128073876Y-63266758D01*
X128266449Y-63297259D01*
X128314740Y-63326852D01*
X128327962Y-63381924D01*
X128298369Y-63430215D01*
X128269310Y-63442926D01*
X128083585Y-63479868D01*
X128083579Y-63479870D01*
X127892401Y-63559059D01*
X127720345Y-63674022D01*
X127720344Y-63674024D01*
X127574024Y-63820344D01*
X127574022Y-63820345D01*
X127459059Y-63992401D01*
X127379870Y-64183579D01*
X127379868Y-64183586D01*
X127348700Y-64340281D01*
X127339500Y-64386535D01*
X127339500Y-64593465D01*
X127349455Y-64643516D01*
X127379868Y-64796413D01*
X127379870Y-64796420D01*
X127459059Y-64987598D01*
X127574023Y-65159655D01*
X127720345Y-65305977D01*
X127892402Y-65420941D01*
X128083580Y-65500130D01*
X128286535Y-65540500D01*
X128286536Y-65540500D01*
X128493464Y-65540500D01*
X128493465Y-65540500D01*
X128696420Y-65500130D01*
X128887598Y-65420941D01*
X129059655Y-65305977D01*
X129205977Y-65159655D01*
X129320941Y-64987598D01*
X129357133Y-64900222D01*
X129397181Y-64860174D01*
X129453818Y-64860174D01*
X129493867Y-64900222D01*
X129499500Y-64928541D01*
X129499500Y-66591458D01*
X129477826Y-66643784D01*
X129425500Y-66665458D01*
X129373174Y-66643784D01*
X129357133Y-66619777D01*
X129333059Y-66561658D01*
X129320941Y-66532402D01*
X129205977Y-66360345D01*
X129059655Y-66214023D01*
X129017417Y-66185801D01*
X128887598Y-66099059D01*
X128696420Y-66019870D01*
X128696413Y-66019868D01*
X128543516Y-65989455D01*
X128493465Y-65979500D01*
X128286535Y-65979500D01*
X128246385Y-65987486D01*
X128083586Y-66019868D01*
X128083579Y-66019870D01*
X127892401Y-66099059D01*
X127720345Y-66214022D01*
X127720344Y-66214024D01*
X127574024Y-66360344D01*
X127574022Y-66360345D01*
X127459059Y-66532401D01*
X127379870Y-66723579D01*
X127379868Y-66723586D01*
X127339500Y-66926535D01*
X127339500Y-67133464D01*
X127379868Y-67336413D01*
X127379870Y-67336420D01*
X127459059Y-67527598D01*
X127563063Y-67683253D01*
X127574023Y-67699655D01*
X127720345Y-67845977D01*
X127892402Y-67960941D01*
X128083580Y-68040130D01*
X128286535Y-68080500D01*
X128286536Y-68080500D01*
X128493464Y-68080500D01*
X128493465Y-68080500D01*
X128696420Y-68040130D01*
X128887598Y-67960941D01*
X129059655Y-67845977D01*
X129205977Y-67699655D01*
X129320941Y-67527598D01*
X129357133Y-67440222D01*
X129397181Y-67400174D01*
X129453818Y-67400174D01*
X129493867Y-67440222D01*
X129499500Y-67468541D01*
X129499500Y-69131458D01*
X129477826Y-69183784D01*
X129425500Y-69205458D01*
X129373174Y-69183784D01*
X129357133Y-69159777D01*
X129345403Y-69131458D01*
X129320941Y-69072402D01*
X129205977Y-68900345D01*
X129059655Y-68754023D01*
X128887598Y-68639059D01*
X128696420Y-68559870D01*
X128696413Y-68559868D01*
X128543516Y-68529455D01*
X128493465Y-68519500D01*
X128286535Y-68519500D01*
X128246385Y-68527486D01*
X128083586Y-68559868D01*
X128083579Y-68559870D01*
X127892401Y-68639059D01*
X127720345Y-68754022D01*
X127720344Y-68754024D01*
X127574024Y-68900344D01*
X127574022Y-68900345D01*
X127459059Y-69072401D01*
X127379870Y-69263579D01*
X127379868Y-69263586D01*
X127339500Y-69466535D01*
X127339500Y-69673464D01*
X127379868Y-69876413D01*
X127379870Y-69876420D01*
X127459059Y-70067598D01*
X127533066Y-70178359D01*
X127574023Y-70239655D01*
X127720345Y-70385977D01*
X127892402Y-70500941D01*
X128083580Y-70580130D01*
X128286535Y-70620500D01*
X128286536Y-70620500D01*
X128493464Y-70620500D01*
X128493465Y-70620500D01*
X128696420Y-70580130D01*
X128887598Y-70500941D01*
X129059655Y-70385977D01*
X129205977Y-70239655D01*
X129320941Y-70067598D01*
X129357133Y-69980222D01*
X129397181Y-69940174D01*
X129453818Y-69940174D01*
X129493867Y-69980222D01*
X129499500Y-70008541D01*
X129499500Y-71671458D01*
X129477826Y-71723784D01*
X129425500Y-71745458D01*
X129373174Y-71723784D01*
X129357133Y-71699777D01*
X129339761Y-71657837D01*
X129320941Y-71612402D01*
X129205977Y-71440345D01*
X129059655Y-71294023D01*
X129043888Y-71283488D01*
X128887598Y-71179059D01*
X128696420Y-71099870D01*
X128696413Y-71099868D01*
X128543516Y-71069455D01*
X128493465Y-71059500D01*
X128286535Y-71059500D01*
X128246385Y-71067486D01*
X128083586Y-71099868D01*
X128083579Y-71099870D01*
X127892401Y-71179059D01*
X127720345Y-71294022D01*
X127720344Y-71294024D01*
X127574024Y-71440344D01*
X127574022Y-71440345D01*
X127459059Y-71612401D01*
X127379870Y-71803579D01*
X127379868Y-71803586D01*
X127339500Y-72006535D01*
X127339500Y-72213464D01*
X127379868Y-72416413D01*
X127379871Y-72416424D01*
X127442588Y-72567836D01*
X127442588Y-72624473D01*
X127426547Y-72648480D01*
X125656258Y-74418771D01*
X125600309Y-74474719D01*
X125560748Y-74543240D01*
X125560746Y-74543245D01*
X125540269Y-74619666D01*
X125540269Y-78796289D01*
X125518595Y-78848615D01*
X125466269Y-78870289D01*
X125430619Y-78861136D01*
X125395081Y-78841599D01*
X125395082Y-78841599D01*
X125238460Y-78801386D01*
X125076758Y-78801386D01*
X124920134Y-78841599D01*
X124920131Y-78841600D01*
X124786727Y-78914939D01*
X124786727Y-78914940D01*
X125303273Y-79431486D01*
X125324947Y-79483812D01*
X125303273Y-79536138D01*
X125054371Y-79785040D01*
X125002045Y-79806714D01*
X124949719Y-79785040D01*
X124433173Y-79268494D01*
X124423633Y-79269851D01*
X124395145Y-79292675D01*
X124338850Y-79286460D01*
X124303438Y-79242258D01*
X124300500Y-79221613D01*
X124300500Y-79131863D01*
X124322173Y-79079538D01*
X125240460Y-78161252D01*
X125280022Y-78092729D01*
X125300500Y-78016303D01*
X125300500Y-77937179D01*
X125300500Y-76960438D01*
X125300500Y-76960436D01*
X125300499Y-76960435D01*
X125280022Y-76884014D01*
X125280020Y-76884009D01*
X125251657Y-76834883D01*
X125240460Y-76815489D01*
X125184511Y-76759540D01*
X125178658Y-76756161D01*
X125115990Y-76719979D01*
X125115985Y-76719977D01*
X125039564Y-76699500D01*
X125039562Y-76699500D01*
X124761154Y-76699500D01*
X124708828Y-76677826D01*
X124687154Y-76625500D01*
X124708828Y-76573174D01*
X124742001Y-76554022D01*
X124759152Y-76549426D01*
X124780907Y-76543597D01*
X124895035Y-76477705D01*
X124988221Y-76384519D01*
X125054113Y-76270391D01*
X125088220Y-76143099D01*
X125088221Y-76143099D01*
X125088221Y-76011311D01*
X125088220Y-76011310D01*
X125076282Y-75966758D01*
X125054113Y-75884019D01*
X124988221Y-75769891D01*
X124895035Y-75676705D01*
X124780911Y-75610815D01*
X124780902Y-75610811D01*
X124653615Y-75576705D01*
X124653613Y-75576705D01*
X124615401Y-75576705D01*
X124563075Y-75555031D01*
X124541401Y-75502705D01*
X124541401Y-74883139D01*
X124536122Y-74863441D01*
X124530844Y-74843742D01*
X124530844Y-74843740D01*
X124520924Y-74806719D01*
X124520923Y-74806715D01*
X124491786Y-74756248D01*
X124481363Y-74738195D01*
X124481362Y-74738194D01*
X124481361Y-74738192D01*
X121942161Y-72198992D01*
X121920488Y-72146668D01*
X121942162Y-72094342D01*
X121994488Y-72072668D01*
X122016503Y-72076019D01*
X122072890Y-72093589D01*
X122072900Y-72093591D01*
X122143422Y-72099999D01*
X122750000Y-72099999D01*
X123250000Y-72099999D01*
X123856571Y-72099999D01*
X123856583Y-72099998D01*
X123927102Y-72093591D01*
X123927106Y-72093590D01*
X124089393Y-72043020D01*
X124234874Y-71955074D01*
X124355074Y-71834874D01*
X124443020Y-71689393D01*
X124493589Y-71527109D01*
X124493591Y-71527099D01*
X124499999Y-71456582D01*
X124500000Y-71456573D01*
X124500000Y-71450000D01*
X123250000Y-71450000D01*
X123250000Y-72099999D01*
X122750000Y-72099999D01*
X122750000Y-71450000D01*
X121500001Y-71450000D01*
X121500001Y-71456583D01*
X121506408Y-71527101D01*
X121523981Y-71583497D01*
X121518854Y-71639901D01*
X121475345Y-71676161D01*
X121418941Y-71671034D01*
X121401008Y-71657839D01*
X120686586Y-70943417D01*
X121500000Y-70943417D01*
X121500000Y-70950000D01*
X122750000Y-70950000D01*
X123250000Y-70950000D01*
X124499999Y-70950000D01*
X124499999Y-70943429D01*
X124499998Y-70943416D01*
X124493591Y-70872897D01*
X124493590Y-70872893D01*
X124443020Y-70710606D01*
X124355074Y-70565125D01*
X124234874Y-70444925D01*
X124089393Y-70356979D01*
X123927109Y-70306410D01*
X123927099Y-70306408D01*
X123856582Y-70300000D01*
X123250000Y-70300000D01*
X123250000Y-70950000D01*
X122750000Y-70950000D01*
X122750000Y-70300000D01*
X122143429Y-70300000D01*
X122143416Y-70300001D01*
X122072897Y-70306408D01*
X122072893Y-70306409D01*
X121910606Y-70356979D01*
X121765125Y-70444925D01*
X121644925Y-70565125D01*
X121556979Y-70710606D01*
X121506410Y-70872890D01*
X121506408Y-70872900D01*
X121500000Y-70943417D01*
X120686586Y-70943417D01*
X120547174Y-70804005D01*
X120525500Y-70751679D01*
X120525500Y-66411966D01*
X120547174Y-66359640D01*
X120599500Y-66337966D01*
X120651826Y-66359640D01*
X120668421Y-66376235D01*
X120782549Y-66442127D01*
X120909840Y-66476234D01*
X120909841Y-66476235D01*
X121020612Y-66476235D01*
X121072938Y-66497909D01*
X121781173Y-67206144D01*
X121801936Y-67246895D01*
X121814353Y-67325304D01*
X121814354Y-67325306D01*
X121852502Y-67400174D01*
X121871950Y-67438342D01*
X121961658Y-67528050D01*
X122074696Y-67585646D01*
X122168481Y-67600500D01*
X123831518Y-67600499D01*
X123831519Y-67600499D01*
X123925304Y-67585646D01*
X123925306Y-67585645D01*
X123943472Y-67576389D01*
X124038342Y-67528050D01*
X124128050Y-67438342D01*
X124185646Y-67325304D01*
X124200500Y-67231519D01*
X124200499Y-66768482D01*
X124185646Y-66674696D01*
X124185646Y-66674695D01*
X124185645Y-66674693D01*
X124128049Y-66561657D01*
X124038343Y-66471951D01*
X124038342Y-66471950D01*
X123925304Y-66414354D01*
X123925302Y-66414353D01*
X123925301Y-66414353D01*
X123831519Y-66399500D01*
X122168480Y-66399500D01*
X122074695Y-66414353D01*
X122074691Y-66414355D01*
X121966676Y-66469392D01*
X121910214Y-66473836D01*
X121880755Y-66455784D01*
X121497909Y-66072938D01*
X121476235Y-66020612D01*
X121476235Y-65909841D01*
X121476234Y-65909840D01*
X121444665Y-65792022D01*
X121452057Y-65735869D01*
X121478474Y-65709174D01*
X121577289Y-65650735D01*
X121690735Y-65537289D01*
X121772405Y-65399193D01*
X121812845Y-65260000D01*
X121074000Y-65260000D01*
X121021674Y-65238326D01*
X121000000Y-65186000D01*
X121000000Y-64834000D01*
X121021674Y-64781674D01*
X121074000Y-64760000D01*
X121812845Y-64760000D01*
X121812845Y-64759999D01*
X121772405Y-64620806D01*
X121690735Y-64482710D01*
X121577290Y-64369265D01*
X121528435Y-64340372D01*
X121494430Y-64295079D01*
X121499038Y-64245404D01*
X121514068Y-64213173D01*
X121520500Y-64164316D01*
X121520500Y-63815684D01*
X121514068Y-63766827D01*
X121464065Y-63659596D01*
X121380404Y-63575935D01*
X121273173Y-63525932D01*
X121273171Y-63525931D01*
X121237178Y-63521193D01*
X121224316Y-63519500D01*
X121224314Y-63519500D01*
X121124500Y-63519500D01*
X121072174Y-63497826D01*
X121050500Y-63445500D01*
X121050500Y-62996301D01*
X121072174Y-62943975D01*
X121124500Y-62922301D01*
X121138927Y-62923721D01*
X121147867Y-62925500D01*
X121352132Y-62925499D01*
X121432495Y-62909515D01*
X121505954Y-62860430D01*
X121561502Y-62849381D01*
X121590063Y-62861733D01*
X121593513Y-62864196D01*
X121593516Y-62864197D01*
X121593517Y-62864198D01*
X121698607Y-62915573D01*
X121766740Y-62925500D01*
X121766746Y-62925500D01*
X122009914Y-62925500D01*
X122062240Y-62947174D01*
X122073609Y-62961831D01*
X122082317Y-62976556D01*
X122198443Y-63092682D01*
X122339800Y-63176281D01*
X122497506Y-63222099D01*
X122500000Y-63222295D01*
X122500000Y-62074000D01*
X122521674Y-62021674D01*
X122574000Y-62000000D01*
X122926000Y-62000000D01*
X122978326Y-62021674D01*
X123000000Y-62074000D01*
X123000000Y-63222295D01*
X123002493Y-63222099D01*
X123160199Y-63176281D01*
X123301556Y-63092682D01*
X123417682Y-62976556D01*
X123501281Y-62835199D01*
X123547099Y-62677493D01*
X123549157Y-62651348D01*
X123570000Y-62610441D01*
X123570000Y-61801988D01*
X123579940Y-61819205D01*
X123635795Y-61875060D01*
X123704204Y-61914556D01*
X123780504Y-61935000D01*
X123859496Y-61935000D01*
X123935796Y-61914556D01*
X124004205Y-61875060D01*
X124060060Y-61819205D01*
X124070000Y-61801988D01*
X124070000Y-62604863D01*
X124111682Y-62596572D01*
X124111693Y-62596569D01*
X124293675Y-62521190D01*
X124457459Y-62411753D01*
X124596753Y-62272459D01*
X124706190Y-62108675D01*
X124781569Y-61926693D01*
X124781572Y-61926683D01*
X124801518Y-61826408D01*
X124801518Y-61826407D01*
X124820000Y-61733490D01*
X124820000Y-61335000D01*
X124120000Y-61335000D01*
X124120000Y-60835000D01*
X124820000Y-60835000D01*
X124820000Y-60436509D01*
X124781572Y-60243317D01*
X124781569Y-60243306D01*
X124706190Y-60061324D01*
X124596753Y-59897540D01*
X124457459Y-59758246D01*
X124293675Y-59648809D01*
X124111691Y-59573429D01*
X124111684Y-59573427D01*
X124070000Y-59565136D01*
X124070000Y-60368011D01*
X124060060Y-60350795D01*
X124004205Y-60294940D01*
X123935796Y-60255444D01*
X123859496Y-60235000D01*
X123780504Y-60235000D01*
X123704204Y-60255444D01*
X123635795Y-60294940D01*
X123579940Y-60350795D01*
X123570000Y-60368011D01*
X123570000Y-59565136D01*
X123569999Y-59565136D01*
X123528315Y-59573427D01*
X123528308Y-59573429D01*
X123346324Y-59648809D01*
X123182540Y-59758246D01*
X123043246Y-59897540D01*
X122933811Y-60061321D01*
X122910698Y-60117120D01*
X122870648Y-60157168D01*
X122814011Y-60157167D01*
X122790008Y-60141128D01*
X122743365Y-60094485D01*
X122737147Y-60090895D01*
X122612139Y-60018721D01*
X122612130Y-60018717D01*
X122565997Y-60006356D01*
X122521064Y-59971878D01*
X122513672Y-59915725D01*
X122532822Y-59882554D01*
X124088203Y-58327174D01*
X124140529Y-58305500D01*
X127294564Y-58305500D01*
X127294564Y-58305499D01*
X127370989Y-58285021D01*
X127439511Y-58245460D01*
X127495460Y-58189511D01*
X127742797Y-57942174D01*
X127795123Y-57920500D01*
X129259746Y-57920500D01*
X129259748Y-57920500D01*
X129318231Y-57908867D01*
X129384390Y-57864660D01*
X129439935Y-57853611D01*
X129487028Y-57885075D01*
G37*
%TD.AperFunction*%
%TA.AperFunction,Conductor*%
G36*
X124677826Y-77322174D02*
G01*
X124699500Y-77374500D01*
X124699500Y-77821618D01*
X124677826Y-77873944D01*
X123853252Y-78698517D01*
X123800926Y-78720191D01*
X123763258Y-78709886D01*
X123726197Y-78687969D01*
X123726194Y-78687968D01*
X123570914Y-78642855D01*
X123570917Y-78642855D01*
X123550000Y-78641209D01*
X123550000Y-79346000D01*
X123528326Y-79398326D01*
X123476000Y-79420000D01*
X123300000Y-79420000D01*
X123300000Y-79596000D01*
X123278326Y-79648326D01*
X123226000Y-79670000D01*
X122484000Y-79670000D01*
X122431674Y-79648326D01*
X122426970Y-79636970D01*
X122410000Y-79620000D01*
X122374000Y-79620000D01*
X122321674Y-79598326D01*
X122300000Y-79546000D01*
X122300000Y-79370000D01*
X122124000Y-79370000D01*
X122071674Y-79348326D01*
X122050000Y-79296000D01*
X122050000Y-79120000D01*
X122550000Y-79120000D01*
X123050000Y-79120000D01*
X123050000Y-78641209D01*
X123029083Y-78642855D01*
X122873797Y-78687970D01*
X122871981Y-78688756D01*
X122871042Y-78688770D01*
X122869334Y-78689267D01*
X122869198Y-78688799D01*
X122815350Y-78689637D01*
X122804933Y-78684533D01*
X122726196Y-78637968D01*
X122570914Y-78592855D01*
X122570917Y-78592855D01*
X122550000Y-78591209D01*
X122550000Y-79120000D01*
X122050000Y-79120000D01*
X122050000Y-78591209D01*
X122029083Y-78592855D01*
X121873805Y-78637968D01*
X121873800Y-78637970D01*
X121846943Y-78653852D01*
X121790871Y-78661830D01*
X121756951Y-78642482D01*
X121730244Y-78615775D01*
X121708570Y-78563449D01*
X121730244Y-78511123D01*
X122235391Y-78005976D01*
X122743722Y-77497644D01*
X122796047Y-77475971D01*
X122848373Y-77497645D01*
X122864416Y-77521656D01*
X122866068Y-77525645D01*
X122866070Y-77525651D01*
X122931962Y-77639779D01*
X123025148Y-77732965D01*
X123139276Y-77798857D01*
X123266567Y-77832964D01*
X123266568Y-77832965D01*
X123266570Y-77832965D01*
X123398356Y-77832965D01*
X123398356Y-77832964D01*
X123525648Y-77798857D01*
X123639776Y-77732965D01*
X123732962Y-77639779D01*
X123798854Y-77525651D01*
X123832961Y-77398359D01*
X123832962Y-77398359D01*
X123832962Y-77374500D01*
X123854636Y-77322174D01*
X123906962Y-77300500D01*
X124625500Y-77300500D01*
X124677826Y-77322174D01*
G37*
%TD.AperFunction*%
%TA.AperFunction,Conductor*%
G36*
X109647301Y-77625186D02*
G01*
X109663014Y-77648863D01*
X109679059Y-77687598D01*
X109789088Y-77852270D01*
X109794023Y-77859655D01*
X109940345Y-78005977D01*
X110000000Y-78045836D01*
X110000000Y-78874162D01*
X109940345Y-78914022D01*
X109940344Y-78914024D01*
X109794024Y-79060344D01*
X109794022Y-79060345D01*
X109679059Y-79232401D01*
X109653016Y-79295274D01*
X109612967Y-79335322D01*
X109556330Y-79335322D01*
X109516282Y-79295273D01*
X109510650Y-79266494D01*
X109520649Y-77676713D01*
X109542651Y-77624528D01*
X109595112Y-77603183D01*
X109647301Y-77625186D01*
G37*
%TD.AperFunction*%
%TA.AperFunction,Conductor*%
G36*
X127346963Y-73682659D02*
G01*
X127368637Y-73734985D01*
X127354504Y-73778481D01*
X127235378Y-73942443D01*
X127235375Y-73942449D01*
X127138906Y-74131778D01*
X127138904Y-74131782D01*
X127073244Y-74333863D01*
X127073241Y-74333876D01*
X127040000Y-74543751D01*
X127040000Y-74756248D01*
X127073241Y-74966123D01*
X127073244Y-74966136D01*
X127138904Y-75168217D01*
X127138906Y-75168221D01*
X127235375Y-75357550D01*
X127235378Y-75357556D01*
X127274728Y-75411716D01*
X127907037Y-74779408D01*
X127924075Y-74842993D01*
X127989901Y-74957007D01*
X128082993Y-75050099D01*
X128197007Y-75115925D01*
X128260590Y-75132962D01*
X127628282Y-75765270D01*
X127682449Y-75804624D01*
X127871778Y-75901093D01*
X127871782Y-75901095D01*
X128073863Y-75966755D01*
X128073876Y-75966758D01*
X128266449Y-75997259D01*
X128314740Y-76026852D01*
X128327962Y-76081924D01*
X128298369Y-76130215D01*
X128269310Y-76142926D01*
X128083585Y-76179868D01*
X128083579Y-76179870D01*
X127892401Y-76259059D01*
X127720345Y-76374022D01*
X127720344Y-76374024D01*
X127574024Y-76520344D01*
X127574022Y-76520345D01*
X127459059Y-76692401D01*
X127379870Y-76883579D01*
X127379868Y-76883586D01*
X127349851Y-77034498D01*
X127339500Y-77086535D01*
X127339500Y-77293465D01*
X127349455Y-77343516D01*
X127379868Y-77496413D01*
X127379871Y-77496424D01*
X127442588Y-77647836D01*
X127442588Y-77704473D01*
X127426547Y-77728480D01*
X126267595Y-78887433D01*
X126215269Y-78909107D01*
X126162943Y-78887433D01*
X126141269Y-78835107D01*
X126141269Y-74814353D01*
X126162942Y-74762028D01*
X127242311Y-73682658D01*
X127294637Y-73660985D01*
X127346963Y-73682659D01*
G37*
%TD.AperFunction*%
%TA.AperFunction,Conductor*%
G36*
X115217710Y-78125000D02*
G01*
X114675000Y-78125000D01*
X114675000Y-78100000D01*
X115222683Y-78100000D01*
X115217710Y-78125000D01*
G37*
%TD.AperFunction*%
%TA.AperFunction,Conductor*%
G36*
X115217732Y-77875105D02*
G01*
X115222683Y-77899999D01*
X115222684Y-77900000D01*
X114649000Y-77900000D01*
X114596674Y-77921674D01*
X114575000Y-77974000D01*
X114575000Y-77949000D01*
X114596674Y-77896674D01*
X114649000Y-77875000D01*
X115217753Y-77875000D01*
X115217732Y-77875105D01*
G37*
%TD.AperFunction*%
%TA.AperFunction,Conductor*%
G36*
X129477826Y-75384272D02*
G01*
X129499500Y-75436598D01*
X129499500Y-76751458D01*
X129477826Y-76803784D01*
X129425500Y-76825458D01*
X129373174Y-76803784D01*
X129357133Y-76779777D01*
X129320941Y-76692402D01*
X129205977Y-76520345D01*
X129059655Y-76374023D01*
X129001077Y-76334883D01*
X128887598Y-76259059D01*
X128696420Y-76179870D01*
X128696414Y-76179868D01*
X128510689Y-76142926D01*
X128463597Y-76111460D01*
X128452548Y-76055911D01*
X128484014Y-76008819D01*
X128513550Y-75997259D01*
X128706123Y-75966758D01*
X128706136Y-75966755D01*
X128908217Y-75901095D01*
X128908221Y-75901093D01*
X129097554Y-75804623D01*
X129097561Y-75804618D01*
X129151716Y-75765270D01*
X129151717Y-75765270D01*
X128519409Y-75132962D01*
X128582993Y-75115925D01*
X128697007Y-75050099D01*
X128790099Y-74957007D01*
X128855925Y-74842993D01*
X128872962Y-74779408D01*
X129477826Y-75384272D01*
G37*
%TD.AperFunction*%
%TA.AperFunction,Conductor*%
G36*
X110144075Y-74842993D02*
G01*
X110209901Y-74957007D01*
X110302993Y-75050099D01*
X110417007Y-75115925D01*
X110480590Y-75132962D01*
X110064931Y-75548620D01*
X110000000Y-75505235D01*
X110000000Y-75613552D01*
X109848282Y-75765270D01*
X109902449Y-75804624D01*
X110000000Y-75854329D01*
X110000000Y-76334162D01*
X109940345Y-76374022D01*
X109940344Y-76374024D01*
X109794024Y-76520344D01*
X109794022Y-76520345D01*
X109679060Y-76692399D01*
X109669237Y-76716114D01*
X109629187Y-76756162D01*
X109572550Y-76756161D01*
X109532502Y-76716111D01*
X109526872Y-76687334D01*
X109535149Y-75371296D01*
X110127037Y-74779408D01*
X110144075Y-74842993D01*
G37*
%TD.AperFunction*%
%TA.AperFunction,Conductor*%
G36*
X118488361Y-62920501D02*
G01*
X118505562Y-62938860D01*
X118506588Y-62938074D01*
X118509538Y-62941919D01*
X118509540Y-62941921D01*
X118777130Y-63209511D01*
X118833079Y-63265460D01*
X118901601Y-63305021D01*
X118901602Y-63305021D01*
X118901604Y-63305022D01*
X118915775Y-63308819D01*
X118978025Y-63325499D01*
X118978026Y-63325500D01*
X118978028Y-63325500D01*
X119400500Y-63325500D01*
X119452826Y-63347174D01*
X119474500Y-63399500D01*
X119474500Y-71132762D01*
X119494977Y-71209183D01*
X119494979Y-71209188D01*
X119531743Y-71272864D01*
X119531742Y-71272864D01*
X119531746Y-71272869D01*
X119534537Y-71277705D01*
X119534541Y-71277710D01*
X123453604Y-75196773D01*
X123475278Y-75249099D01*
X123453604Y-75301425D01*
X122626048Y-76128980D01*
X122573722Y-76150654D01*
X122521396Y-76128980D01*
X122499722Y-76076654D01*
X122500355Y-76066994D01*
X122500500Y-76065892D01*
X122500500Y-75934109D01*
X122500499Y-75934108D01*
X122483315Y-75869977D01*
X122466392Y-75806817D01*
X122400500Y-75692689D01*
X122307314Y-75599503D01*
X122248206Y-75565377D01*
X122193190Y-75533613D01*
X122193181Y-75533609D01*
X122065894Y-75499503D01*
X122065892Y-75499503D01*
X121984500Y-75499503D01*
X121932174Y-75477829D01*
X121910500Y-75425503D01*
X121910500Y-74795436D01*
X121910499Y-74795435D01*
X121890022Y-74719014D01*
X121890020Y-74719009D01*
X121850459Y-74650488D01*
X119483856Y-72283885D01*
X119750000Y-72000000D01*
X119281456Y-72081485D01*
X118447174Y-71247203D01*
X118425500Y-71194877D01*
X118425500Y-70716511D01*
X118409719Y-70616874D01*
X118409718Y-70616873D01*
X118402339Y-70602391D01*
X118348528Y-70496780D01*
X118253220Y-70401472D01*
X118253219Y-70401471D01*
X118133126Y-70340281D01*
X118127584Y-70338480D01*
X118128602Y-70335346D01*
X118089593Y-70311392D01*
X118075500Y-70267951D01*
X118075500Y-69947915D01*
X118097174Y-69895589D01*
X118138830Y-69874688D01*
X118201393Y-69865573D01*
X118306483Y-69814198D01*
X118389198Y-69731483D01*
X118440573Y-69626393D01*
X118450500Y-69558260D01*
X118450500Y-68316740D01*
X118440573Y-68248607D01*
X118389198Y-68143517D01*
X118306483Y-68060802D01*
X118306482Y-68060801D01*
X118201394Y-68009427D01*
X118133264Y-67999500D01*
X118133260Y-67999500D01*
X117766740Y-67999500D01*
X117766735Y-67999500D01*
X117698606Y-68009427D01*
X117698605Y-68009427D01*
X117593517Y-68060801D01*
X117510801Y-68143517D01*
X117459427Y-68248605D01*
X117459427Y-68248606D01*
X117449500Y-68316735D01*
X117449500Y-69558264D01*
X117459427Y-69626395D01*
X117466980Y-69641843D01*
X117474500Y-69674345D01*
X117474500Y-69761760D01*
X117095562Y-68000500D01*
X117183254Y-68000500D01*
X117183260Y-68000500D01*
X117251393Y-67990573D01*
X117356483Y-67939198D01*
X117439198Y-67856483D01*
X117490573Y-67751393D01*
X117500500Y-67683260D01*
X117500500Y-66441740D01*
X117490573Y-66373607D01*
X117439198Y-66268517D01*
X117356483Y-66185802D01*
X117356482Y-66185801D01*
X117341997Y-66178719D01*
X117304509Y-66136264D01*
X117300500Y-66112239D01*
X117300500Y-65581900D01*
X117322174Y-65529574D01*
X117334762Y-65516986D01*
X117348528Y-65503220D01*
X117409719Y-65383126D01*
X117425500Y-65283488D01*
X117425500Y-65260000D01*
X117687155Y-65260000D01*
X117727594Y-65399193D01*
X117809264Y-65537289D01*
X117922710Y-65650735D01*
X118060806Y-65732405D01*
X118214874Y-65777166D01*
X118214871Y-65777166D01*
X118250000Y-65779930D01*
X118250000Y-65779929D01*
X118750000Y-65779929D01*
X118785126Y-65777166D01*
X118939193Y-65732405D01*
X119077289Y-65650735D01*
X119190735Y-65537289D01*
X119272405Y-65399193D01*
X119312845Y-65260000D01*
X118750000Y-65260000D01*
X118750000Y-65779929D01*
X118250000Y-65779929D01*
X118250000Y-65260000D01*
X117687155Y-65260000D01*
X117425500Y-65260000D01*
X117425500Y-64716512D01*
X117409719Y-64616874D01*
X117409719Y-64616873D01*
X117358565Y-64516478D01*
X117350500Y-64482883D01*
X117350500Y-63425217D01*
X117372174Y-63372891D01*
X117424500Y-63351217D01*
X117476826Y-63372891D01*
X117488586Y-63388217D01*
X117502894Y-63412999D01*
X117502894Y-63413002D01*
X117509539Y-63424510D01*
X117957826Y-63872797D01*
X117979500Y-63925123D01*
X117979500Y-64164314D01*
X117985932Y-64213174D01*
X118000961Y-64245404D01*
X118003431Y-64301987D01*
X117971564Y-64340372D01*
X117922710Y-64369264D01*
X117809264Y-64482710D01*
X117727594Y-64620806D01*
X117687154Y-64759999D01*
X117687155Y-64760000D01*
X119312845Y-64760000D01*
X119312845Y-64759999D01*
X119272405Y-64620806D01*
X119190735Y-64482710D01*
X119077290Y-64369265D01*
X119028435Y-64340372D01*
X118994430Y-64295079D01*
X118999038Y-64245404D01*
X119014068Y-64213173D01*
X119020500Y-64164316D01*
X119020500Y-63815684D01*
X119014068Y-63766827D01*
X118964065Y-63659596D01*
X118880404Y-63575935D01*
X118773173Y-63525932D01*
X118773171Y-63525931D01*
X118737178Y-63521193D01*
X118724316Y-63519500D01*
X118724314Y-63519500D01*
X118485123Y-63519500D01*
X118432797Y-63497826D01*
X118072174Y-63137203D01*
X118050500Y-63084877D01*
X118050500Y-62996301D01*
X118072174Y-62943975D01*
X118124500Y-62922301D01*
X118138927Y-62923721D01*
X118147867Y-62925500D01*
X118352132Y-62925499D01*
X118432495Y-62909515D01*
X118432497Y-62909513D01*
X118432812Y-62909451D01*
X118488361Y-62920501D01*
G37*
%TD.AperFunction*%
%TA.AperFunction,Conductor*%
G36*
X120963703Y-74613674D02*
G01*
X120985377Y-74666000D01*
X120963703Y-74718326D01*
X120911378Y-74740000D01*
X120765364Y-74740000D01*
X120729083Y-74742855D01*
X120573801Y-74787968D01*
X120537668Y-74809338D01*
X120481596Y-74817318D01*
X120462332Y-74809338D01*
X120426198Y-74787968D01*
X120270914Y-74742855D01*
X120270917Y-74742855D01*
X120250000Y-74741209D01*
X120250000Y-75270000D01*
X120926000Y-75270000D01*
X120978326Y-75291674D01*
X121000000Y-75344000D01*
X121000000Y-75696000D01*
X120978326Y-75748326D01*
X120926000Y-75770000D01*
X118506145Y-75770000D01*
X118496518Y-75749354D01*
X118490000Y-75699838D01*
X118490000Y-75620000D01*
X118734909Y-75620000D01*
X118691879Y-75420000D01*
X118490000Y-75420000D01*
X118490000Y-75340161D01*
X118496518Y-75290645D01*
X118506145Y-75270000D01*
X118750000Y-75270000D01*
X118750000Y-74741209D01*
X119250000Y-74741209D01*
X119250000Y-75270000D01*
X119750000Y-75270000D01*
X119750000Y-74741209D01*
X119729083Y-74742855D01*
X119573801Y-74787968D01*
X119537668Y-74809338D01*
X119481596Y-74817318D01*
X119462332Y-74809338D01*
X119426198Y-74787968D01*
X119270914Y-74742855D01*
X119270917Y-74742855D01*
X119250000Y-74741209D01*
X118750000Y-74741209D01*
X118729083Y-74742855D01*
X118573803Y-74787968D01*
X118557916Y-74797363D01*
X118478186Y-74426783D01*
X118546252Y-74358718D01*
X118598578Y-74337044D01*
X118650904Y-74358718D01*
X118692686Y-74400500D01*
X118806814Y-74466392D01*
X118934105Y-74500499D01*
X118934106Y-74500500D01*
X118934108Y-74500500D01*
X119065894Y-74500500D01*
X119065894Y-74500499D01*
X119193186Y-74466392D01*
X119307314Y-74400500D01*
X119400500Y-74307314D01*
X119466392Y-74193186D01*
X119500499Y-74065894D01*
X119500500Y-74065894D01*
X119500500Y-73934106D01*
X119500499Y-73934105D01*
X119496652Y-73919749D01*
X119466392Y-73806814D01*
X119400500Y-73692686D01*
X119307314Y-73599500D01*
X119195126Y-73534728D01*
X119193190Y-73533610D01*
X119193181Y-73533606D01*
X119065894Y-73499500D01*
X119065892Y-73499500D01*
X118934108Y-73499500D01*
X118934106Y-73499500D01*
X118806818Y-73533606D01*
X118806809Y-73533610D01*
X118692685Y-73599500D01*
X118614360Y-73677826D01*
X118562034Y-73699500D01*
X118519562Y-73699500D01*
X118440438Y-73699500D01*
X118364012Y-73719978D01*
X118364011Y-73719978D01*
X118364009Y-73719979D01*
X118364007Y-73719980D01*
X118295490Y-73759538D01*
X118330303Y-73739438D01*
X118290912Y-73556357D01*
X119072594Y-72722565D01*
X120963703Y-74613674D01*
G37*
%TD.AperFunction*%
%TA.AperFunction,Conductor*%
G36*
X111281750Y-75463172D02*
G01*
X111279336Y-75465588D01*
X111155067Y-75548620D01*
X110739409Y-75132962D01*
X110802993Y-75115925D01*
X110886367Y-75067789D01*
X111281750Y-75463172D01*
G37*
%TD.AperFunction*%
%TA.AperFunction,Conductor*%
G36*
X111508621Y-75195067D02*
G01*
X111425588Y-75319336D01*
X111423172Y-75321750D01*
X111027788Y-74926367D01*
X111075925Y-74842993D01*
X111092962Y-74779408D01*
X111508621Y-75195067D01*
G37*
%TD.AperFunction*%
%TA.AperFunction,Conductor*%
G36*
X109678845Y-72609676D02*
G01*
X109687719Y-72620559D01*
X109701369Y-72640988D01*
X109791369Y-72775684D01*
X109794023Y-72779655D01*
X109940345Y-72925977D01*
X110000000Y-72965836D01*
X110000000Y-73445669D01*
X109902450Y-73495374D01*
X109848282Y-73534729D01*
X110000000Y-73686446D01*
X110000000Y-73794763D01*
X110064931Y-73751378D01*
X110480591Y-74167037D01*
X110417007Y-74184075D01*
X110302993Y-74249901D01*
X110209901Y-74342993D01*
X110144075Y-74457007D01*
X110127037Y-74520590D01*
X109544165Y-73937718D01*
X109552193Y-72661202D01*
X109574195Y-72609018D01*
X109626656Y-72587673D01*
X109678845Y-72609676D01*
G37*
%TD.AperFunction*%
%TA.AperFunction,Conductor*%
G36*
X129493867Y-72520222D02*
G01*
X129499500Y-72548541D01*
X129499500Y-73863401D01*
X129477826Y-73915727D01*
X128872962Y-74520589D01*
X128855925Y-74457007D01*
X128790099Y-74342993D01*
X128697007Y-74249901D01*
X128582993Y-74184075D01*
X128519408Y-74167037D01*
X129151716Y-73534728D01*
X129097556Y-73495378D01*
X129097550Y-73495375D01*
X128908221Y-73398906D01*
X128908217Y-73398904D01*
X128706136Y-73333244D01*
X128706125Y-73333242D01*
X128513549Y-73302740D01*
X128465259Y-73273147D01*
X128452037Y-73218074D01*
X128481630Y-73169784D01*
X128510686Y-73157074D01*
X128696420Y-73120130D01*
X128887598Y-73040941D01*
X129059655Y-72925977D01*
X129205977Y-72779655D01*
X129320941Y-72607598D01*
X129357133Y-72520222D01*
X129397181Y-72480174D01*
X129453818Y-72480174D01*
X129493867Y-72520222D01*
G37*
%TD.AperFunction*%
%TA.AperFunction,Conductor*%
G36*
X118047203Y-71697174D02*
G01*
X118298053Y-71948024D01*
X118319727Y-72000350D01*
X118298053Y-72052676D01*
X118274048Y-72068716D01*
X118270050Y-72070371D01*
X118155920Y-72136265D01*
X118062735Y-72229450D01*
X118021668Y-72300579D01*
X118020764Y-72300735D01*
X117886244Y-71675500D01*
X117994877Y-71675500D01*
X118047203Y-71697174D01*
G37*
%TD.AperFunction*%
%TA.AperFunction,Conductor*%
G36*
X116125000Y-71674999D02*
G01*
X115975000Y-71674999D01*
X115975000Y-71250000D01*
X115575001Y-71250000D01*
X115575001Y-71100000D01*
X116125000Y-71100000D01*
X116125000Y-71674999D01*
G37*
%TD.AperFunction*%
%TA.AperFunction,Conductor*%
G36*
X116475000Y-71674999D02*
G01*
X116325000Y-71674999D01*
X116325000Y-71100000D01*
X116475000Y-71100000D01*
X116475000Y-71674999D01*
G37*
%TD.AperFunction*%
%TA.AperFunction,Conductor*%
G36*
X116125000Y-70900000D02*
G01*
X115575000Y-70900000D01*
X115575000Y-70750000D01*
X115975000Y-70750000D01*
X115975000Y-70325000D01*
X116125000Y-70325000D01*
X116125000Y-70900000D01*
G37*
%TD.AperFunction*%
%TA.AperFunction,Conductor*%
G36*
X116475000Y-70900000D02*
G01*
X116325000Y-70900000D01*
X116325000Y-70325000D01*
X116475000Y-70325000D01*
X116475000Y-70900000D01*
G37*
%TD.AperFunction*%
%TA.AperFunction,Conductor*%
G36*
X115950000Y-69874999D02*
G01*
X115866781Y-69874999D01*
X115800000Y-69865269D01*
X115800000Y-69187500D01*
X115550001Y-69187500D01*
X115550001Y-69037500D01*
X115950000Y-69037500D01*
X115950000Y-69874999D01*
G37*
%TD.AperFunction*%
%TA.AperFunction,Conductor*%
G36*
X116550000Y-69187500D02*
G01*
X116300000Y-69187500D01*
X116300000Y-69865269D01*
X116233224Y-69874998D01*
X116233211Y-69874999D01*
X116150000Y-69874999D01*
X116150000Y-69037500D01*
X116550000Y-69037500D01*
X116550000Y-69187500D01*
G37*
%TD.AperFunction*%
%TA.AperFunction,Conductor*%
G36*
X109710497Y-67577047D02*
G01*
X109719372Y-67587931D01*
X109783063Y-67683253D01*
X109794023Y-67699655D01*
X109940345Y-67845977D01*
X110000000Y-67885836D01*
X110000000Y-68316776D01*
X110000000Y-68714162D01*
X109940345Y-68754022D01*
X109940344Y-68754024D01*
X109794024Y-68900344D01*
X109794022Y-68900345D01*
X109710852Y-69024819D01*
X109663760Y-69056285D01*
X109608211Y-69045236D01*
X109576745Y-68998144D01*
X109575325Y-68983256D01*
X109583845Y-67628574D01*
X109605847Y-67576389D01*
X109658308Y-67555044D01*
X109710497Y-67577047D01*
G37*
%TD.AperFunction*%
%TA.AperFunction,Conductor*%
G36*
X115950000Y-68837500D02*
G01*
X115550000Y-68837500D01*
X115550000Y-68687500D01*
X115800000Y-68687500D01*
X115800000Y-68009729D01*
X115866776Y-68000001D01*
X115866788Y-68000000D01*
X115950000Y-68000000D01*
X115950000Y-68837500D01*
G37*
%TD.AperFunction*%
%TA.AperFunction,Conductor*%
G36*
X116300000Y-68009730D02*
G01*
X116300000Y-68687500D01*
X116549999Y-68687500D01*
X116549999Y-68837500D01*
X116150000Y-68837500D01*
X116150000Y-68000000D01*
X116233223Y-68000000D01*
X116300000Y-68009730D01*
G37*
%TD.AperFunction*%
%TA.AperFunction,Conductor*%
G36*
X109726323Y-65060733D02*
G01*
X109735198Y-65071617D01*
X109794023Y-65159655D01*
X109940345Y-65305977D01*
X110000000Y-65345836D01*
X110000000Y-66174162D01*
X109940345Y-66214022D01*
X109940344Y-66214024D01*
X109794024Y-66360344D01*
X109794022Y-66360345D01*
X109726979Y-66460683D01*
X109679886Y-66492149D01*
X109624338Y-66481100D01*
X109592872Y-66434007D01*
X109591452Y-66419117D01*
X109599671Y-65112260D01*
X109621673Y-65060075D01*
X109674134Y-65038730D01*
X109726323Y-65060733D01*
G37*
%TD.AperFunction*%
%TA.AperFunction,Conductor*%
G36*
X116677826Y-65697174D02*
G01*
X116699500Y-65749500D01*
X116699500Y-66112239D01*
X116677826Y-66164565D01*
X116692786Y-66128446D01*
X116595335Y-65675500D01*
X116625500Y-65675500D01*
X116677826Y-65697174D01*
G37*
%TD.AperFunction*%
%TA.AperFunction,Conductor*%
G36*
X115125000Y-65674999D02*
G01*
X114975000Y-65674999D01*
X114975000Y-65250000D01*
X114575001Y-65250000D01*
X114575001Y-65100000D01*
X115125000Y-65100000D01*
X115125000Y-65674999D01*
G37*
%TD.AperFunction*%
%TA.AperFunction,Conductor*%
G36*
X115475000Y-65674999D02*
G01*
X115325000Y-65674999D01*
X115325000Y-65100000D01*
X115475000Y-65100000D01*
X115475000Y-65674999D01*
G37*
%TD.AperFunction*%
%TA.AperFunction,Conductor*%
G36*
X114295105Y-56022174D02*
G01*
X114316779Y-56074500D01*
X114304308Y-56115611D01*
X114293811Y-56131319D01*
X114293810Y-56131323D01*
X114218430Y-56313306D01*
X114218427Y-56313317D01*
X114180000Y-56506509D01*
X114180000Y-56655000D01*
X114880000Y-56655000D01*
X114880000Y-57155000D01*
X114180000Y-57155000D01*
X114180000Y-57303490D01*
X114218427Y-57496682D01*
X114218430Y-57496693D01*
X114293809Y-57678675D01*
X114403246Y-57842459D01*
X114542540Y-57981753D01*
X114706324Y-58091190D01*
X114888306Y-58166569D01*
X114888317Y-58166572D01*
X114929999Y-58174863D01*
X114930000Y-58174863D01*
X114930000Y-57371988D01*
X114939940Y-57389205D01*
X114995795Y-57445060D01*
X115064204Y-57484556D01*
X115140504Y-57505000D01*
X115219496Y-57505000D01*
X115295796Y-57484556D01*
X115364205Y-57445060D01*
X115420060Y-57389205D01*
X115430000Y-57371988D01*
X115430000Y-58174863D01*
X115471682Y-58166572D01*
X115471693Y-58166569D01*
X115653675Y-58091190D01*
X115817459Y-57981753D01*
X115956753Y-57842459D01*
X116066190Y-57678675D01*
X116141569Y-57496693D01*
X116141572Y-57496682D01*
X116180000Y-57303490D01*
X116180000Y-57155000D01*
X115480000Y-57155000D01*
X115480000Y-56655000D01*
X116180000Y-56655000D01*
X116180000Y-56506509D01*
X116141572Y-56313317D01*
X116141569Y-56313306D01*
X116066189Y-56131323D01*
X116066188Y-56131319D01*
X116055692Y-56115611D01*
X116044643Y-56060062D01*
X116076110Y-56012971D01*
X116117221Y-56000500D01*
X122882779Y-56000500D01*
X122935105Y-56022174D01*
X122956779Y-56074500D01*
X122944308Y-56115611D01*
X122933811Y-56131319D01*
X122933810Y-56131323D01*
X122858430Y-56313306D01*
X122858427Y-56313317D01*
X122820000Y-56506509D01*
X122820000Y-56655000D01*
X123520000Y-56655000D01*
X123520000Y-57155000D01*
X122820000Y-57155000D01*
X122820000Y-57303490D01*
X122858427Y-57496682D01*
X122858430Y-57496693D01*
X122933809Y-57678675D01*
X123043246Y-57842459D01*
X123182540Y-57981753D01*
X123348032Y-58092332D01*
X123379498Y-58139425D01*
X123368449Y-58194973D01*
X123359246Y-58206187D01*
X121530489Y-60034946D01*
X121474540Y-60090894D01*
X121434979Y-60159415D01*
X121434977Y-60159421D01*
X121431043Y-60174101D01*
X121396562Y-60219032D01*
X121340409Y-60226421D01*
X121307240Y-60207270D01*
X120859510Y-59759540D01*
X120790989Y-59719979D01*
X120790984Y-59719977D01*
X120714563Y-59699500D01*
X120714561Y-59699500D01*
X118364563Y-59699500D01*
X118285439Y-59699500D01*
X118209013Y-59719978D01*
X118209012Y-59719978D01*
X118209010Y-59719979D01*
X118209008Y-59719980D01*
X118140491Y-59759538D01*
X117311826Y-60588203D01*
X117259500Y-60609877D01*
X117207174Y-60588203D01*
X117185500Y-60535877D01*
X117185500Y-60479232D01*
X117185499Y-60479231D01*
X117169663Y-60420131D01*
X117146281Y-60332865D01*
X117070515Y-60201635D01*
X116963365Y-60094485D01*
X116957147Y-60090895D01*
X116832139Y-60018721D01*
X116832130Y-60018717D01*
X116685768Y-59979500D01*
X116685766Y-59979500D01*
X116534234Y-59979500D01*
X116534232Y-59979500D01*
X116387869Y-60018717D01*
X116387860Y-60018721D01*
X116256636Y-60094484D01*
X116209992Y-60141127D01*
X116157666Y-60162800D01*
X116105340Y-60141125D01*
X116089300Y-60117118D01*
X116066190Y-60061324D01*
X115956753Y-59897540D01*
X115817459Y-59758246D01*
X115653675Y-59648809D01*
X115471691Y-59573429D01*
X115471684Y-59573427D01*
X115430000Y-59565136D01*
X115430000Y-60368011D01*
X115420060Y-60350795D01*
X115364205Y-60294940D01*
X115295796Y-60255444D01*
X115219496Y-60235000D01*
X115140504Y-60235000D01*
X115064204Y-60255444D01*
X114995795Y-60294940D01*
X114939940Y-60350795D01*
X114930000Y-60368011D01*
X114930000Y-59565136D01*
X114929999Y-59565136D01*
X114888315Y-59573427D01*
X114888308Y-59573429D01*
X114706324Y-59648809D01*
X114542540Y-59758246D01*
X114403246Y-59897540D01*
X114293809Y-60061324D01*
X114218430Y-60243306D01*
X114218427Y-60243317D01*
X114180000Y-60436509D01*
X114180000Y-60835000D01*
X114880000Y-60835000D01*
X114880000Y-61335000D01*
X114180000Y-61335000D01*
X114180000Y-61733490D01*
X114218427Y-61926682D01*
X114218430Y-61926693D01*
X114293809Y-62108675D01*
X114403246Y-62272459D01*
X114542540Y-62411753D01*
X114706324Y-62521190D01*
X114888306Y-62596569D01*
X114888317Y-62596572D01*
X114929999Y-62604863D01*
X114930000Y-62604863D01*
X114930000Y-61801988D01*
X114939940Y-61819205D01*
X114995795Y-61875060D01*
X115064204Y-61914556D01*
X115140504Y-61935000D01*
X115219496Y-61935000D01*
X115295796Y-61914556D01*
X115364205Y-61875060D01*
X115420060Y-61819205D01*
X115430000Y-61801988D01*
X115430000Y-62611147D01*
X115450714Y-62649901D01*
X115450842Y-62651346D01*
X115452900Y-62677493D01*
X115498718Y-62835199D01*
X115582317Y-62976556D01*
X115698443Y-63092682D01*
X115839800Y-63176281D01*
X115997506Y-63222099D01*
X116000000Y-63222295D01*
X116000000Y-62074000D01*
X116021674Y-62021674D01*
X116074000Y-62000000D01*
X116426000Y-62000000D01*
X116478326Y-62021674D01*
X116500000Y-62074000D01*
X116500000Y-63222295D01*
X116502493Y-63222099D01*
X116654855Y-63177834D01*
X116711150Y-63184049D01*
X116746562Y-63228251D01*
X116749500Y-63248896D01*
X116749500Y-64250500D01*
X116727826Y-64302826D01*
X116675500Y-64324500D01*
X116516511Y-64324500D01*
X116416874Y-64340280D01*
X116416873Y-64340281D01*
X116296780Y-64401471D01*
X116232448Y-64465803D01*
X116180121Y-64487477D01*
X116127796Y-64465803D01*
X116113056Y-64444751D01*
X116111550Y-64441522D01*
X116022573Y-64297268D01*
X115902731Y-64177426D01*
X115758482Y-64088452D01*
X115597608Y-64035144D01*
X115498311Y-64025000D01*
X115475000Y-64025000D01*
X115475000Y-65000000D01*
X111532654Y-65000000D01*
X111540941Y-64987598D01*
X111620130Y-64796420D01*
X111638973Y-64701688D01*
X114275000Y-64701688D01*
X114275000Y-64750000D01*
X114975000Y-64750000D01*
X114975000Y-64025000D01*
X114951693Y-64025000D01*
X114951686Y-64025001D01*
X114852391Y-64035144D01*
X114691517Y-64088452D01*
X114547268Y-64177426D01*
X114427426Y-64297268D01*
X114338452Y-64441517D01*
X114285144Y-64602391D01*
X114275000Y-64701688D01*
X111638973Y-64701688D01*
X111660500Y-64593465D01*
X111660500Y-64386535D01*
X111620130Y-64183580D01*
X111540941Y-63992402D01*
X111425977Y-63820345D01*
X111279655Y-63674023D01*
X111258063Y-63659596D01*
X111107598Y-63559059D01*
X110916420Y-63479870D01*
X110916414Y-63479868D01*
X110730689Y-63442926D01*
X110683597Y-63411460D01*
X110672548Y-63355911D01*
X110704014Y-63308819D01*
X110733550Y-63297259D01*
X110926123Y-63266758D01*
X110926136Y-63266755D01*
X111128217Y-63201095D01*
X111128221Y-63201093D01*
X111317554Y-63104623D01*
X111317561Y-63104618D01*
X111371716Y-63065270D01*
X111371717Y-63065270D01*
X110739409Y-62432962D01*
X110802993Y-62415925D01*
X110917007Y-62350099D01*
X111010099Y-62257007D01*
X111075925Y-62142993D01*
X111092962Y-62079409D01*
X111725270Y-62711717D01*
X111725270Y-62711716D01*
X111764618Y-62657561D01*
X111764623Y-62657554D01*
X111861093Y-62468221D01*
X111861095Y-62468217D01*
X111926755Y-62266136D01*
X111926758Y-62266123D01*
X111960000Y-62056248D01*
X111960000Y-61843751D01*
X111926758Y-61633876D01*
X111926755Y-61633863D01*
X111861095Y-61431782D01*
X111861093Y-61431777D01*
X111813283Y-61337946D01*
X111813282Y-61337944D01*
X111764623Y-61242447D01*
X111725269Y-61188282D01*
X111092962Y-61820590D01*
X111075925Y-61757007D01*
X111010099Y-61642993D01*
X110917007Y-61549901D01*
X110802993Y-61484075D01*
X110739407Y-61467036D01*
X111371716Y-60834728D01*
X111317556Y-60795378D01*
X111317550Y-60795375D01*
X111128221Y-60698906D01*
X111128217Y-60698904D01*
X110926136Y-60633244D01*
X110926125Y-60633242D01*
X110733549Y-60602740D01*
X110685259Y-60573147D01*
X110672037Y-60518074D01*
X110701630Y-60469784D01*
X110730686Y-60457074D01*
X110916420Y-60420130D01*
X111107598Y-60340941D01*
X111279655Y-60225977D01*
X111425977Y-60079655D01*
X111540941Y-59907598D01*
X111620130Y-59716420D01*
X111660500Y-59513465D01*
X111660500Y-59306535D01*
X111620130Y-59103580D01*
X111540941Y-58912402D01*
X111425977Y-58740345D01*
X111279655Y-58594023D01*
X111107598Y-58479059D01*
X110916420Y-58399870D01*
X110916413Y-58399868D01*
X110763516Y-58369455D01*
X110713465Y-58359500D01*
X110506535Y-58359500D01*
X110466385Y-58367486D01*
X110303586Y-58399868D01*
X110303579Y-58399870D01*
X110112401Y-58479059D01*
X109940345Y-58594022D01*
X109940344Y-58594024D01*
X109794020Y-58740348D01*
X109775357Y-58768279D01*
X109728264Y-58799744D01*
X109672716Y-58788694D01*
X109641251Y-58741601D01*
X109639831Y-58726721D01*
X109644458Y-57991145D01*
X109666460Y-57938959D01*
X109718921Y-57917614D01*
X109732885Y-57919034D01*
X109740252Y-57920500D01*
X109740255Y-57920500D01*
X111479746Y-57920500D01*
X111479748Y-57920500D01*
X111538231Y-57908867D01*
X111604552Y-57864552D01*
X111648867Y-57798231D01*
X111660500Y-57739748D01*
X111660500Y-56074500D01*
X111682174Y-56022174D01*
X111734500Y-56000500D01*
X114242779Y-56000500D01*
X114295105Y-56022174D01*
G37*
%TD.AperFunction*%
%TA.AperFunction,Conductor*%
G36*
X129477826Y-62684272D02*
G01*
X129499500Y-62736598D01*
X129499500Y-64051458D01*
X129477826Y-64103784D01*
X129425500Y-64125458D01*
X129373174Y-64103784D01*
X129357133Y-64079777D01*
X129334444Y-64025001D01*
X129320941Y-63992402D01*
X129205977Y-63820345D01*
X129059655Y-63674023D01*
X129038063Y-63659596D01*
X128887598Y-63559059D01*
X128696420Y-63479870D01*
X128696414Y-63479868D01*
X128510689Y-63442926D01*
X128463597Y-63411460D01*
X128452548Y-63355911D01*
X128484014Y-63308819D01*
X128513550Y-63297259D01*
X128706123Y-63266758D01*
X128706136Y-63266755D01*
X128908217Y-63201095D01*
X128908221Y-63201093D01*
X129097554Y-63104623D01*
X129097561Y-63104618D01*
X129151716Y-63065270D01*
X129151717Y-63065270D01*
X128519409Y-62432962D01*
X128582993Y-62415925D01*
X128697007Y-62350099D01*
X128790099Y-62257007D01*
X128855925Y-62142993D01*
X128872962Y-62079408D01*
X129477826Y-62684272D01*
G37*
%TD.AperFunction*%
%TA.AperFunction,Conductor*%
G36*
X129493867Y-59820222D02*
G01*
X129499500Y-59848541D01*
X129499500Y-61163401D01*
X129477826Y-61215727D01*
X128872962Y-61820589D01*
X128855925Y-61757007D01*
X128790099Y-61642993D01*
X128697007Y-61549901D01*
X128582993Y-61484075D01*
X128519407Y-61467037D01*
X129151716Y-60834728D01*
X129097556Y-60795378D01*
X129097550Y-60795375D01*
X128908221Y-60698906D01*
X128908217Y-60698904D01*
X128706136Y-60633244D01*
X128706125Y-60633242D01*
X128513549Y-60602740D01*
X128465259Y-60573147D01*
X128452037Y-60518074D01*
X128481630Y-60469784D01*
X128510686Y-60457074D01*
X128696420Y-60420130D01*
X128887598Y-60340941D01*
X129059655Y-60225977D01*
X129205977Y-60079655D01*
X129320941Y-59907598D01*
X129357133Y-59820222D01*
X129397181Y-59780174D01*
X129453818Y-59780174D01*
X129493867Y-59820222D01*
G37*
%TD.AperFunction*%
%TA.AperFunction,Conductor*%
G36*
X127317826Y-56022174D02*
G01*
X127339500Y-56074500D01*
X127339500Y-57464877D01*
X127317826Y-57517203D01*
X127152203Y-57682826D01*
X127099877Y-57704500D01*
X124806242Y-57704500D01*
X124753916Y-57682826D01*
X124732242Y-57630500D01*
X124737875Y-57602182D01*
X124781569Y-57496693D01*
X124781572Y-57496682D01*
X124820000Y-57303490D01*
X124820000Y-57155000D01*
X124120000Y-57155000D01*
X124120000Y-56655000D01*
X124820000Y-56655000D01*
X124820000Y-56506509D01*
X124781572Y-56313317D01*
X124781569Y-56313306D01*
X124706189Y-56131323D01*
X124706188Y-56131319D01*
X124695692Y-56115611D01*
X124684643Y-56060062D01*
X124716110Y-56012971D01*
X124757221Y-56000500D01*
X127265500Y-56000500D01*
X127317826Y-56022174D01*
G37*
%TD.AperFunction*%
%TD*%
%TA.AperFunction,Conductor*%
%TO.N,GND*%
G36*
X115102091Y-92427531D02*
G01*
X115123765Y-92479857D01*
X115123765Y-93209032D01*
X113923186Y-93501784D01*
X114997439Y-92427530D01*
X115049765Y-92405857D01*
X115102091Y-92427531D01*
G37*
%TD.AperFunction*%
%TA.AperFunction,Conductor*%
G36*
X115902826Y-92475327D02*
G01*
X115924500Y-92527653D01*
X115924500Y-93013779D01*
X115724765Y-93062483D01*
X115724765Y-92579388D01*
X115746439Y-92527062D01*
X115798174Y-92475327D01*
X115850500Y-92453653D01*
X115902826Y-92475327D01*
G37*
%TD.AperFunction*%
%TA.AperFunction,Conductor*%
G36*
X118778326Y-92191674D02*
G01*
X118800000Y-92244000D01*
X118800000Y-92312610D01*
X117000000Y-92751527D01*
X117000000Y-92469000D01*
X117021674Y-92416674D01*
X117074000Y-92395000D01*
X117520000Y-92395000D01*
X117520000Y-92244000D01*
X117541674Y-92191674D01*
X117594000Y-92170000D01*
X118726000Y-92170000D01*
X118778326Y-92191674D01*
G37*
%TD.AperFunction*%
%TA.AperFunction,Conductor*%
G36*
X118297826Y-90961892D02*
G01*
X118319500Y-91014218D01*
X118319500Y-91144314D01*
X118325931Y-91193171D01*
X118337226Y-91217392D01*
X118339696Y-91273976D01*
X118301433Y-91315733D01*
X118277680Y-91322283D01*
X118197302Y-91330494D01*
X118030878Y-91385642D01*
X117881656Y-91477683D01*
X117878272Y-91480359D01*
X117877096Y-91478872D01*
X117830512Y-91498154D01*
X117778192Y-91476466D01*
X117759054Y-91443307D01*
X117750954Y-91413079D01*
X117740527Y-91395018D01*
X117730613Y-91358019D01*
X117730613Y-91146312D01*
X117752287Y-91093986D01*
X117884381Y-90961892D01*
X117936707Y-90940218D01*
X118245500Y-90940218D01*
X118297826Y-90961892D01*
G37*
%TD.AperFunction*%
%TA.AperFunction,Conductor*%
G36*
X118837922Y-87363941D02*
G01*
X118819122Y-87434105D01*
X118819122Y-87456178D01*
X118797448Y-87508504D01*
X118745122Y-87530178D01*
X118717977Y-87525019D01*
X118681449Y-87510615D01*
X118681444Y-87510614D01*
X118600000Y-87500832D01*
X118600000Y-88016610D01*
X118599644Y-88023857D01*
X118599500Y-88025320D01*
X118599500Y-89925500D01*
X118577826Y-89977826D01*
X118525500Y-89999500D01*
X118431512Y-89999500D01*
X118355090Y-90019977D01*
X118355085Y-90019979D01*
X118328223Y-90035489D01*
X118286564Y-90059540D01*
X118126826Y-90219279D01*
X118074500Y-90240953D01*
X118022174Y-90219279D01*
X118000500Y-90166953D01*
X118000500Y-89323376D01*
X118022174Y-89271050D01*
X118074500Y-89249376D01*
X118119214Y-89264413D01*
X118177905Y-89308921D01*
X118318557Y-89364386D01*
X118318562Y-89364387D01*
X118399999Y-89374166D01*
X118400000Y-89374165D01*
X118400000Y-88858385D01*
X118400357Y-88851129D01*
X118400500Y-88849677D01*
X118400500Y-87374535D01*
X118410415Y-87337534D01*
X118428297Y-87306562D01*
X118462405Y-87179268D01*
X118462405Y-87047484D01*
X118462405Y-87047482D01*
X118462404Y-87047481D01*
X118461201Y-87042993D01*
X118428297Y-86920190D01*
X118362405Y-86806062D01*
X118269219Y-86712876D01*
X118234247Y-86692685D01*
X118155095Y-86646986D01*
X118155086Y-86646982D01*
X118027799Y-86612876D01*
X118027797Y-86612876D01*
X117896013Y-86612876D01*
X117896011Y-86612876D01*
X117768723Y-86646982D01*
X117768714Y-86646986D01*
X117654590Y-86712876D01*
X117569086Y-86798381D01*
X117516760Y-86820055D01*
X117464434Y-86798381D01*
X117452676Y-86783058D01*
X117400500Y-86692686D01*
X117318987Y-86611173D01*
X117299835Y-86578000D01*
X117280022Y-86504058D01*
X117280020Y-86504053D01*
X117240459Y-86435532D01*
X117164502Y-86359575D01*
X117142828Y-86307249D01*
X117164502Y-86254923D01*
X117179825Y-86243164D01*
X117184511Y-86240460D01*
X117240460Y-86184511D01*
X117840460Y-85584511D01*
X117880021Y-85515989D01*
X117900499Y-85439564D01*
X117900500Y-85439564D01*
X117900500Y-83608003D01*
X118837922Y-87363941D01*
G37*
%TD.AperFunction*%
%TA.AperFunction,Conductor*%
G36*
X111899500Y-84290122D02*
G01*
X111919977Y-84366543D01*
X111919979Y-84366548D01*
X111934115Y-84391031D01*
X111959540Y-84435069D01*
X112731672Y-85207201D01*
X112731677Y-85207207D01*
X112734260Y-85209790D01*
X112734261Y-85209791D01*
X112912361Y-85387890D01*
X112934035Y-85440215D01*
X112912361Y-85492540D01*
X112870284Y-85534617D01*
X112870282Y-85534620D01*
X112787968Y-85673804D01*
X112742855Y-85829083D01*
X112741209Y-85850000D01*
X113446000Y-85850000D01*
X113498326Y-85871674D01*
X113520000Y-85924000D01*
X113520000Y-86276000D01*
X113498326Y-86328326D01*
X113446000Y-86350000D01*
X112741211Y-86350000D01*
X112729056Y-86363148D01*
X112722168Y-86384342D01*
X112671702Y-86410051D01*
X112617839Y-86392545D01*
X112613576Y-86388605D01*
X111573452Y-85348481D01*
X111551778Y-85296155D01*
X111557411Y-85267836D01*
X111581455Y-85209788D01*
X111620130Y-85116420D01*
X111660500Y-84913465D01*
X111660500Y-84706535D01*
X111620130Y-84503580D01*
X111540941Y-84312402D01*
X111425977Y-84140345D01*
X111279655Y-83994023D01*
X111199299Y-83940331D01*
X111147465Y-83174302D01*
X111279655Y-83085977D01*
X111425977Y-82939655D01*
X111540941Y-82767598D01*
X111620130Y-82576420D01*
X111660500Y-82373465D01*
X111660500Y-82188008D01*
X111899500Y-82168291D01*
X111899500Y-84290122D01*
G37*
%TD.AperFunction*%
%TA.AperFunction,Conductor*%
G36*
X116422918Y-81802960D02*
G01*
X116491440Y-81842521D01*
X116491441Y-81842521D01*
X116491443Y-81842522D01*
X116544653Y-81856780D01*
X116589586Y-81891258D01*
X116599500Y-81928258D01*
X116599500Y-81968312D01*
X116577826Y-82020638D01*
X116562502Y-82032397D01*
X116533882Y-82048921D01*
X116515488Y-82059540D01*
X116497203Y-82077826D01*
X116444877Y-82099500D01*
X116045123Y-82099500D01*
X115992797Y-82077826D01*
X115764407Y-81849436D01*
X116415665Y-81795707D01*
X116422918Y-81802960D01*
G37*
%TD.AperFunction*%
%TA.AperFunction,Conductor*%
G36*
X114229354Y-80966518D02*
G01*
X114229353Y-80966518D01*
X114250000Y-80976145D01*
X114250000Y-81396000D01*
X114228326Y-81448326D01*
X114176000Y-81470000D01*
X114042840Y-81470000D01*
X114058022Y-81462713D01*
X114078326Y-81448326D01*
X114100000Y-81396000D01*
X114100000Y-80960000D01*
X114179838Y-80960000D01*
X114229354Y-80966518D01*
G37*
%TD.AperFunction*%
%TA.AperFunction,Conductor*%
G36*
X113900000Y-81370000D02*
G01*
X113750000Y-81370000D01*
X113750000Y-80976144D01*
X113770645Y-80966518D01*
X113820162Y-80960000D01*
X113900000Y-80960000D01*
X113900000Y-81370000D01*
G37*
%TD.AperFunction*%
%TA.AperFunction,Conductor*%
G36*
X114737714Y-80965080D02*
G01*
X114737712Y-80965079D01*
X114780100Y-80959500D01*
X114737714Y-80965080D01*
G37*
%TD.AperFunction*%
%TD*%
%TA.AperFunction,Conductor*%
%TO.N,GND*%
G36*
X116420000Y-75250000D02*
G01*
X116045287Y-75250000D01*
X116040000Y-75209838D01*
X116040000Y-75100000D01*
X116420000Y-75100000D01*
X116420000Y-75250000D01*
G37*
%TD.AperFunction*%
%TA.AperFunction,Conductor*%
G36*
X116498326Y-74771674D02*
G01*
X116520000Y-74824000D01*
X116520000Y-74957159D01*
X116512713Y-74941978D01*
X116498326Y-74921674D01*
X116446000Y-74900000D01*
X116040000Y-74900000D01*
X116040000Y-74790162D01*
X116042107Y-74774160D01*
X116042740Y-74764500D01*
X116036734Y-74750000D01*
X116446000Y-74750000D01*
X116498326Y-74771674D01*
G37*
%TD.AperFunction*%
%TA.AperFunction,Conductor*%
G36*
X119051975Y-72701946D02*
G01*
X119072594Y-72722565D01*
X118290912Y-73556358D01*
X118216141Y-73208829D01*
X118240460Y-73184511D01*
X118366031Y-73058938D01*
X118418357Y-73037265D01*
X118529129Y-73037265D01*
X118529129Y-73037264D01*
X118656421Y-73003157D01*
X118770549Y-72937265D01*
X118863735Y-72844079D01*
X118929627Y-72729951D01*
X118929628Y-72729946D01*
X118931279Y-72725961D01*
X118971323Y-72685908D01*
X119027960Y-72685902D01*
X119051975Y-72701946D01*
G37*
%TD.AperFunction*%
%TA.AperFunction,Conductor*%
G36*
X118020984Y-72301761D02*
G01*
X118020764Y-72300736D01*
X118021668Y-72300579D01*
X118020984Y-72301761D01*
G37*
%TD.AperFunction*%
%TA.AperFunction,Conductor*%
G36*
X119483856Y-72283885D02*
G01*
X119281456Y-72081485D01*
X119750000Y-72000000D01*
X119483856Y-72283885D01*
G37*
%TD.AperFunction*%
%TD*%
%TA.AperFunction,Conductor*%
%TO.N,GND*%
G36*
X110112402Y-78120941D02*
G01*
X110303580Y-78200130D01*
X110506535Y-78240500D01*
X110506536Y-78240500D01*
X110713464Y-78240500D01*
X110713465Y-78240500D01*
X110916420Y-78200130D01*
X111067836Y-78137411D01*
X111124474Y-78137411D01*
X111148481Y-78153452D01*
X111877826Y-78882797D01*
X111899500Y-78935123D01*
X111899500Y-82168291D01*
X111660500Y-82188008D01*
X111660500Y-82166535D01*
X111647166Y-82099500D01*
X111620130Y-81963580D01*
X111540941Y-81772402D01*
X111425977Y-81600345D01*
X111279655Y-81454023D01*
X111219998Y-81414162D01*
X111107598Y-81339059D01*
X110916420Y-81259870D01*
X110916413Y-81259868D01*
X110763516Y-81229455D01*
X110713465Y-81219500D01*
X110506535Y-81219500D01*
X110466385Y-81227486D01*
X110303586Y-81259868D01*
X110303579Y-81259870D01*
X110112401Y-81339059D01*
X110000000Y-81414162D01*
X110000000Y-80585836D01*
X110112402Y-80660941D01*
X110303580Y-80740130D01*
X110506535Y-80780500D01*
X110506536Y-80780500D01*
X110713464Y-80780500D01*
X110713465Y-80780500D01*
X110916420Y-80740130D01*
X111107598Y-80660941D01*
X111279655Y-80545977D01*
X111425977Y-80399655D01*
X111540941Y-80227598D01*
X111620130Y-80036420D01*
X111660500Y-79833465D01*
X111660500Y-79626535D01*
X111620130Y-79423580D01*
X111540941Y-79232402D01*
X111425977Y-79060345D01*
X111279655Y-78914023D01*
X111265359Y-78904471D01*
X111107598Y-78799059D01*
X110916420Y-78719870D01*
X110916413Y-78719868D01*
X110763516Y-78689455D01*
X110713465Y-78679500D01*
X110506535Y-78679500D01*
X110466385Y-78687486D01*
X110303586Y-78719868D01*
X110303579Y-78719870D01*
X110112401Y-78799059D01*
X110000000Y-78874162D01*
X110000000Y-78045836D01*
X110112402Y-78120941D01*
G37*
%TD.AperFunction*%
%TA.AperFunction,Conductor*%
G36*
X113451826Y-78831867D02*
G01*
X114782005Y-80162046D01*
X115270825Y-80650867D01*
X115270827Y-80650868D01*
X116366968Y-81747010D01*
X116415665Y-81795707D01*
X115764407Y-81849436D01*
X115462173Y-81547202D01*
X115440499Y-81494876D01*
X115440499Y-81260100D01*
X115433972Y-81210514D01*
X115433972Y-81210513D01*
X115383224Y-81101684D01*
X115298316Y-81016776D01*
X115189487Y-80966028D01*
X115189485Y-80966027D01*
X115152955Y-80961218D01*
X115139901Y-80959500D01*
X115139899Y-80959500D01*
X114780100Y-80959500D01*
X114730514Y-80966027D01*
X114730512Y-80966028D01*
X114621683Y-81016776D01*
X114532198Y-81106262D01*
X114529519Y-81103583D01*
X114492269Y-81127123D01*
X114437019Y-81114663D01*
X114427359Y-81106527D01*
X114338024Y-81017192D01*
X114229353Y-80966518D01*
X114229354Y-80966518D01*
X114179838Y-80960000D01*
X114100000Y-80960000D01*
X114100000Y-81396000D01*
X114078326Y-81448326D01*
X114058022Y-81462713D01*
X114000000Y-81490563D01*
X114000000Y-81496000D01*
X113978326Y-81548326D01*
X113926000Y-81570000D01*
X113520000Y-81570000D01*
X113520000Y-81679838D01*
X113526518Y-81729354D01*
X113569791Y-81822152D01*
X113572261Y-81878736D01*
X113533998Y-81920493D01*
X113521877Y-81924904D01*
X113406818Y-81955734D01*
X113402817Y-81957392D01*
X113346179Y-81957390D01*
X113306132Y-81917341D01*
X113300500Y-81889024D01*
X113300500Y-81260161D01*
X113520000Y-81260161D01*
X113520000Y-81370000D01*
X113900000Y-81370000D01*
X113900000Y-80960000D01*
X113820162Y-80960000D01*
X113770645Y-80966518D01*
X113661975Y-81017192D01*
X113577192Y-81101975D01*
X113526518Y-81210645D01*
X113520000Y-81260161D01*
X113300500Y-81260161D01*
X113300500Y-80015151D01*
X113304623Y-79994432D01*
X113303766Y-79994203D01*
X113325499Y-79913093D01*
X113325500Y-79913093D01*
X113325500Y-78884193D01*
X113347174Y-78831867D01*
X113399500Y-78810193D01*
X113451826Y-78831867D01*
G37*
%TD.AperFunction*%
%TA.AperFunction,Conductor*%
G36*
X115677826Y-77541183D02*
G01*
X115699500Y-77593509D01*
X115699500Y-78069746D01*
X115711133Y-78128232D01*
X115727985Y-78153452D01*
X115755448Y-78194552D01*
X115799560Y-78224027D01*
X115821767Y-78238866D01*
X115821768Y-78238866D01*
X115821769Y-78238867D01*
X115880252Y-78250500D01*
X116025500Y-78250500D01*
X116077826Y-78272174D01*
X116099500Y-78324500D01*
X116099500Y-78389564D01*
X116119977Y-78465985D01*
X116119978Y-78465988D01*
X116119979Y-78465989D01*
X116155164Y-78526932D01*
X116155165Y-78526934D01*
X116155164Y-78526934D01*
X116159537Y-78534508D01*
X117377826Y-79752797D01*
X117399500Y-79805123D01*
X117399500Y-80524517D01*
X117377826Y-80576843D01*
X117325500Y-80598517D01*
X117273174Y-80576843D01*
X116455871Y-79759540D01*
X116416960Y-79737075D01*
X116387350Y-79719979D01*
X116387345Y-79719977D01*
X116310924Y-79699500D01*
X116310922Y-79699500D01*
X115765738Y-79699500D01*
X115713412Y-79677826D01*
X114470119Y-78434533D01*
X114448445Y-78382207D01*
X114470119Y-78329881D01*
X114475000Y-78325000D01*
X114675000Y-78325000D01*
X114988355Y-78325000D01*
X115064923Y-78309769D01*
X115151750Y-78251752D01*
X115151752Y-78251750D01*
X115209769Y-78164923D01*
X115222683Y-78100000D01*
X114675000Y-78100000D01*
X114675000Y-78325000D01*
X114475000Y-78325000D01*
X114475000Y-78074000D01*
X114496674Y-78021674D01*
X114516978Y-78007287D01*
X114575000Y-77979436D01*
X114575000Y-77974000D01*
X114596674Y-77921674D01*
X114649000Y-77900000D01*
X115222684Y-77900000D01*
X115222683Y-77899999D01*
X115217732Y-77875105D01*
X115228781Y-77819556D01*
X115271155Y-77789190D01*
X115305375Y-77780021D01*
X115373897Y-77740460D01*
X115429846Y-77684511D01*
X115573174Y-77541183D01*
X115625500Y-77519509D01*
X115677826Y-77541183D01*
G37*
%TD.AperFunction*%
%TA.AperFunction,Conductor*%
G36*
X110112402Y-73040941D02*
G01*
X110303580Y-73120130D01*
X110506535Y-73160500D01*
X110506536Y-73160500D01*
X110713464Y-73160500D01*
X110713465Y-73160500D01*
X110916420Y-73120130D01*
X111067836Y-73057411D01*
X111124474Y-73057411D01*
X111148481Y-73073452D01*
X112302826Y-74227797D01*
X112324500Y-74280123D01*
X112324500Y-78300877D01*
X112302826Y-78353203D01*
X112250500Y-78374877D01*
X112198174Y-78353203D01*
X111573452Y-77728481D01*
X111551778Y-77676155D01*
X111557411Y-77647836D01*
X111620130Y-77496420D01*
X111660500Y-77293465D01*
X111660500Y-77086535D01*
X111620130Y-76883580D01*
X111540941Y-76692402D01*
X111425977Y-76520345D01*
X111279655Y-76374023D01*
X111221077Y-76334883D01*
X111107598Y-76259059D01*
X110916420Y-76179870D01*
X110916413Y-76179868D01*
X110763516Y-76149455D01*
X110713465Y-76139500D01*
X110506535Y-76139500D01*
X110466385Y-76147486D01*
X110303586Y-76179868D01*
X110303579Y-76179870D01*
X110112401Y-76259059D01*
X110000000Y-76334162D01*
X110000000Y-75505235D01*
X110112641Y-75580499D01*
X110303725Y-75659649D01*
X110303732Y-75659651D01*
X110506584Y-75700000D01*
X110713416Y-75700000D01*
X110916267Y-75659651D01*
X110916274Y-75659649D01*
X111107358Y-75580499D01*
X111279336Y-75465588D01*
X111281750Y-75463172D01*
X110886367Y-75067789D01*
X110917007Y-75050099D01*
X111010099Y-74957007D01*
X111027788Y-74926367D01*
X111423172Y-75321750D01*
X111425588Y-75319336D01*
X111540499Y-75147358D01*
X111619649Y-74956274D01*
X111619651Y-74956267D01*
X111660000Y-74753415D01*
X111660000Y-74546584D01*
X111619651Y-74343732D01*
X111619649Y-74343725D01*
X111540499Y-74152641D01*
X111425589Y-73980664D01*
X111423173Y-73978248D01*
X111027788Y-74373631D01*
X111010099Y-74342993D01*
X110917007Y-74249901D01*
X110886365Y-74232210D01*
X111281750Y-73836825D01*
X111279335Y-73834410D01*
X111107358Y-73719500D01*
X110916274Y-73640350D01*
X110916267Y-73640348D01*
X110713416Y-73600000D01*
X110506584Y-73600000D01*
X110303732Y-73640348D01*
X110303725Y-73640350D01*
X110112641Y-73719500D01*
X110000000Y-73794763D01*
X110000000Y-72965836D01*
X110112402Y-73040941D01*
G37*
%TD.AperFunction*%
%TA.AperFunction,Conductor*%
G36*
X118624116Y-75105050D02*
G01*
X118547192Y-75181975D01*
X118496518Y-75290645D01*
X118490000Y-75340161D01*
X118490000Y-75420000D01*
X118691879Y-75420000D01*
X118734909Y-75620000D01*
X118490000Y-75620000D01*
X118490000Y-75699838D01*
X118496518Y-75749354D01*
X118547192Y-75858024D01*
X118636527Y-75947359D01*
X118658201Y-75999685D01*
X118636527Y-76052011D01*
X118636032Y-76052427D01*
X118546776Y-76141683D01*
X118496027Y-76250514D01*
X118489500Y-76300100D01*
X118489500Y-76659899D01*
X118496027Y-76709485D01*
X118496028Y-76709487D01*
X118546776Y-76818316D01*
X118631684Y-76903224D01*
X118740513Y-76953972D01*
X118790099Y-76960500D01*
X118925499Y-76960499D01*
X118977826Y-76982173D01*
X118999500Y-77034498D01*
X118999500Y-77440806D01*
X118977826Y-77493132D01*
X118925500Y-77514806D01*
X118873174Y-77493132D01*
X118139582Y-76759540D01*
X118106496Y-76740438D01*
X118106492Y-76740435D01*
X118097485Y-76735234D01*
X118063009Y-76690299D01*
X118061911Y-76656714D01*
X118075500Y-76588401D01*
X118075499Y-76411600D01*
X118060240Y-76334883D01*
X118002112Y-76247888D01*
X117993292Y-76241995D01*
X117915117Y-76189760D01*
X117840062Y-76174830D01*
X117792971Y-76143363D01*
X117780500Y-76102252D01*
X117780500Y-75518000D01*
X117802174Y-75465674D01*
X117813556Y-75457710D01*
X117813014Y-75456936D01*
X117818311Y-75453225D01*
X117818316Y-75453224D01*
X117903224Y-75368316D01*
X117953972Y-75259487D01*
X117960500Y-75209901D01*
X117960499Y-74975121D01*
X117982172Y-74922797D01*
X118478186Y-74426783D01*
X118624116Y-75105050D01*
G37*
%TD.AperFunction*%
%TA.AperFunction,Conductor*%
G36*
X116124500Y-65283488D02*
G01*
X116140280Y-65383125D01*
X116140281Y-65383126D01*
X116201320Y-65502923D01*
X116201472Y-65503220D01*
X116296780Y-65598528D01*
X116416874Y-65659719D01*
X116516511Y-65675500D01*
X116516512Y-65675500D01*
X116595335Y-65675500D01*
X116692786Y-66128446D01*
X116677826Y-66164565D01*
X116658003Y-66178719D01*
X116643517Y-66185801D01*
X116560801Y-66268517D01*
X116509427Y-66373605D01*
X116509427Y-66373606D01*
X116499500Y-66441735D01*
X116499500Y-67683264D01*
X116509427Y-67751393D01*
X116509427Y-67751394D01*
X116560801Y-67856482D01*
X116560802Y-67856483D01*
X116643517Y-67939198D01*
X116748607Y-67990573D01*
X116816740Y-68000500D01*
X116816746Y-68000500D01*
X117095562Y-68000500D01*
X117474500Y-69761760D01*
X117474500Y-70267951D01*
X117452826Y-70320277D01*
X117421665Y-70336171D01*
X117422416Y-70338480D01*
X117416873Y-70340281D01*
X117296780Y-70401471D01*
X117201471Y-70496780D01*
X117140281Y-70616873D01*
X117140280Y-70616874D01*
X117124500Y-70716511D01*
X117124500Y-71283488D01*
X117140280Y-71383125D01*
X117140281Y-71383126D01*
X117201320Y-71502923D01*
X117201472Y-71503220D01*
X117296780Y-71598528D01*
X117416874Y-71659719D01*
X117516511Y-71675500D01*
X117516512Y-71675500D01*
X117886244Y-71675500D01*
X118020985Y-72301762D01*
X117996845Y-72343574D01*
X117996841Y-72343583D01*
X117962735Y-72470870D01*
X117962735Y-72479614D01*
X117941061Y-72531940D01*
X117888735Y-72553614D01*
X117847801Y-72536658D01*
X117845708Y-72539649D01*
X117840404Y-72535935D01*
X117831837Y-72531940D01*
X117733173Y-72485932D01*
X117733171Y-72485931D01*
X117697178Y-72481193D01*
X117684316Y-72479500D01*
X117335684Y-72479500D01*
X117324318Y-72480996D01*
X117286828Y-72485931D01*
X117179595Y-72535935D01*
X117095935Y-72619595D01*
X117067067Y-72681504D01*
X117025309Y-72719767D01*
X116968726Y-72717297D01*
X116932933Y-72681504D01*
X116904065Y-72619597D01*
X116904065Y-72619596D01*
X116820404Y-72535935D01*
X116713173Y-72485932D01*
X116713171Y-72485931D01*
X116677178Y-72481193D01*
X116664316Y-72479500D01*
X116315684Y-72479500D01*
X116304318Y-72480996D01*
X116266828Y-72485931D01*
X116159595Y-72535935D01*
X116075933Y-72619597D01*
X116058599Y-72656773D01*
X116016842Y-72695037D01*
X115991532Y-72699500D01*
X115940436Y-72699500D01*
X115864014Y-72719977D01*
X115864009Y-72719979D01*
X115795488Y-72759540D01*
X114097203Y-74457826D01*
X114044877Y-74479500D01*
X113805684Y-74479500D01*
X113794318Y-74480996D01*
X113756828Y-74485931D01*
X113649595Y-74535935D01*
X113565935Y-74619595D01*
X113515931Y-74726828D01*
X113510972Y-74764500D01*
X113509849Y-74773037D01*
X113509500Y-74775685D01*
X113509500Y-75224314D01*
X113515931Y-75273171D01*
X113515932Y-75273173D01*
X113565935Y-75380404D01*
X113649596Y-75464065D01*
X113756827Y-75514068D01*
X113805684Y-75520500D01*
X114044877Y-75520500D01*
X114097203Y-75542174D01*
X114252826Y-75697797D01*
X114274500Y-75750123D01*
X114274500Y-76100500D01*
X114252826Y-76152826D01*
X114200502Y-76174500D01*
X114161600Y-76174500D01*
X114084882Y-76189760D01*
X114078147Y-76192550D01*
X114077324Y-76190563D01*
X114047858Y-76199500D01*
X114005366Y-76199500D01*
X113928940Y-76219978D01*
X113928939Y-76219978D01*
X113928937Y-76219979D01*
X113928935Y-76219980D01*
X113860420Y-76259537D01*
X113451826Y-76668131D01*
X113399500Y-76689805D01*
X113347174Y-76668131D01*
X113325500Y-76615805D01*
X113325500Y-73919750D01*
X113325499Y-73919749D01*
X113305022Y-73843328D01*
X113305020Y-73843323D01*
X113265459Y-73774802D01*
X112355017Y-72864360D01*
X112333343Y-72812034D01*
X112333343Y-71283451D01*
X115575001Y-71283451D01*
X115590761Y-71382969D01*
X115590762Y-71382971D01*
X115651882Y-71502923D01*
X115747078Y-71598119D01*
X115867030Y-71659237D01*
X115867031Y-71659238D01*
X115966548Y-71674999D01*
X116125000Y-71674999D01*
X116325000Y-71674999D01*
X116483451Y-71674999D01*
X116582969Y-71659238D01*
X116582971Y-71659237D01*
X116702923Y-71598117D01*
X116798119Y-71502921D01*
X116859237Y-71382969D01*
X116859238Y-71382968D01*
X116875000Y-71283451D01*
X116875000Y-71100000D01*
X116325000Y-71100000D01*
X116325000Y-71674999D01*
X116125000Y-71674999D01*
X116125000Y-71100000D01*
X115575001Y-71100000D01*
X115575001Y-71283451D01*
X112333343Y-71283451D01*
X112333343Y-70953279D01*
X112333342Y-70953278D01*
X112312865Y-70876857D01*
X112312863Y-70876852D01*
X112273302Y-70808331D01*
X112181519Y-70716548D01*
X115575000Y-70716548D01*
X115575000Y-70900000D01*
X116125000Y-70900000D01*
X116325000Y-70900000D01*
X116874999Y-70900000D01*
X116874999Y-70716548D01*
X116859238Y-70617030D01*
X116859237Y-70617028D01*
X116798117Y-70497076D01*
X116702921Y-70401880D01*
X116582969Y-70340762D01*
X116582968Y-70340761D01*
X116483452Y-70325000D01*
X116325000Y-70325000D01*
X116325000Y-70900000D01*
X116125000Y-70900000D01*
X116125000Y-70325000D01*
X115966548Y-70325000D01*
X115867030Y-70340761D01*
X115867028Y-70340762D01*
X115747076Y-70401882D01*
X115651880Y-70497078D01*
X115590762Y-70617030D01*
X115590761Y-70617031D01*
X115575000Y-70716548D01*
X112181519Y-70716548D01*
X111573452Y-70108481D01*
X111551778Y-70056155D01*
X111557411Y-70027836D01*
X111620130Y-69876420D01*
X111660500Y-69673465D01*
X111660500Y-69558224D01*
X115550001Y-69558224D01*
X115559912Y-69626250D01*
X115611213Y-69731188D01*
X115693810Y-69813785D01*
X115798750Y-69865087D01*
X115866781Y-69874999D01*
X115950000Y-69874999D01*
X116150000Y-69874999D01*
X116233211Y-69874999D01*
X116233224Y-69874998D01*
X116301250Y-69865087D01*
X116406188Y-69813786D01*
X116488785Y-69731189D01*
X116540087Y-69626249D01*
X116549999Y-69558223D01*
X116550000Y-69558212D01*
X116550000Y-69037500D01*
X116150000Y-69037500D01*
X116150000Y-69874999D01*
X115950000Y-69874999D01*
X115950000Y-69037500D01*
X115550001Y-69037500D01*
X115550001Y-69558224D01*
X111660500Y-69558224D01*
X111660500Y-69466535D01*
X111620130Y-69263580D01*
X111540941Y-69072402D01*
X111540940Y-69072400D01*
X111540939Y-69072398D01*
X111524613Y-69047964D01*
X111524610Y-69047960D01*
X111425977Y-68900345D01*
X111279654Y-68754022D01*
X111107598Y-68639059D01*
X110916420Y-68559870D01*
X110916413Y-68559868D01*
X110763516Y-68529455D01*
X110713465Y-68519500D01*
X110506535Y-68519500D01*
X110466385Y-68527486D01*
X110303586Y-68559868D01*
X110303579Y-68559870D01*
X110112401Y-68639059D01*
X110000000Y-68714162D01*
X110000000Y-68316776D01*
X115550000Y-68316776D01*
X115550000Y-68837500D01*
X115950000Y-68837500D01*
X116150000Y-68837500D01*
X116549999Y-68837500D01*
X116549999Y-68316789D01*
X116549998Y-68316775D01*
X116540087Y-68248749D01*
X116488786Y-68143811D01*
X116406189Y-68061214D01*
X116301249Y-68009912D01*
X116233223Y-68000000D01*
X116150000Y-68000000D01*
X116150000Y-68837500D01*
X115950000Y-68837500D01*
X115950000Y-68000000D01*
X115866788Y-68000000D01*
X115866776Y-68000001D01*
X115798749Y-68009912D01*
X115693811Y-68061213D01*
X115611214Y-68143810D01*
X115559912Y-68248750D01*
X115550000Y-68316776D01*
X110000000Y-68316776D01*
X110000000Y-67885836D01*
X110112402Y-67960941D01*
X110303580Y-68040130D01*
X110506535Y-68080500D01*
X110506536Y-68080500D01*
X110713464Y-68080500D01*
X110713465Y-68080500D01*
X110916420Y-68040130D01*
X111107598Y-67960941D01*
X111279655Y-67845977D01*
X111425977Y-67699655D01*
X111540941Y-67527598D01*
X111620130Y-67336420D01*
X111660500Y-67133465D01*
X111660500Y-66926535D01*
X111620130Y-66723580D01*
X111540941Y-66532402D01*
X111425977Y-66360345D01*
X111279655Y-66214023D01*
X111237417Y-66185801D01*
X111107598Y-66099059D01*
X110916420Y-66019870D01*
X110916413Y-66019868D01*
X110763516Y-65989455D01*
X110713465Y-65979500D01*
X110506535Y-65979500D01*
X110466385Y-65987486D01*
X110303586Y-66019868D01*
X110303579Y-66019870D01*
X110112401Y-66099059D01*
X110000000Y-66174162D01*
X110000000Y-65345836D01*
X110112402Y-65420941D01*
X110303580Y-65500130D01*
X110506535Y-65540500D01*
X110506536Y-65540500D01*
X110713464Y-65540500D01*
X110713465Y-65540500D01*
X110916420Y-65500130D01*
X111107598Y-65420941D01*
X111279655Y-65305977D01*
X111302181Y-65283451D01*
X114575001Y-65283451D01*
X114590761Y-65382969D01*
X114590762Y-65382971D01*
X114651882Y-65502923D01*
X114747078Y-65598119D01*
X114867030Y-65659237D01*
X114867031Y-65659238D01*
X114966548Y-65674999D01*
X115125000Y-65674999D01*
X115325000Y-65674999D01*
X115483451Y-65674999D01*
X115582969Y-65659238D01*
X115582971Y-65659237D01*
X115702923Y-65598117D01*
X115798119Y-65502921D01*
X115859237Y-65382969D01*
X115859238Y-65382968D01*
X115875000Y-65283451D01*
X115875000Y-65100000D01*
X115325000Y-65100000D01*
X115325000Y-65674999D01*
X115125000Y-65674999D01*
X115125000Y-65100000D01*
X114575001Y-65100000D01*
X114575001Y-65283451D01*
X111302181Y-65283451D01*
X111425977Y-65159655D01*
X111532654Y-65000000D01*
X116124500Y-65000000D01*
X116124500Y-65283488D01*
G37*
%TD.AperFunction*%
%TA.AperFunction,Conductor*%
G36*
X116021066Y-74712174D02*
G01*
X116042740Y-74764500D01*
X116042107Y-74774160D01*
X116040000Y-74790162D01*
X116040000Y-74900000D01*
X116446000Y-74900000D01*
X116498326Y-74921674D01*
X116512713Y-74941978D01*
X116540564Y-75000000D01*
X116546000Y-75000000D01*
X116598326Y-75021674D01*
X116620000Y-75074000D01*
X116620000Y-75510000D01*
X116699838Y-75510000D01*
X116749354Y-75503481D01*
X116858024Y-75452807D01*
X116947359Y-75363472D01*
X116999685Y-75341798D01*
X117052011Y-75363472D01*
X117052427Y-75363967D01*
X117141683Y-75453223D01*
X117146986Y-75456936D01*
X117144938Y-75459860D01*
X117175020Y-75492643D01*
X117179500Y-75518000D01*
X117179500Y-76100500D01*
X117157826Y-76152826D01*
X117105501Y-76174500D01*
X117011600Y-76174500D01*
X116934882Y-76189760D01*
X116847888Y-76247887D01*
X116847887Y-76247888D01*
X116836029Y-76265636D01*
X116788937Y-76297102D01*
X116733388Y-76286053D01*
X116701922Y-76238961D01*
X116700500Y-76224524D01*
X116700500Y-76110436D01*
X116700499Y-76110435D01*
X116698306Y-76102252D01*
X116680021Y-76034011D01*
X116640460Y-75965489D01*
X116584511Y-75909540D01*
X116515990Y-75869979D01*
X116515985Y-75869977D01*
X116439564Y-75849500D01*
X116439562Y-75849500D01*
X115639562Y-75849500D01*
X115560438Y-75849500D01*
X115560436Y-75849500D01*
X115484014Y-75869977D01*
X115484009Y-75869979D01*
X115415488Y-75909540D01*
X115359540Y-75965488D01*
X115319979Y-76034009D01*
X115319977Y-76034014D01*
X115299500Y-76110435D01*
X115299500Y-76224524D01*
X115277826Y-76276850D01*
X115225500Y-76298524D01*
X115173174Y-76276850D01*
X115163971Y-76265636D01*
X115152112Y-76247888D01*
X115152111Y-76247887D01*
X115065117Y-76189760D01*
X114988401Y-76174500D01*
X114988399Y-76174500D01*
X114949500Y-76174500D01*
X114897174Y-76152826D01*
X114875500Y-76100500D01*
X114875500Y-75594500D01*
X114897174Y-75542174D01*
X114949500Y-75520500D01*
X115174314Y-75520500D01*
X115174316Y-75520500D01*
X115223173Y-75514068D01*
X115330404Y-75464065D01*
X115414065Y-75380404D01*
X115464068Y-75273173D01*
X115470500Y-75224316D01*
X115470500Y-75209838D01*
X116040000Y-75209838D01*
X116046518Y-75259354D01*
X116097192Y-75368024D01*
X116181975Y-75452807D01*
X116290646Y-75503481D01*
X116290645Y-75503481D01*
X116340162Y-75510000D01*
X116420000Y-75510000D01*
X116420000Y-75100000D01*
X116040000Y-75100000D01*
X116040000Y-75209838D01*
X115470500Y-75209838D01*
X115470500Y-74985123D01*
X115492174Y-74932797D01*
X115712797Y-74712174D01*
X115765123Y-74690500D01*
X115968740Y-74690500D01*
X116021066Y-74712174D01*
G37*
%TD.AperFunction*%
%TA.AperFunction,Conductor*%
G36*
X118330303Y-73739438D02*
G01*
X118295490Y-73759538D01*
X117587202Y-74467826D01*
X117534876Y-74489500D01*
X117425123Y-74489500D01*
X117372797Y-74467826D01*
X117054511Y-74149540D01*
X117044612Y-74143825D01*
X116985990Y-74109979D01*
X116985985Y-74109977D01*
X116909564Y-74089500D01*
X116909562Y-74089500D01*
X115570438Y-74089500D01*
X115570436Y-74089500D01*
X115489326Y-74111234D01*
X115488558Y-74108371D01*
X115441214Y-74108291D01*
X115401234Y-74068174D01*
X115401330Y-74011537D01*
X115417319Y-73987650D01*
X115997925Y-73407044D01*
X116050250Y-73385371D01*
X116102576Y-73407045D01*
X116159596Y-73464065D01*
X116266827Y-73514068D01*
X116315684Y-73520500D01*
X116315686Y-73520500D01*
X116664314Y-73520500D01*
X116664316Y-73520500D01*
X116713173Y-73514068D01*
X116820404Y-73464065D01*
X116904065Y-73380404D01*
X116932933Y-73318495D01*
X116974690Y-73280232D01*
X117031273Y-73282702D01*
X117067067Y-73318496D01*
X117095933Y-73380402D01*
X117095935Y-73380404D01*
X117179596Y-73464065D01*
X117286827Y-73514068D01*
X117335684Y-73520500D01*
X117335686Y-73520500D01*
X117684314Y-73520500D01*
X117684316Y-73520500D01*
X117733173Y-73514068D01*
X117840404Y-73464065D01*
X117924065Y-73380404D01*
X117941401Y-73343227D01*
X117983158Y-73304963D01*
X118008468Y-73300500D01*
X118039564Y-73300500D01*
X118039564Y-73300499D01*
X118115989Y-73280021D01*
X118184511Y-73240460D01*
X118216141Y-73208829D01*
X118330303Y-73739438D01*
G37*
%TD.AperFunction*%
%TD*%
M02*
