%TF.GenerationSoftware,KiCad,Pcbnew,10.0.5*%
%TF.CreationDate,2026-10-04T00:08:51+05:30*%
%TF.ProjectId,my devboard,6d792064-6576-4626-9f61-72642e6b6963,rev?*%
%TF.SameCoordinates,Original*%
%TF.FileFunction,Legend,Bot*%
%TF.FilePolarity,Positive*%
%FSLAX46Y46*%
G04 Gerber Fmt 4.6, Leading zero omitted, Abs format (unit mm)*
G04 Created by KiCad (PCBNEW 10.0.5) date 2026-10-04 00:08:51*
%MOMM*%
%LPD*%
G01*
G04 APERTURE LIST*
%ADD10C,0.000000*%
G04 APERTURE END LIST*
D10*
%TO.C,*%
G36*
X123085206Y-99847332D02*
G01*
X123147910Y-100001956D01*
X123201429Y-100133481D01*
X123202709Y-100136627D01*
X123247587Y-100246387D01*
X123280526Y-100326278D01*
X123299512Y-100371343D01*
X123350024Y-100487179D01*
X123424618Y-100376414D01*
X123456384Y-100333379D01*
X123570169Y-100222141D01*
X123705752Y-100139721D01*
X123852524Y-100093142D01*
X123913431Y-100081209D01*
X124050875Y-100049149D01*
X124212214Y-100006601D01*
X124386956Y-99956615D01*
X124564609Y-99902240D01*
X124734680Y-99846527D01*
X124886677Y-99792526D01*
X125127704Y-99698654D01*
X125596676Y-99491604D01*
X126029682Y-99265496D01*
X126428866Y-99019255D01*
X126648570Y-98872017D01*
X126648376Y-98952876D01*
X126648374Y-98953552D01*
X126646138Y-98992665D01*
X126635139Y-99023449D01*
X126608524Y-99053736D01*
X126559439Y-99091360D01*
X126481032Y-99144155D01*
X126380699Y-99208922D01*
X126031146Y-99414715D01*
X125653340Y-99609940D01*
X125258324Y-99789477D01*
X124857138Y-99948205D01*
X124460820Y-100081005D01*
X124277204Y-100136593D01*
X124407954Y-100271071D01*
X124440459Y-100306304D01*
X124554431Y-100459284D01*
X124663089Y-100651414D01*
X124765287Y-100879918D01*
X124859878Y-101142022D01*
X124945716Y-101434951D01*
X125021652Y-101755929D01*
X125038069Y-101838927D01*
X125054470Y-101944967D01*
X125064871Y-102054118D01*
X125070430Y-102179607D01*
X125072305Y-102334663D01*
X125071011Y-102474713D01*
X125070980Y-102478026D01*
X125063811Y-102623229D01*
X125049125Y-102739891D01*
X125025423Y-102835788D01*
X124991212Y-102918698D01*
X124944994Y-102996399D01*
X124929661Y-103019458D01*
X124901925Y-103064358D01*
X124890933Y-103087369D01*
X124893053Y-103089725D01*
X124925821Y-103091875D01*
X124994724Y-103086501D01*
X125095258Y-103074133D01*
X125222921Y-103055302D01*
X125373212Y-103030539D01*
X125551861Y-102995632D01*
X125825419Y-102925574D01*
X126080575Y-102839844D01*
X126309381Y-102741240D01*
X126503887Y-102632560D01*
X126648570Y-102539157D01*
X126648532Y-102619104D01*
X126648196Y-102637773D01*
X126639889Y-102682881D01*
X126612936Y-102717252D01*
X126557435Y-102755735D01*
X126421665Y-102833080D01*
X126170436Y-102947690D01*
X125888803Y-103045794D01*
X125583136Y-103125572D01*
X125259805Y-103185199D01*
X124925182Y-103222852D01*
X124866915Y-103227292D01*
X124772885Y-103234252D01*
X124696559Y-103239648D01*
X124650454Y-103242583D01*
X124599348Y-103237802D01*
X124505299Y-103204247D01*
X124399607Y-103143433D01*
X124289621Y-103060491D01*
X124182688Y-102960547D01*
X124086157Y-102848731D01*
X124055247Y-102808798D01*
X124005793Y-102746872D01*
X123969656Y-102704218D01*
X123953057Y-102688334D01*
X123949325Y-102698476D01*
X123954905Y-102734581D01*
X123958076Y-102756763D01*
X123945747Y-102827589D01*
X123908721Y-102898457D01*
X123855034Y-102951885D01*
X123845374Y-102957520D01*
X123780138Y-102979650D01*
X123703712Y-102988419D01*
X123625804Y-102976282D01*
X123538793Y-102929443D01*
X123468960Y-102854281D01*
X123419816Y-102758161D01*
X123394870Y-102648446D01*
X123396250Y-102590591D01*
X123519119Y-102590591D01*
X123519346Y-102599065D01*
X123531893Y-102667245D01*
X123558695Y-102740509D01*
X123592851Y-102803035D01*
X123627460Y-102839002D01*
X123686478Y-102857403D01*
X123751195Y-102854147D01*
X123797813Y-102827606D01*
X123812511Y-102792896D01*
X123811340Y-102729396D01*
X123807208Y-102667188D01*
X123826839Y-102615999D01*
X123875491Y-102575182D01*
X123957776Y-102540936D01*
X124078305Y-102509463D01*
X124190437Y-102484563D01*
X124103361Y-102424219D01*
X124096922Y-102419807D01*
X123973642Y-102353374D01*
X123851688Y-102319420D01*
X123738442Y-102319073D01*
X123641289Y-102353465D01*
X123604444Y-102388667D01*
X123563174Y-102453175D01*
X123531666Y-102526435D01*
X123519119Y-102590591D01*
X123396250Y-102590591D01*
X123397635Y-102532501D01*
X123431619Y-102417688D01*
X123443315Y-102393323D01*
X123472710Y-102341881D01*
X123495453Y-102314608D01*
X123514099Y-102297538D01*
X123513606Y-102271389D01*
X123477894Y-102259642D01*
X123476390Y-102259622D01*
X123422679Y-102240965D01*
X123361345Y-102194231D01*
X123303267Y-102129513D01*
X123259324Y-102056900D01*
X123226593Y-101943420D01*
X123226307Y-101861815D01*
X123347642Y-101861815D01*
X123347869Y-101870288D01*
X123360416Y-101938469D01*
X123387218Y-102011733D01*
X123421374Y-102074259D01*
X123455984Y-102110225D01*
X123515001Y-102128626D01*
X123579718Y-102125371D01*
X123626336Y-102098830D01*
X123639124Y-102068633D01*
X123799039Y-102068633D01*
X123806320Y-102119319D01*
X123820554Y-102155706D01*
X123839931Y-102173904D01*
X123840788Y-102173852D01*
X123847796Y-102154641D01*
X123837045Y-102108506D01*
X123826692Y-102082511D01*
X123807805Y-102055669D01*
X123799039Y-102068633D01*
X123639124Y-102068633D01*
X123641035Y-102064120D01*
X123639863Y-102000619D01*
X123635731Y-101938411D01*
X123655363Y-101887222D01*
X123704015Y-101846405D01*
X123786299Y-101812160D01*
X123906828Y-101780687D01*
X124018961Y-101755786D01*
X123931884Y-101695442D01*
X123925445Y-101691030D01*
X123802165Y-101624598D01*
X123680211Y-101590643D01*
X123566965Y-101590297D01*
X123469812Y-101624689D01*
X123432968Y-101659891D01*
X123391697Y-101724399D01*
X123360189Y-101797658D01*
X123347642Y-101861815D01*
X123226307Y-101861815D01*
X123226129Y-101811240D01*
X123262375Y-101683926D01*
X123276160Y-101653089D01*
X123296694Y-101604821D01*
X123304773Y-101582112D01*
X123286589Y-101576226D01*
X123242114Y-101573735D01*
X123240253Y-101573715D01*
X123176518Y-101556993D01*
X123110456Y-101515677D01*
X123074177Y-101480656D01*
X123005880Y-101376415D01*
X122969678Y-101255287D01*
X122968496Y-101175907D01*
X123090427Y-101175907D01*
X123090654Y-101184381D01*
X123103201Y-101252561D01*
X123130003Y-101325825D01*
X123164159Y-101388352D01*
X123198768Y-101424318D01*
X123257786Y-101442719D01*
X123322503Y-101439464D01*
X123329158Y-101435675D01*
X123519119Y-101435675D01*
X123519676Y-101437814D01*
X123540554Y-101445128D01*
X123546429Y-101444255D01*
X123561988Y-101422428D01*
X123560305Y-101414675D01*
X123540554Y-101412976D01*
X123534139Y-101417375D01*
X123519119Y-101435675D01*
X123329158Y-101435675D01*
X123369121Y-101412922D01*
X123383819Y-101378213D01*
X123382648Y-101314712D01*
X123378516Y-101252504D01*
X123398148Y-101201315D01*
X123446799Y-101160498D01*
X123529084Y-101126253D01*
X123649613Y-101094780D01*
X123761745Y-101069879D01*
X123674669Y-101009535D01*
X123668230Y-101005123D01*
X123544950Y-100938691D01*
X123422996Y-100904736D01*
X123309750Y-100904389D01*
X123212597Y-100938781D01*
X123175752Y-100973984D01*
X123134482Y-101038491D01*
X123102974Y-101111751D01*
X123090427Y-101175907D01*
X122968496Y-101175907D01*
X122967778Y-101127729D01*
X123002391Y-101004202D01*
X123023501Y-100966112D01*
X123074710Y-100899954D01*
X123135990Y-100840334D01*
X123196489Y-100797239D01*
X123245353Y-100780655D01*
X123264405Y-100777448D01*
X123279675Y-100757611D01*
X123277352Y-100715123D01*
X123273004Y-100700219D01*
X123440824Y-100700219D01*
X123458734Y-100731189D01*
X123507831Y-100768005D01*
X123592940Y-100809855D01*
X123691348Y-100860640D01*
X123783968Y-100925556D01*
X123856577Y-100995003D01*
X123904410Y-101063438D01*
X123906314Y-101069879D01*
X123922704Y-101125313D01*
X123906694Y-101175084D01*
X123888980Y-101187230D01*
X123836101Y-101205702D01*
X123766714Y-101219000D01*
X123651204Y-101233432D01*
X123694840Y-101338432D01*
X123720052Y-101392681D01*
X123742176Y-101422428D01*
X123751256Y-101434636D01*
X123797720Y-101468448D01*
X123871836Y-101505838D01*
X123946249Y-101545224D01*
X124040231Y-101610399D01*
X124113616Y-101680115D01*
X124161802Y-101748789D01*
X124163876Y-101755786D01*
X124180189Y-101810835D01*
X124164177Y-101860669D01*
X124150887Y-101870733D01*
X124101279Y-101889977D01*
X124034856Y-101903775D01*
X123929738Y-101917719D01*
X123993953Y-102075385D01*
X124028593Y-102154641D01*
X124030199Y-102158315D01*
X124064540Y-102216520D01*
X124105344Y-102259580D01*
X124162413Y-102300599D01*
X124169157Y-102305047D01*
X124244340Y-102365688D01*
X124304634Y-102433515D01*
X124334418Y-102484563D01*
X124342731Y-102498810D01*
X124351323Y-102551853D01*
X124347686Y-102564719D01*
X124323567Y-102595173D01*
X124272969Y-102618327D01*
X124187708Y-102638516D01*
X124095369Y-102656182D01*
X124216306Y-102802483D01*
X124230761Y-102819597D01*
X124301971Y-102896109D01*
X124374995Y-102964423D01*
X124436091Y-103011470D01*
X124440849Y-103014459D01*
X124545684Y-103063788D01*
X124638523Y-103072874D01*
X124720825Y-103041170D01*
X124794048Y-102968132D01*
X124859652Y-102853216D01*
X124862376Y-102847193D01*
X124917199Y-102677069D01*
X124944117Y-102474713D01*
X124943145Y-102240411D01*
X124914301Y-101974446D01*
X124857601Y-101677105D01*
X124773061Y-101348672D01*
X124728278Y-101199333D01*
X124635657Y-100932623D01*
X124538670Y-100707996D01*
X124437039Y-100525051D01*
X124330484Y-100383385D01*
X124218728Y-100282596D01*
X124101491Y-100222282D01*
X123978495Y-100202040D01*
X123917237Y-100208829D01*
X123816523Y-100238478D01*
X123715428Y-100285061D01*
X123632021Y-100341315D01*
X123572126Y-100403863D01*
X123515662Y-100483602D01*
X123470876Y-100567235D01*
X123443889Y-100643271D01*
X123440824Y-100700219D01*
X123273004Y-100700219D01*
X123256833Y-100644794D01*
X123217512Y-100541430D01*
X123151456Y-100377227D01*
X123022326Y-100362240D01*
X122869156Y-100353788D01*
X122680220Y-100361692D01*
X122460215Y-100386899D01*
X122207895Y-100429650D01*
X121922013Y-100490186D01*
X121601319Y-100568746D01*
X121465679Y-100605560D01*
X121244568Y-100665572D01*
X120850511Y-100780904D01*
X120618366Y-100850181D01*
X120302924Y-100941037D01*
X120018321Y-101018195D01*
X119759064Y-101082646D01*
X119519661Y-101135385D01*
X119294621Y-101177403D01*
X119078450Y-101209695D01*
X118865657Y-101233252D01*
X118650749Y-101249069D01*
X118428235Y-101258137D01*
X118192621Y-101261451D01*
X118092183Y-101261684D01*
X117957957Y-101261316D01*
X117853712Y-101259447D01*
X117771456Y-101255416D01*
X117703196Y-101248565D01*
X117640942Y-101238233D01*
X117576701Y-101223761D01*
X117502480Y-101204490D01*
X117261817Y-101130845D01*
X116915863Y-100994934D01*
X116556486Y-100820326D01*
X116184927Y-100607747D01*
X116119399Y-100564948D01*
X117089118Y-100564948D01*
X117122167Y-100598481D01*
X117194590Y-100632792D01*
X117304964Y-100666824D01*
X117315053Y-100669438D01*
X117434711Y-100697811D01*
X117520741Y-100711920D01*
X117579250Y-100712415D01*
X117616346Y-100699947D01*
X117628382Y-100679619D01*
X117635264Y-100654855D01*
X117821218Y-100654855D01*
X117828119Y-100705703D01*
X117857620Y-100757706D01*
X117903610Y-100795959D01*
X117918920Y-100802867D01*
X118010864Y-100821651D01*
X118111092Y-100813667D01*
X118199438Y-100780003D01*
X118261867Y-100722183D01*
X118314458Y-100629350D01*
X118350552Y-100514303D01*
X118369482Y-100386342D01*
X118370581Y-100254769D01*
X118353184Y-100128883D01*
X118316624Y-100017987D01*
X118260234Y-99931380D01*
X118240868Y-99911891D01*
X118160484Y-99858211D01*
X118078695Y-99847254D01*
X117994926Y-99878905D01*
X117958856Y-99907797D01*
X117937920Y-99936719D01*
X117920432Y-99960878D01*
X117905476Y-100014339D01*
X117919508Y-100055272D01*
X117950307Y-100063195D01*
X118009597Y-100041590D01*
X118054551Y-100021139D01*
X118089660Y-100019061D01*
X118128038Y-100039007D01*
X118136609Y-100045118D01*
X118185906Y-100107805D01*
X118213637Y-100196759D01*
X118219136Y-100302141D01*
X118201738Y-100414114D01*
X118160776Y-100522837D01*
X118145429Y-100550448D01*
X118090204Y-100613702D01*
X118022675Y-100637832D01*
X117937025Y-100625507D01*
X117916755Y-100619682D01*
X117865073Y-100612654D01*
X117834245Y-100626744D01*
X117821218Y-100654855D01*
X117635264Y-100654855D01*
X117643109Y-100626626D01*
X117654332Y-100555592D01*
X117661448Y-100494211D01*
X117673593Y-100395304D01*
X117688182Y-100280512D01*
X117703419Y-100164142D01*
X117708249Y-100127181D01*
X117721008Y-100015563D01*
X117726074Y-99936719D01*
X117723695Y-99883307D01*
X117714120Y-99847981D01*
X117712411Y-99844343D01*
X117701984Y-99831836D01*
X118868270Y-99831836D01*
X118876811Y-99888290D01*
X118903104Y-99945295D01*
X118928086Y-99978387D01*
X118977064Y-100035990D01*
X119033767Y-100097571D01*
X119075990Y-100145180D01*
X119105324Y-100188975D01*
X119106309Y-100210958D01*
X119096256Y-100223316D01*
X119081437Y-100254769D01*
X119073956Y-100270647D01*
X119047769Y-100341545D01*
X119021238Y-100424626D01*
X118997902Y-100508506D01*
X118981304Y-100581802D01*
X118974984Y-100633128D01*
X118980696Y-100686955D01*
X118997173Y-100739195D01*
X119003743Y-100749217D01*
X119047513Y-100776301D01*
X119102087Y-100775365D01*
X119149195Y-100745635D01*
X119159355Y-100726721D01*
X119179047Y-100669819D01*
X119201024Y-100588619D01*
X119222148Y-100493944D01*
X119222895Y-100490236D01*
X119248596Y-100376225D01*
X119272762Y-100303642D01*
X119297816Y-100271267D01*
X119326183Y-100277879D01*
X119360286Y-100322261D01*
X119402551Y-100403191D01*
X119420234Y-100438565D01*
X119488545Y-100545166D01*
X119559281Y-100609228D01*
X119632303Y-100630613D01*
X119666249Y-100626219D01*
X119688870Y-100605560D01*
X119688682Y-100563562D01*
X119665408Y-100495418D01*
X119618770Y-100396321D01*
X119570118Y-100292712D01*
X119514929Y-100142131D01*
X119478891Y-99985684D01*
X119457080Y-99805381D01*
X119453527Y-99767864D01*
X119434340Y-99652818D01*
X119412781Y-99595052D01*
X119620697Y-99595052D01*
X119651070Y-99645365D01*
X119669816Y-99657241D01*
X119700554Y-99655477D01*
X119746658Y-99626555D01*
X119753240Y-99621810D01*
X119803146Y-99592355D01*
X119840312Y-99580317D01*
X119850425Y-99581552D01*
X119895608Y-99610259D01*
X119943754Y-99670830D01*
X119990749Y-99755036D01*
X120032481Y-99854650D01*
X120064836Y-99961442D01*
X120083700Y-100067185D01*
X120085737Y-100090041D01*
X120081212Y-100198164D01*
X120048017Y-100276233D01*
X119983737Y-100327780D01*
X119885954Y-100356338D01*
X119856081Y-100368628D01*
X119837035Y-100404888D01*
X119847614Y-100452396D01*
X119887678Y-100499532D01*
X119891886Y-100502791D01*
X119957508Y-100537769D01*
X120026333Y-100539140D01*
X120110590Y-100507331D01*
X120180991Y-100457005D01*
X120246151Y-100366995D01*
X120286214Y-100251734D01*
X120300688Y-100116830D01*
X120289082Y-99967891D01*
X120250903Y-99810528D01*
X120185662Y-99650349D01*
X120182825Y-99644641D01*
X120114251Y-99527232D01*
X120113800Y-99526731D01*
X120444557Y-99526731D01*
X120445032Y-99569572D01*
X120454771Y-99762968D01*
X120476021Y-99937373D01*
X120507612Y-100086956D01*
X120517852Y-100116830D01*
X120548375Y-100205883D01*
X120597143Y-100288322D01*
X120634885Y-100323279D01*
X120689949Y-100348969D01*
X120738489Y-100347340D01*
X120769007Y-100316506D01*
X120771775Y-100301759D01*
X120768774Y-100248617D01*
X120754922Y-100182540D01*
X120739903Y-100129354D01*
X120721528Y-100058928D01*
X120717357Y-100017435D01*
X120729880Y-99996661D01*
X120761585Y-99988396D01*
X120814961Y-99984425D01*
X120815956Y-99984355D01*
X120878340Y-99981853D01*
X120918304Y-99990616D01*
X120951669Y-100018488D01*
X120994255Y-100073313D01*
X121042845Y-100132005D01*
X121084206Y-100161715D01*
X121129250Y-100169769D01*
X121174509Y-100162758D01*
X121199866Y-100133481D01*
X121195863Y-100116022D01*
X121174239Y-100063800D01*
X121136467Y-99983820D01*
X121085288Y-99881647D01*
X121023440Y-99762852D01*
X120953662Y-99633001D01*
X120886554Y-99511008D01*
X120811063Y-99377552D01*
X120750973Y-99276862D01*
X120704232Y-99205677D01*
X120668788Y-99160737D01*
X120642589Y-99138783D01*
X120630025Y-99132448D01*
X120568592Y-99111525D01*
X120523852Y-99122516D01*
X120483230Y-99167701D01*
X120475781Y-99179501D01*
X120461754Y-99211057D01*
X120452476Y-99253590D01*
X120447089Y-99315068D01*
X120444736Y-99403459D01*
X120444557Y-99526731D01*
X120113800Y-99526731D01*
X120041657Y-99446646D01*
X119958285Y-99397176D01*
X119857379Y-99373117D01*
X119817950Y-99368997D01*
X119765332Y-99369882D01*
X119726689Y-99386942D01*
X119683521Y-99425782D01*
X119654582Y-99460328D01*
X119622424Y-99529611D01*
X119620697Y-99595052D01*
X119412781Y-99595052D01*
X119406226Y-99577488D01*
X119369763Y-99542534D01*
X119325530Y-99548616D01*
X119306635Y-99566170D01*
X119274103Y-99596393D01*
X119257423Y-99619041D01*
X119241932Y-99651190D01*
X119234792Y-99693119D01*
X119234511Y-99755799D01*
X119239597Y-99850202D01*
X119252038Y-100045066D01*
X119144458Y-99946658D01*
X119134014Y-99937190D01*
X119050855Y-99867911D01*
X118977265Y-99816835D01*
X118920001Y-99788155D01*
X118885815Y-99786066D01*
X118879220Y-99791957D01*
X118868270Y-99831836D01*
X117701984Y-99831836D01*
X117677512Y-99802481D01*
X117637977Y-99800986D01*
X117627282Y-99812584D01*
X117601641Y-99840389D01*
X117591341Y-99864587D01*
X117570756Y-99937818D01*
X117551114Y-100035381D01*
X117534416Y-100145065D01*
X117522662Y-100254663D01*
X117517851Y-100351963D01*
X117515050Y-100442650D01*
X117504159Y-100502543D01*
X117479311Y-100533562D01*
X117434605Y-100542831D01*
X117364136Y-100537476D01*
X117322084Y-100532113D01*
X117248328Y-100521459D01*
X117195912Y-100512318D01*
X117155074Y-100509967D01*
X117110174Y-100522322D01*
X117096868Y-100533250D01*
X117089118Y-100564948D01*
X116119399Y-100564948D01*
X115802429Y-100357922D01*
X115410233Y-100071576D01*
X115247549Y-99940770D01*
X115877818Y-99940770D01*
X115887164Y-100026044D01*
X115937309Y-100102481D01*
X116029106Y-100171710D01*
X116060589Y-100188317D01*
X116144624Y-100221520D01*
X116221898Y-100239635D01*
X116230750Y-100240609D01*
X116285932Y-100243694D01*
X116311107Y-100235030D01*
X116317094Y-100211411D01*
X116317631Y-100205301D01*
X116326916Y-100160959D01*
X116334756Y-100130475D01*
X116545047Y-100130475D01*
X116550317Y-100257475D01*
X116578031Y-100356086D01*
X116628411Y-100429448D01*
X116661533Y-100454167D01*
X116739142Y-100476831D01*
X116827464Y-100470612D01*
X116914549Y-100437207D01*
X116988448Y-100378314D01*
X117007108Y-100348083D01*
X117036255Y-100280792D01*
X117068393Y-100191314D01*
X117100099Y-100090654D01*
X117127951Y-99989818D01*
X117148528Y-99899814D01*
X117158408Y-99831647D01*
X117159231Y-99812584D01*
X117152031Y-99755118D01*
X117124994Y-99722625D01*
X117124048Y-99722036D01*
X117092917Y-99712618D01*
X117065457Y-99728759D01*
X117039236Y-99774678D01*
X117011821Y-99854596D01*
X116980778Y-99972732D01*
X116978501Y-99982084D01*
X116945541Y-100110013D01*
X116917051Y-100202445D01*
X116890388Y-100265734D01*
X116862909Y-100306232D01*
X116831969Y-100330291D01*
X116827205Y-100332722D01*
X116775695Y-100340196D01*
X116737044Y-100307427D01*
X116712464Y-100235375D01*
X116710731Y-100193623D01*
X116715786Y-100117321D01*
X116726740Y-100021835D01*
X116741972Y-99919245D01*
X116759863Y-99821632D01*
X116778789Y-99741077D01*
X116780072Y-99707796D01*
X116761191Y-99657983D01*
X116732681Y-99633332D01*
X116692397Y-99635489D01*
X116652239Y-99673210D01*
X116615912Y-99742624D01*
X116587121Y-99839859D01*
X116562002Y-99971943D01*
X116545047Y-100130475D01*
X116334756Y-100130475D01*
X116345960Y-100086908D01*
X116372453Y-99991828D01*
X116404087Y-99884398D01*
X116414255Y-99850251D01*
X116443161Y-99747122D01*
X116464987Y-99659844D01*
X116477760Y-99596749D01*
X116479503Y-99566170D01*
X116458229Y-99543545D01*
X116406208Y-99510248D01*
X116336332Y-99474437D01*
X116260822Y-99441807D01*
X116191900Y-99418049D01*
X116141789Y-99408858D01*
X116120382Y-99410519D01*
X116057551Y-99439048D01*
X116015428Y-99495497D01*
X115999113Y-99570138D01*
X116013703Y-99653243D01*
X116015249Y-99657369D01*
X116026893Y-99701386D01*
X116015440Y-99732269D01*
X115974622Y-99768503D01*
X115969061Y-99773083D01*
X115919965Y-99831327D01*
X115886568Y-99899506D01*
X115877818Y-99940770D01*
X115247549Y-99940770D01*
X115009583Y-99749433D01*
X114974092Y-99719491D01*
X114884873Y-99643133D01*
X114806345Y-99574443D01*
X114745947Y-99519982D01*
X114711121Y-99486310D01*
X114659157Y-99430275D01*
X115070151Y-99430275D01*
X115210778Y-99429570D01*
X115332887Y-99426961D01*
X115416951Y-99422284D01*
X115465521Y-99415392D01*
X115481144Y-99406133D01*
X115473840Y-99385030D01*
X115449621Y-99331009D01*
X115411503Y-99251373D01*
X115362649Y-99152711D01*
X115306223Y-99041617D01*
X115255576Y-98941914D01*
X115207294Y-98844295D01*
X115170007Y-98766008D01*
X115146670Y-98713272D01*
X115140238Y-98692307D01*
X115155261Y-98696105D01*
X115203249Y-98715969D01*
X115277878Y-98749815D01*
X115372777Y-98794738D01*
X115481571Y-98847836D01*
X115737610Y-98967422D01*
X116167944Y-99137016D01*
X116598414Y-99267980D01*
X117026750Y-99359970D01*
X117450682Y-99412642D01*
X117867940Y-99425652D01*
X118276255Y-99398656D01*
X118673355Y-99331310D01*
X118843699Y-99289305D01*
X119019251Y-99236735D01*
X119199851Y-99172228D01*
X119395859Y-99092069D01*
X119413649Y-99084085D01*
X121168586Y-99084085D01*
X121170072Y-99141416D01*
X121184313Y-99229321D01*
X121208893Y-99339766D01*
X121241398Y-99464716D01*
X121279413Y-99596136D01*
X121320522Y-99725992D01*
X121362311Y-99846249D01*
X121402365Y-99948872D01*
X121438268Y-100025826D01*
X121467605Y-100069076D01*
X121506887Y-100096383D01*
X121565268Y-100114242D01*
X121616926Y-100109506D01*
X121647637Y-100081217D01*
X121648014Y-100080127D01*
X121649853Y-100041468D01*
X121643953Y-99974176D01*
X121632070Y-99890688D01*
X121615957Y-99803443D01*
X121597369Y-99724875D01*
X121598305Y-99702644D01*
X121625117Y-99675452D01*
X121686965Y-99644405D01*
X121729400Y-99626297D01*
X121804290Y-99597256D01*
X121854039Y-99588310D01*
X121888632Y-99601730D01*
X121918054Y-99639788D01*
X121952288Y-99704754D01*
X122003515Y-99791627D01*
X122069196Y-99869042D01*
X122135216Y-99914451D01*
X122197053Y-99924928D01*
X122250191Y-99897549D01*
X122257390Y-99889459D01*
X122270471Y-99862062D01*
X122272523Y-99822093D01*
X122262583Y-99762644D01*
X122239690Y-99676807D01*
X122202882Y-99557673D01*
X122184175Y-99497351D01*
X122149004Y-99375961D01*
X122117411Y-99257636D01*
X122094519Y-99161133D01*
X122073269Y-99065671D01*
X122048943Y-98974184D01*
X122026043Y-98913936D01*
X122002022Y-98878584D01*
X121974332Y-98861784D01*
X121966368Y-98859547D01*
X121904584Y-98863495D01*
X121852648Y-98903845D01*
X121813616Y-98975257D01*
X121790545Y-99072391D01*
X121786493Y-99189907D01*
X121793608Y-99328269D01*
X121697165Y-99367357D01*
X121665865Y-99379567D01*
X121608670Y-99399315D01*
X121574161Y-99407643D01*
X121564321Y-99401794D01*
X121536123Y-99365702D01*
X121498485Y-99303908D01*
X121456801Y-99224817D01*
X121434112Y-99180542D01*
X121390720Y-99104267D01*
X121352577Y-99047253D01*
X121325966Y-99019366D01*
X121316730Y-99014937D01*
X121255194Y-99006802D01*
X121201076Y-99029779D01*
X121169741Y-99078093D01*
X121168586Y-99084085D01*
X119413649Y-99084085D01*
X119617631Y-98992541D01*
X119645149Y-98979835D01*
X120031669Y-98813928D01*
X120405669Y-98676863D01*
X120764851Y-98569083D01*
X121106919Y-98491030D01*
X121429575Y-98443144D01*
X121730522Y-98425868D01*
X122007464Y-98439642D01*
X122258102Y-98484910D01*
X122289956Y-98492973D01*
X122358447Y-98509856D01*
X122415446Y-98525622D01*
X122463521Y-98543961D01*
X122505238Y-98568561D01*
X122543165Y-98603113D01*
X122579868Y-98651304D01*
X122617914Y-98716824D01*
X122659871Y-98803363D01*
X122708305Y-98914609D01*
X122765784Y-99054251D01*
X122834873Y-99225978D01*
X122918141Y-99433480D01*
X122944143Y-99498053D01*
X123016611Y-99677712D01*
X123074999Y-99822093D01*
X123085206Y-99847332D01*
G37*
G36*
X120643537Y-99425949D02*
G01*
X120675508Y-99471493D01*
X120716734Y-99531690D01*
X120760494Y-99596552D01*
X120800070Y-99656091D01*
X120828743Y-99700318D01*
X120839794Y-99719246D01*
X120823563Y-99727387D01*
X120780849Y-99736442D01*
X120775160Y-99737305D01*
X120692440Y-99748795D01*
X120642303Y-99747653D01*
X120615319Y-99727018D01*
X120602062Y-99680032D01*
X120593104Y-99599833D01*
X120588497Y-99543135D01*
X120588799Y-99463474D01*
X120601288Y-99424427D01*
X120613311Y-99414403D01*
X120631948Y-99410270D01*
X120643537Y-99425949D01*
G37*
G36*
X116199405Y-99884394D02*
G01*
X116207036Y-99887949D01*
X116237948Y-99908742D01*
X116247281Y-99939839D01*
X116240810Y-99996925D01*
X116237526Y-100015835D01*
X116226142Y-100070342D01*
X116216900Y-100100106D01*
X116199893Y-100113678D01*
X116152051Y-100107536D01*
X116079124Y-100067218D01*
X116067257Y-100058825D01*
X116013418Y-100002096D01*
X115996322Y-99946706D01*
X116011171Y-99899947D01*
X116053167Y-99869113D01*
X116117511Y-99861498D01*
X116199405Y-99884394D01*
G37*
G36*
X116291176Y-99584533D02*
G01*
X116356299Y-99612469D01*
X116323687Y-99692849D01*
X116307576Y-99728251D01*
X116276205Y-99765555D01*
X116236521Y-99764696D01*
X116179476Y-99727873D01*
X116137218Y-99681112D01*
X116128357Y-99626058D01*
X116130485Y-99613738D01*
X116158163Y-99572294D01*
X116212607Y-99562335D01*
X116291176Y-99584533D01*
G37*
%TO.C,G\u002A\u002A\u002A*%
G36*
X120593621Y-87324867D02*
G01*
X120614053Y-87490312D01*
X120625289Y-87685384D01*
X120627380Y-87790664D01*
X120627310Y-87944776D01*
X120624730Y-88124052D01*
X120619890Y-88321016D01*
X120613042Y-88528196D01*
X120604438Y-88738118D01*
X120594329Y-88943310D01*
X120582968Y-89136299D01*
X120570605Y-89309610D01*
X120548053Y-89593701D01*
X120609599Y-89722659D01*
X120642597Y-89786796D01*
X120709743Y-89902777D01*
X120794973Y-90038123D01*
X120894128Y-90186490D01*
X121003045Y-90341536D01*
X121117564Y-90496916D01*
X121129405Y-90512591D01*
X121197599Y-90602917D01*
X121262972Y-90689602D01*
X121318608Y-90763470D01*
X121357591Y-90815344D01*
X121370792Y-90833340D01*
X121429178Y-90922439D01*
X121489302Y-91030421D01*
X121552914Y-91161039D01*
X121621762Y-91318044D01*
X121630560Y-91339755D01*
X121697596Y-91505190D01*
X121782165Y-91726228D01*
X121795843Y-91762604D01*
X121875650Y-91967495D01*
X121950295Y-92146466D01*
X122018084Y-92295588D01*
X122077323Y-92410929D01*
X122095695Y-92444449D01*
X122119436Y-92495992D01*
X122184012Y-92636190D01*
X122236385Y-92815464D01*
X122253158Y-92983880D01*
X122234679Y-93143048D01*
X122221057Y-93194430D01*
X122203034Y-93227054D01*
X122176287Y-93230359D01*
X122132899Y-93209517D01*
X122099999Y-93194420D01*
X122007900Y-93177290D01*
X121905452Y-93185379D01*
X121806008Y-93218327D01*
X121729224Y-93266760D01*
X121634968Y-93346550D01*
X121530283Y-93452044D01*
X121419468Y-93578898D01*
X121306820Y-93722769D01*
X121306779Y-93722824D01*
X121228903Y-93830129D01*
X121140469Y-93956156D01*
X121045160Y-94095281D01*
X120946656Y-94241880D01*
X120848639Y-94390328D01*
X120754791Y-94535001D01*
X120668792Y-94670276D01*
X120594325Y-94790526D01*
X120535070Y-94890130D01*
X120494709Y-94963461D01*
X120477387Y-94998995D01*
X120428861Y-95114316D01*
X120385487Y-95239137D01*
X120350515Y-95362429D01*
X120327194Y-95473168D01*
X120318776Y-95560328D01*
X120328227Y-95657259D01*
X120371167Y-95777565D01*
X120447010Y-95879160D01*
X120553811Y-95959653D01*
X120689624Y-96016647D01*
X120718573Y-96024765D01*
X120789392Y-96039749D01*
X120862587Y-96046774D01*
X120943089Y-96045134D01*
X121035828Y-96034122D01*
X121145733Y-96013034D01*
X121277735Y-95981161D01*
X121436761Y-95937798D01*
X121627744Y-95882239D01*
X121692282Y-95863662D01*
X121833603Y-95825489D01*
X121996537Y-95783948D01*
X122170279Y-95741699D01*
X122344027Y-95701403D01*
X122506975Y-95665720D01*
X122507914Y-95665522D01*
X122690911Y-95626214D01*
X122839190Y-95592615D01*
X122956481Y-95563553D01*
X123046516Y-95537856D01*
X123113023Y-95514351D01*
X123159734Y-95491868D01*
X123190379Y-95469233D01*
X123208688Y-95445276D01*
X123212222Y-95438427D01*
X123225105Y-95402146D01*
X123226573Y-95361263D01*
X123215128Y-95308182D01*
X123189273Y-95235307D01*
X123147508Y-95135042D01*
X123121342Y-95072062D01*
X123081385Y-94955157D01*
X123063439Y-94854031D01*
X123067372Y-94757513D01*
X123093050Y-94654431D01*
X123140340Y-94533615D01*
X123155321Y-94498324D01*
X123203810Y-94363153D01*
X123225849Y-94255968D01*
X123221508Y-94176198D01*
X123190858Y-94123276D01*
X123189522Y-94122079D01*
X123165445Y-94105525D01*
X123131928Y-94093645D01*
X123081562Y-94085164D01*
X123006938Y-94078806D01*
X122900649Y-94073295D01*
X122882939Y-94072496D01*
X122779757Y-94066747D01*
X122704781Y-94059435D01*
X122648508Y-94048852D01*
X122601436Y-94033293D01*
X122554062Y-94011049D01*
X122441460Y-93936349D01*
X122357589Y-93840503D01*
X122308381Y-93726831D01*
X122294108Y-93595769D01*
X122294435Y-93586192D01*
X122300707Y-93521241D01*
X122311590Y-93468769D01*
X122312569Y-93465722D01*
X122322508Y-93439319D01*
X122327240Y-93445819D01*
X122329610Y-93488307D01*
X122329721Y-93491166D01*
X122353688Y-93602829D01*
X122414406Y-93705668D01*
X122509988Y-93796459D01*
X122535107Y-93815090D01*
X122592444Y-93855674D01*
X122641713Y-93884496D01*
X122692292Y-93904797D01*
X122753559Y-93919816D01*
X122834892Y-93932794D01*
X122945672Y-93946970D01*
X122955434Y-93948184D01*
X123052114Y-93961422D01*
X123136089Y-93974977D01*
X123198646Y-93987324D01*
X123231072Y-93996936D01*
X123278955Y-94035517D01*
X123313591Y-94102221D01*
X123326683Y-94195074D01*
X123318522Y-94316412D01*
X123289396Y-94468572D01*
X123266500Y-94568171D01*
X123246628Y-94667272D01*
X123236952Y-94746638D01*
X123237743Y-94816362D01*
X123249277Y-94886537D01*
X123271826Y-94967256D01*
X123305665Y-95068612D01*
X123346931Y-95197683D01*
X123376414Y-95317011D01*
X123386206Y-95404048D01*
X123385765Y-95434804D01*
X123378652Y-95488408D01*
X123356797Y-95530408D01*
X123312513Y-95579058D01*
X123273991Y-95612599D01*
X123221658Y-95645649D01*
X123154787Y-95675601D01*
X123068528Y-95704030D01*
X122958033Y-95732512D01*
X122818453Y-95762622D01*
X122644938Y-95795936D01*
X122537553Y-95816090D01*
X122386386Y-95846176D01*
X122248048Y-95876492D01*
X122114274Y-95909209D01*
X121976801Y-95946501D01*
X121827365Y-95990540D01*
X121657700Y-96043498D01*
X121459542Y-96107549D01*
X121425697Y-96118594D01*
X121280743Y-96165341D01*
X121166030Y-96200994D01*
X121076010Y-96226966D01*
X121005136Y-96244670D01*
X120947860Y-96255520D01*
X120898634Y-96260927D01*
X120851911Y-96262305D01*
X120743105Y-96253478D01*
X120622957Y-96221028D01*
X120498826Y-96161662D01*
X120362486Y-96072184D01*
X120292946Y-96022973D01*
X120191764Y-95958464D01*
X120094492Y-95907983D01*
X119993968Y-95869408D01*
X119883031Y-95840616D01*
X119754521Y-95819486D01*
X119601278Y-95803896D01*
X119416139Y-95791722D01*
X119395012Y-95790608D01*
X119248050Y-95784657D01*
X119077340Y-95780192D01*
X118896016Y-95777425D01*
X118717212Y-95776568D01*
X118554064Y-95777831D01*
X118463475Y-95779345D01*
X118332679Y-95782079D01*
X118232270Y-95785329D01*
X118156716Y-95789570D01*
X118100490Y-95795273D01*
X118058063Y-95802913D01*
X118023904Y-95812962D01*
X117992487Y-95825893D01*
X117975222Y-95833973D01*
X117935509Y-95855877D01*
X117900081Y-95883422D01*
X117862337Y-95923248D01*
X117815672Y-95982000D01*
X117753483Y-96066317D01*
X117747214Y-96074700D01*
X117656921Y-96161555D01*
X117536243Y-96229233D01*
X117389941Y-96275002D01*
X117321460Y-96287544D01*
X117147124Y-96298942D01*
X116960329Y-96281313D01*
X116903910Y-96271062D01*
X116837423Y-96253429D01*
X116777296Y-96227581D01*
X116714943Y-96188752D01*
X116641780Y-96132178D01*
X116549221Y-96053091D01*
X116543617Y-96048196D01*
X116369776Y-95903089D01*
X116197204Y-95773511D01*
X116016168Y-95652969D01*
X115816938Y-95534971D01*
X115589782Y-95413026D01*
X115524212Y-95378978D01*
X115355323Y-95288454D01*
X115218542Y-95209670D01*
X115110916Y-95140174D01*
X115029491Y-95077515D01*
X114971312Y-95019243D01*
X114933426Y-94962905D01*
X114912878Y-94906052D01*
X114906715Y-94846230D01*
X114916694Y-94776725D01*
X114952617Y-94703739D01*
X115017581Y-94631586D01*
X115114587Y-94557004D01*
X115246631Y-94476734D01*
X115317136Y-94431939D01*
X115426439Y-94341866D01*
X115520817Y-94239430D01*
X115588886Y-94135964D01*
X115595967Y-94120873D01*
X115621912Y-94051138D01*
X115649879Y-93959134D01*
X115676537Y-93857301D01*
X115698554Y-93758084D01*
X115712600Y-93673923D01*
X115719836Y-93615307D01*
X115754925Y-93693058D01*
X115779551Y-93781348D01*
X115787477Y-93894175D01*
X115778792Y-94017923D01*
X115754350Y-94140656D01*
X115715006Y-94250438D01*
X115677437Y-94323862D01*
X115622549Y-94404030D01*
X115555824Y-94467401D01*
X115468392Y-94521903D01*
X115351384Y-94575465D01*
X115253497Y-94619548D01*
X115158823Y-94674239D01*
X115087244Y-94733131D01*
X115049282Y-94775392D01*
X115015293Y-94832919D01*
X115007531Y-94887725D01*
X115027680Y-94941500D01*
X115077420Y-94995931D01*
X115158434Y-95052708D01*
X115272403Y-95113521D01*
X115421011Y-95180057D01*
X115605938Y-95254008D01*
X115705030Y-95292230D01*
X115841857Y-95346322D01*
X115954280Y-95393772D01*
X116049907Y-95438832D01*
X116136348Y-95485751D01*
X116221214Y-95538777D01*
X116312114Y-95602162D01*
X116416657Y-95680154D01*
X116542453Y-95777004D01*
X116613451Y-95830836D01*
X116728825Y-95910731D01*
X116828815Y-95967125D01*
X116920794Y-96003275D01*
X117012134Y-96022440D01*
X117110208Y-96027878D01*
X117166008Y-96025842D01*
X117283594Y-96003954D01*
X117382278Y-95954733D01*
X117471808Y-95874032D01*
X117474905Y-95870577D01*
X117533107Y-95794765D01*
X117574261Y-95713647D01*
X117599520Y-95620803D01*
X117610038Y-95509809D01*
X117606968Y-95374246D01*
X117591462Y-95207692D01*
X117568053Y-94948049D01*
X117561086Y-94676202D01*
X117575515Y-94427797D01*
X117611440Y-94197820D01*
X117626247Y-94123649D01*
X117650856Y-93964749D01*
X117659454Y-93830139D01*
X117652283Y-93711884D01*
X117629584Y-93602043D01*
X117589769Y-93495955D01*
X117540759Y-93426144D01*
X117484559Y-93393706D01*
X117422831Y-93398508D01*
X117357237Y-93440417D01*
X117289438Y-93519297D01*
X117221094Y-93635016D01*
X117177074Y-93715675D01*
X117103064Y-93820610D01*
X117021938Y-93892898D01*
X116926912Y-93936440D01*
X116811202Y-93955135D01*
X116668023Y-93952883D01*
X116595001Y-93944283D01*
X116496307Y-93918155D01*
X116404169Y-93872573D01*
X116312691Y-93803608D01*
X116215977Y-93707331D01*
X116108129Y-93579812D01*
X116081312Y-93547382D01*
X116022170Y-93482585D01*
X115968089Y-93431394D01*
X115928136Y-93402730D01*
X115872876Y-93362203D01*
X115818463Y-93282327D01*
X115779539Y-93172828D01*
X115756081Y-93037155D01*
X115755035Y-93016487D01*
X116450014Y-93016487D01*
X116454044Y-93028695D01*
X116483954Y-93024490D01*
X116542337Y-93000229D01*
X116594292Y-92980001D01*
X116674351Y-92956925D01*
X116757373Y-92939426D01*
X116884680Y-92929247D01*
X117017505Y-92942580D01*
X117136181Y-92979348D01*
X117235063Y-93037025D01*
X117308504Y-93113082D01*
X117350858Y-93204995D01*
X117361495Y-93243743D01*
X117378596Y-93275803D01*
X117409594Y-93291440D01*
X117466965Y-93300969D01*
X117503351Y-93307519D01*
X117592613Y-93344402D01*
X117663487Y-93411310D01*
X117720823Y-93512279D01*
X117743345Y-93574100D01*
X117764341Y-93671374D01*
X117774344Y-93788045D01*
X117773464Y-93928671D01*
X117761808Y-94097806D01*
X117739483Y-94300008D01*
X117725230Y-94418644D01*
X117713422Y-94538378D01*
X117707537Y-94643399D01*
X117707951Y-94742527D01*
X117715037Y-94844584D01*
X117729170Y-94958391D01*
X117750725Y-95092768D01*
X117780075Y-95256538D01*
X117787017Y-95294294D01*
X117809975Y-95418864D01*
X117827449Y-95511115D01*
X117840829Y-95575889D01*
X117851502Y-95618028D01*
X117860855Y-95642375D01*
X117870276Y-95653770D01*
X117881153Y-95657057D01*
X117894874Y-95657077D01*
X117941954Y-95642824D01*
X117979388Y-95599208D01*
X117993590Y-95535580D01*
X117993586Y-95534948D01*
X117987690Y-95492503D01*
X117972155Y-95422666D01*
X117949303Y-95334987D01*
X117921458Y-95239014D01*
X117893135Y-95143031D01*
X117870533Y-95053893D01*
X117857016Y-94976529D01*
X117850321Y-94897493D01*
X117848188Y-94803338D01*
X117848169Y-94776528D01*
X117851008Y-94679911D01*
X117858261Y-94613476D01*
X117869508Y-94581589D01*
X117890494Y-94568583D01*
X117934880Y-94575190D01*
X117988440Y-94617992D01*
X118049920Y-94696191D01*
X118088317Y-94749600D01*
X118205563Y-94880674D01*
X118341920Y-94988870D01*
X118500813Y-95075845D01*
X118685670Y-95143254D01*
X118899919Y-95192752D01*
X119146988Y-95225994D01*
X119337263Y-95236843D01*
X119524462Y-95227500D01*
X119687096Y-95194497D01*
X119829249Y-95136964D01*
X119955008Y-95054033D01*
X119982027Y-95033023D01*
X120023627Y-95004110D01*
X120046896Y-94992769D01*
X120066908Y-94995990D01*
X120109259Y-95013871D01*
X120146415Y-95039099D01*
X120162359Y-95062063D01*
X120162346Y-95062531D01*
X120151445Y-95090751D01*
X120124101Y-95140238D01*
X120086049Y-95200581D01*
X120030403Y-95294481D01*
X119981947Y-95404558D01*
X119955948Y-95504223D01*
X119955247Y-95585125D01*
X119959407Y-95601112D01*
X119981256Y-95647554D01*
X120012720Y-95691947D01*
X120046496Y-95726353D01*
X120075276Y-95742833D01*
X120091755Y-95733448D01*
X120092931Y-95728741D01*
X120098632Y-95689155D01*
X120105075Y-95624805D01*
X120111078Y-95547080D01*
X120113762Y-95513197D01*
X120127293Y-95418962D01*
X120151702Y-95330156D01*
X120190513Y-95237907D01*
X120247251Y-95133345D01*
X120325440Y-95007601D01*
X120359701Y-94954211D01*
X120399063Y-94891610D01*
X120425947Y-94847259D01*
X120435898Y-94828386D01*
X120434935Y-94826663D01*
X120411654Y-94813975D01*
X120367017Y-94797220D01*
X120274157Y-94750693D01*
X120198033Y-94679147D01*
X120146305Y-94591548D01*
X120122009Y-94495368D01*
X120128183Y-94398082D01*
X120167864Y-94307162D01*
X120178902Y-94293910D01*
X120219854Y-94253024D01*
X120284774Y-94192879D01*
X120369681Y-94117014D01*
X120470592Y-94028964D01*
X120583524Y-93932269D01*
X120704495Y-93830465D01*
X120864808Y-93696482D01*
X121023139Y-93563434D01*
X121155873Y-93450797D01*
X121265510Y-93356268D01*
X121354546Y-93277542D01*
X121425480Y-93212315D01*
X121480810Y-93158282D01*
X121523034Y-93113138D01*
X121554650Y-93074580D01*
X121578156Y-93040302D01*
X121596050Y-93008001D01*
X121606058Y-92987296D01*
X121667739Y-92827281D01*
X121707487Y-92660516D01*
X121724298Y-92495992D01*
X121717168Y-92342704D01*
X121685094Y-92209642D01*
X121666239Y-92162037D01*
X121644807Y-92114929D01*
X121631113Y-92093389D01*
X121628213Y-92098627D01*
X121623986Y-92134875D01*
X121620638Y-92199929D01*
X121618455Y-92287420D01*
X121617724Y-92390979D01*
X121617685Y-92488577D01*
X121616649Y-92578405D01*
X121613437Y-92643881D01*
X121606888Y-92693091D01*
X121595842Y-92734123D01*
X121579141Y-92775063D01*
X121555624Y-92824000D01*
X121538980Y-92857548D01*
X121500330Y-92930155D01*
X121467675Y-92979346D01*
X121434201Y-93014362D01*
X121393093Y-93044446D01*
X121383555Y-93050370D01*
X121345820Y-93065785D01*
X121315856Y-93060496D01*
X121292610Y-93031443D01*
X121275031Y-92975572D01*
X121262064Y-92889823D01*
X121252658Y-92771139D01*
X121245761Y-92616463D01*
X121242878Y-92543520D01*
X121232234Y-92375761D01*
X121215079Y-92227092D01*
X121189192Y-92088722D01*
X121152347Y-91951859D01*
X121102321Y-91807711D01*
X121036890Y-91647488D01*
X120953831Y-91462399D01*
X120917242Y-91388456D01*
X120864625Y-91293447D01*
X120808214Y-91200914D01*
X120753258Y-91119009D01*
X120737099Y-91097868D01*
X121186379Y-91097868D01*
X121195548Y-91145469D01*
X121214863Y-91200274D01*
X121242782Y-91254867D01*
X121277763Y-91301832D01*
X121289066Y-91313485D01*
X121332179Y-91348630D01*
X121362370Y-91358163D01*
X121373744Y-91339755D01*
X121368728Y-91324233D01*
X121347439Y-91282562D01*
X121315129Y-91228468D01*
X121291699Y-91189588D01*
X121266357Y-91141242D01*
X121256513Y-91112951D01*
X121252686Y-91098075D01*
X121228945Y-91066982D01*
X121204645Y-91053948D01*
X121188897Y-91064889D01*
X121186379Y-91097868D01*
X120737099Y-91097868D01*
X120705009Y-91055885D01*
X120668717Y-91019694D01*
X120662818Y-91015487D01*
X120643297Y-90995635D01*
X120642899Y-90969492D01*
X120660377Y-90922523D01*
X120675100Y-90874983D01*
X120687866Y-90777013D01*
X120685947Y-90668977D01*
X120668946Y-90567307D01*
X120660938Y-90543298D01*
X120635815Y-90481563D01*
X120598600Y-90397870D01*
X120552830Y-90300086D01*
X120502041Y-90196077D01*
X120477070Y-90145543D01*
X120418899Y-90022077D01*
X120377483Y-89922967D01*
X120350188Y-89841538D01*
X120334380Y-89771115D01*
X120333986Y-89768710D01*
X120321488Y-89703391D01*
X120309260Y-89656924D01*
X120299896Y-89639230D01*
X120297983Y-89639477D01*
X120271046Y-89658900D01*
X120225982Y-89706805D01*
X120165944Y-89779600D01*
X120094086Y-89873692D01*
X120023478Y-89965699D01*
X119935413Y-90067530D01*
X119857732Y-90138730D01*
X119786677Y-90182019D01*
X119718488Y-90200121D01*
X119649407Y-90195757D01*
X119618611Y-90187447D01*
X119540728Y-90154791D01*
X119441651Y-90100076D01*
X119318853Y-90021841D01*
X119169808Y-89918627D01*
X119091859Y-89864957D01*
X118975783Y-89789622D01*
X118858272Y-89717564D01*
X118755590Y-89658977D01*
X118671816Y-89612855D01*
X118610392Y-89575805D01*
X118573385Y-89547656D01*
X118555249Y-89524139D01*
X118550436Y-89500979D01*
X118550967Y-89489373D01*
X118562175Y-89459364D01*
X118590358Y-89446902D01*
X118638702Y-89452695D01*
X118710392Y-89477450D01*
X118808613Y-89521873D01*
X118936550Y-89586671D01*
X118945963Y-89591587D01*
X119100634Y-89670024D01*
X119228786Y-89729493D01*
X119336396Y-89772109D01*
X119429441Y-89799986D01*
X119513898Y-89815242D01*
X119595744Y-89819990D01*
X119667088Y-89815383D01*
X119780870Y-89789861D01*
X119884900Y-89745923D01*
X119969507Y-89688058D01*
X120025022Y-89620754D01*
X120030436Y-89608950D01*
X120029145Y-89597756D01*
X120012501Y-89591482D01*
X119974587Y-89589417D01*
X119909486Y-89590851D01*
X119811280Y-89595073D01*
X119774792Y-89596605D01*
X119666656Y-89598207D01*
X119573340Y-89592776D01*
X119484862Y-89578279D01*
X119391241Y-89552681D01*
X119282496Y-89513949D01*
X119148645Y-89460048D01*
X119102870Y-89441212D01*
X118988116Y-89394916D01*
X118865776Y-89346523D01*
X118755590Y-89303878D01*
X118721993Y-89290951D01*
X118620820Y-89249408D01*
X118551263Y-89214905D01*
X118508703Y-89184333D01*
X118488514Y-89154581D01*
X118486076Y-89122539D01*
X118502605Y-89088126D01*
X118539794Y-89074870D01*
X118587965Y-89088183D01*
X118638061Y-89127756D01*
X118665914Y-89155375D01*
X118723106Y-89198122D01*
X118798320Y-89238270D01*
X118898327Y-89279215D01*
X119029895Y-89324355D01*
X119124076Y-89353990D01*
X119301627Y-89403965D01*
X119455624Y-89437820D01*
X119593514Y-89457047D01*
X119722744Y-89463138D01*
X119748030Y-89463056D01*
X119861631Y-89459011D01*
X119947233Y-89446725D01*
X120013917Y-89423220D01*
X120070764Y-89385520D01*
X120126857Y-89330646D01*
X120165718Y-89290039D01*
X120233213Y-89225516D01*
X120294244Y-89173253D01*
X120325837Y-89146344D01*
X120362855Y-89106698D01*
X120377282Y-89078811D01*
X120374458Y-89052537D01*
X120344799Y-88981043D01*
X120288527Y-88909554D01*
X120212728Y-88848008D01*
X120194115Y-88835425D01*
X120127696Y-88784397D01*
X120052010Y-88719704D01*
X119980062Y-88652287D01*
X119846610Y-88520078D01*
X119847135Y-88410459D01*
X119850703Y-88355231D01*
X119934151Y-88355231D01*
X119940182Y-88411056D01*
X119947744Y-88434076D01*
X119962448Y-88454763D01*
X119981629Y-88444633D01*
X119984404Y-88441371D01*
X119999780Y-88402342D01*
X120006052Y-88347875D01*
X120013167Y-88293083D01*
X120035359Y-88264472D01*
X120048837Y-88255766D01*
X120064667Y-88221873D01*
X120064229Y-88214417D01*
X120050494Y-88194541D01*
X120023269Y-88201312D01*
X119990397Y-88230535D01*
X119959720Y-88278015D01*
X119952385Y-88293712D01*
X119934151Y-88355231D01*
X119850703Y-88355231D01*
X119852232Y-88331565D01*
X119877889Y-88225905D01*
X119922847Y-88145413D01*
X119984519Y-88094144D01*
X120060320Y-88076153D01*
X120076555Y-88076719D01*
X120159289Y-88100142D01*
X120223415Y-88154440D01*
X120258204Y-88221873D01*
X120264869Y-88234793D01*
X120279590Y-88336380D01*
X120271060Y-88412330D01*
X120246908Y-88490523D01*
X120212018Y-88557994D01*
X120171296Y-88605357D01*
X120129646Y-88623230D01*
X120126696Y-88623350D01*
X120106300Y-88638865D01*
X120109113Y-88671790D01*
X120134447Y-88709758D01*
X120166974Y-88734746D01*
X120209516Y-88739316D01*
X120249905Y-88706889D01*
X120290291Y-88636455D01*
X120338575Y-88508664D01*
X120367477Y-88348165D01*
X120359189Y-88186485D01*
X120313944Y-88017538D01*
X120259766Y-87905386D01*
X120189861Y-87826467D01*
X120104927Y-87783199D01*
X120056294Y-87774456D01*
X120008881Y-87781412D01*
X119947509Y-87807746D01*
X119897257Y-87838698D01*
X119825847Y-87913178D01*
X119772324Y-88016681D01*
X119735594Y-88151614D01*
X119714561Y-88320384D01*
X119703205Y-88476692D01*
X119527359Y-88487928D01*
X119493788Y-88490422D01*
X119412861Y-88499280D01*
X119347583Y-88510304D01*
X119309656Y-88521682D01*
X119294894Y-88529043D01*
X119281795Y-88530121D01*
X119274013Y-88516277D01*
X119270348Y-88481472D01*
X119269603Y-88419669D01*
X119270579Y-88324830D01*
X119270718Y-88313427D01*
X119270888Y-88217168D01*
X119267695Y-88148086D01*
X119259544Y-88095382D01*
X119244841Y-88048256D01*
X119221989Y-87995910D01*
X119161761Y-87897280D01*
X119071004Y-87812995D01*
X118952061Y-87754152D01*
X118848969Y-87729050D01*
X118722186Y-87729969D01*
X118605205Y-87766213D01*
X118501966Y-87835732D01*
X118416409Y-87936473D01*
X118352475Y-88066384D01*
X118320595Y-88175406D01*
X118298846Y-88294907D01*
X118288748Y-88412745D01*
X118290607Y-88520114D01*
X118304732Y-88608204D01*
X118331430Y-88668209D01*
X118357825Y-88689900D01*
X118415759Y-88709674D01*
X118479354Y-88712202D01*
X118529956Y-88694969D01*
X118534240Y-88691792D01*
X118552746Y-88674881D01*
X118558296Y-88654163D01*
X118550959Y-88618595D01*
X118530802Y-88557133D01*
X118521498Y-88528856D01*
X118505872Y-88465556D01*
X118504569Y-88409373D01*
X118516184Y-88339351D01*
X118519457Y-88326491D01*
X118603133Y-88326491D01*
X118607710Y-88350255D01*
X118625722Y-88379714D01*
X118647457Y-88373242D01*
X118664702Y-88330327D01*
X118687268Y-88275201D01*
X118725912Y-88224747D01*
X118738108Y-88213215D01*
X118769088Y-88177781D01*
X118768753Y-88159499D01*
X118737788Y-88154307D01*
X118728426Y-88155323D01*
X118684960Y-88178851D01*
X118642846Y-88223844D01*
X118612199Y-88277368D01*
X118603133Y-88326491D01*
X118519457Y-88326491D01*
X118529715Y-88286190D01*
X118576893Y-88180425D01*
X118643697Y-88107162D01*
X118728947Y-88067437D01*
X118831463Y-88062287D01*
X118884707Y-88074120D01*
X118962972Y-88120669D01*
X119005336Y-88177781D01*
X119020482Y-88198199D01*
X119055885Y-88304563D01*
X119067830Y-88437615D01*
X119067756Y-88459959D01*
X119065384Y-88523682D01*
X119055425Y-88570355D01*
X119032243Y-88606531D01*
X118990198Y-88638764D01*
X118923654Y-88673610D01*
X118826972Y-88717621D01*
X118745516Y-88752905D01*
X118647958Y-88792640D01*
X118561379Y-88825360D01*
X118497987Y-88846291D01*
X118464211Y-88857086D01*
X118377917Y-88901763D01*
X118324554Y-88960637D01*
X118306628Y-89031288D01*
X118307431Y-89044372D01*
X118314831Y-89098176D01*
X118328280Y-89173132D01*
X118345705Y-89257241D01*
X118353466Y-89293192D01*
X118368065Y-89366439D01*
X118369286Y-89372565D01*
X118380255Y-89436426D01*
X118384359Y-89473502D01*
X118377589Y-89532707D01*
X118345596Y-89635407D01*
X118290103Y-89752315D01*
X118214178Y-89876171D01*
X118161935Y-89955941D01*
X118038710Y-90178565D01*
X117941779Y-90414506D01*
X117866351Y-90674769D01*
X117863838Y-90685092D01*
X117836665Y-90775887D01*
X117802940Y-90844973D01*
X117755121Y-90908180D01*
X117753598Y-90909927D01*
X117673377Y-91021584D01*
X117596661Y-91165079D01*
X117526107Y-91333313D01*
X117464374Y-91519186D01*
X117414118Y-91715602D01*
X117377998Y-91915461D01*
X117373789Y-91947256D01*
X117362363Y-92049865D01*
X117350792Y-92173641D01*
X117340219Y-92305760D01*
X117331787Y-92433400D01*
X117327110Y-92505818D01*
X117318352Y-92612227D01*
X117308622Y-92703199D01*
X117298804Y-92770867D01*
X117289780Y-92807361D01*
X117262135Y-92847461D01*
X117202354Y-92885379D01*
X117127042Y-92900343D01*
X117044895Y-92893431D01*
X116964606Y-92865718D01*
X116894867Y-92818282D01*
X116844374Y-92752199D01*
X116843376Y-92750216D01*
X116794665Y-92616023D01*
X116767492Y-92454939D01*
X116761721Y-92272491D01*
X116777216Y-92074210D01*
X116813841Y-91865623D01*
X116871459Y-91652261D01*
X116888116Y-91603687D01*
X116936996Y-91481174D01*
X116999712Y-91341640D01*
X117070989Y-91195675D01*
X117145552Y-91053869D01*
X117218127Y-90926813D01*
X117283440Y-90825097D01*
X117392780Y-90669056D01*
X117318309Y-90725643D01*
X117298523Y-90741599D01*
X117218726Y-90820317D01*
X117131890Y-90924734D01*
X117044064Y-91046608D01*
X116961296Y-91177700D01*
X116889631Y-91309769D01*
X116889308Y-91310424D01*
X116842863Y-91408496D01*
X116806910Y-91495953D01*
X116777365Y-91585109D01*
X116750145Y-91688277D01*
X116721168Y-91817769D01*
X116707606Y-91884289D01*
X116671865Y-92112010D01*
X116658689Y-92315426D01*
X116667932Y-92500409D01*
X116699442Y-92672831D01*
X116737876Y-92824508D01*
X116624362Y-92885010D01*
X116567252Y-92917841D01*
X116509213Y-92957416D01*
X116469269Y-92991513D01*
X116450014Y-93016487D01*
X115755035Y-93016487D01*
X115748064Y-92878758D01*
X115755465Y-92701084D01*
X115778259Y-92507584D01*
X115816423Y-92301706D01*
X115869934Y-92086900D01*
X115938766Y-91866615D01*
X116040407Y-91590071D01*
X116155145Y-91321189D01*
X116278644Y-91077193D01*
X116415005Y-90850708D01*
X116568329Y-90634358D01*
X116742717Y-90420769D01*
X116754450Y-90407205D01*
X116944817Y-90171692D01*
X117103039Y-89941784D01*
X117233166Y-89709387D01*
X117294805Y-89568204D01*
X117603423Y-89568204D01*
X117613424Y-89623692D01*
X117638552Y-89665510D01*
X117654099Y-89678170D01*
X117693306Y-89694540D01*
X117736326Y-89685770D01*
X117789342Y-89649559D01*
X117858538Y-89583605D01*
X117919735Y-89514741D01*
X117970820Y-89435069D01*
X117988340Y-89366439D01*
X117973474Y-89305998D01*
X117971972Y-89303199D01*
X117958111Y-89282164D01*
X117942228Y-89279488D01*
X117915624Y-89298093D01*
X117869597Y-89340906D01*
X117836009Y-89370301D01*
X117773792Y-89415361D01*
X117720052Y-89444098D01*
X117712378Y-89447054D01*
X117661213Y-89469452D01*
X117627244Y-89488590D01*
X117609647Y-89516234D01*
X117603423Y-89568204D01*
X117294805Y-89568204D01*
X117339250Y-89466405D01*
X117425339Y-89204744D01*
X117495486Y-88916307D01*
X117512749Y-88827772D01*
X117527614Y-88734413D01*
X117539261Y-88635641D01*
X117548509Y-88523041D01*
X117556180Y-88388197D01*
X117563093Y-88222692D01*
X117566306Y-88141189D01*
X117574651Y-87977185D01*
X117585314Y-87841612D01*
X117599589Y-87727039D01*
X117618773Y-87626033D01*
X117644163Y-87531161D01*
X117677053Y-87434992D01*
X117718741Y-87330093D01*
X117801356Y-87155561D01*
X117860969Y-87057397D01*
X118300164Y-87057397D01*
X118316174Y-87072485D01*
X118354435Y-87090097D01*
X118409683Y-87099230D01*
X118434342Y-87102764D01*
X118492640Y-87123928D01*
X118553467Y-87157846D01*
X118587887Y-87180130D01*
X118633355Y-87206272D01*
X118658877Y-87216461D01*
X118664666Y-87215359D01*
X118675956Y-87193025D01*
X118670096Y-87150527D01*
X118648129Y-87099230D01*
X118647785Y-87098624D01*
X118628089Y-87043878D01*
X118619513Y-86981023D01*
X118613523Y-86930884D01*
X118588844Y-86882363D01*
X118548678Y-86864769D01*
X118545618Y-86865252D01*
X118514551Y-86880326D01*
X118463736Y-86912253D01*
X118402512Y-86955254D01*
X118367573Y-86981180D01*
X118321388Y-87017822D01*
X118300411Y-87041202D01*
X118300164Y-87057397D01*
X117860969Y-87057397D01*
X117919134Y-86961619D01*
X118053044Y-86789852D01*
X118198627Y-86645861D01*
X118351424Y-86535248D01*
X118492457Y-86464163D01*
X118684300Y-86395509D01*
X118894260Y-86344750D01*
X119112712Y-86313208D01*
X119330028Y-86302202D01*
X119536581Y-86313054D01*
X119722744Y-86347084D01*
X119733686Y-86350099D01*
X119875851Y-86404872D01*
X120021681Y-86486491D01*
X120162750Y-86588221D01*
X120290629Y-86703326D01*
X120396889Y-86825072D01*
X120473102Y-86946723D01*
X120517968Y-87047880D01*
X120562194Y-87180304D01*
X120564959Y-87193025D01*
X120593621Y-87324867D01*
G37*
G36*
X119835853Y-88607858D02*
G01*
X119872562Y-88636122D01*
X119888821Y-88675984D01*
X119888785Y-88678298D01*
X119878544Y-88699991D01*
X119854318Y-88690685D01*
X119822233Y-88652538D01*
X119813609Y-88638849D01*
X119802454Y-88611301D01*
X119816078Y-88603692D01*
X119835853Y-88607858D01*
G37*
G36*
X119371052Y-88585454D02*
G01*
X119324926Y-88623880D01*
X119315597Y-88631240D01*
X119272266Y-88655857D01*
X119238269Y-88661828D01*
X119224513Y-88646677D01*
X119233812Y-88622231D01*
X119270297Y-88595337D01*
X119321229Y-88584804D01*
X119371052Y-88585454D01*
G37*
%TO.C,*%
G36*
X116904173Y-72069752D02*
G01*
X116407432Y-72069752D01*
X115910692Y-72069752D01*
X115910692Y-71573011D01*
X115910692Y-71241851D01*
X116076272Y-71241851D01*
X116076272Y-71589569D01*
X116076272Y-71937287D01*
X116407432Y-71937287D01*
X116738593Y-71937287D01*
X116738593Y-71589569D01*
X116738593Y-71241851D01*
X116407432Y-71241851D01*
X116076272Y-71241851D01*
X115910692Y-71241851D01*
X115910692Y-71076270D01*
X116407432Y-71076270D01*
X116904173Y-71076270D01*
X116904173Y-71573011D01*
X116904173Y-71589569D01*
X116904173Y-72069752D01*
G37*
G36*
X115494978Y-71651411D02*
G01*
X115510145Y-71693693D01*
X115513299Y-71785962D01*
X115513299Y-71937287D01*
X115645763Y-71937287D01*
X115722221Y-71941037D01*
X115767119Y-71960188D01*
X115778228Y-72003519D01*
X115770728Y-72041748D01*
X115732426Y-72064197D01*
X115645763Y-72069752D01*
X115569305Y-72066002D01*
X115524408Y-72046851D01*
X115513299Y-72003519D01*
X115502414Y-71960704D01*
X115447067Y-71937287D01*
X115404252Y-71948172D01*
X115380835Y-72003519D01*
X115362966Y-72054229D01*
X115298045Y-72069752D01*
X115234659Y-72055456D01*
X115215255Y-72003519D01*
X115225592Y-71961627D01*
X115279583Y-71937287D01*
X115315856Y-71929166D01*
X115341568Y-71887779D01*
X115354094Y-71796544D01*
X115364696Y-71712708D01*
X115389770Y-71663547D01*
X115438788Y-71645219D01*
X115459249Y-71642960D01*
X115494978Y-71651411D01*
G37*
G36*
X115778228Y-68311081D02*
G01*
X115777802Y-68405151D01*
X115774055Y-68506572D01*
X115763870Y-68562981D01*
X115744200Y-68587329D01*
X115711996Y-68592568D01*
X115673767Y-68600067D01*
X115651318Y-68638369D01*
X115650008Y-68658800D01*
X115645763Y-68725032D01*
X115649513Y-68801490D01*
X115668664Y-68846388D01*
X115711996Y-68857496D01*
X115762705Y-68875365D01*
X115778228Y-68940286D01*
X115763932Y-69003673D01*
X115711996Y-69023076D01*
X115669180Y-69012191D01*
X115645763Y-68956844D01*
X115634878Y-68914029D01*
X115579531Y-68890612D01*
X115562069Y-68891587D01*
X115535736Y-68904888D01*
X115521051Y-68944432D01*
X115514720Y-69023076D01*
X115514682Y-69023542D01*
X115513299Y-69155540D01*
X115513299Y-69221772D01*
X115513299Y-69420469D01*
X115861018Y-69420469D01*
X115904578Y-69420501D01*
X116045301Y-69421895D01*
X116134368Y-69426981D01*
X116183490Y-69437991D01*
X116204376Y-69457154D01*
X116208736Y-69486701D01*
X116219621Y-69529516D01*
X116274968Y-69552933D01*
X116313197Y-69545433D01*
X116335646Y-69507131D01*
X116341200Y-69420469D01*
X116337450Y-69344011D01*
X116318300Y-69299113D01*
X116274968Y-69288004D01*
X116232153Y-69277119D01*
X116208736Y-69221772D01*
X116214514Y-69187628D01*
X116242551Y-69166799D01*
X116307498Y-69157605D01*
X116423990Y-69155540D01*
X116534960Y-69157318D01*
X116602653Y-69165945D01*
X116632536Y-69185929D01*
X116639245Y-69221772D01*
X116648464Y-69260396D01*
X116688919Y-69288004D01*
X116717886Y-69275711D01*
X116738593Y-69221772D01*
X116756462Y-69171063D01*
X116821383Y-69155540D01*
X116884769Y-69169836D01*
X116904173Y-69221772D01*
X116893288Y-69264588D01*
X116837941Y-69288004D01*
X116795125Y-69298889D01*
X116771709Y-69354237D01*
X116782594Y-69397052D01*
X116837941Y-69420469D01*
X116888650Y-69438338D01*
X116904173Y-69503259D01*
X116889877Y-69566645D01*
X116837941Y-69586049D01*
X116799317Y-69595269D01*
X116771709Y-69635723D01*
X116784002Y-69664690D01*
X116837941Y-69685397D01*
X116842699Y-69685454D01*
X116881845Y-69697255D01*
X116899839Y-69741292D01*
X116904173Y-69834419D01*
X116904173Y-69983441D01*
X116755151Y-69983441D01*
X116606129Y-69983441D01*
X116606129Y-69784745D01*
X116606129Y-69586049D01*
X116473664Y-69586049D01*
X116435582Y-69586950D01*
X116363074Y-69601183D01*
X116341200Y-69635723D01*
X116353493Y-69664690D01*
X116407432Y-69685397D01*
X116458141Y-69703266D01*
X116473664Y-69768187D01*
X116473617Y-69775397D01*
X116471899Y-69784745D01*
X116464477Y-69825144D01*
X116426545Y-69846458D01*
X116341200Y-69850977D01*
X116264742Y-69854727D01*
X116219844Y-69873878D01*
X116208736Y-69917209D01*
X116216236Y-69955438D01*
X116254537Y-69977887D01*
X116341200Y-69983441D01*
X116417658Y-69987191D01*
X116462556Y-70006342D01*
X116473664Y-70049673D01*
X116491534Y-70100382D01*
X116556454Y-70115905D01*
X116619841Y-70130201D01*
X116639245Y-70182137D01*
X116648464Y-70220761D01*
X116688919Y-70248370D01*
X116717886Y-70236077D01*
X116738593Y-70182137D01*
X116756462Y-70131428D01*
X116821383Y-70115905D01*
X116836640Y-70116255D01*
X116890495Y-70135675D01*
X116904173Y-70198695D01*
X116889877Y-70262082D01*
X116837941Y-70281486D01*
X116795125Y-70292371D01*
X116771709Y-70347718D01*
X116753839Y-70398427D01*
X116688919Y-70413950D01*
X116627751Y-70401099D01*
X116606129Y-70351580D01*
X116594011Y-70312381D01*
X116539896Y-70271890D01*
X116502057Y-70251350D01*
X116473664Y-70185238D01*
X116462270Y-70138770D01*
X116407432Y-70115905D01*
X116356723Y-70133775D01*
X116341200Y-70198695D01*
X116326905Y-70262082D01*
X116274968Y-70281486D01*
X116245633Y-70285138D01*
X116221769Y-70309240D01*
X116211153Y-70369206D01*
X116208736Y-70480182D01*
X116208736Y-70678878D01*
X116341200Y-70678878D01*
X116417658Y-70675128D01*
X116462556Y-70655977D01*
X116473664Y-70612646D01*
X116462779Y-70569830D01*
X116407432Y-70546414D01*
X116356723Y-70528545D01*
X116341200Y-70463624D01*
X116355642Y-70407515D01*
X116399724Y-70377794D01*
X116449391Y-70393238D01*
X116479640Y-70455345D01*
X116497784Y-70502727D01*
X116564733Y-70540438D01*
X116618649Y-70562660D01*
X116642871Y-70610556D01*
X116621640Y-70657630D01*
X116556454Y-70678878D01*
X116493068Y-70693173D01*
X116473664Y-70745110D01*
X116481164Y-70783339D01*
X116519466Y-70805788D01*
X116606129Y-70811342D01*
X116738593Y-70811342D01*
X116738593Y-70678878D01*
X116738622Y-70667342D01*
X116744335Y-70587747D01*
X116768043Y-70553644D01*
X116821383Y-70546414D01*
X116835800Y-70546559D01*
X116874253Y-70553579D01*
X116894670Y-70582094D01*
X116902746Y-70647014D01*
X116904173Y-70763248D01*
X116904173Y-70980083D01*
X116697198Y-70970224D01*
X116596284Y-70963756D01*
X116525839Y-70951127D01*
X116492247Y-70927210D01*
X116479640Y-70885853D01*
X116457381Y-70831558D01*
X116409482Y-70807523D01*
X116362432Y-70829501D01*
X116341200Y-70895712D01*
X116341124Y-70908700D01*
X116335226Y-70948969D01*
X116308940Y-70968987D01*
X116247022Y-70974243D01*
X116134225Y-70970224D01*
X116033311Y-70963756D01*
X115962866Y-70951127D01*
X115929274Y-70927210D01*
X115916668Y-70885853D01*
X115916548Y-70885002D01*
X115923212Y-70827170D01*
X115974621Y-70811342D01*
X116020131Y-70800090D01*
X116043156Y-70745110D01*
X116039503Y-70715775D01*
X116015401Y-70691911D01*
X115955436Y-70681295D01*
X115844460Y-70678878D01*
X115645763Y-70678878D01*
X115645763Y-70811342D01*
X115649513Y-70887800D01*
X115668664Y-70932698D01*
X115711996Y-70943806D01*
X115762705Y-70961676D01*
X115778228Y-71026596D01*
X115763932Y-71089983D01*
X115711996Y-71109386D01*
X115673767Y-71116886D01*
X115651318Y-71155188D01*
X115645763Y-71241851D01*
X115649513Y-71318309D01*
X115668664Y-71363206D01*
X115711996Y-71374315D01*
X115746140Y-71380092D01*
X115766969Y-71408130D01*
X115776163Y-71473077D01*
X115778228Y-71589569D01*
X115776450Y-71700539D01*
X115767823Y-71768231D01*
X115747839Y-71798114D01*
X115711996Y-71804823D01*
X115707238Y-71804766D01*
X115668091Y-71792965D01*
X115650097Y-71748928D01*
X115645763Y-71655801D01*
X115645763Y-71506779D01*
X115447067Y-71506779D01*
X115248371Y-71506779D01*
X115248371Y-71655801D01*
X115248055Y-71695996D01*
X115240874Y-71768286D01*
X115216669Y-71798647D01*
X115165581Y-71804823D01*
X115158371Y-71804871D01*
X115108624Y-71814010D01*
X115087310Y-71851943D01*
X115082791Y-71937287D01*
X115082791Y-72069752D01*
X114950327Y-72069752D01*
X114873869Y-72066002D01*
X114828971Y-72046851D01*
X114817863Y-72003519D01*
X114812085Y-71969375D01*
X114784048Y-71948546D01*
X114719100Y-71939352D01*
X114602608Y-71937287D01*
X114491638Y-71935510D01*
X114423946Y-71926883D01*
X114394063Y-71906899D01*
X114387354Y-71871055D01*
X114383701Y-71841720D01*
X114359599Y-71817856D01*
X114299634Y-71807240D01*
X114188658Y-71804823D01*
X113989962Y-71804823D01*
X113989962Y-71937287D01*
X113989932Y-71948823D01*
X113984220Y-72028418D01*
X113960512Y-72062521D01*
X113907172Y-72069752D01*
X113843785Y-72055456D01*
X113824381Y-72003519D01*
X113813496Y-71960704D01*
X113758149Y-71937287D01*
X113715334Y-71948172D01*
X113691917Y-72003519D01*
X113681032Y-72046335D01*
X113625685Y-72069752D01*
X113582870Y-72058867D01*
X113559453Y-72003519D01*
X113570338Y-71960704D01*
X113625685Y-71937287D01*
X113676394Y-71919418D01*
X113691917Y-71854497D01*
X113706213Y-71791111D01*
X113758149Y-71771707D01*
X113796773Y-71762487D01*
X113824381Y-71722033D01*
X113821977Y-71707752D01*
X113784024Y-71680562D01*
X113691917Y-71672359D01*
X113615459Y-71676109D01*
X113570561Y-71695260D01*
X113559453Y-71738591D01*
X113548568Y-71781407D01*
X113493221Y-71804823D01*
X113450406Y-71793938D01*
X113426989Y-71738591D01*
X113416104Y-71695776D01*
X113360757Y-71672359D01*
X113317941Y-71683244D01*
X113294525Y-71738591D01*
X113283640Y-71781407D01*
X113228293Y-71804823D01*
X113185477Y-71815708D01*
X113162061Y-71871055D01*
X113169560Y-71909284D01*
X113207862Y-71931733D01*
X113294525Y-71937287D01*
X113370983Y-71941037D01*
X113415881Y-71960188D01*
X113426989Y-72003519D01*
X113426932Y-72008277D01*
X113415131Y-72047424D01*
X113371094Y-72065418D01*
X113277967Y-72069752D01*
X113267261Y-72069726D01*
X113179183Y-72064481D01*
X113138695Y-72044909D01*
X113128945Y-72003519D01*
X113121445Y-71965290D01*
X113083143Y-71942842D01*
X112996481Y-71937287D01*
X112984945Y-71937258D01*
X112905350Y-71931545D01*
X112871247Y-71907838D01*
X112864016Y-71854497D01*
X112864064Y-71847287D01*
X112873204Y-71797540D01*
X112911136Y-71776226D01*
X112996481Y-71771707D01*
X113034563Y-71770806D01*
X113107071Y-71756573D01*
X113128945Y-71722033D01*
X113126541Y-71707752D01*
X113088587Y-71680562D01*
X112996481Y-71672359D01*
X112984945Y-71672330D01*
X112905350Y-71666617D01*
X112871247Y-71642909D01*
X112864016Y-71589569D01*
X112864586Y-71567239D01*
X112877511Y-71527077D01*
X112921080Y-71510210D01*
X113013039Y-71506779D01*
X113023744Y-71506804D01*
X113111823Y-71512049D01*
X113152310Y-71531621D01*
X113162061Y-71573011D01*
X113171280Y-71611634D01*
X113211735Y-71639243D01*
X113226016Y-71636839D01*
X113253206Y-71598885D01*
X113255510Y-71573011D01*
X113426989Y-71573011D01*
X113437874Y-71615826D01*
X113493221Y-71639243D01*
X113536037Y-71628358D01*
X113559453Y-71573011D01*
X113548568Y-71530195D01*
X113493221Y-71506779D01*
X113450406Y-71517664D01*
X113426989Y-71573011D01*
X113255510Y-71573011D01*
X113261409Y-71506779D01*
X113261409Y-71440547D01*
X114122426Y-71440547D01*
X114122426Y-71573011D01*
X114122426Y-71639243D01*
X114254890Y-71639243D01*
X114331348Y-71635493D01*
X114376246Y-71616342D01*
X114387354Y-71573011D01*
X114398239Y-71530195D01*
X114453586Y-71506779D01*
X114496402Y-71495894D01*
X114519818Y-71440547D01*
X114512319Y-71402318D01*
X114474017Y-71379869D01*
X114387354Y-71374315D01*
X114310896Y-71370565D01*
X114265998Y-71351414D01*
X114254890Y-71308083D01*
X114254947Y-71303325D01*
X114266748Y-71264179D01*
X114310785Y-71246184D01*
X114403912Y-71241851D01*
X114414618Y-71241876D01*
X114502696Y-71247121D01*
X114543184Y-71266693D01*
X114552934Y-71308083D01*
X114562154Y-71346706D01*
X114602608Y-71374315D01*
X114616889Y-71371911D01*
X114644080Y-71333957D01*
X114652282Y-71241851D01*
X114652282Y-71175619D01*
X114817863Y-71175619D01*
X114828748Y-71218434D01*
X114884095Y-71241851D01*
X114926910Y-71230966D01*
X114950327Y-71175619D01*
X114939442Y-71132803D01*
X114884095Y-71109386D01*
X114841279Y-71120271D01*
X114817863Y-71175619D01*
X114652282Y-71175619D01*
X114652282Y-71109386D01*
X114453586Y-71109386D01*
X114365580Y-71110604D01*
X114293988Y-71118638D01*
X114262140Y-71138627D01*
X114254890Y-71175619D01*
X114244005Y-71218434D01*
X114188658Y-71241851D01*
X114159322Y-71245504D01*
X114135458Y-71269605D01*
X114124842Y-71329571D01*
X114122426Y-71440547D01*
X113261409Y-71440547D01*
X113261409Y-71374315D01*
X113128945Y-71374315D01*
X113052487Y-71370565D01*
X113007589Y-71351414D01*
X112996481Y-71308083D01*
X112996537Y-71303325D01*
X113008339Y-71264179D01*
X113052376Y-71246184D01*
X113145503Y-71241851D01*
X113156208Y-71241876D01*
X113244287Y-71247121D01*
X113284774Y-71266693D01*
X113294525Y-71308083D01*
X113305410Y-71350898D01*
X113360757Y-71374315D01*
X113398986Y-71366815D01*
X113421435Y-71328513D01*
X113426989Y-71241851D01*
X113426989Y-71109386D01*
X113277967Y-71109386D01*
X113267261Y-71109361D01*
X113179183Y-71104116D01*
X113138695Y-71084544D01*
X113128945Y-71043154D01*
X113121445Y-71004925D01*
X113083143Y-70982476D01*
X112996481Y-70976922D01*
X113559453Y-70976922D01*
X113559453Y-71175619D01*
X113559453Y-71374315D01*
X113758149Y-71374315D01*
X113956846Y-71374315D01*
X113956846Y-71175619D01*
X113956846Y-70976922D01*
X113758149Y-70976922D01*
X113559453Y-70976922D01*
X112996481Y-70976922D01*
X112864016Y-70976922D01*
X112864016Y-70877574D01*
X113162061Y-70877574D01*
X113171280Y-70916198D01*
X113211735Y-70943806D01*
X113240702Y-70931513D01*
X113261409Y-70877574D01*
X113252189Y-70838951D01*
X113211735Y-70811342D01*
X113182767Y-70823635D01*
X113162061Y-70877574D01*
X112864016Y-70877574D01*
X112864016Y-70761668D01*
X112865794Y-70650698D01*
X112874421Y-70583006D01*
X112894405Y-70553123D01*
X112930248Y-70546414D01*
X112968477Y-70553914D01*
X112990926Y-70592215D01*
X112996481Y-70678878D01*
X113000230Y-70755336D01*
X113019381Y-70800234D01*
X113062713Y-70811342D01*
X113096857Y-70805564D01*
X113117686Y-70777527D01*
X113126880Y-70712580D01*
X113128945Y-70596088D01*
X113130722Y-70485118D01*
X113139349Y-70417426D01*
X113159333Y-70387543D01*
X113195177Y-70380834D01*
X113233406Y-70373334D01*
X113255855Y-70335032D01*
X113261409Y-70248370D01*
X113257659Y-70171912D01*
X113238508Y-70127014D01*
X113195177Y-70115905D01*
X113152361Y-70105020D01*
X113128945Y-70049673D01*
X113118060Y-70006858D01*
X113062713Y-69983441D01*
X113024484Y-69975942D01*
X113002035Y-69937640D01*
X113000726Y-69917209D01*
X113162061Y-69917209D01*
X113171280Y-69955833D01*
X113211735Y-69983441D01*
X113240702Y-69971148D01*
X113261409Y-69917209D01*
X113252189Y-69878586D01*
X113211735Y-69850977D01*
X113182767Y-69863270D01*
X113162061Y-69917209D01*
X113000726Y-69917209D01*
X112996481Y-69850977D01*
X112993233Y-69784745D01*
X113294525Y-69784745D01*
X113305410Y-69827561D01*
X113360757Y-69850977D01*
X113403572Y-69861862D01*
X113426989Y-69917209D01*
X113416104Y-69960025D01*
X113360757Y-69983441D01*
X113317941Y-69994326D01*
X113294525Y-70049673D01*
X113305410Y-70092489D01*
X113360757Y-70115905D01*
X113365515Y-70115962D01*
X113404661Y-70127763D01*
X113422655Y-70171801D01*
X113426989Y-70264928D01*
X113426964Y-70275633D01*
X113421719Y-70363712D01*
X113402147Y-70404199D01*
X113360757Y-70413950D01*
X113317941Y-70424835D01*
X113294525Y-70480182D01*
X113305410Y-70522997D01*
X113360757Y-70546414D01*
X113398986Y-70553914D01*
X113421435Y-70592215D01*
X113426989Y-70678878D01*
X113426989Y-70811342D01*
X113559453Y-70811342D01*
X113635911Y-70807592D01*
X113680809Y-70788442D01*
X113691917Y-70745110D01*
X113709787Y-70694401D01*
X113774707Y-70678878D01*
X113838094Y-70693173D01*
X113857497Y-70745110D01*
X113866604Y-70783774D01*
X113905591Y-70811342D01*
X113906987Y-70811315D01*
X113935528Y-70790907D01*
X113953402Y-70725421D01*
X113963544Y-70604367D01*
X113970012Y-70503453D01*
X113982641Y-70433008D01*
X114006558Y-70399416D01*
X114047915Y-70386809D01*
X114094503Y-70369711D01*
X114122426Y-70312298D01*
X114133026Y-70272042D01*
X114188658Y-70248370D01*
X114231473Y-70237485D01*
X114254890Y-70182137D01*
X114552934Y-70182137D01*
X114562154Y-70220761D01*
X114602608Y-70248370D01*
X114631576Y-70236077D01*
X114652282Y-70182137D01*
X114643063Y-70143514D01*
X114602608Y-70115905D01*
X114573641Y-70128198D01*
X114552934Y-70182137D01*
X114254890Y-70182137D01*
X114254833Y-70177379D01*
X114243032Y-70138233D01*
X114198995Y-70120239D01*
X114105868Y-70115905D01*
X113956846Y-70115905D01*
X113956846Y-69983441D01*
X113956846Y-69850977D01*
X114172100Y-69850977D01*
X114283070Y-69852755D01*
X114350762Y-69861382D01*
X114380645Y-69881365D01*
X114387354Y-69917209D01*
X114393132Y-69951354D01*
X114421169Y-69972182D01*
X114486116Y-69981377D01*
X114602608Y-69983441D01*
X114817863Y-69983441D01*
X114817863Y-70132463D01*
X114817837Y-70143169D01*
X114815517Y-70182137D01*
X114812592Y-70231248D01*
X114793020Y-70271735D01*
X114751630Y-70281486D01*
X114708815Y-70292371D01*
X114685398Y-70347718D01*
X114674513Y-70390533D01*
X114619166Y-70413950D01*
X114576351Y-70424835D01*
X114552934Y-70480182D01*
X114563819Y-70522997D01*
X114619166Y-70546414D01*
X114661982Y-70557299D01*
X114685398Y-70612646D01*
X114696283Y-70655461D01*
X114751630Y-70678878D01*
X114756388Y-70678821D01*
X114795535Y-70667020D01*
X114813529Y-70622983D01*
X114817863Y-70529856D01*
X114817888Y-70519150D01*
X114823133Y-70431072D01*
X114842705Y-70390584D01*
X114884095Y-70380834D01*
X114888853Y-70380891D01*
X114927999Y-70392692D01*
X114945993Y-70436729D01*
X114950327Y-70529856D01*
X114950352Y-70540561D01*
X114955597Y-70628640D01*
X114975169Y-70669128D01*
X115016559Y-70678878D01*
X115059374Y-70689763D01*
X115082791Y-70745110D01*
X115077013Y-70779255D01*
X115048976Y-70800083D01*
X114984029Y-70809278D01*
X114867537Y-70811342D01*
X114756567Y-70809564D01*
X114688874Y-70800938D01*
X114658991Y-70780954D01*
X114652282Y-70745110D01*
X114641397Y-70702295D01*
X114586050Y-70678878D01*
X114543235Y-70667993D01*
X114519818Y-70612646D01*
X114508933Y-70569830D01*
X114453586Y-70546414D01*
X114410771Y-70535529D01*
X114387354Y-70480182D01*
X114376469Y-70437366D01*
X114321122Y-70413950D01*
X114291787Y-70417603D01*
X114267922Y-70441705D01*
X114257307Y-70501670D01*
X114254890Y-70612646D01*
X114253672Y-70700652D01*
X114245638Y-70772244D01*
X114225650Y-70804092D01*
X114188658Y-70811342D01*
X114145842Y-70822227D01*
X114122426Y-70877574D01*
X114133311Y-70920390D01*
X114188658Y-70943806D01*
X114231473Y-70932921D01*
X114254890Y-70877574D01*
X114254947Y-70872816D01*
X114266748Y-70833670D01*
X114310785Y-70815676D01*
X114403912Y-70811342D01*
X114414618Y-70811367D01*
X114502696Y-70816612D01*
X114543184Y-70836184D01*
X114552934Y-70877574D01*
X114556587Y-70906910D01*
X114580689Y-70930774D01*
X114640655Y-70941390D01*
X114751630Y-70943806D01*
X114839637Y-70945024D01*
X114911229Y-70953058D01*
X114943077Y-70973046D01*
X114950327Y-71010038D01*
X114961212Y-71052854D01*
X115016559Y-71076270D01*
X115021317Y-71076327D01*
X115060463Y-71088129D01*
X115078457Y-71132166D01*
X115080479Y-71175619D01*
X115082791Y-71225293D01*
X115082766Y-71235998D01*
X115077521Y-71324077D01*
X115057949Y-71364564D01*
X115016559Y-71374315D01*
X114973743Y-71385200D01*
X114950327Y-71440547D01*
X114942827Y-71478776D01*
X114904525Y-71501225D01*
X114817863Y-71506779D01*
X114737736Y-71510950D01*
X114695525Y-71530953D01*
X114685398Y-71576111D01*
X114675229Y-71618381D01*
X114619166Y-71662764D01*
X114580680Y-71681414D01*
X114552934Y-71725896D01*
X114553547Y-71732219D01*
X114589880Y-71762085D01*
X114685398Y-71771707D01*
X114761856Y-71767957D01*
X114806754Y-71748807D01*
X114817863Y-71705475D01*
X114825362Y-71667246D01*
X114863664Y-71644797D01*
X114950327Y-71639243D01*
X115026785Y-71635493D01*
X115071683Y-71616342D01*
X115082791Y-71573011D01*
X115093676Y-71530195D01*
X115149023Y-71506779D01*
X115171157Y-71504969D01*
X115195021Y-71489047D01*
X115208293Y-71445761D01*
X115214022Y-71362160D01*
X115215255Y-71225293D01*
X115215994Y-71090062D01*
X115220785Y-71006405D01*
X115233487Y-70962886D01*
X115257954Y-70946391D01*
X115298045Y-70943806D01*
X115361431Y-70958102D01*
X115380835Y-71010038D01*
X115391720Y-71052854D01*
X115447067Y-71076270D01*
X115476403Y-71072618D01*
X115500267Y-71048516D01*
X115510883Y-70988550D01*
X115513299Y-70877574D01*
X115512082Y-70789568D01*
X115504048Y-70717976D01*
X115484059Y-70686128D01*
X115447067Y-70678878D01*
X115404252Y-70689763D01*
X115380835Y-70745110D01*
X115362966Y-70795819D01*
X115298045Y-70811342D01*
X115234659Y-70797047D01*
X115215255Y-70745110D01*
X115204370Y-70702295D01*
X115149023Y-70678878D01*
X115119688Y-70675225D01*
X115095823Y-70651123D01*
X115085207Y-70591158D01*
X115082791Y-70480182D01*
X115248371Y-70480182D01*
X115257591Y-70518805D01*
X115298045Y-70546414D01*
X115327013Y-70534121D01*
X115347719Y-70480182D01*
X115943808Y-70480182D01*
X115953028Y-70518805D01*
X115993482Y-70546414D01*
X116022449Y-70534121D01*
X116043156Y-70480182D01*
X116033936Y-70441558D01*
X115993482Y-70413950D01*
X115964514Y-70426243D01*
X115943808Y-70480182D01*
X115347719Y-70480182D01*
X115338499Y-70441558D01*
X115298045Y-70413950D01*
X115269078Y-70426243D01*
X115248371Y-70480182D01*
X115082791Y-70480182D01*
X115081573Y-70392176D01*
X115073539Y-70320583D01*
X115053551Y-70288736D01*
X115016559Y-70281486D01*
X115011801Y-70281429D01*
X114972655Y-70269628D01*
X114954660Y-70225590D01*
X114950327Y-70132463D01*
X114950327Y-69983441D01*
X115099349Y-69983441D01*
X115110054Y-69983467D01*
X115198133Y-69988711D01*
X115238621Y-70008284D01*
X115248371Y-70049673D01*
X115230502Y-70100382D01*
X115165581Y-70115905D01*
X115102194Y-70130201D01*
X115082791Y-70182137D01*
X115088569Y-70216282D01*
X115116606Y-70237110D01*
X115181553Y-70246305D01*
X115298045Y-70248370D01*
X115409015Y-70250147D01*
X115476707Y-70258774D01*
X115506590Y-70278758D01*
X115513299Y-70314602D01*
X115520799Y-70352831D01*
X115559101Y-70375280D01*
X115645763Y-70380834D01*
X115778228Y-70380834D01*
X115778228Y-70248370D01*
X115781476Y-70182137D01*
X115943808Y-70182137D01*
X115951307Y-70220366D01*
X115989609Y-70242815D01*
X116076272Y-70248370D01*
X116208736Y-70248370D01*
X116208736Y-70115905D01*
X116204986Y-70039447D01*
X116185835Y-69994550D01*
X116142504Y-69983441D01*
X116099689Y-69994326D01*
X116076272Y-70049673D01*
X116065387Y-70092489D01*
X116010040Y-70115905D01*
X115967224Y-70126790D01*
X115943808Y-70182137D01*
X115781476Y-70182137D01*
X115781977Y-70171912D01*
X115801128Y-70127014D01*
X115844460Y-70115905D01*
X115887275Y-70105020D01*
X115910692Y-70049673D01*
X115921577Y-70006858D01*
X115976924Y-69983441D01*
X116019739Y-69972556D01*
X116043156Y-69917209D01*
X116035656Y-69878980D01*
X115997355Y-69856531D01*
X115910692Y-69850977D01*
X115834234Y-69854727D01*
X115789336Y-69873878D01*
X115778228Y-69917209D01*
X115767343Y-69960025D01*
X115711996Y-69983441D01*
X115669180Y-69994326D01*
X115645763Y-70049673D01*
X115634878Y-70092489D01*
X115579531Y-70115905D01*
X115536716Y-70105020D01*
X115513299Y-70049673D01*
X115495430Y-69998964D01*
X115430509Y-69983441D01*
X115427607Y-69983437D01*
X115382936Y-69978659D01*
X115359051Y-69954319D01*
X115349472Y-69894865D01*
X115347719Y-69784745D01*
X116076272Y-69784745D01*
X116087157Y-69827561D01*
X116142504Y-69850977D01*
X116185320Y-69840092D01*
X116208736Y-69784745D01*
X116197851Y-69741930D01*
X116142504Y-69718513D01*
X116099689Y-69729398D01*
X116076272Y-69784745D01*
X115347719Y-69784745D01*
X115347719Y-69635723D01*
X115513299Y-69635723D01*
X115525592Y-69664690D01*
X115579531Y-69685397D01*
X115618155Y-69676177D01*
X115645763Y-69635723D01*
X115778228Y-69635723D01*
X115780632Y-69650004D01*
X115818585Y-69677194D01*
X115910692Y-69685397D01*
X115948774Y-69684495D01*
X116021282Y-69670263D01*
X116043156Y-69635723D01*
X116040752Y-69621442D01*
X116002798Y-69594251D01*
X115910692Y-69586049D01*
X115872609Y-69586950D01*
X115800101Y-69601183D01*
X115778228Y-69635723D01*
X115645763Y-69635723D01*
X115633470Y-69606755D01*
X115579531Y-69586049D01*
X115540908Y-69595269D01*
X115513299Y-69635723D01*
X115347719Y-69635723D01*
X115347719Y-69586049D01*
X115215255Y-69586049D01*
X115177173Y-69586950D01*
X115104664Y-69601183D01*
X115082791Y-69635723D01*
X115098995Y-69668124D01*
X115165581Y-69685397D01*
X115180838Y-69685747D01*
X115234693Y-69705167D01*
X115248371Y-69768187D01*
X115247802Y-69790517D01*
X115234876Y-69830679D01*
X115191307Y-69847546D01*
X115099349Y-69850977D01*
X115088643Y-69850952D01*
X115000565Y-69845707D01*
X114960077Y-69826135D01*
X114950327Y-69784745D01*
X114942827Y-69746516D01*
X114904525Y-69724067D01*
X114817863Y-69718513D01*
X114741405Y-69722263D01*
X114696507Y-69741414D01*
X114685398Y-69784745D01*
X114667529Y-69835454D01*
X114602608Y-69850977D01*
X114587351Y-69850627D01*
X114533496Y-69831207D01*
X114519818Y-69768187D01*
X114534114Y-69704801D01*
X114586050Y-69685397D01*
X114607357Y-69684339D01*
X114653156Y-69665038D01*
X114650158Y-69631963D01*
X114605944Y-69598933D01*
X114528097Y-69579769D01*
X114403912Y-69569491D01*
X114394053Y-69362516D01*
X114388619Y-69274380D01*
X114376935Y-69198596D01*
X114355667Y-69163864D01*
X114319542Y-69155540D01*
X114685398Y-69155540D01*
X114685398Y-69288004D01*
X114689148Y-69364462D01*
X114708299Y-69409360D01*
X114751630Y-69420469D01*
X114794446Y-69431354D01*
X114817863Y-69486701D01*
X114825362Y-69524930D01*
X114863664Y-69547379D01*
X114950327Y-69552933D01*
X115082791Y-69552933D01*
X115082791Y-69221772D01*
X115082785Y-69204037D01*
X115081644Y-69059236D01*
X115079754Y-69023076D01*
X115248371Y-69023076D01*
X115249273Y-69061159D01*
X115263505Y-69133667D01*
X115298045Y-69155540D01*
X115312326Y-69153136D01*
X115339517Y-69115183D01*
X115347719Y-69023076D01*
X115346818Y-68984994D01*
X115332585Y-68912485D01*
X115298045Y-68890612D01*
X115283764Y-68893016D01*
X115256574Y-68930970D01*
X115248371Y-69023076D01*
X115079754Y-69023076D01*
X115076849Y-68967481D01*
X115066001Y-68916784D01*
X115046703Y-68895157D01*
X115016559Y-68890612D01*
X114978330Y-68898112D01*
X114955881Y-68936413D01*
X114955633Y-68940286D01*
X114950327Y-69023076D01*
X114950327Y-69091307D01*
X114950327Y-69155540D01*
X114817863Y-69155540D01*
X114685398Y-69155540D01*
X114319542Y-69155540D01*
X114283258Y-69162759D01*
X114260590Y-69201105D01*
X114254890Y-69288004D01*
X114251140Y-69364462D01*
X114231989Y-69409360D01*
X114188658Y-69420469D01*
X114145842Y-69409584D01*
X114122426Y-69354237D01*
X114114926Y-69316008D01*
X114076624Y-69293559D01*
X113989962Y-69288004D01*
X113913504Y-69291754D01*
X113868606Y-69310905D01*
X113857497Y-69354237D01*
X113864997Y-69392466D01*
X113903299Y-69414914D01*
X113989962Y-69420469D01*
X114066420Y-69424218D01*
X114111317Y-69443369D01*
X114122426Y-69486701D01*
X114133311Y-69529516D01*
X114188658Y-69552933D01*
X114239367Y-69570802D01*
X114254890Y-69635723D01*
X114240595Y-69699109D01*
X114188658Y-69718513D01*
X114145842Y-69707628D01*
X114122426Y-69652281D01*
X114116648Y-69618136D01*
X114088611Y-69597308D01*
X114023664Y-69588113D01*
X113907172Y-69586049D01*
X113691917Y-69586049D01*
X113691917Y-69784745D01*
X113691919Y-69791709D01*
X113693910Y-69898920D01*
X113704052Y-69956245D01*
X113728824Y-69979234D01*
X113774707Y-69983441D01*
X113838094Y-69997737D01*
X113857497Y-70049673D01*
X113839628Y-70100382D01*
X113774707Y-70115905D01*
X113759450Y-70116255D01*
X113705595Y-70135675D01*
X113691917Y-70198695D01*
X113677622Y-70262082D01*
X113625685Y-70281486D01*
X113603551Y-70279676D01*
X113579688Y-70263754D01*
X113566415Y-70220468D01*
X113560686Y-70136866D01*
X113559453Y-69999999D01*
X113559453Y-69718513D01*
X113426989Y-69718513D01*
X113350531Y-69722263D01*
X113305633Y-69741414D01*
X113294525Y-69784745D01*
X112993233Y-69784745D01*
X112992731Y-69774519D01*
X112973580Y-69729621D01*
X112930248Y-69718513D01*
X112908114Y-69716703D01*
X112884251Y-69700781D01*
X112870978Y-69657495D01*
X112865249Y-69573894D01*
X112864016Y-69437027D01*
X112864016Y-69288004D01*
X112996481Y-69288004D01*
X112996481Y-69486701D01*
X112996481Y-69685397D01*
X113125082Y-69685397D01*
X113179721Y-69683299D01*
X113243295Y-69664537D01*
X113271004Y-69619165D01*
X113285178Y-69587114D01*
X113331389Y-69560112D01*
X113423889Y-69552933D01*
X113504645Y-69548891D01*
X113548631Y-69529643D01*
X113559453Y-69486701D01*
X113548568Y-69443885D01*
X113493221Y-69420469D01*
X113450406Y-69409584D01*
X113426989Y-69354237D01*
X113421211Y-69320092D01*
X113393174Y-69299264D01*
X113328227Y-69290069D01*
X113211735Y-69288004D01*
X112996481Y-69288004D01*
X112864016Y-69288004D01*
X112864016Y-69155540D01*
X113145503Y-69155540D01*
X113239572Y-69155966D01*
X113340993Y-69159713D01*
X113397402Y-69169898D01*
X113421751Y-69189568D01*
X113426989Y-69221772D01*
X113430642Y-69251108D01*
X113454744Y-69274972D01*
X113514709Y-69285588D01*
X113625685Y-69288004D01*
X113713691Y-69286787D01*
X113785284Y-69278753D01*
X113817131Y-69258764D01*
X113824381Y-69221772D01*
X113830159Y-69187628D01*
X113858196Y-69166799D01*
X113923144Y-69157605D01*
X114039636Y-69155540D01*
X114254890Y-69155540D01*
X114254890Y-69006518D01*
X114254915Y-68995813D01*
X114258674Y-68932683D01*
X114392025Y-68932683D01*
X114393634Y-69014797D01*
X114395099Y-69031718D01*
X114408916Y-69105146D01*
X114446109Y-69137187D01*
X114528097Y-69149260D01*
X114602369Y-69151678D01*
X114642842Y-69135642D01*
X114652282Y-69091307D01*
X114641082Y-69046159D01*
X114586050Y-69023076D01*
X114543235Y-69012191D01*
X114519818Y-68956844D01*
X114515459Y-68940286D01*
X114685398Y-68940286D01*
X114697691Y-68969254D01*
X114751630Y-68989960D01*
X114790254Y-68980740D01*
X114817863Y-68940286D01*
X114805570Y-68911319D01*
X114751630Y-68890612D01*
X114713007Y-68899832D01*
X114685398Y-68940286D01*
X114515459Y-68940286D01*
X114508280Y-68913019D01*
X114451587Y-68890612D01*
X114411342Y-68897400D01*
X114392025Y-68932683D01*
X114258674Y-68932683D01*
X114260160Y-68907734D01*
X114279732Y-68867246D01*
X114321122Y-68857496D01*
X114363937Y-68846611D01*
X114387354Y-68791264D01*
X114376469Y-68748448D01*
X114321122Y-68725032D01*
X114278306Y-68714147D01*
X114254890Y-68658800D01*
X114262390Y-68620571D01*
X114300691Y-68598122D01*
X114387354Y-68592568D01*
X114463812Y-68588818D01*
X114508710Y-68569667D01*
X114519818Y-68526336D01*
X114530050Y-68484629D01*
X114583747Y-68460104D01*
X114625454Y-68447886D01*
X114658258Y-68385592D01*
X114676402Y-68338210D01*
X114743351Y-68300499D01*
X114786470Y-68287355D01*
X114811754Y-68246523D01*
X114817863Y-68159756D01*
X114821394Y-68086531D01*
X114840466Y-68040927D01*
X114884095Y-68029595D01*
X114918239Y-68035373D01*
X114939068Y-68063410D01*
X114948262Y-68128357D01*
X114950327Y-68244849D01*
X114948549Y-68355819D01*
X114939922Y-68423512D01*
X114919938Y-68453395D01*
X114884095Y-68460104D01*
X114841279Y-68470989D01*
X114817863Y-68526336D01*
X114810363Y-68564565D01*
X114772061Y-68587014D01*
X114685398Y-68592568D01*
X114552934Y-68592568D01*
X114552934Y-68725032D01*
X114553836Y-68763114D01*
X114568068Y-68835623D01*
X114602608Y-68857496D01*
X114631576Y-68845203D01*
X114652282Y-68791264D01*
X115082791Y-68791264D01*
X115093676Y-68834079D01*
X115149023Y-68857496D01*
X115191838Y-68846611D01*
X115215255Y-68791264D01*
X115204370Y-68748448D01*
X115149023Y-68725032D01*
X115106207Y-68735917D01*
X115082791Y-68791264D01*
X114652282Y-68791264D01*
X114658060Y-68757119D01*
X114686097Y-68736291D01*
X114751044Y-68727096D01*
X114867537Y-68725032D01*
X114978506Y-68723254D01*
X115046199Y-68714627D01*
X115076082Y-68694644D01*
X115082791Y-68658800D01*
X115248371Y-68658800D01*
X115259256Y-68701615D01*
X115314603Y-68725032D01*
X115357419Y-68735917D01*
X115380835Y-68791264D01*
X115391720Y-68834079D01*
X115447067Y-68857496D01*
X115476403Y-68853843D01*
X115500267Y-68829741D01*
X115510883Y-68769776D01*
X115513299Y-68658800D01*
X115512082Y-68570794D01*
X115504048Y-68499201D01*
X115484059Y-68467354D01*
X115447067Y-68460104D01*
X115404252Y-68470989D01*
X115380835Y-68526336D01*
X115369950Y-68569151D01*
X115314603Y-68592568D01*
X115271788Y-68603453D01*
X115248371Y-68658800D01*
X115082791Y-68658800D01*
X115093676Y-68615984D01*
X115149023Y-68592568D01*
X115191838Y-68581683D01*
X115215255Y-68526336D01*
X115204370Y-68483520D01*
X115149023Y-68460104D01*
X115144265Y-68460047D01*
X115105119Y-68448245D01*
X115087124Y-68404208D01*
X115082791Y-68311081D01*
X115082791Y-68244849D01*
X115380835Y-68244849D01*
X115383239Y-68259130D01*
X115421193Y-68286321D01*
X115513299Y-68294523D01*
X115551382Y-68293622D01*
X115623890Y-68279389D01*
X115645763Y-68244849D01*
X115643359Y-68230568D01*
X115605406Y-68203378D01*
X115513299Y-68195175D01*
X115475217Y-68196077D01*
X115402709Y-68210309D01*
X115380835Y-68244849D01*
X115082791Y-68244849D01*
X115082791Y-68162059D01*
X115215255Y-68162059D01*
X115291713Y-68158309D01*
X115336611Y-68139159D01*
X115347719Y-68095827D01*
X115353497Y-68061683D01*
X115381534Y-68040854D01*
X115446481Y-68031659D01*
X115562973Y-68029595D01*
X115778228Y-68029595D01*
X115778228Y-68244849D01*
X115778228Y-68311081D01*
G37*
G36*
X112980958Y-70133775D02*
G01*
X112996481Y-70198695D01*
X112982185Y-70262082D01*
X112930248Y-70281486D01*
X112879539Y-70263616D01*
X112864016Y-70198695D01*
X112878312Y-70135309D01*
X112930248Y-70115905D01*
X112980958Y-70133775D01*
G37*
G36*
X116056868Y-69169836D02*
G01*
X116076272Y-69221772D01*
X116058403Y-69272482D01*
X115993482Y-69288004D01*
X115930095Y-69273709D01*
X115910692Y-69221772D01*
X115928561Y-69171063D01*
X115993482Y-69155540D01*
X116056868Y-69169836D01*
G37*
G36*
X115754811Y-69166425D02*
G01*
X115778228Y-69221772D01*
X115767343Y-69264588D01*
X115711996Y-69288004D01*
X115669180Y-69277119D01*
X115645763Y-69221772D01*
X115656648Y-69178957D01*
X115711996Y-69155540D01*
X115754811Y-69166425D01*
G37*
G36*
X116904173Y-69023076D02*
G01*
X116407432Y-69023076D01*
X115910692Y-69023076D01*
X115910692Y-68526336D01*
X115910692Y-68195175D01*
X116076272Y-68195175D01*
X116076272Y-68526336D01*
X116076272Y-68857496D01*
X116407432Y-68857496D01*
X116738593Y-68857496D01*
X116738593Y-68526336D01*
X116738593Y-68195175D01*
X116407432Y-68195175D01*
X116076272Y-68195175D01*
X115910692Y-68195175D01*
X115910692Y-68029595D01*
X116407432Y-68029595D01*
X116904173Y-68029595D01*
X116904173Y-68526336D01*
X116904173Y-69023076D01*
G37*
G36*
X114112213Y-68877012D02*
G01*
X114122426Y-68940286D01*
X114121571Y-68966743D01*
X114103096Y-69012959D01*
X114047915Y-69017100D01*
X114000460Y-68999508D01*
X113973404Y-68940286D01*
X113985613Y-68896370D01*
X114047915Y-68863472D01*
X114070574Y-68861256D01*
X114112213Y-68877012D01*
G37*
G36*
X113857497Y-69023076D02*
G01*
X113360757Y-69023076D01*
X112864016Y-69023076D01*
X112864016Y-68526336D01*
X112864016Y-68195175D01*
X112996481Y-68195175D01*
X112996481Y-68526336D01*
X112996481Y-68857496D01*
X113344199Y-68857496D01*
X113691917Y-68857496D01*
X113691917Y-68526336D01*
X113691917Y-68195175D01*
X113344199Y-68195175D01*
X112996481Y-68195175D01*
X112864016Y-68195175D01*
X112864016Y-68029595D01*
X113360757Y-68029595D01*
X113857497Y-68029595D01*
X113857497Y-68526336D01*
X113857497Y-69023076D01*
G37*
G36*
X114106598Y-68174579D02*
G01*
X114122426Y-68225988D01*
X114133678Y-68271498D01*
X114188658Y-68294523D01*
X114239367Y-68312393D01*
X114254890Y-68377313D01*
X114240595Y-68440700D01*
X114188658Y-68460104D01*
X114145842Y-68470989D01*
X114122426Y-68526336D01*
X114104557Y-68577045D01*
X114039636Y-68592568D01*
X113976249Y-68578272D01*
X113956846Y-68526336D01*
X113974715Y-68475626D01*
X114039636Y-68460104D01*
X114095744Y-68445662D01*
X114125466Y-68401580D01*
X114110021Y-68351913D01*
X114047915Y-68321664D01*
X114000460Y-68304071D01*
X113973404Y-68244849D01*
X113985613Y-68200933D01*
X114047915Y-68168035D01*
X114048766Y-68167915D01*
X114106598Y-68174579D01*
G37*
G36*
X114371831Y-68047464D02*
G01*
X114387354Y-68112385D01*
X114373059Y-68175772D01*
X114321122Y-68195175D01*
X114270413Y-68177306D01*
X114254890Y-68112385D01*
X114269185Y-68048999D01*
X114321122Y-68029595D01*
X114371831Y-68047464D01*
G37*
G36*
X116639245Y-71589569D02*
G01*
X116639245Y-71804823D01*
X116423990Y-71804823D01*
X116208736Y-71804823D01*
X116208736Y-71589569D01*
X116208736Y-71374315D01*
X116423990Y-71374315D01*
X116639245Y-71374315D01*
X116639245Y-71589569D01*
G37*
G36*
X114926910Y-69861862D02*
G01*
X114950327Y-69917209D01*
X114939442Y-69960025D01*
X114884095Y-69983441D01*
X114841279Y-69972556D01*
X114817863Y-69917209D01*
X114828748Y-69874394D01*
X114884095Y-69850977D01*
X114926910Y-69861862D01*
G37*
G36*
X113789964Y-71076620D02*
G01*
X113843820Y-71096040D01*
X113857497Y-71159061D01*
X113857148Y-71174317D01*
X113837728Y-71228173D01*
X113774707Y-71241851D01*
X113759450Y-71241501D01*
X113705595Y-71222081D01*
X113691917Y-71159061D01*
X113692267Y-71143804D01*
X113711687Y-71089948D01*
X113774707Y-71076270D01*
X113789964Y-71076620D01*
G37*
G36*
X114926910Y-69298889D02*
G01*
X114950327Y-69354237D01*
X114939442Y-69397052D01*
X114884095Y-69420469D01*
X114841279Y-69409584D01*
X114817863Y-69354237D01*
X114828748Y-69311421D01*
X114884095Y-69288004D01*
X114926910Y-69298889D01*
G37*
G36*
X116639245Y-68509778D02*
G01*
X116639245Y-68725032D01*
X116423990Y-68725032D01*
X116208736Y-68725032D01*
X116208736Y-68509778D01*
X116208736Y-68294523D01*
X116423990Y-68294523D01*
X116639245Y-68294523D01*
X116639245Y-68509778D01*
G37*
G36*
X113559453Y-68509778D02*
G01*
X113559453Y-68725032D01*
X113344199Y-68725032D01*
X113128945Y-68725032D01*
X113128945Y-68509778D01*
X113128945Y-68294523D01*
X113344199Y-68294523D01*
X113559453Y-68294523D01*
X113559453Y-68509778D01*
G37*
G36*
X121069650Y-83258719D02*
G01*
X121166531Y-83280486D01*
X121236761Y-83354660D01*
X121237587Y-83355955D01*
X121290893Y-83430622D01*
X121333261Y-83475770D01*
X121335961Y-83477902D01*
X121337518Y-83520626D01*
X121285185Y-83589151D01*
X121186866Y-83677516D01*
X121050467Y-83779762D01*
X120883893Y-83889927D01*
X120695049Y-84002051D01*
X120491840Y-84110176D01*
X120299247Y-84197001D01*
X120050199Y-84283562D01*
X119754080Y-84361145D01*
X119729918Y-84365585D01*
X119626567Y-84373562D01*
X119493725Y-84374076D01*
X119351339Y-84368222D01*
X119219352Y-84357094D01*
X119117709Y-84341788D01*
X119066357Y-84323398D01*
X119042869Y-84265710D01*
X119049395Y-84152512D01*
X119065264Y-84096847D01*
X119143956Y-83956452D01*
X119267773Y-83817574D01*
X119421221Y-83695884D01*
X119588804Y-83607051D01*
X119681413Y-83568992D01*
X119775089Y-83527161D01*
X119825450Y-83500294D01*
X119868375Y-83482193D01*
X119970915Y-83453390D01*
X120115922Y-83419142D01*
X120288826Y-83382294D01*
X120475060Y-83345694D01*
X120660054Y-83312187D01*
X120829240Y-83284621D01*
X120968050Y-83265842D01*
X121061915Y-83258696D01*
X121069650Y-83258719D01*
G37*
G36*
X121598479Y-67856903D02*
G01*
X121603758Y-67975715D01*
X121637425Y-68128288D01*
X121702995Y-68219134D01*
X121801407Y-68249269D01*
X121933598Y-68219709D01*
X121997959Y-68200129D01*
X122121114Y-68174204D01*
X122257193Y-68154458D01*
X122476764Y-68130336D01*
X122476764Y-68332091D01*
X122473895Y-68419189D01*
X122462858Y-68509961D01*
X122446373Y-68552629D01*
X122440575Y-68558268D01*
X122416630Y-68615495D01*
X122397774Y-68707162D01*
X122392284Y-68732746D01*
X122354227Y-68833978D01*
X122292386Y-68961626D01*
X122219143Y-69092959D01*
X122146885Y-69205246D01*
X122087995Y-69275753D01*
X122075384Y-69293288D01*
X122037784Y-69360750D01*
X121989527Y-69457350D01*
X121960285Y-69514630D01*
X121903348Y-69609245D01*
X121857252Y-69666109D01*
X121849861Y-69670661D01*
X121783296Y-69688369D01*
X121669868Y-69703733D01*
X121524181Y-69716247D01*
X121360839Y-69725404D01*
X121194446Y-69730698D01*
X121039607Y-69731622D01*
X120910926Y-69727669D01*
X120823008Y-69718334D01*
X120790457Y-69703109D01*
X120787061Y-69692671D01*
X120735347Y-69657874D01*
X120632538Y-69623744D01*
X120493091Y-69594355D01*
X120331467Y-69573781D01*
X120206731Y-69555419D01*
X120027162Y-69488155D01*
X119887641Y-69369282D01*
X119776380Y-69190663D01*
X119678591Y-68983013D01*
X119608858Y-68824885D01*
X119563918Y-68705735D01*
X119539949Y-68613850D01*
X119533133Y-68537523D01*
X119539647Y-68465042D01*
X119546979Y-68417352D01*
X119549990Y-68352393D01*
X119526099Y-68330496D01*
X119465047Y-68333577D01*
X119413406Y-68342809D01*
X119382560Y-68368158D01*
X119371194Y-68427119D01*
X119370880Y-68537994D01*
X119372135Y-68574200D01*
X119384774Y-68676031D01*
X119415232Y-68785852D01*
X119469213Y-68921321D01*
X119552420Y-69100096D01*
X119587756Y-69172290D01*
X119691133Y-69366204D01*
X119787099Y-69506794D01*
X119887955Y-69603907D01*
X120006001Y-69667390D01*
X120153540Y-69707091D01*
X120342873Y-69732856D01*
X120432810Y-69744901D01*
X120566476Y-69776809D01*
X120646949Y-69817591D01*
X120673496Y-69836052D01*
X120768133Y-69875393D01*
X120883744Y-69902096D01*
X121053942Y-69926332D01*
X121080159Y-70347585D01*
X121088841Y-70486404D01*
X121104525Y-70730897D01*
X121117498Y-70919984D01*
X121128655Y-71063647D01*
X121138890Y-71171871D01*
X121149100Y-71254642D01*
X121160177Y-71321942D01*
X121173018Y-71383756D01*
X121182137Y-71427966D01*
X121194716Y-71515942D01*
X121192846Y-71561918D01*
X121192278Y-71562991D01*
X121197629Y-71610196D01*
X121228262Y-71686769D01*
X121246621Y-71732460D01*
X121278327Y-71849477D01*
X121300328Y-71979273D01*
X121310086Y-72056932D01*
X121324511Y-72148268D01*
X121335729Y-72192849D01*
X121335984Y-72193292D01*
X121348214Y-72238666D01*
X121366832Y-72333021D01*
X121387911Y-72456527D01*
X121395884Y-72503754D01*
X121441043Y-72699470D01*
X121495204Y-72836687D01*
X121556207Y-72912465D01*
X121621893Y-72923862D01*
X121690100Y-72867938D01*
X121703685Y-72851236D01*
X121732681Y-72832275D01*
X121736041Y-72863086D01*
X121715124Y-72932126D01*
X121671288Y-73027852D01*
X121669483Y-73031320D01*
X121595970Y-73177923D01*
X121511192Y-73355077D01*
X121423672Y-73544097D01*
X121341935Y-73726296D01*
X121274504Y-73882989D01*
X121229902Y-73995488D01*
X121207129Y-74060630D01*
X121187657Y-74136428D01*
X121193827Y-74182762D01*
X121225165Y-74222336D01*
X121263245Y-74251779D01*
X121302704Y-74247390D01*
X121340513Y-74189773D01*
X121384849Y-74071189D01*
X121391934Y-74050740D01*
X121430312Y-73952324D01*
X121491526Y-73807902D01*
X121577114Y-73614021D01*
X121688617Y-73367224D01*
X121827575Y-73064057D01*
X121995528Y-72701064D01*
X122064186Y-72557911D01*
X122164022Y-72364315D01*
X122259526Y-72194526D01*
X122342940Y-72062145D01*
X122406501Y-71980772D01*
X122418146Y-71964299D01*
X122456699Y-71898937D01*
X122508071Y-71805115D01*
X122535173Y-71756230D01*
X122654858Y-71566618D01*
X122805710Y-71355287D01*
X122972117Y-71142462D01*
X123138466Y-70948368D01*
X123289147Y-70793230D01*
X123380913Y-70707485D01*
X123525484Y-70574364D01*
X123637470Y-70475855D01*
X123728788Y-70402705D01*
X123811353Y-70345660D01*
X123897082Y-70295468D01*
X123997891Y-70242875D01*
X124112777Y-70187151D01*
X124205244Y-70152016D01*
X124271988Y-70143885D01*
X124331639Y-70158021D01*
X124401749Y-70184576D01*
X124444122Y-70200422D01*
X124445707Y-70202033D01*
X124454529Y-70247878D01*
X124461774Y-70343183D01*
X124466005Y-70470220D01*
X124468907Y-70558619D01*
X124477152Y-70657413D01*
X124493017Y-70764012D01*
X124518989Y-70890322D01*
X124557553Y-71048252D01*
X124611197Y-71249707D01*
X124682407Y-71506597D01*
X124749552Y-71721851D01*
X124880224Y-72032727D01*
X125036735Y-72283855D01*
X125223173Y-72480131D01*
X125443626Y-72626450D01*
X125702183Y-72727709D01*
X125853605Y-72771327D01*
X125667052Y-72923506D01*
X125570417Y-73000002D01*
X125386053Y-73139124D01*
X125155339Y-73307316D01*
X124885721Y-73499173D01*
X124584648Y-73709287D01*
X124500159Y-73768486D01*
X124335089Y-73886643D01*
X124156726Y-74016638D01*
X123991281Y-74139467D01*
X123789862Y-74290454D01*
X123631133Y-74407762D01*
X123513527Y-74491331D01*
X123429518Y-74545581D01*
X123371582Y-74574930D01*
X123332195Y-74583797D01*
X123303831Y-74576601D01*
X123278966Y-74557761D01*
X123267253Y-74547932D01*
X123200822Y-74523563D01*
X123158391Y-74557889D01*
X123154380Y-74641247D01*
X123158311Y-74677865D01*
X123142651Y-74721639D01*
X123088671Y-74762756D01*
X122982703Y-74815054D01*
X122979558Y-74816495D01*
X122851641Y-74880483D01*
X122783366Y-74930755D01*
X122767690Y-74975168D01*
X122797572Y-75021576D01*
X122801183Y-75025070D01*
X122841855Y-75047493D01*
X122900501Y-75040101D01*
X122998788Y-75000639D01*
X123048166Y-74979133D01*
X123134020Y-74945263D01*
X123180861Y-74931908D01*
X123199294Y-74938725D01*
X123216674Y-74966105D01*
X123235141Y-75023808D01*
X123257230Y-75121593D01*
X123285479Y-75269219D01*
X123322425Y-75476444D01*
X123327311Y-75504537D01*
X123360509Y-75719560D01*
X123377832Y-75900448D01*
X123381165Y-76077529D01*
X123372390Y-76281130D01*
X123364134Y-76406590D01*
X123353096Y-76557015D01*
X123343230Y-76673458D01*
X123335979Y-76737839D01*
X123335620Y-76740054D01*
X123327642Y-76802108D01*
X123313879Y-76920912D01*
X123295684Y-77084335D01*
X123274408Y-77280241D01*
X123251405Y-77496500D01*
X123221692Y-77774423D01*
X123181747Y-78129573D01*
X123144889Y-78429432D01*
X123109652Y-78682777D01*
X123074565Y-78898383D01*
X123038161Y-79085028D01*
X122998972Y-79251487D01*
X122955530Y-79406536D01*
X122906366Y-79558954D01*
X122870216Y-79663376D01*
X122835058Y-79748977D01*
X122802029Y-79792083D01*
X122759577Y-79806209D01*
X122696145Y-79804873D01*
X122684621Y-79804365D01*
X122599562Y-79812791D01*
X122557396Y-79839460D01*
X122555675Y-79850631D01*
X122578751Y-79888230D01*
X122648641Y-79933026D01*
X122770679Y-79987502D01*
X122950195Y-80054144D01*
X123192520Y-80135436D01*
X123206536Y-80139993D01*
X123372124Y-80194928D01*
X123515562Y-80244397D01*
X123621910Y-80283134D01*
X123676228Y-80305877D01*
X123694217Y-80313398D01*
X123775604Y-80339087D01*
X123905353Y-80375360D01*
X124069954Y-80418512D01*
X124255896Y-80464839D01*
X124598709Y-80552603D01*
X124946216Y-80653676D01*
X125229389Y-80751212D01*
X125445367Y-80844299D01*
X125459844Y-80851701D01*
X125558124Y-80907736D01*
X125672808Y-80980006D01*
X125788612Y-81057956D01*
X125890251Y-81131032D01*
X125962443Y-81188680D01*
X125989903Y-81220343D01*
X125981913Y-81231126D01*
X125928200Y-81268008D01*
X125840595Y-81315391D01*
X125670765Y-81414026D01*
X125414293Y-81622711D01*
X125180696Y-81888572D01*
X124977260Y-82204107D01*
X124950379Y-82259084D01*
X124902460Y-82377812D01*
X124853025Y-82519264D01*
X124807446Y-82665788D01*
X124771093Y-82799733D01*
X124749334Y-82903445D01*
X124747539Y-82959274D01*
X124771856Y-82989682D01*
X124839988Y-83005204D01*
X124854459Y-83002101D01*
X124901504Y-82963096D01*
X124923413Y-82871604D01*
X124932565Y-82805572D01*
X124959293Y-82695735D01*
X125006515Y-82563417D01*
X125080646Y-82388930D01*
X125099904Y-82344125D01*
X125133467Y-82256876D01*
X125146750Y-82207417D01*
X125146957Y-82203245D01*
X125173098Y-82163120D01*
X125197156Y-82139531D01*
X125250541Y-82071115D01*
X125317475Y-81975753D01*
X125375372Y-81896933D01*
X125533855Y-81727361D01*
X125715696Y-81581011D01*
X125902917Y-81471231D01*
X126077545Y-81411368D01*
X126081872Y-81410563D01*
X126162628Y-81403430D01*
X126214511Y-81430554D01*
X126266767Y-81506666D01*
X126274742Y-81519963D01*
X126336777Y-81612690D01*
X126392003Y-81680658D01*
X126396213Y-81684973D01*
X126419981Y-81720038D01*
X126418772Y-81763697D01*
X126388246Y-81832788D01*
X126324062Y-81944143D01*
X126246487Y-82059566D01*
X126128898Y-82210812D01*
X125990367Y-82373139D01*
X125843393Y-82533000D01*
X125700478Y-82676848D01*
X125574121Y-82791135D01*
X125476822Y-82862316D01*
X125412118Y-82898369D01*
X125265734Y-82974972D01*
X125100119Y-83056920D01*
X124928895Y-83137971D01*
X124765681Y-83211879D01*
X124624098Y-83272401D01*
X124517767Y-83313293D01*
X124460307Y-83328312D01*
X124453975Y-83307914D01*
X124463713Y-83244922D01*
X124468572Y-83211101D01*
X124458715Y-83177868D01*
X124424828Y-83144136D01*
X124358563Y-83105060D01*
X124251571Y-83055795D01*
X124095506Y-82991497D01*
X123882020Y-82907321D01*
X123844941Y-82892254D01*
X123663095Y-82807009D01*
X123470235Y-82702323D01*
X123302352Y-82597438D01*
X123204652Y-82528616D01*
X123054568Y-82418359D01*
X122897866Y-82299153D01*
X122747263Y-82181015D01*
X122615473Y-82073964D01*
X122515213Y-81988017D01*
X122459198Y-81933191D01*
X122448452Y-81922157D01*
X122387686Y-81869974D01*
X122291496Y-81793423D01*
X122175223Y-81704837D01*
X122162553Y-81695291D01*
X122014206Y-81573947D01*
X121862088Y-81435566D01*
X121737247Y-81308256D01*
X121690317Y-81257696D01*
X121582708Y-81157637D01*
X121502212Y-81106433D01*
X121453668Y-81105045D01*
X121441918Y-81154433D01*
X121471801Y-81255559D01*
X121473637Y-81281555D01*
X121433411Y-81324789D01*
X121332280Y-81374415D01*
X121278167Y-81398895D01*
X121193941Y-81448043D01*
X121152680Y-81488592D01*
X121152557Y-81488905D01*
X121107189Y-81522537D01*
X121023835Y-81535963D01*
X121022031Y-81535944D01*
X120949451Y-81530082D01*
X120836928Y-81515870D01*
X120702729Y-81496240D01*
X120565118Y-81474121D01*
X120442364Y-81452445D01*
X120352730Y-81434143D01*
X120314483Y-81422145D01*
X120302494Y-81403499D01*
X120260986Y-81322582D01*
X120199682Y-81191826D01*
X120123007Y-81021385D01*
X120035387Y-80821416D01*
X119941247Y-80602072D01*
X119845012Y-80373509D01*
X119751108Y-80145883D01*
X119663961Y-79929349D01*
X119630973Y-79880938D01*
X119561611Y-79850303D01*
X119513669Y-79869277D01*
X119490403Y-79934259D01*
X119505095Y-80031100D01*
X119557932Y-80144774D01*
X119574626Y-80173508D01*
X119632609Y-80289211D01*
X119684737Y-80412406D01*
X119738389Y-80551436D01*
X119824216Y-80758472D01*
X119928530Y-80992074D01*
X119955429Y-81050970D01*
X120018403Y-81192680D01*
X120055732Y-81287672D01*
X120070975Y-81348471D01*
X120067689Y-81387599D01*
X120049434Y-81417583D01*
X120043598Y-81425661D01*
X120036624Y-81489214D01*
X120076569Y-81546709D01*
X120146761Y-81571742D01*
X120180679Y-81595331D01*
X120232230Y-81668412D01*
X120286054Y-81773747D01*
X120330257Y-81868845D01*
X120382475Y-81969093D01*
X120420467Y-82028450D01*
X120448229Y-82070034D01*
X120502429Y-82163882D01*
X120572466Y-82292610D01*
X120650010Y-82441244D01*
X120719791Y-82574049D01*
X120785770Y-82692012D01*
X120835176Y-82771931D01*
X120860716Y-82801341D01*
X120862348Y-82801521D01*
X120893703Y-82834375D01*
X120930982Y-82906735D01*
X120933490Y-82912671D01*
X120972271Y-82983113D01*
X121005507Y-83012129D01*
X121019672Y-83018042D01*
X121036376Y-83064826D01*
X121031140Y-83085414D01*
X120985594Y-83110191D01*
X120883177Y-83117523D01*
X120701352Y-83129783D01*
X120461127Y-83168844D01*
X120198356Y-83229479D01*
X119931560Y-83306302D01*
X119679259Y-83393929D01*
X119459975Y-83486975D01*
X119292229Y-83580056D01*
X119278553Y-83589522D01*
X119159020Y-83691920D01*
X119045378Y-83818741D01*
X118954937Y-83948537D01*
X118905005Y-84059860D01*
X118904391Y-84062284D01*
X118890533Y-84102867D01*
X118872475Y-84114335D01*
X118844957Y-84089852D01*
X118802720Y-84022580D01*
X118740505Y-83905683D01*
X118653054Y-83732323D01*
X118595717Y-83617349D01*
X118431785Y-83285823D01*
X118293885Y-83001157D01*
X118176889Y-82751695D01*
X118075671Y-82525780D01*
X117985105Y-82311754D01*
X117900064Y-82097960D01*
X117815421Y-81872741D01*
X117726050Y-81624439D01*
X117621015Y-81322620D01*
X117531172Y-81049907D01*
X117463861Y-80825067D01*
X117416643Y-80639308D01*
X117387084Y-80483840D01*
X117372746Y-80349872D01*
X117370930Y-80320786D01*
X117358900Y-80193872D01*
X117340130Y-80123779D01*
X117309343Y-80099079D01*
X117261266Y-80108346D01*
X117246789Y-80119145D01*
X117219348Y-80188040D01*
X117207205Y-80302327D01*
X117210333Y-80445223D01*
X117228705Y-80599943D01*
X117262294Y-80749702D01*
X117299616Y-80892470D01*
X117307905Y-80978276D01*
X117281753Y-81008303D01*
X117216815Y-80987382D01*
X117108743Y-80920343D01*
X117022096Y-80854718D01*
X116933265Y-80769975D01*
X116883758Y-80700162D01*
X116878588Y-80687738D01*
X116819323Y-80556876D01*
X116740832Y-80397058D01*
X116652880Y-80226819D01*
X116565235Y-80064694D01*
X116487664Y-79929218D01*
X116429934Y-79838926D01*
X116400964Y-79793834D01*
X116336338Y-79659753D01*
X116291836Y-79522226D01*
X116276152Y-79404277D01*
X116267799Y-79232584D01*
X116266716Y-79027233D01*
X116272424Y-78806475D01*
X116284446Y-78588559D01*
X116302306Y-78391737D01*
X116325525Y-78234259D01*
X116345586Y-78123989D01*
X116373028Y-77956677D01*
X116396861Y-77795117D01*
X116408659Y-77708275D01*
X116434108Y-77518958D01*
X116463300Y-77299830D01*
X116494937Y-77060838D01*
X116527718Y-76811927D01*
X116560345Y-76563044D01*
X116591517Y-76324135D01*
X116619936Y-76105145D01*
X116644301Y-75916023D01*
X116663314Y-75766712D01*
X116675674Y-75667161D01*
X116680083Y-75627314D01*
X116684529Y-75615672D01*
X116728558Y-75599404D01*
X116748599Y-75608445D01*
X116776850Y-75672326D01*
X116796298Y-75801410D01*
X116799961Y-75834627D01*
X116818531Y-75964382D01*
X116847475Y-76139068D01*
X116884309Y-76346000D01*
X116926552Y-76572494D01*
X116971719Y-76805863D01*
X117017330Y-77033422D01*
X117060900Y-77242487D01*
X117099947Y-77420371D01*
X117131989Y-77554391D01*
X117154543Y-77631860D01*
X117169711Y-77685412D01*
X117194030Y-77787070D01*
X117221628Y-77912911D01*
X117241545Y-78000935D01*
X117299295Y-78207597D01*
X117365193Y-78390140D01*
X117433336Y-78533400D01*
X117497819Y-78622214D01*
X117568423Y-78667175D01*
X117662812Y-78690967D01*
X117743155Y-78713219D01*
X117815946Y-78795820D01*
X117849833Y-78841837D01*
X117938015Y-78931367D01*
X118043091Y-79015392D01*
X118064703Y-79030272D01*
X118152515Y-79084345D01*
X118232244Y-79114102D01*
X118329974Y-79126402D01*
X118471784Y-79128101D01*
X118497464Y-79127866D01*
X118614395Y-79123847D01*
X118707078Y-79110418D01*
X118796694Y-79080989D01*
X118904425Y-79028970D01*
X119051453Y-78947773D01*
X119133982Y-78901381D01*
X119327067Y-78793586D01*
X119532896Y-78679433D01*
X119718949Y-78576986D01*
X119882166Y-78484650D01*
X120056974Y-78374369D01*
X120175250Y-78281589D01*
X120242314Y-78201953D01*
X120263486Y-78131105D01*
X120251881Y-78085185D01*
X120204762Y-78059253D01*
X120139565Y-78078730D01*
X120076123Y-78142418D01*
X120040228Y-78179461D01*
X119950024Y-78248061D01*
X119824852Y-78330024D01*
X119680214Y-78414686D01*
X119563027Y-78479488D01*
X119381434Y-78580164D01*
X119221256Y-78669448D01*
X119056485Y-78761861D01*
X118861111Y-78871919D01*
X118771407Y-78919849D01*
X118675108Y-78956662D01*
X118574607Y-78969650D01*
X118437182Y-78966082D01*
X118253500Y-78940003D01*
X118108236Y-78876045D01*
X117992762Y-78763688D01*
X117891143Y-78592015D01*
X117851915Y-78506781D01*
X117814261Y-78387667D01*
X117823648Y-78304852D01*
X117883609Y-78245187D01*
X117997677Y-78195521D01*
X118023765Y-78186589D01*
X118465410Y-78055948D01*
X118869713Y-77977755D01*
X119243936Y-77950583D01*
X119373641Y-77950367D01*
X119523876Y-77953829D01*
X119624565Y-77964444D01*
X119688255Y-77985098D01*
X119727492Y-78018674D01*
X119754822Y-78068058D01*
X119776824Y-78104832D01*
X119839728Y-78144469D01*
X119903530Y-78128670D01*
X119944776Y-78058602D01*
X119947713Y-78036078D01*
X119951665Y-77943672D01*
X119953095Y-77798965D01*
X119952288Y-77613979D01*
X119949527Y-77400731D01*
X119945094Y-77171243D01*
X119939272Y-76937535D01*
X119932346Y-76711625D01*
X119924598Y-76505535D01*
X119916311Y-76331283D01*
X119907769Y-76200890D01*
X119899254Y-76126375D01*
X119891021Y-76089354D01*
X119823782Y-75890773D01*
X119716685Y-75668123D01*
X119579034Y-75441313D01*
X119499519Y-75320716D01*
X119393553Y-75154780D01*
X119299267Y-75002171D01*
X119287451Y-74982644D01*
X119219891Y-74873832D01*
X119166835Y-74792939D01*
X119138904Y-74756251D01*
X119137371Y-74754939D01*
X119105488Y-74710293D01*
X119062475Y-74633291D01*
X118967333Y-74448521D01*
X118874256Y-74273489D01*
X118809092Y-74159141D01*
X118770910Y-74103785D01*
X118759653Y-74090809D01*
X118709522Y-74025141D01*
X118647441Y-73937151D01*
X118626572Y-73908469D01*
X118545828Y-73830883D01*
X118472486Y-73808398D01*
X118417508Y-73845390D01*
X118416551Y-73847474D01*
X118428765Y-73895883D01*
X118475833Y-73979848D01*
X118548456Y-74082527D01*
X118627434Y-74192266D01*
X118717977Y-74334514D01*
X118784671Y-74457420D01*
X118812206Y-74513466D01*
X118890258Y-74655755D01*
X118967832Y-74779932D01*
X119003180Y-74833417D01*
X119050483Y-74914202D01*
X119069018Y-74960285D01*
X119078650Y-74986995D01*
X119124283Y-75039433D01*
X119139660Y-75054372D01*
X119196543Y-75127997D01*
X119256026Y-75224155D01*
X119306070Y-75314192D01*
X119364492Y-75414209D01*
X119420057Y-75499859D01*
X119490595Y-75599684D01*
X119551072Y-75689874D01*
X119616406Y-75811408D01*
X119668073Y-75946126D01*
X119707872Y-76103532D01*
X119737605Y-76293129D01*
X119759073Y-76524419D01*
X119774077Y-76806908D01*
X119784417Y-77150097D01*
X119799383Y-77804940D01*
X119372721Y-77786806D01*
X119248010Y-77782043D01*
X119093470Y-77779966D01*
X118963399Y-77786432D01*
X118834731Y-77803924D01*
X118684404Y-77834924D01*
X118489350Y-77881916D01*
X118476354Y-77885155D01*
X118289412Y-77935028D01*
X118113073Y-77987543D01*
X117966645Y-78036647D01*
X117869436Y-78076286D01*
X117809842Y-78103626D01*
X117709087Y-78140034D01*
X117641082Y-78151921D01*
X117628231Y-78152320D01*
X117582003Y-78187069D01*
X117560611Y-78255463D01*
X117568015Y-78329781D01*
X117608175Y-78382299D01*
X117640536Y-78415335D01*
X117662499Y-78490707D01*
X117662201Y-78503969D01*
X117655823Y-78540306D01*
X117631847Y-78528766D01*
X117577487Y-78465569D01*
X117574776Y-78462202D01*
X117510456Y-78353798D01*
X117470756Y-78237215D01*
X117466718Y-78216503D01*
X117442536Y-78108897D01*
X117407398Y-77965911D01*
X117367425Y-77812682D01*
X117365329Y-77804865D01*
X117317148Y-77614715D01*
X117267673Y-77403477D01*
X117227297Y-77215449D01*
X117226435Y-77211146D01*
X117187273Y-77020450D01*
X117142189Y-76807722D01*
X117100770Y-76618215D01*
X117086250Y-76552647D01*
X117056621Y-76413115D01*
X117029215Y-76273206D01*
X117000869Y-76115644D01*
X116968418Y-75923151D01*
X116928699Y-75678450D01*
X116912622Y-75572533D01*
X116882411Y-75313635D01*
X116871238Y-75098181D01*
X116879308Y-74934176D01*
X116906828Y-74829625D01*
X116958994Y-74753165D01*
X117012532Y-74708914D01*
X117044776Y-74686588D01*
X117067136Y-74628476D01*
X117050776Y-74571289D01*
X116998339Y-74545462D01*
X116957966Y-74551163D01*
X116908083Y-74581167D01*
X116901251Y-74590725D01*
X116864316Y-74602452D01*
X116833502Y-74560750D01*
X116820609Y-74479352D01*
X116823865Y-74449026D01*
X116853276Y-74345290D01*
X116905291Y-74212762D01*
X116970108Y-74073238D01*
X117037925Y-73948518D01*
X117098940Y-73860400D01*
X117133433Y-73810832D01*
X117193523Y-73664873D01*
X117238335Y-73467377D01*
X117264715Y-73230326D01*
X117267230Y-73198066D01*
X117288518Y-73032919D01*
X117322706Y-72843795D01*
X117363685Y-72665550D01*
X117374680Y-72623042D01*
X117418369Y-72443178D01*
X117458003Y-72264807D01*
X117486140Y-72121013D01*
X117505494Y-72011406D01*
X117533712Y-71858212D01*
X117557675Y-71734951D01*
X117561071Y-71717794D01*
X117582468Y-71596043D01*
X117607033Y-71439719D01*
X117630098Y-71278243D01*
X117635975Y-71234797D01*
X117656135Y-71088819D01*
X117673565Y-70966883D01*
X117685023Y-70891797D01*
X117703679Y-70773534D01*
X117730991Y-70586160D01*
X117761094Y-70368194D01*
X117791057Y-70140930D01*
X117817952Y-69925659D01*
X117821054Y-69901464D01*
X117837698Y-69800270D01*
X117854387Y-69732436D01*
X117855732Y-69728288D01*
X117869539Y-69665514D01*
X117890583Y-69550461D01*
X117916246Y-69398013D01*
X117943913Y-69223056D01*
X117952106Y-69169802D01*
X117990430Y-68927303D01*
X118021777Y-68743805D01*
X118048066Y-68610352D01*
X118071215Y-68517988D01*
X118093141Y-68457757D01*
X118115763Y-68420705D01*
X118137651Y-68359858D01*
X118134309Y-68264657D01*
X118131634Y-68235867D01*
X118143958Y-68122030D01*
X118180462Y-67963349D01*
X118236290Y-67773055D01*
X118239655Y-67763065D01*
X119342300Y-67763065D01*
X119365311Y-67857927D01*
X119429699Y-67915187D01*
X119467360Y-67925131D01*
X119561795Y-67942456D01*
X119680794Y-67959468D01*
X119842686Y-67994485D01*
X119981778Y-68068559D01*
X119984937Y-68071191D01*
X120091262Y-68144584D01*
X120206520Y-68204726D01*
X120228088Y-68213556D01*
X120311320Y-68244084D01*
X120358969Y-68255874D01*
X120424334Y-68231591D01*
X120505486Y-68154276D01*
X120577934Y-68042168D01*
X120629982Y-67914049D01*
X120649931Y-67788701D01*
X120644856Y-67724232D01*
X120589438Y-67559071D01*
X120484201Y-67413022D01*
X120343200Y-67308105D01*
X120165288Y-67249650D01*
X119962347Y-67231040D01*
X119762683Y-67252538D01*
X119593650Y-67313931D01*
X119577962Y-67323280D01*
X119478499Y-67410709D01*
X119403199Y-67523673D01*
X119356364Y-67646386D01*
X119342300Y-67763065D01*
X118239655Y-67763065D01*
X118306589Y-67564380D01*
X118386505Y-67350556D01*
X118471184Y-67144813D01*
X118555771Y-66960385D01*
X118635411Y-66810501D01*
X118705252Y-66708395D01*
X118731654Y-66670303D01*
X118752836Y-66609680D01*
X118753770Y-66603290D01*
X118786936Y-66545846D01*
X118858244Y-66458428D01*
X118954909Y-66354295D01*
X119064144Y-66246708D01*
X119173163Y-66148926D01*
X119269180Y-66074209D01*
X119293384Y-66058478D01*
X119436822Y-65989242D01*
X119581286Y-65949996D01*
X119652343Y-65937598D01*
X119730829Y-65906966D01*
X119764021Y-65858241D01*
X119764805Y-65855314D01*
X119781907Y-65820277D01*
X119819563Y-65802626D01*
X119894211Y-65799049D01*
X120022287Y-65806237D01*
X120147453Y-65819240D01*
X120250935Y-65837605D01*
X120306887Y-65857059D01*
X120322363Y-65866428D01*
X120396950Y-65902029D01*
X120511874Y-65951220D01*
X120649457Y-66006297D01*
X120704710Y-66028275D01*
X120845146Y-66088929D01*
X120961136Y-66145530D01*
X121031857Y-66188176D01*
X121100853Y-66234453D01*
X121151673Y-66254453D01*
X121167253Y-66257505D01*
X121240062Y-66298796D01*
X121346145Y-66381385D01*
X121476116Y-66496384D01*
X121620591Y-66634903D01*
X121770185Y-66788053D01*
X121915514Y-66946945D01*
X122047192Y-67102689D01*
X122197288Y-67289139D01*
X122000263Y-67342681D01*
X121853641Y-67399322D01*
X121711987Y-67510239D01*
X121626881Y-67662831D01*
X121608460Y-67788701D01*
X121598479Y-67856903D01*
G37*
G36*
X120439143Y-81659570D02*
G01*
X120421577Y-81677136D01*
X120404011Y-81659570D01*
X120421577Y-81642005D01*
X120439143Y-81659570D01*
G37*
G36*
X117382711Y-81167731D02*
G01*
X117365145Y-81185296D01*
X117347580Y-81167731D01*
X117365145Y-81150165D01*
X117382711Y-81167731D01*
G37*
G36*
X113512392Y-73798992D02*
G01*
X113581137Y-73869035D01*
X113665785Y-73974577D01*
X113739208Y-74071381D01*
X113849301Y-74212939D01*
X113974749Y-74371628D01*
X114100202Y-74527897D01*
X114199432Y-74651043D01*
X114353700Y-74844300D01*
X114507335Y-75038491D01*
X114638392Y-75205971D01*
X114772805Y-75378698D01*
X114877665Y-75511792D01*
X114962288Y-75616395D01*
X115037996Y-75706234D01*
X115116113Y-75795039D01*
X115207961Y-75896538D01*
X115290422Y-75988097D01*
X115384757Y-76095232D01*
X115453880Y-76176384D01*
X115536922Y-76273122D01*
X115664308Y-76410453D01*
X115801516Y-76548767D01*
X115938954Y-76679306D01*
X116067035Y-76793309D01*
X116176166Y-76882017D01*
X116256758Y-76936671D01*
X116299222Y-76948512D01*
X116307506Y-76946714D01*
X116322102Y-76985577D01*
X116321809Y-77087218D01*
X116306812Y-77247271D01*
X116277299Y-77461368D01*
X116277020Y-77463192D01*
X116262433Y-77561606D01*
X116242537Y-77699568D01*
X116221551Y-77847814D01*
X116199126Y-77997190D01*
X116169806Y-78174006D01*
X116142526Y-78322088D01*
X116129921Y-78402219D01*
X116115542Y-78553042D01*
X116105825Y-78731954D01*
X116100751Y-78924926D01*
X116100299Y-79117929D01*
X116104451Y-79296932D01*
X116113187Y-79447907D01*
X116126486Y-79556824D01*
X116144329Y-79609653D01*
X116166215Y-79635303D01*
X116188244Y-79681673D01*
X116180599Y-79706140D01*
X116145918Y-79704821D01*
X116079664Y-79663453D01*
X115977936Y-79579031D01*
X115836833Y-79448552D01*
X115652452Y-79269009D01*
X115483890Y-79097232D01*
X115292941Y-78889057D01*
X115133086Y-78698894D01*
X115015929Y-78540032D01*
X114761960Y-78122371D01*
X114497479Y-77608497D01*
X114254991Y-77051093D01*
X114040905Y-76463811D01*
X114005590Y-76359613D01*
X113966184Y-76249046D01*
X113938907Y-76179072D01*
X113932569Y-76164057D01*
X113892098Y-76049222D01*
X113839698Y-75876470D01*
X113777983Y-75654754D01*
X113709563Y-75393025D01*
X113691292Y-75320075D01*
X113660783Y-75185093D01*
X113648383Y-75096282D01*
X113652682Y-75038680D01*
X113672272Y-74997330D01*
X113690165Y-74964670D01*
X113700927Y-74906145D01*
X113694774Y-74816313D01*
X113671671Y-74676738D01*
X113650460Y-74568187D01*
X113612627Y-74391882D01*
X113570894Y-74212258D01*
X113529661Y-74047372D01*
X113493329Y-73915284D01*
X113466300Y-73834052D01*
X113451988Y-73786099D01*
X113466894Y-73769622D01*
X113512392Y-73798992D01*
G37*
G36*
X124907332Y-70279407D02*
G01*
X124984788Y-70348477D01*
X125101175Y-70465047D01*
X125125577Y-70490307D01*
X125249341Y-70627470D01*
X125317786Y-70723165D01*
X125331515Y-70778210D01*
X125324857Y-70809442D01*
X125351568Y-70807658D01*
X125386138Y-70800385D01*
X125387848Y-70831633D01*
X125353084Y-70882199D01*
X125341625Y-70922645D01*
X125368904Y-71007262D01*
X125437534Y-71117987D01*
X125541405Y-71243111D01*
X125546501Y-71248650D01*
X125642761Y-71368675D01*
X125753024Y-71527915D01*
X125862742Y-71703201D01*
X125957372Y-71871362D01*
X126022365Y-72009228D01*
X126058026Y-72108657D01*
X126090347Y-72261708D01*
X126077483Y-72383695D01*
X126019343Y-72489533D01*
X126003812Y-72508804D01*
X125950883Y-72557971D01*
X125887688Y-72573392D01*
X125785050Y-72564392D01*
X125749026Y-72558025D01*
X125608975Y-72516155D01*
X125480570Y-72457044D01*
X125455762Y-72441823D01*
X125313510Y-72331686D01*
X125178863Y-72194178D01*
X125069829Y-72049668D01*
X125004419Y-71918524D01*
X124997305Y-71897079D01*
X124961914Y-71807625D01*
X124931718Y-71754273D01*
X124913610Y-71719658D01*
X124900830Y-71642169D01*
X124894654Y-71590923D01*
X124870434Y-71544654D01*
X124868638Y-71543375D01*
X124841598Y-71495002D01*
X124818350Y-71410838D01*
X124811015Y-71375507D01*
X124785341Y-71265254D01*
X124749398Y-71120127D01*
X124708552Y-70962060D01*
X124690120Y-70888593D01*
X124654348Y-70721754D01*
X124629503Y-70571138D01*
X124620110Y-70462316D01*
X124620810Y-70383091D01*
X124630365Y-70324496D01*
X124660247Y-70307825D01*
X124721878Y-70316740D01*
X124751503Y-70321842D01*
X124812421Y-70316608D01*
X124836882Y-70271947D01*
X124839816Y-70262294D01*
X124861457Y-70252469D01*
X124907332Y-70279407D01*
G37*
G36*
X125533195Y-70909363D02*
G01*
X125515630Y-70926929D01*
X125498064Y-70909363D01*
X125515630Y-70891797D01*
X125533195Y-70909363D01*
G37*
G36*
X121841629Y-67967795D02*
G01*
X121852212Y-67974069D01*
X121912028Y-68020374D01*
X121927384Y-68053990D01*
X121925832Y-68056335D01*
X121873424Y-68081116D01*
X121805690Y-68068782D01*
X121760329Y-68025715D01*
X121757376Y-68017898D01*
X121741007Y-67949178D01*
X121767293Y-67933758D01*
X121841629Y-67967795D01*
G37*
G36*
X122370789Y-67526432D02*
G01*
X122462467Y-67580202D01*
X122522827Y-67643073D01*
X122551951Y-67726857D01*
X122563550Y-67843288D01*
X122536544Y-67925851D01*
X122463094Y-67976604D01*
X122372973Y-68004449D01*
X122289939Y-67996066D01*
X122244444Y-67931186D01*
X122230306Y-67805258D01*
X122225338Y-67695783D01*
X122201807Y-67599732D01*
X122155790Y-67562769D01*
X122083820Y-67579553D01*
X122004035Y-67611188D01*
X121897096Y-67641563D01*
X121791701Y-67664016D01*
X121879530Y-67576441D01*
X121903982Y-67553769D01*
X122041712Y-67477766D01*
X122198452Y-67468537D01*
X122370789Y-67526432D01*
G37*
G36*
X120079478Y-67390512D02*
G01*
X120200523Y-67417554D01*
X120293039Y-67471728D01*
X120378985Y-67561926D01*
X120409073Y-67601029D01*
X120457475Y-67689210D01*
X120455589Y-67754321D01*
X120435524Y-67820387D01*
X120419827Y-67918714D01*
X120402128Y-67994834D01*
X120366069Y-68047891D01*
X120351204Y-68054565D01*
X120280971Y-68052110D01*
X120206155Y-68017645D01*
X120151331Y-67966007D01*
X120141073Y-67912037D01*
X120153638Y-67879209D01*
X120173745Y-67817800D01*
X120181534Y-67792603D01*
X120208595Y-67722871D01*
X120219130Y-67686994D01*
X120214332Y-67630310D01*
X120192736Y-67612318D01*
X120109940Y-67581863D01*
X119986645Y-67557274D01*
X119841909Y-67543017D01*
X119764744Y-67544506D01*
X119716370Y-67573782D01*
X119685335Y-67650926D01*
X119647594Y-67731475D01*
X119588724Y-67765103D01*
X119586907Y-67765089D01*
X119535087Y-67740995D01*
X119529359Y-67679787D01*
X119566972Y-67594484D01*
X119645173Y-67498104D01*
X119657654Y-67485739D01*
X119740090Y-67416725D01*
X119820656Y-67386953D01*
X119935007Y-67382159D01*
X120079478Y-67390512D01*
G37*
%TO.C,G\u002A\u002A\u002A*%
G36*
X124651832Y-62921441D02*
G01*
X124651832Y-63491374D01*
X124546790Y-63491374D01*
X124441749Y-63491374D01*
X124441749Y-63306301D01*
X124441749Y-63121228D01*
X124246672Y-63121228D01*
X124051595Y-63121228D01*
X124051595Y-63061205D01*
X124051595Y-63001181D01*
X123986570Y-63001181D01*
X123921544Y-63001181D01*
X123921544Y-62741079D01*
X123921544Y-62561008D01*
X124141631Y-62561008D01*
X124141631Y-62736077D01*
X124141631Y-62911146D01*
X124291690Y-62911146D01*
X124441749Y-62911146D01*
X124441749Y-62736077D01*
X124441749Y-62561008D01*
X124291690Y-62561008D01*
X124141631Y-62561008D01*
X123921544Y-62561008D01*
X123921544Y-62480976D01*
X123986570Y-62480976D01*
X124051595Y-62480976D01*
X124053119Y-62433458D01*
X124053688Y-62418638D01*
X124055283Y-62391280D01*
X124056967Y-62375935D01*
X124057124Y-62375248D01*
X124060440Y-62355927D01*
X124063901Y-62354060D01*
X124085353Y-62351392D01*
X124125921Y-62349510D01*
X124185042Y-62348427D01*
X124262159Y-62348158D01*
X124356710Y-62348715D01*
X124651832Y-62351508D01*
X124651832Y-62736077D01*
X124651832Y-62921441D01*
G37*
G36*
X123617827Y-62348147D02*
G01*
X123660565Y-62349089D01*
X123761481Y-62352254D01*
X123761481Y-62856788D01*
X123761481Y-63361323D01*
X123701458Y-63361323D01*
X123641434Y-63361323D01*
X123641434Y-63426517D01*
X123641434Y-63491712D01*
X123383833Y-63489042D01*
X123126231Y-63486372D01*
X123126832Y-63423848D01*
X123127432Y-63361323D01*
X123064307Y-63361323D01*
X123001182Y-63361323D01*
X123001182Y-62856124D01*
X123001182Y-62350925D01*
X123106123Y-62350925D01*
X123211065Y-62350925D01*
X123213666Y-62813607D01*
X123216267Y-63276290D01*
X123383833Y-63279032D01*
X123551399Y-63281775D01*
X123551399Y-62818018D01*
X123551469Y-62732571D01*
X123551701Y-62643787D01*
X123552078Y-62563067D01*
X123552583Y-62492401D01*
X123553197Y-62433779D01*
X123553904Y-62389193D01*
X123554685Y-62360634D01*
X123555524Y-62350092D01*
X123561101Y-62349017D01*
X123583190Y-62348138D01*
X123617827Y-62348147D01*
G37*
G36*
X122841119Y-62921150D02*
G01*
X122841119Y-63491374D01*
X122736303Y-63491374D01*
X122631488Y-63491374D01*
X122628761Y-63308802D01*
X122626034Y-63126230D01*
X122561009Y-63126230D01*
X122495983Y-63126230D01*
X122493005Y-63188755D01*
X122490026Y-63251280D01*
X122450488Y-63251280D01*
X122410950Y-63251280D01*
X122410950Y-63306301D01*
X122410950Y-63361323D01*
X122360930Y-63361323D01*
X122310910Y-63361323D01*
X122310910Y-63426349D01*
X122310910Y-63491374D01*
X122205869Y-63491374D01*
X122100827Y-63491374D01*
X122100827Y-63366325D01*
X122100827Y-63241276D01*
X122145845Y-63241276D01*
X122190863Y-63241276D01*
X122190863Y-63185318D01*
X122191003Y-63170190D01*
X122193151Y-63143787D01*
X122199213Y-63130148D01*
X122210871Y-63124127D01*
X122217598Y-63121702D01*
X122226022Y-63112734D01*
X122229926Y-63093854D01*
X122230879Y-63060038D01*
X122230879Y-63001181D01*
X122165853Y-63001181D01*
X122100827Y-63001181D01*
X122100827Y-62741079D01*
X122100827Y-62561008D01*
X122320914Y-62561008D01*
X122320914Y-62736077D01*
X122320914Y-62911146D01*
X122475975Y-62911146D01*
X122631036Y-62911146D01*
X122631036Y-62736077D01*
X122631036Y-62561008D01*
X122475975Y-62561008D01*
X122320914Y-62561008D01*
X122100827Y-62561008D01*
X122100827Y-62480976D01*
X122165853Y-62480976D01*
X122230879Y-62480976D01*
X122230879Y-62415951D01*
X122230879Y-62350925D01*
X122535999Y-62350925D01*
X122841119Y-62350925D01*
X122841119Y-62736077D01*
X122841119Y-62921150D01*
G37*
G36*
X121940764Y-62921150D02*
G01*
X121940764Y-63491374D01*
X121835723Y-63491374D01*
X121730682Y-63491374D01*
X121730682Y-63306301D01*
X121730682Y-63121228D01*
X121660654Y-63121228D01*
X121590627Y-63121228D01*
X121590627Y-63186254D01*
X121590627Y-63251280D01*
X121545609Y-63251280D01*
X121500591Y-63251280D01*
X121500591Y-63306301D01*
X121500591Y-63361323D01*
X121455573Y-63361323D01*
X121410556Y-63361323D01*
X121410556Y-63426349D01*
X121410556Y-63491374D01*
X121305514Y-63491374D01*
X121200473Y-63491374D01*
X121200473Y-63366325D01*
X121200473Y-63241276D01*
X121245491Y-63241276D01*
X121290508Y-63241276D01*
X121290508Y-63181252D01*
X121290876Y-63154667D01*
X121293303Y-63133039D01*
X121299342Y-63123419D01*
X121310516Y-63121228D01*
X121319378Y-63120125D01*
X121326587Y-63112844D01*
X121329794Y-63094729D01*
X121330524Y-63061205D01*
X121330524Y-63001181D01*
X121265499Y-63001181D01*
X121200473Y-63001181D01*
X121200473Y-62741079D01*
X121200473Y-62561008D01*
X121420560Y-62561008D01*
X121420560Y-62736077D01*
X121420560Y-62911146D01*
X121575621Y-62911146D01*
X121730682Y-62911146D01*
X121730682Y-62736077D01*
X121730682Y-62561008D01*
X121575621Y-62561008D01*
X121420560Y-62561008D01*
X121200473Y-62561008D01*
X121200473Y-62480976D01*
X121265042Y-62480976D01*
X121329610Y-62480976D01*
X121332568Y-62415860D01*
X121335009Y-62383757D01*
X121338796Y-62359913D01*
X121343029Y-62350835D01*
X121344453Y-62350841D01*
X121361375Y-62350864D01*
X121395009Y-62350884D01*
X121442803Y-62350901D01*
X121502208Y-62350914D01*
X121570673Y-62350922D01*
X121645648Y-62350925D01*
X121940764Y-62350925D01*
X121940764Y-62736077D01*
X121940764Y-62921150D01*
G37*
G36*
X120899247Y-62351544D02*
G01*
X120904997Y-62373144D01*
X120908315Y-62413450D01*
X120911273Y-62480976D01*
X120975947Y-62480976D01*
X121040620Y-62480976D01*
X121038014Y-62918649D01*
X121035408Y-63356321D01*
X120972883Y-63359299D01*
X120910359Y-63362278D01*
X120910359Y-63420157D01*
X120909726Y-63445330D01*
X120907304Y-63471792D01*
X120903689Y-63484705D01*
X120902445Y-63485186D01*
X120886022Y-63486841D01*
X120852845Y-63488322D01*
X120805464Y-63489572D01*
X120746425Y-63490536D01*
X120678278Y-63491155D01*
X120603571Y-63491374D01*
X120310122Y-63491374D01*
X120310122Y-63171000D01*
X120310122Y-62850627D01*
X120471306Y-62853375D01*
X120632491Y-62856124D01*
X120632521Y-62926152D01*
X120632551Y-62996179D01*
X120576378Y-62999179D01*
X120520205Y-63002180D01*
X120520205Y-63141736D01*
X120520205Y-63281291D01*
X120670264Y-63281291D01*
X120820323Y-63281291D01*
X120820323Y-62921150D01*
X120820323Y-62561008D01*
X120565223Y-62561008D01*
X120310122Y-62561008D01*
X120310122Y-62455967D01*
X120310122Y-62350925D01*
X120595235Y-62349425D01*
X120608330Y-62349355D01*
X120681408Y-62348928D01*
X120747767Y-62348480D01*
X120804748Y-62348033D01*
X120849695Y-62347610D01*
X120879948Y-62347233D01*
X120892852Y-62346924D01*
X120899247Y-62351544D01*
G37*
G36*
X120150059Y-62921454D02*
G01*
X120150059Y-63491374D01*
X120045018Y-63491374D01*
X119939977Y-63491374D01*
X119939977Y-63306301D01*
X119939977Y-63121228D01*
X119874951Y-63121228D01*
X119809926Y-63121228D01*
X119809926Y-63186254D01*
X119809926Y-63251280D01*
X119765431Y-63251280D01*
X119720936Y-63251280D01*
X119717912Y-63303800D01*
X119714888Y-63356321D01*
X119667833Y-63359351D01*
X119620778Y-63362381D01*
X119617813Y-63424377D01*
X119614849Y-63486372D01*
X119509807Y-63486372D01*
X119404766Y-63486372D01*
X119401957Y-63363824D01*
X119399148Y-63241276D01*
X119449476Y-63241276D01*
X119499803Y-63241276D01*
X119499803Y-63185318D01*
X119499944Y-63170190D01*
X119502092Y-63143787D01*
X119508154Y-63130148D01*
X119519811Y-63124127D01*
X119526342Y-63121801D01*
X119534886Y-63112919D01*
X119538850Y-63094165D01*
X119539819Y-63060495D01*
X119539819Y-63002095D01*
X119472293Y-62999137D01*
X119404766Y-62996179D01*
X119402096Y-62738578D01*
X119400256Y-62561008D01*
X119629855Y-62561008D01*
X119629855Y-62736077D01*
X119629855Y-62911146D01*
X119784916Y-62911146D01*
X119939977Y-62911146D01*
X119939977Y-62736077D01*
X119939977Y-62561008D01*
X119784916Y-62561008D01*
X119629855Y-62561008D01*
X119400256Y-62561008D01*
X119399426Y-62480976D01*
X119469623Y-62480976D01*
X119539819Y-62480976D01*
X119539819Y-62416615D01*
X119539835Y-62405024D01*
X119540684Y-62375002D01*
X119544250Y-62358860D01*
X119552483Y-62351816D01*
X119567330Y-62349089D01*
X119567757Y-62349043D01*
X119585760Y-62348324D01*
X119620726Y-62347867D01*
X119669768Y-62347676D01*
X119729995Y-62347753D01*
X119798519Y-62348103D01*
X119872450Y-62348729D01*
X120150059Y-62351534D01*
X120150059Y-62736077D01*
X120150059Y-62921454D01*
G37*
G36*
X119246572Y-62980651D02*
G01*
X119246628Y-62996118D01*
X119246860Y-63093005D01*
X119246881Y-63183518D01*
X119246703Y-63265711D01*
X119246338Y-63337635D01*
X119245799Y-63397343D01*
X119245100Y-63442886D01*
X119244252Y-63472318D01*
X119243269Y-63483690D01*
X119237215Y-63486028D01*
X119214531Y-63488492D01*
X119179418Y-63489631D01*
X119136359Y-63489214D01*
X119034620Y-63486372D01*
X119031893Y-63303541D01*
X119029165Y-63120710D01*
X118876832Y-63123470D01*
X118724498Y-63126230D01*
X118721770Y-63309150D01*
X118719042Y-63492069D01*
X118616729Y-63489221D01*
X118514415Y-63486372D01*
X118511822Y-62983674D01*
X118509641Y-62561008D01*
X118719496Y-62561008D01*
X118719496Y-62736077D01*
X118719496Y-62911146D01*
X118874557Y-62911146D01*
X119029618Y-62911146D01*
X119029618Y-62786672D01*
X119029618Y-62662198D01*
X118987102Y-62659122D01*
X118944585Y-62656045D01*
X118941536Y-62608527D01*
X118938487Y-62561008D01*
X118828991Y-62561008D01*
X118719496Y-62561008D01*
X118509641Y-62561008D01*
X118509228Y-62480976D01*
X118573890Y-62480976D01*
X118638551Y-62480976D01*
X118641509Y-62413450D01*
X118642334Y-62395452D01*
X118644557Y-62367171D01*
X118648904Y-62352602D01*
X118657376Y-62347388D01*
X118671978Y-62347174D01*
X118673896Y-62347248D01*
X118695334Y-62347702D01*
X118732631Y-62348210D01*
X118782276Y-62348733D01*
X118840759Y-62349234D01*
X118904569Y-62349675D01*
X119109650Y-62350925D01*
X119109650Y-62415494D01*
X119109650Y-62480062D01*
X119177176Y-62483020D01*
X119244703Y-62485978D01*
X119245369Y-62662198D01*
X119246572Y-62980651D01*
G37*
G36*
X117607761Y-62349089D02*
G01*
X117709098Y-62352254D01*
X117709098Y-62401609D01*
X117709098Y-62450965D01*
X117754116Y-62450965D01*
X117772055Y-62451155D01*
X117790873Y-62454022D01*
X117798546Y-62463485D01*
X117800710Y-62483477D01*
X117800716Y-62483604D01*
X117801688Y-62510170D01*
X117801821Y-62528495D01*
X117805954Y-62536318D01*
X117822754Y-62542154D01*
X117836657Y-62542989D01*
X117859158Y-62544655D01*
X117865992Y-62547900D01*
X117873308Y-62564749D01*
X117877187Y-62598523D01*
X117880211Y-62651043D01*
X117924183Y-62651043D01*
X117968155Y-62651043D01*
X117971179Y-62598523D01*
X117973287Y-62570021D01*
X117977722Y-62553253D01*
X117987658Y-62546745D01*
X118006477Y-62545407D01*
X118027312Y-62544529D01*
X118041387Y-62539464D01*
X118047779Y-62525042D01*
X118051274Y-62495982D01*
X118052759Y-62481992D01*
X118057827Y-62463712D01*
X118070586Y-62455934D01*
X118097181Y-62452890D01*
X118139268Y-62449814D01*
X118139268Y-62400031D01*
X118139268Y-62350248D01*
X118244498Y-62353088D01*
X118349728Y-62355927D01*
X118349625Y-62918649D01*
X118349611Y-62992680D01*
X118349589Y-63092814D01*
X118349566Y-63185600D01*
X118349542Y-63269229D01*
X118349518Y-63341892D01*
X118349495Y-63401782D01*
X118349474Y-63447089D01*
X118349454Y-63476005D01*
X118349436Y-63486722D01*
X118344474Y-63488222D01*
X118323318Y-63489553D01*
X118289369Y-63489921D01*
X118246810Y-63489223D01*
X118144270Y-63486372D01*
X118141626Y-63173749D01*
X118138983Y-62861126D01*
X118094585Y-62861126D01*
X118050187Y-62861126D01*
X118047209Y-62923651D01*
X118046560Y-62936966D01*
X118044273Y-62965505D01*
X118039450Y-62980512D01*
X118029471Y-62986833D01*
X118011718Y-62989310D01*
X117979205Y-62992445D01*
X117979205Y-63056837D01*
X117979205Y-63121228D01*
X117914179Y-63121228D01*
X117849154Y-63121228D01*
X117849154Y-63056203D01*
X117848617Y-63022680D01*
X117846010Y-63002231D01*
X117839974Y-62993204D01*
X117829146Y-62991177D01*
X117818831Y-62989432D01*
X117812539Y-62980962D01*
X117809761Y-62961342D01*
X117809138Y-62926152D01*
X117809138Y-62861126D01*
X117759118Y-62861126D01*
X117709098Y-62861126D01*
X117709098Y-63176600D01*
X117709098Y-63492074D01*
X117606558Y-63489223D01*
X117504018Y-63486372D01*
X117501420Y-62926152D01*
X117501121Y-62855005D01*
X117500809Y-62754664D01*
X117500647Y-62661503D01*
X117500633Y-62577353D01*
X117500761Y-62504048D01*
X117501027Y-62443421D01*
X117501429Y-62397303D01*
X117501962Y-62367528D01*
X117502623Y-62355927D01*
X117505341Y-62353792D01*
X117524612Y-62350187D01*
X117559708Y-62348558D01*
X117607761Y-62349089D01*
G37*
G36*
X116605470Y-62347736D02*
G01*
X116703703Y-62350396D01*
X116706726Y-62400680D01*
X116709750Y-62450965D01*
X116753697Y-62450965D01*
X116797644Y-62450965D01*
X116800693Y-62498483D01*
X116802048Y-62513702D01*
X116808123Y-62538738D01*
X116818748Y-62547349D01*
X116831121Y-62548308D01*
X116856263Y-62549850D01*
X116863264Y-62550546D01*
X116873396Y-62556018D01*
X116877807Y-62571120D01*
X116878772Y-62601024D01*
X116878772Y-62651043D01*
X116918264Y-62651043D01*
X116957757Y-62651043D01*
X116960781Y-62598523D01*
X116962921Y-62570064D01*
X116967659Y-62552757D01*
X116978435Y-62544910D01*
X116998912Y-62541000D01*
X116999140Y-62540967D01*
X117025879Y-62532944D01*
X117035177Y-62518491D01*
X117036121Y-62502971D01*
X117037584Y-62475974D01*
X117038043Y-62469793D01*
X117042532Y-62457345D01*
X117055964Y-62452063D01*
X117083852Y-62450965D01*
X117128870Y-62450965D01*
X117128870Y-62400945D01*
X117128870Y-62350925D01*
X117233911Y-62350925D01*
X117338953Y-62350925D01*
X117338953Y-62921150D01*
X117338953Y-63491374D01*
X117233911Y-63491374D01*
X117128870Y-63491374D01*
X117128870Y-63176250D01*
X117128870Y-62861126D01*
X117078850Y-62861126D01*
X117028831Y-62861126D01*
X117028831Y-62926152D01*
X117028816Y-62936772D01*
X117028024Y-62967355D01*
X117024753Y-62983603D01*
X117017265Y-62990037D01*
X117003821Y-62991177D01*
X116999465Y-62991221D01*
X116987849Y-62993342D01*
X116981682Y-63001956D01*
X116979242Y-63021567D01*
X116978811Y-63056680D01*
X116978811Y-63122183D01*
X116916286Y-63119205D01*
X116914314Y-63119109D01*
X116878350Y-63115927D01*
X116858836Y-63110280D01*
X116852415Y-63101221D01*
X116851980Y-63094914D01*
X116850880Y-63070306D01*
X116849914Y-63038696D01*
X116849389Y-63023301D01*
X116846524Y-63001968D01*
X116838938Y-62993004D01*
X116823750Y-62991177D01*
X116819665Y-62991140D01*
X116807903Y-62989080D01*
X116801653Y-62980576D01*
X116799179Y-62961107D01*
X116798740Y-62926152D01*
X116798740Y-62861126D01*
X116753865Y-62861126D01*
X116708990Y-62861126D01*
X116706346Y-63173749D01*
X116703703Y-63486372D01*
X116600835Y-63486372D01*
X116497968Y-63486372D01*
X116498455Y-62922436D01*
X116498556Y-62847562D01*
X116498811Y-62747278D01*
X116499185Y-62654315D01*
X116499662Y-62570487D01*
X116500229Y-62497605D01*
X116500869Y-62437482D01*
X116501570Y-62391930D01*
X116502315Y-62362762D01*
X116503090Y-62351789D01*
X116507996Y-62350052D01*
X116529336Y-62348078D01*
X116563331Y-62347246D01*
X116605470Y-62347736D01*
G37*
G36*
X116338559Y-62914480D02*
G01*
X116338500Y-62989032D01*
X116338230Y-63089296D01*
X116337758Y-63182241D01*
X116337106Y-63266055D01*
X116336295Y-63338924D01*
X116335347Y-63399036D01*
X116334283Y-63444579D01*
X116333123Y-63473740D01*
X116331890Y-63484705D01*
X116327483Y-63485675D01*
X116305514Y-63487213D01*
X116267391Y-63488580D01*
X116215533Y-63489729D01*
X116152362Y-63490611D01*
X116080297Y-63491175D01*
X116001760Y-63491374D01*
X115678299Y-63491374D01*
X115678299Y-63386524D01*
X115678299Y-63281674D01*
X115900887Y-63278982D01*
X116123474Y-63276290D01*
X116123474Y-63139556D01*
X116123431Y-63125588D01*
X116122561Y-63076534D01*
X116120744Y-63035720D01*
X116118202Y-63007068D01*
X116115162Y-62994499D01*
X116103745Y-62991802D01*
X116075413Y-62989049D01*
X116033569Y-62986542D01*
X115981523Y-62984479D01*
X115922586Y-62983056D01*
X115738323Y-62979936D01*
X115738323Y-62875513D01*
X115738323Y-62771091D01*
X115933399Y-62771091D01*
X116128476Y-62771091D01*
X116128476Y-62727540D01*
X116127983Y-62706126D01*
X116125650Y-62664484D01*
X116122049Y-62622499D01*
X116115622Y-62561008D01*
X115896960Y-62561008D01*
X115678299Y-62561008D01*
X115678299Y-62455967D01*
X115678299Y-62350925D01*
X116008429Y-62350925D01*
X116338559Y-62350925D01*
X116338559Y-62914480D01*
G37*
G36*
X115558252Y-62914480D02*
G01*
X115558190Y-62988981D01*
X115557907Y-63089268D01*
X115557412Y-63182246D01*
X115556728Y-63266101D01*
X115555877Y-63339018D01*
X115554882Y-63399184D01*
X115553766Y-63444785D01*
X115552549Y-63474006D01*
X115551254Y-63485033D01*
X115545577Y-63486836D01*
X115523082Y-63488886D01*
X115488176Y-63489736D01*
X115445528Y-63489201D01*
X115346798Y-63486372D01*
X115344983Y-63306301D01*
X115343167Y-63126230D01*
X115285644Y-63123230D01*
X115228122Y-63120230D01*
X115226598Y-63168248D01*
X115226107Y-63183022D01*
X115224987Y-63212680D01*
X115224097Y-63231272D01*
X115222410Y-63236458D01*
X115207625Y-63244935D01*
X115175601Y-63249327D01*
X115128082Y-63252376D01*
X115128082Y-63306849D01*
X115128082Y-63361323D01*
X115083542Y-63361323D01*
X115039002Y-63361323D01*
X115036023Y-63423848D01*
X115033045Y-63486372D01*
X114928004Y-63486372D01*
X114822962Y-63486372D01*
X114820153Y-63363824D01*
X114817344Y-63241276D01*
X114867672Y-63241276D01*
X114918000Y-63241276D01*
X114918000Y-63181252D01*
X114918367Y-63154667D01*
X114920794Y-63133039D01*
X114926833Y-63123419D01*
X114938007Y-63121228D01*
X114946719Y-63120178D01*
X114954023Y-63113006D01*
X114957274Y-63095031D01*
X114958015Y-63061662D01*
X114958015Y-63002095D01*
X114890489Y-62999137D01*
X114822962Y-62996179D01*
X114820292Y-62738578D01*
X114818452Y-62561008D01*
X115038047Y-62561008D01*
X115038047Y-62736077D01*
X115038047Y-62911146D01*
X115193108Y-62911146D01*
X115348169Y-62911146D01*
X115348169Y-62736077D01*
X115348169Y-62561008D01*
X115193108Y-62561008D01*
X115038047Y-62561008D01*
X114818452Y-62561008D01*
X114817622Y-62480976D01*
X114887819Y-62480976D01*
X114958015Y-62480976D01*
X114958015Y-62415951D01*
X114958015Y-62350925D01*
X115258133Y-62350925D01*
X115558252Y-62350925D01*
X115558252Y-62736077D01*
X115558252Y-62914480D01*
G37*
G36*
X122100827Y-56578653D02*
G01*
X122100827Y-57398976D01*
X122190863Y-57398976D01*
X122280898Y-57398976D01*
X122280898Y-57564041D01*
X122280898Y-57729106D01*
X122385940Y-57729106D01*
X122490981Y-57729106D01*
X122490981Y-57804474D01*
X122490981Y-57879842D01*
X122383439Y-57877002D01*
X122275896Y-57874163D01*
X122272731Y-57846652D01*
X122269565Y-57819141D01*
X122180194Y-57819141D01*
X122090824Y-57819141D01*
X122090824Y-57849153D01*
X122090824Y-57879165D01*
X121990784Y-57879165D01*
X121890745Y-57879165D01*
X121890745Y-57933824D01*
X121890745Y-57988483D01*
X121988283Y-57991347D01*
X122085822Y-57994210D01*
X122088825Y-58057718D01*
X122090539Y-58093959D01*
X122091829Y-58121226D01*
X122183863Y-58117742D01*
X122275896Y-58114257D01*
X122279001Y-58151772D01*
X122282106Y-58189287D01*
X122386544Y-58189287D01*
X122490981Y-58189287D01*
X122490981Y-58259314D01*
X122490981Y-58329342D01*
X122380938Y-58329342D01*
X122270894Y-58329342D01*
X122270894Y-58299330D01*
X122270894Y-58269318D01*
X122080820Y-58269318D01*
X121890745Y-58269318D01*
X121890745Y-58414159D01*
X121890745Y-58559000D01*
X122083321Y-58561717D01*
X122275896Y-58564434D01*
X122278897Y-58621957D01*
X122281897Y-58679480D01*
X122386439Y-58679480D01*
X122490981Y-58679480D01*
X122490981Y-58749507D01*
X122490981Y-58819535D01*
X122380938Y-58819535D01*
X122270894Y-58819535D01*
X122270894Y-58759511D01*
X122270894Y-58699488D01*
X122180859Y-58699488D01*
X122090824Y-58699488D01*
X122090824Y-58759511D01*
X122090824Y-58819535D01*
X122013293Y-58819671D01*
X121994601Y-58819678D01*
X121949427Y-58820285D01*
X121919758Y-58824269D01*
X121902217Y-58834839D01*
X121893425Y-58855205D01*
X121890002Y-58888576D01*
X121888819Y-58929578D01*
X121888571Y-58938162D01*
X121885743Y-59044624D01*
X121673159Y-59047323D01*
X121460575Y-59050023D01*
X121460575Y-59149864D01*
X121460575Y-59249704D01*
X121870737Y-59249704D01*
X122280898Y-59249704D01*
X122280898Y-59349069D01*
X122280924Y-59353078D01*
X122281175Y-59391571D01*
X122283802Y-59426254D01*
X122291571Y-59447049D01*
X122307276Y-59457274D01*
X122333711Y-59460249D01*
X122373670Y-59459293D01*
X122391490Y-59458731D01*
X122427093Y-59458198D01*
X122453466Y-59458544D01*
X122480977Y-59459787D01*
X122480977Y-59559826D01*
X122480977Y-59659866D01*
X122576015Y-59659866D01*
X122671052Y-59659866D01*
X122671052Y-59869586D01*
X122671052Y-60079307D01*
X122768590Y-60082170D01*
X122866129Y-60085033D01*
X122866659Y-60200078D01*
X122866891Y-60235697D01*
X122867486Y-60292898D01*
X122868263Y-60345136D01*
X122868279Y-60346241D01*
X122869160Y-60387652D01*
X122871131Y-60460181D01*
X122966168Y-60460181D01*
X123061206Y-60460181D01*
X123061206Y-61015399D01*
X123061206Y-61570618D01*
X123176251Y-61570618D01*
X123291296Y-61570618D01*
X123291296Y-61315518D01*
X123291296Y-61060417D01*
X123406341Y-61060417D01*
X123521387Y-61060417D01*
X123521387Y-60955376D01*
X123521387Y-60850334D01*
X123553900Y-60849546D01*
X123573001Y-60849353D01*
X123609444Y-60849557D01*
X123648937Y-60850236D01*
X123711462Y-60851713D01*
X123711462Y-60745983D01*
X123711462Y-60640252D01*
X123803998Y-60640251D01*
X123896534Y-60640250D01*
X123894499Y-60227588D01*
X123894354Y-60198236D01*
X123893900Y-60106948D01*
X123893462Y-60020067D01*
X123893055Y-59940195D01*
X123892692Y-59869932D01*
X123892386Y-59811876D01*
X123892150Y-59768628D01*
X123891998Y-59742788D01*
X123891532Y-59670649D01*
X123803998Y-59667758D01*
X123716464Y-59664868D01*
X123713613Y-59562327D01*
X123710762Y-59459787D01*
X123621076Y-59459787D01*
X123531391Y-59459787D01*
X123531391Y-59360123D01*
X123531391Y-59260459D01*
X123441206Y-59257583D01*
X123351021Y-59254706D01*
X123349928Y-59034620D01*
X123348836Y-58814533D01*
X123617683Y-58814533D01*
X123886530Y-58814533D01*
X123889431Y-58896742D01*
X123892331Y-58978950D01*
X124004476Y-58981775D01*
X124044360Y-58982845D01*
X124079592Y-58984414D01*
X124101041Y-58987019D01*
X124112178Y-58991516D01*
X124116477Y-58998761D01*
X124117411Y-59009610D01*
X124117985Y-59029351D01*
X124118906Y-59063347D01*
X124119912Y-59102146D01*
X124121623Y-59169673D01*
X124211510Y-59169673D01*
X124301396Y-59169673D01*
X124304046Y-59467290D01*
X124306696Y-59764907D01*
X124399232Y-59767783D01*
X124491769Y-59770660D01*
X124491769Y-60205456D01*
X124491769Y-60640252D01*
X124396731Y-60640252D01*
X124301694Y-60640252D01*
X124301694Y-60850334D01*
X124301694Y-61060417D01*
X124211658Y-61060417D01*
X124121623Y-61060417D01*
X124120832Y-61122942D01*
X124120693Y-61133498D01*
X124120046Y-61177492D01*
X124119211Y-61229537D01*
X124118332Y-61280504D01*
X124116621Y-61375541D01*
X124034089Y-61378447D01*
X123951556Y-61381352D01*
X123951556Y-61465981D01*
X123951556Y-61550610D01*
X123841917Y-61550610D01*
X123732279Y-61550610D01*
X123729373Y-61633143D01*
X123726467Y-61715675D01*
X123383833Y-61718307D01*
X123041198Y-61720940D01*
X123041198Y-61835854D01*
X123041198Y-61950768D01*
X122125837Y-61950768D01*
X121210477Y-61950768D01*
X121210477Y-61860732D01*
X121210477Y-61770697D01*
X121121128Y-61770697D01*
X121031779Y-61770697D01*
X121028592Y-61674782D01*
X121027909Y-61649826D01*
X121027523Y-61612426D01*
X121028093Y-61585875D01*
X121029572Y-61574742D01*
X121030383Y-61574449D01*
X121045317Y-61573231D01*
X121076513Y-61572179D01*
X121120919Y-61571352D01*
X121175483Y-61570812D01*
X121237154Y-61570618D01*
X121440568Y-61570618D01*
X121440568Y-61365537D01*
X121440568Y-61160457D01*
X121535605Y-61160457D01*
X121630642Y-61160457D01*
X121630642Y-61060417D01*
X121630642Y-60960378D01*
X121730682Y-60960378D01*
X121830721Y-60960378D01*
X121830721Y-60755297D01*
X121830721Y-60550216D01*
X121735684Y-60550216D01*
X121640646Y-60550216D01*
X121640646Y-60655258D01*
X121640646Y-60760299D01*
X121540607Y-60760299D01*
X121440568Y-60760299D01*
X121440568Y-60859440D01*
X121440568Y-60958582D01*
X121357914Y-60965467D01*
X121347158Y-60966320D01*
X121307038Y-60968774D01*
X121274366Y-60969691D01*
X121255373Y-60968866D01*
X121253360Y-60968544D01*
X121245028Y-60969098D01*
X121239579Y-60975879D01*
X121236223Y-60992332D01*
X121234172Y-61021903D01*
X121232635Y-61068035D01*
X121229782Y-61170689D01*
X120832664Y-61168074D01*
X120761699Y-61167596D01*
X120674988Y-61166931D01*
X120605175Y-61166199D01*
X120550423Y-61165298D01*
X120508895Y-61164121D01*
X120478755Y-61162566D01*
X120458164Y-61160527D01*
X120445288Y-61157901D01*
X120438287Y-61154582D01*
X120435327Y-61150467D01*
X120434569Y-61145451D01*
X120433959Y-61130056D01*
X120432945Y-61099164D01*
X120431881Y-61062480D01*
X120430170Y-60999517D01*
X120357641Y-61002456D01*
X120285113Y-61005395D01*
X120287929Y-61035407D01*
X120288508Y-61047567D01*
X120287722Y-61081171D01*
X120284708Y-61117940D01*
X120278671Y-61170460D01*
X120204711Y-61170460D01*
X120130752Y-61170460D01*
X120127901Y-61273001D01*
X120125050Y-61375541D01*
X120025010Y-61375541D01*
X119924971Y-61375541D01*
X119922120Y-61273001D01*
X119919269Y-61170460D01*
X119854593Y-61170460D01*
X119789918Y-61170460D01*
X119789918Y-61275502D01*
X119789918Y-61380543D01*
X119695951Y-61380543D01*
X119687054Y-61380529D01*
X119644358Y-61379697D01*
X119617375Y-61377170D01*
X119602446Y-61372371D01*
X119595911Y-61364719D01*
X119594759Y-61360093D01*
X119592242Y-61336901D01*
X119590494Y-61301560D01*
X119589839Y-61259678D01*
X119589839Y-61170460D01*
X119530165Y-61170460D01*
X119470492Y-61170460D01*
X119467641Y-61273001D01*
X119464790Y-61375541D01*
X119367251Y-61378404D01*
X119269713Y-61381268D01*
X119269713Y-61170823D01*
X119269713Y-60960378D01*
X119349744Y-60960378D01*
X119429776Y-60960378D01*
X119429776Y-60870342D01*
X119429776Y-60780307D01*
X119604845Y-60780307D01*
X119779914Y-60780307D01*
X119779914Y-60685269D01*
X119779914Y-60590232D01*
X120180071Y-60590232D01*
X120580229Y-60590232D01*
X120580229Y-60505199D01*
X120580229Y-60420165D01*
X120125050Y-60420165D01*
X119669870Y-60420165D01*
X119669870Y-60510201D01*
X119669870Y-60600236D01*
X119485173Y-60600236D01*
X119300475Y-60600236D01*
X119297599Y-60692772D01*
X119294723Y-60785309D01*
X119187180Y-60788148D01*
X119079638Y-60790988D01*
X119079638Y-60874803D01*
X119079638Y-60958619D01*
X119040096Y-60965300D01*
X119035080Y-60966073D01*
X118996252Y-60969231D01*
X118957564Y-60968857D01*
X118914573Y-60965734D01*
X118911722Y-61068097D01*
X118910414Y-61099268D01*
X118907489Y-61136028D01*
X118903733Y-61161155D01*
X118899638Y-61170460D01*
X118898528Y-61171001D01*
X118893888Y-61184201D01*
X118889955Y-61211468D01*
X118887483Y-61247991D01*
X118884561Y-61325521D01*
X118785333Y-61325521D01*
X118686105Y-61325521D01*
X118682972Y-61215478D01*
X118681901Y-61177792D01*
X118680790Y-61138523D01*
X118680002Y-61110433D01*
X118679660Y-61097932D01*
X118673088Y-61094540D01*
X118651375Y-61091572D01*
X118619774Y-61090429D01*
X118560068Y-61090429D01*
X118557250Y-61207975D01*
X118554431Y-61325521D01*
X118459394Y-61325521D01*
X118364356Y-61325521D01*
X118361551Y-61203463D01*
X118358746Y-61081405D01*
X118301528Y-61078414D01*
X118244309Y-61075423D01*
X118241533Y-60932867D01*
X118238758Y-60790311D01*
X118299056Y-60790311D01*
X118359354Y-60790311D01*
X118359354Y-60705277D01*
X118359354Y-60620244D01*
X118444388Y-60620244D01*
X118529421Y-60620244D01*
X118529421Y-60530208D01*
X118529421Y-60440173D01*
X118609453Y-60440173D01*
X118689484Y-60440173D01*
X118689484Y-60405159D01*
X118689484Y-60370145D01*
X118764239Y-60370145D01*
X118838994Y-60370145D01*
X118841770Y-60227589D01*
X118842695Y-60180071D01*
X120590233Y-60180071D01*
X120590233Y-60295116D01*
X120590233Y-60410161D01*
X120660260Y-60410161D01*
X120730288Y-60410161D01*
X120730288Y-60345136D01*
X121840725Y-60345136D01*
X121840725Y-60540212D01*
X121910753Y-60540212D01*
X121980780Y-60540212D01*
X121980780Y-60345136D01*
X121980780Y-60150059D01*
X121910753Y-60150059D01*
X121840725Y-60150059D01*
X121840725Y-60295116D01*
X121840725Y-60345136D01*
X120730288Y-60345136D01*
X120730288Y-60295116D01*
X120730288Y-60180071D01*
X120660260Y-60180071D01*
X120590233Y-60180071D01*
X118842695Y-60180071D01*
X118844545Y-60085033D01*
X118922669Y-60082101D01*
X119000792Y-60079168D01*
X118998747Y-59987063D01*
X118996702Y-59894958D01*
X119093192Y-59892095D01*
X119189681Y-59889232D01*
X119189681Y-59799559D01*
X119189681Y-59709885D01*
X119669870Y-59709885D01*
X120150059Y-59709885D01*
X120150059Y-59599911D01*
X120150059Y-59489937D01*
X119462289Y-59487367D01*
X118774518Y-59484797D01*
X118771689Y-59372252D01*
X118768861Y-59259708D01*
X121229760Y-59259708D01*
X121232624Y-59357247D01*
X121235487Y-59454785D01*
X121338197Y-59455449D01*
X121369262Y-59455424D01*
X121407351Y-59454672D01*
X121434325Y-59453233D01*
X121445740Y-59451280D01*
X121446897Y-59447398D01*
X121448784Y-59427227D01*
X121450086Y-59394223D01*
X121450571Y-59353078D01*
X121450571Y-59259708D01*
X121340166Y-59259708D01*
X121229760Y-59259708D01*
X118768861Y-59259708D01*
X118564108Y-59259708D01*
X118359354Y-59259708D01*
X118359354Y-59154667D01*
X118359354Y-59049625D01*
X118254313Y-59049625D01*
X118149272Y-59049625D01*
X118149272Y-58929578D01*
X119199685Y-58929578D01*
X119199685Y-58989602D01*
X119199685Y-59049625D01*
X119329133Y-59049625D01*
X119458580Y-59049625D01*
X119461685Y-59012111D01*
X119462127Y-59006999D01*
X119466301Y-58984817D01*
X119477537Y-58975138D01*
X119502304Y-58971491D01*
X119513198Y-58970502D01*
X119531603Y-58966071D01*
X119538669Y-58954105D01*
X119539819Y-58928370D01*
X119539819Y-58888355D01*
X119577334Y-58891460D01*
X119582446Y-58891902D01*
X119604627Y-58896076D01*
X119614306Y-58907312D01*
X119617954Y-58932079D01*
X119618416Y-58937426D01*
X119622406Y-58959250D01*
X119632780Y-58967996D01*
X119655468Y-58969594D01*
X119665343Y-58969681D01*
X119682279Y-58972599D01*
X119688805Y-58983987D01*
X119689878Y-59009610D01*
X119689878Y-59049625D01*
X119824931Y-59049625D01*
X119959985Y-59049625D01*
X119959985Y-58989602D01*
X119959985Y-58929578D01*
X119865495Y-58929578D01*
X119771006Y-58929578D01*
X119767957Y-58882060D01*
X119764908Y-58834541D01*
X119722391Y-58831465D01*
X119705695Y-58830096D01*
X119687627Y-58825629D01*
X119680882Y-58813941D01*
X119679874Y-58789523D01*
X119680050Y-58774248D01*
X119683507Y-58757482D01*
X119695759Y-58750429D01*
X119722391Y-58747582D01*
X119764908Y-58744505D01*
X119767932Y-58691985D01*
X119770955Y-58639464D01*
X119586325Y-58639464D01*
X119401695Y-58639464D01*
X119398229Y-58689490D01*
X119397965Y-58693302D01*
X119397002Y-58721638D01*
X119402256Y-58736266D01*
X119418320Y-58742016D01*
X119449784Y-58743715D01*
X119452391Y-58743824D01*
X119467207Y-58747473D01*
X119474499Y-58760022D01*
X119477870Y-58787022D01*
X119480946Y-58829539D01*
X119441425Y-58829539D01*
X119419663Y-58830960D01*
X119400894Y-58839588D01*
X119392005Y-58859688D01*
X119389760Y-58895383D01*
X119389760Y-58929578D01*
X119294723Y-58929578D01*
X119199685Y-58929578D01*
X118149272Y-58929578D01*
X118149272Y-58874557D01*
X118149272Y-58699488D01*
X118054234Y-58699488D01*
X117959197Y-58699488D01*
X117959197Y-58759810D01*
X117959197Y-58820133D01*
X117831647Y-58817333D01*
X117704096Y-58814533D01*
X117704096Y-58749507D01*
X117704096Y-58684482D01*
X117826155Y-58681677D01*
X117948213Y-58678872D01*
X117951204Y-58621653D01*
X117954195Y-58564434D01*
X118051733Y-58561571D01*
X118149272Y-58558708D01*
X118149272Y-58444025D01*
X118149272Y-58329342D01*
X117923726Y-58329342D01*
X117698180Y-58329342D01*
X117701138Y-58261815D01*
X117704096Y-58194289D01*
X117926684Y-58191596D01*
X118149272Y-58188904D01*
X118149272Y-58034226D01*
X118149272Y-57999212D01*
X118359354Y-57999212D01*
X118359354Y-58094249D01*
X118359354Y-58189287D01*
X118454392Y-58189287D01*
X118549429Y-58189287D01*
X118549429Y-58334344D01*
X118549429Y-58479401D01*
X118589445Y-58479401D01*
X118629461Y-58479401D01*
X118629461Y-58519417D01*
X118629539Y-58531224D01*
X118632094Y-58550741D01*
X118642056Y-58558221D01*
X118664475Y-58559432D01*
X118667140Y-58559437D01*
X118689202Y-58561355D01*
X118697940Y-58570979D01*
X118699488Y-58594446D01*
X118699488Y-58629460D01*
X118803896Y-58629460D01*
X118908303Y-58629460D01*
X118911438Y-58596947D01*
X118912361Y-58588558D01*
X118917298Y-58572050D01*
X118930201Y-58564547D01*
X118957090Y-58561358D01*
X118974038Y-58559968D01*
X118991965Y-58555464D01*
X118998627Y-58543616D01*
X118999607Y-58518842D01*
X118999696Y-58505606D01*
X119002564Y-58487213D01*
X119013850Y-58480395D01*
X119039348Y-58479401D01*
X119079089Y-58479401D01*
X119081864Y-58336845D01*
X119084640Y-58194289D01*
X119137161Y-58191265D01*
X119189681Y-58188241D01*
X119189681Y-58188191D01*
X120080032Y-58188191D01*
X120127551Y-58191240D01*
X120175069Y-58194289D01*
X120177842Y-58336283D01*
X120180614Y-58478277D01*
X120222859Y-58481340D01*
X120236577Y-58482461D01*
X120256427Y-58486828D01*
X120264949Y-58498021D01*
X120268177Y-58521370D01*
X120269277Y-58532998D01*
X120274024Y-58550638D01*
X120286643Y-58558306D01*
X120313195Y-58561386D01*
X120323131Y-58562181D01*
X120344922Y-58566259D01*
X120354615Y-58576253D01*
X120358275Y-58596947D01*
X120361410Y-58629460D01*
X120525841Y-58629460D01*
X120690272Y-58629460D01*
X120690272Y-58594446D01*
X120690362Y-58584115D01*
X120693281Y-58567037D01*
X120704667Y-58560492D01*
X120730288Y-58559432D01*
X120770304Y-58559432D01*
X120770304Y-58519417D01*
X120770399Y-58505496D01*
X120773304Y-58487148D01*
X120784607Y-58480375D01*
X120810045Y-58479401D01*
X120849786Y-58479401D01*
X120852561Y-58336845D01*
X120855337Y-58194289D01*
X120987889Y-58191497D01*
X121120441Y-58188706D01*
X121120441Y-58093959D01*
X121120441Y-57999212D01*
X120600237Y-57999212D01*
X120080032Y-57999212D01*
X120080032Y-58093701D01*
X120080032Y-58093727D01*
X120080032Y-58188191D01*
X119189681Y-58188191D01*
X119189681Y-58093727D01*
X119189681Y-57999212D01*
X118774518Y-57999212D01*
X118359354Y-57999212D01*
X118149272Y-57999212D01*
X118149272Y-57879547D01*
X117926684Y-57876855D01*
X117704096Y-57874163D01*
X117704096Y-57804135D01*
X117704096Y-57734108D01*
X117826645Y-57731299D01*
X117949193Y-57728490D01*
X117949193Y-57558731D01*
X117949193Y-57388972D01*
X118049232Y-57388972D01*
X118149272Y-57388972D01*
X118149272Y-57183891D01*
X118149272Y-56978810D01*
X118049232Y-56978810D01*
X117949193Y-56978810D01*
X117949193Y-56368570D01*
X117949193Y-56170198D01*
X118159276Y-56170198D01*
X118159276Y-56569502D01*
X118159276Y-56968806D01*
X118263955Y-56968806D01*
X118368634Y-56968806D01*
X118371497Y-56871268D01*
X118374360Y-56773729D01*
X118472322Y-56770861D01*
X118569942Y-56768003D01*
X121480583Y-56768003D01*
X121578122Y-56770866D01*
X121675660Y-56773729D01*
X121678523Y-56871268D01*
X121681387Y-56968806D01*
X121781064Y-56968806D01*
X121880741Y-56968806D01*
X121880762Y-56566148D01*
X121880783Y-56163489D01*
X121816088Y-56166828D01*
X121751394Y-56170167D01*
X121748541Y-56266868D01*
X121745688Y-56363568D01*
X121670950Y-56366552D01*
X121631998Y-56369519D01*
X121602440Y-56374808D01*
X121588571Y-56381558D01*
X121587170Y-56385237D01*
X121583949Y-56406456D01*
X121581677Y-56440213D01*
X121580776Y-56481114D01*
X121580623Y-56568649D01*
X121530603Y-56568649D01*
X121480583Y-56568649D01*
X121480583Y-56668326D01*
X121480583Y-56767993D01*
X121480583Y-56768003D01*
X118569942Y-56768003D01*
X118570284Y-56767993D01*
X118565871Y-56670822D01*
X118561457Y-56573651D01*
X118510425Y-56570627D01*
X118459394Y-56567603D01*
X118459394Y-56468087D01*
X118459394Y-56368570D01*
X118379362Y-56368570D01*
X118299331Y-56368570D01*
X118299331Y-56270198D01*
X118299172Y-56243059D01*
X118298340Y-56205444D01*
X118296956Y-56178805D01*
X118295201Y-56167658D01*
X118284543Y-56166041D01*
X118259296Y-56165721D01*
X118225174Y-56166844D01*
X118159276Y-56170198D01*
X117949193Y-56170198D01*
X117949193Y-55758330D01*
X118164278Y-55758330D01*
X118379362Y-55758330D01*
X118379362Y-55858369D01*
X118379362Y-55958408D01*
X118484404Y-55958408D01*
X118589445Y-55958408D01*
X118589445Y-56058448D01*
X118589445Y-56158487D01*
X118689484Y-56158487D01*
X118789524Y-56158487D01*
X118789524Y-56253175D01*
X118789524Y-56347862D01*
X118892064Y-56350713D01*
X118994605Y-56353564D01*
X118997455Y-56456104D01*
X119000306Y-56558645D01*
X119225045Y-56558645D01*
X119449784Y-56558645D01*
X119449784Y-56504257D01*
X119449784Y-56503752D01*
X119449232Y-56472690D01*
X119445605Y-56456328D01*
X119435939Y-56449424D01*
X119417271Y-56446734D01*
X119408882Y-56445811D01*
X119392373Y-56440874D01*
X119384871Y-56427971D01*
X119381682Y-56401083D01*
X119381109Y-56394400D01*
X119375113Y-56367348D01*
X119364175Y-56358566D01*
X119359006Y-56357226D01*
X119351900Y-56343938D01*
X119349744Y-56314005D01*
X119349744Y-56269445D01*
X119282376Y-56266487D01*
X119215007Y-56263529D01*
X119216049Y-56213509D01*
X119217092Y-56163489D01*
X119303426Y-56160599D01*
X119389760Y-56157708D01*
X119389760Y-56208117D01*
X119389760Y-56258527D01*
X119434778Y-56258527D01*
X119479796Y-56258527D01*
X119479796Y-56298043D01*
X119479796Y-56337560D01*
X119537318Y-56340560D01*
X119594841Y-56343560D01*
X119597865Y-56396081D01*
X119600888Y-56448601D01*
X119640381Y-56448601D01*
X119679874Y-56448601D01*
X119679874Y-56503623D01*
X119679874Y-56558645D01*
X119724892Y-56558645D01*
X119769910Y-56558645D01*
X119771084Y-56511126D01*
X119771340Y-56499927D01*
X119772073Y-56462158D01*
X119772865Y-56415165D01*
X119773585Y-56366563D01*
X119774912Y-56269519D01*
X119739898Y-56266524D01*
X119725088Y-56264929D01*
X119710874Y-56259474D01*
X119704605Y-56245455D01*
X119701882Y-56217160D01*
X119700936Y-56204412D01*
X119696881Y-56181604D01*
X119687619Y-56170456D01*
X119669369Y-56164890D01*
X119639859Y-56158987D01*
X119639859Y-55958659D01*
X119639859Y-55758330D01*
X119709886Y-55758330D01*
X119779914Y-55758330D01*
X119779914Y-55958408D01*
X119779914Y-56158487D01*
X119839937Y-56158487D01*
X119899961Y-56158487D01*
X119899961Y-56208507D01*
X119899961Y-56258527D01*
X119939977Y-56258527D01*
X119943462Y-56258536D01*
X119967506Y-56260261D01*
X119977808Y-56267423D01*
X119979992Y-56283536D01*
X119980709Y-56294412D01*
X119988556Y-56305855D01*
X120010004Y-56308546D01*
X120040016Y-56308546D01*
X120040016Y-56378574D01*
X120040016Y-56448601D01*
X120083955Y-56448601D01*
X120127893Y-56448601D01*
X120133056Y-56351063D01*
X120134083Y-56330053D01*
X120135884Y-56281822D01*
X120136797Y-56238856D01*
X120136636Y-56208507D01*
X120135054Y-56163489D01*
X120192576Y-56160489D01*
X120250099Y-56157489D01*
X120250099Y-56032440D01*
X120250099Y-55907390D01*
X120307621Y-55910391D01*
X120365144Y-55913391D01*
X120367977Y-56032642D01*
X120368396Y-56050792D01*
X120368887Y-56099705D01*
X120366815Y-56132700D01*
X120360666Y-56152918D01*
X120348926Y-56163502D01*
X120330081Y-56167595D01*
X120302620Y-56168338D01*
X120260103Y-56168491D01*
X120260103Y-56258527D01*
X120260103Y-56348562D01*
X120409050Y-56348562D01*
X120459028Y-56348295D01*
X120505568Y-56347105D01*
X120536042Y-56344792D01*
X120552635Y-56341170D01*
X120557533Y-56336057D01*
X120557483Y-56333406D01*
X120557558Y-56313306D01*
X120557967Y-56280468D01*
X120558645Y-56240520D01*
X120560221Y-56157489D01*
X120617744Y-56160489D01*
X120675266Y-56163489D01*
X120675266Y-56258527D01*
X120675266Y-56353564D01*
X120622746Y-56356588D01*
X120570225Y-56359612D01*
X120570225Y-56459128D01*
X120570225Y-56558645D01*
X120799965Y-56558645D01*
X121029706Y-56558645D01*
X121032557Y-56456104D01*
X121035408Y-56353564D01*
X121152954Y-56350746D01*
X121270501Y-56347927D01*
X121270501Y-56253207D01*
X121270501Y-56158487D01*
X121370540Y-56158487D01*
X121470579Y-56158487D01*
X121471765Y-56070953D01*
X121471953Y-56054801D01*
X121472149Y-56015884D01*
X121471932Y-55986111D01*
X121471326Y-55970913D01*
X121474610Y-55965657D01*
X121490456Y-55961430D01*
X121521522Y-55959114D01*
X121570180Y-55958408D01*
X121670658Y-55958408D01*
X121670658Y-55858369D01*
X121670658Y-55758330D01*
X121885743Y-55758330D01*
X122100827Y-55758330D01*
X122100827Y-56163489D01*
X122100827Y-56578653D01*
G37*
G36*
X114944211Y-59459766D02*
G01*
X114976254Y-59459769D01*
X115025756Y-59459772D01*
X115091523Y-59459774D01*
X115172362Y-59459777D01*
X115267081Y-59459779D01*
X115374486Y-59459781D01*
X115493384Y-59459783D01*
X115622581Y-59459784D01*
X115760886Y-59459785D01*
X115907105Y-59459786D01*
X116060044Y-59459787D01*
X116218512Y-59459787D01*
X117499016Y-59459787D01*
X117499016Y-59604844D01*
X117499016Y-59749901D01*
X117564041Y-59749901D01*
X117629067Y-59749901D01*
X117629067Y-59914489D01*
X117629067Y-60079076D01*
X117691592Y-60082055D01*
X117754116Y-60085033D01*
X117756863Y-60247126D01*
X117759609Y-60409219D01*
X117821888Y-60412191D01*
X117884167Y-60415163D01*
X117886905Y-60587731D01*
X117889642Y-60760299D01*
X117949429Y-60760299D01*
X118009217Y-60760299D01*
X118010166Y-60807818D01*
X118010363Y-60820913D01*
X118010636Y-60859239D01*
X118010712Y-60906664D01*
X118010569Y-60955838D01*
X118010430Y-60988859D01*
X118011039Y-61035254D01*
X118013981Y-61066490D01*
X118020691Y-61085698D01*
X118032606Y-61096009D01*
X118051159Y-61100555D01*
X118077788Y-61102466D01*
X118134266Y-61105435D01*
X118139268Y-61275183D01*
X118144270Y-61444931D01*
X118189287Y-61442554D01*
X118210255Y-61441732D01*
X118232465Y-61443350D01*
X118247671Y-61450766D01*
X118257329Y-61466821D01*
X118262897Y-61494359D01*
X118265833Y-61536219D01*
X118267593Y-61595243D01*
X118270869Y-61730681D01*
X118334699Y-61730681D01*
X118398529Y-61730681D01*
X118401450Y-61653150D01*
X118404372Y-61575620D01*
X119589839Y-61575620D01*
X120775306Y-61575620D01*
X120778027Y-61763214D01*
X120780749Y-61950808D01*
X118322060Y-61948287D01*
X115863372Y-61945766D01*
X115860395Y-61883286D01*
X115857417Y-61820807D01*
X116930816Y-61818261D01*
X118004215Y-61815714D01*
X118007319Y-61778200D01*
X118010424Y-61740685D01*
X116869371Y-61740685D01*
X115728319Y-61740685D01*
X115728319Y-61577153D01*
X115728319Y-61413622D01*
X115665794Y-61414589D01*
X115603269Y-61415557D01*
X115600523Y-61253444D01*
X115597776Y-61091332D01*
X115530495Y-61088379D01*
X115463214Y-61085427D01*
X115458212Y-60920362D01*
X115453210Y-60755297D01*
X115393187Y-60755297D01*
X115333163Y-60755297D01*
X115330420Y-60587731D01*
X115327677Y-60420165D01*
X115257892Y-60420165D01*
X115188106Y-60420165D01*
X115188106Y-60255557D01*
X115188106Y-60090949D01*
X115120579Y-60087991D01*
X115053053Y-60085033D01*
X115050304Y-59922469D01*
X115047555Y-59759905D01*
X114982517Y-59759905D01*
X114917478Y-59759905D01*
X114920240Y-59609822D01*
X114920857Y-59582912D01*
X114922660Y-59534213D01*
X114925027Y-59495151D01*
X114927720Y-59469182D01*
X114930505Y-59459763D01*
X114930820Y-59459763D01*
X114944211Y-59459766D01*
G37*
G36*
X120670264Y-58438652D02*
G01*
X120669997Y-58449536D01*
X120665121Y-58472886D01*
X120652757Y-58482738D01*
X120649576Y-58483461D01*
X120625615Y-58485825D01*
X120595235Y-58485972D01*
X120579685Y-58485189D01*
X120562329Y-58481064D01*
X120555037Y-58468561D01*
X120552143Y-58441886D01*
X120549067Y-58399369D01*
X120609665Y-58399369D01*
X120670264Y-58399369D01*
X120670264Y-58438652D01*
G37*
G36*
X118822037Y-58396448D02*
G01*
X118839235Y-58401944D01*
X118847679Y-58414292D01*
X118849547Y-58439802D01*
X118849384Y-58446023D01*
X118845186Y-58470373D01*
X118837043Y-58482779D01*
X118814006Y-58487543D01*
X118781733Y-58488023D01*
X118755328Y-58483333D01*
X118743943Y-58470629D01*
X118739504Y-58439481D01*
X118741015Y-58415657D01*
X118748756Y-58402489D01*
X118767015Y-58396364D01*
X118790032Y-58394230D01*
X118822037Y-58396448D01*
G37*
%TD*%
M02*
