M48
; DRILL file KiCad 10.0.5 date 2026-10-04T00:08:47
; FORMAT={-:-/ absolute / metric / decimal}
; #@! TF.CreationDate,2026-10-04T00:08:47+05:30
; #@! TF.GenerationSoftware,Kicad,Pcbnew,10.0.5
; #@! TF.FileFunction,Plated,1,2,PTH
FMAT,2
METRIC
; #@! TA.AperFunction,Plated,PTH,ViaDrill
T1C0.300
; #@! TA.AperFunction,Plated,PTH,ComponentDrill
T2C0.600
; #@! TA.AperFunction,Plated,PTH,ComponentDrill
T3C1.000
%
G90
G05
T1
X110.61Y-74.65
X110.61Y-74.65
X112.0Y-85.0
X113.0Y-73.0
X113.6Y-82.422
X113.676Y-98.676
X113.947Y-84.018
X114.0Y-80.0
X114.0Y-101.0
X114.4Y-82.228
X115.0Y-70.0
X115.0Y-73.0
X115.722Y-78.602
X115.724Y-79.265
X116.003Y-75.55
X116.97Y-82.969
X117.0Y-84.0
X117.0Y-87.0
X117.0Y-92.645
X117.962Y-87.113
X118.0Y-82.9
X118.03Y-91.24
X118.3Y-89.725
X118.4Y-75.52
X118.463Y-72.537
X118.72Y-92.42
X118.72Y-98.0
X119.0Y-74.0
X119.32Y-87.5
X119.9Y-82.4
X119.92Y-89.78
X120.0Y-78.0
X120.7Y-87.255
X120.976Y-65.976
X121.0Y-82.9
X121.145Y-93.52
X121.145Y-96.02
X121.6Y-85.0
X121.904Y-89.356
X122.0Y-76.0
X122.0Y-82.8
X122.0Y-86.0
X122.005Y-87.473
X122.39Y-91.0
X122.8Y-94.745
X122.803Y-89.223
X122.976Y-78.049
X122.999Y-91.96
X123.0Y-98.0
X123.332Y-77.332
X123.875Y-82.311
X124.588Y-76.077
X124.825Y-82.31
X125.0Y-57.405
X125.0Y-90.0
X125.824Y-99.176
X125.826Y-73.826
X126.0Y-85.0
T3
X110.61Y-56.87
X110.61Y-59.41
X110.61Y-61.95
X110.61Y-64.49
X110.61Y-67.03
X110.61Y-69.57
X110.61Y-72.11
X110.61Y-74.65
X110.61Y-77.19
X110.61Y-79.73
X110.61Y-82.27
X110.61Y-84.81
X110.61Y-87.35
X110.61Y-89.89
X110.61Y-92.43
X110.61Y-94.97
X110.61Y-97.51
X110.61Y-100.05
X110.61Y-102.59
X110.61Y-105.13
X117.3Y-104.79
X119.84Y-104.79
X122.38Y-104.79
X128.39Y-56.87
X128.39Y-59.41
X128.39Y-61.95
X128.39Y-64.49
X128.39Y-67.03
X128.39Y-69.57
X128.39Y-72.11
X128.39Y-74.65
X128.39Y-77.19
X128.39Y-79.73
X128.39Y-82.27
X128.39Y-84.81
X128.39Y-87.35
X128.39Y-89.89
X128.39Y-92.43
X128.39Y-94.97
X128.39Y-97.51
X128.39Y-100.05
X128.39Y-102.59
X128.39Y-105.13
T2
G00X115.18Y-57.205
M15
G01X115.18Y-56.605
M16
G05
G00X115.18Y-61.635
M15
G01X115.18Y-60.535
M16
G05
G00X123.82Y-57.205
M15
G01X123.82Y-56.605
M16
G05
G00X123.82Y-61.635
M15
G01X123.82Y-60.535
M16
G05
M30
