%TF.GenerationSoftware,KiCad,Pcbnew,10.0.5*%
%TF.CreationDate,2026-10-04T00:08:50+05:30*%
%TF.ProjectId,my devboard,6d792064-6576-4626-9f61-72642e6b6963,rev?*%
%TF.SameCoordinates,Original*%
%TF.FileFunction,Paste,Top*%
%TF.FilePolarity,Positive*%
%FSLAX46Y46*%
G04 Gerber Fmt 4.6, Leading zero omitted, Abs format (unit mm)*
G04 Created by KiCad (PCBNEW 10.0.5) date 2026-10-04 00:08:50*
%MOMM*%
%LPD*%
G01*
G04 APERTURE LIST*
G04 Aperture macros list*
%AMRoundRect*
0 Rectangle with rounded corners*
0 $1 Rounding radius*
0 $2 $3 $4 $5 $6 $7 $8 $9 X,Y pos of 4 corners*
0 Add a 4 corners polygon primitive as box body*
4,1,4,$2,$3,$4,$5,$6,$7,$8,$9,$2,$3,0*
0 Add four circle primitives for the rounded corners*
1,1,$1+$1,$2,$3*
1,1,$1+$1,$4,$5*
1,1,$1+$1,$6,$7*
1,1,$1+$1,$8,$9*
0 Add four rect primitives between the rounded corners*
20,1,$1+$1,$2,$3,$4,$5,0*
20,1,$1+$1,$4,$5,$6,$7,0*
20,1,$1+$1,$6,$7,$8,$9,0*
20,1,$1+$1,$8,$9,$2,$3,0*%
G04 Aperture macros list end*
%ADD10RoundRect,0.135000X0.135000X0.185000X-0.135000X0.185000X-0.135000X-0.185000X0.135000X-0.185000X0*%
%ADD11RoundRect,0.135000X-0.185000X0.135000X-0.185000X-0.135000X0.185000X-0.135000X0.185000X0.135000X0*%
%ADD12RoundRect,0.140000X0.170000X-0.140000X0.170000X0.140000X-0.170000X0.140000X-0.170000X-0.140000X0*%
%ADD13RoundRect,0.140000X-0.140000X-0.170000X0.140000X-0.170000X0.140000X0.170000X-0.140000X0.170000X0*%
%ADD14RoundRect,0.140000X-0.170000X0.140000X-0.170000X-0.140000X0.170000X-0.140000X0.170000X0.140000X0*%
%ADD15RoundRect,0.140000X0.140000X0.170000X-0.140000X0.170000X-0.140000X-0.170000X0.140000X-0.170000X0*%
%ADD16RoundRect,0.249999X-0.395001X-0.395001X0.395001X-0.395001X0.395001X0.395001X-0.395001X0.395001X0*%
%ADD17RoundRect,0.050000X-0.387500X-0.050000X0.387500X-0.050000X0.387500X0.050000X-0.387500X0.050000X0*%
%ADD18RoundRect,0.050000X-0.050000X-0.387500X0.050000X-0.387500X0.050000X0.387500X-0.050000X0.387500X0*%
%ADD19RoundRect,0.225000X0.250000X-0.225000X0.250000X0.225000X-0.250000X0.225000X-0.250000X-0.225000X0*%
%ADD20RoundRect,0.225000X0.225000X0.250000X-0.225000X0.250000X-0.225000X-0.250000X0.225000X-0.250000X0*%
%ADD21RoundRect,0.250000X0.450000X0.350000X-0.450000X0.350000X-0.450000X-0.350000X0.450000X-0.350000X0*%
%ADD22RoundRect,0.225000X-0.250000X0.225000X-0.250000X-0.225000X0.250000X-0.225000X0.250000X0.225000X0*%
%ADD23RoundRect,0.140000X0.021213X-0.219203X0.219203X-0.021213X-0.021213X0.219203X-0.219203X0.021213X0*%
%ADD24RoundRect,0.200000X0.800000X-0.200000X0.800000X0.200000X-0.800000X0.200000X-0.800000X-0.200000X0*%
%ADD25RoundRect,0.150000X0.150000X0.575000X-0.150000X0.575000X-0.150000X-0.575000X0.150000X-0.575000X0*%
%ADD26RoundRect,0.075000X0.075000X0.650000X-0.075000X0.650000X-0.075000X-0.650000X0.075000X-0.650000X0*%
%ADD27RoundRect,0.040000X-0.040000X-0.605000X0.040000X-0.605000X0.040000X0.605000X-0.040000X0.605000X0*%
%ADD28RoundRect,0.062500X-0.387500X-0.062500X0.387500X-0.062500X0.387500X0.062500X-0.387500X0.062500X0*%
%ADD29RoundRect,0.150000X0.150000X-0.587500X0.150000X0.587500X-0.150000X0.587500X-0.150000X-0.587500X0*%
G04 APERTURE END LIST*
D10*
%TO.C,R5*%
X118790000Y-90920000D03*
X119810000Y-90920000D03*
%TD*%
D11*
%TO.C,R4*%
X120200000Y-78980000D03*
X120200000Y-80000000D03*
%TD*%
%TO.C,R2*%
X121000000Y-63990000D03*
X121000000Y-65010000D03*
%TD*%
D12*
%TO.C,C10*%
X119000000Y-76480000D03*
X119000000Y-75520000D03*
%TD*%
%TO.C,C11*%
X122300000Y-80330000D03*
X122300000Y-79370000D03*
%TD*%
D13*
%TO.C,C9*%
X125040000Y-86300000D03*
X126000000Y-86300000D03*
%TD*%
D14*
%TO.C,C12*%
X122900000Y-90220000D03*
X122900000Y-91180000D03*
%TD*%
D15*
%TO.C,C17*%
X117480000Y-75000000D03*
X116520000Y-75000000D03*
%TD*%
%TO.C,C4*%
X114960000Y-81470000D03*
X114000000Y-81470000D03*
%TD*%
D16*
%TO.C,U1*%
X118700000Y-84200000D03*
X118700000Y-85800000D03*
X120300000Y-84200000D03*
X120300000Y-85800000D03*
D17*
X116062500Y-82400000D03*
X116062500Y-82800000D03*
X116062500Y-83200000D03*
X116062500Y-83600000D03*
X116062500Y-84000000D03*
X116062500Y-84400000D03*
X116062500Y-84800000D03*
X116062500Y-85200000D03*
X116062500Y-85600000D03*
X116062500Y-86000000D03*
X116062500Y-86400000D03*
X116062500Y-86800000D03*
X116062500Y-87200000D03*
X116062500Y-87600000D03*
D18*
X116900000Y-88437500D03*
X117300000Y-88437500D03*
X117700000Y-88437500D03*
X118100000Y-88437500D03*
X118500000Y-88437500D03*
X118900000Y-88437500D03*
X119300000Y-88437500D03*
X119700000Y-88437500D03*
X120100000Y-88437500D03*
X120500000Y-88437500D03*
X120900000Y-88437500D03*
X121300000Y-88437500D03*
X121700000Y-88437500D03*
X122100000Y-88437500D03*
D17*
X122937500Y-87600000D03*
X122937500Y-87200000D03*
X122937500Y-86800000D03*
X122937500Y-86400000D03*
X122937500Y-86000000D03*
X122937500Y-85600000D03*
X122937500Y-85200000D03*
X122937500Y-84800000D03*
X122937500Y-84400000D03*
X122937500Y-84000000D03*
X122937500Y-83600000D03*
X122937500Y-83200000D03*
X122937500Y-82800000D03*
X122937500Y-82400000D03*
D18*
X122100000Y-81562500D03*
X121700000Y-81562500D03*
X121300000Y-81562500D03*
X120900000Y-81562500D03*
X120500000Y-81562500D03*
X120100000Y-81562500D03*
X119700000Y-81562500D03*
X119300000Y-81562500D03*
X118900000Y-81562500D03*
X118500000Y-81562500D03*
X118100000Y-81562500D03*
X117700000Y-81562500D03*
X117300000Y-81562500D03*
X116900000Y-81562500D03*
%TD*%
D12*
%TO.C,C5*%
X123300000Y-80380000D03*
X123300000Y-79420000D03*
%TD*%
D19*
%TO.C,C16*%
X122800000Y-94745000D03*
X122800000Y-93195000D03*
%TD*%
D11*
%TO.C,R1*%
X118500000Y-63990000D03*
X118500000Y-65010000D03*
%TD*%
D12*
%TO.C,C6*%
X120000000Y-76480000D03*
X120000000Y-75520000D03*
%TD*%
D10*
%TO.C,R6*%
X115000000Y-75000000D03*
X113980000Y-75000000D03*
%TD*%
D20*
%TO.C,C14*%
X116775000Y-65000000D03*
X115225000Y-65000000D03*
%TD*%
D21*
%TO.C,Y1*%
X121000000Y-92420000D03*
X118800000Y-92420000D03*
X118800000Y-94120000D03*
X121000000Y-94120000D03*
%TD*%
D15*
%TO.C,C3*%
X114480000Y-86100000D03*
X113520000Y-86100000D03*
%TD*%
D22*
%TO.C,C15*%
X117000000Y-92645000D03*
X117000000Y-94195000D03*
%TD*%
D20*
%TO.C,C13*%
X117775000Y-71000000D03*
X116225000Y-71000000D03*
%TD*%
D14*
%TO.C,C2*%
X120800000Y-90040000D03*
X120800000Y-91000000D03*
%TD*%
D23*
%TO.C,C1*%
X124500000Y-80339411D03*
X125178822Y-79660589D03*
%TD*%
D24*
%TO.C,SW1*%
X123000000Y-71200000D03*
X123000000Y-67000000D03*
%TD*%
D25*
%TO.C,J1*%
X122750000Y-62000000D03*
X121950000Y-62000000D03*
D26*
X120750000Y-62000000D03*
X119750000Y-62000000D03*
X119250000Y-62000000D03*
X118250000Y-62000000D03*
D25*
X117050000Y-62000000D03*
X116250000Y-62000000D03*
X116250000Y-62000000D03*
X117050000Y-62000000D03*
D26*
X117750000Y-62000000D03*
X118750000Y-62000000D03*
X120250000Y-62000000D03*
X121250000Y-62000000D03*
D25*
X121950000Y-62000000D03*
X122750000Y-62000000D03*
%TD*%
D27*
%TO.C,U3*%
X116000000Y-77250000D03*
D28*
X114575000Y-76500000D03*
X114575000Y-77000000D03*
X114575000Y-77500000D03*
X114575000Y-78000000D03*
X117425000Y-78000000D03*
X117425000Y-77500000D03*
X117425000Y-77000000D03*
X117425000Y-76500000D03*
%TD*%
D29*
%TO.C,U2*%
X116050000Y-68937500D03*
X117950000Y-68937500D03*
X117000000Y-67062500D03*
%TD*%
D13*
%TO.C,C8*%
X124020000Y-81500000D03*
X124980000Y-81500000D03*
%TD*%
D10*
%TO.C,R7*%
X117510000Y-73000000D03*
X116490000Y-73000000D03*
%TD*%
D11*
%TO.C,R3*%
X121300000Y-78980000D03*
X121300000Y-80000000D03*
%TD*%
D12*
%TO.C,C7*%
X121000000Y-76480000D03*
X121000000Y-75520000D03*
%TD*%
M02*
